<?xml version="1.0" encoding="UTF-8" standalone="no"?>
<svg
   xmlns:dc="http://purl.org/dc/elements/1.1/"
   xmlns:cc="http://creativecommons.org/ns#"
   xmlns:rdf="http://www.w3.org/1999/02/22-rdf-syntax-ns#"
   xmlns:svg="http://www.w3.org/2000/svg"
   xmlns="http://www.w3.org/2000/svg"
   xmlns:sodipodi="http://sodipodi.sourceforge.net/DTD/sodipodi-0.dtd"
   xmlns:inkscape="http://www.inkscape.org/namespaces/inkscape"
   width="64.848412mm"
   height="57.765209mm"
   viewBox="0 0 64.848412 57.765209"
   version="1.1"
   id="svg8"
   inkscape:version="1.0.2 (e86c870879, 2021-01-15)"
   sodipodi:docname="logo.svg">
  <defs
     id="defs2" />
  <sodipodi:namedview
     id="base"
     pagecolor="#ffffff"
     bordercolor="#666666"
     borderopacity="1.0"
     inkscape:pageopacity="0.0"
     inkscape:pageshadow="2"
     inkscape:zoom="3.3257988"
     inkscape:cx="163.79583"
     inkscape:cy="138.01405"
     inkscape:document-units="mm"
     inkscape:current-layer="layer1"
     inkscape:document-rotation="0"
     showgrid="false"
     fit-margin-top="0"
     fit-margin-left="0"
     fit-margin-right="0"
     fit-margin-bottom="0"
     inkscape:window-width="1920"
     inkscape:window-height="1155"
     inkscape:window-x="0"
     inkscape:window-y="1245"
     inkscape:window-maximized="0" />
  <metadata
     id="metadata5">
    <rdf:RDF>
      <cc:Work
         rdf:about="">
        <dc:format>image/svg+xml</dc:format>
        <dc:type
           rdf:resource="http://purl.org/dc/dcmitype/StillImage" />
        <dc:title></dc:title>
      </cc:Work>
    </rdf:RDF>
  </metadata>
  <g
     inkscape:label="Layer 1"
     inkscape:groupmode="layer"
     id="layer1"
     transform="translate(-359.96036,-381.66999)">
    <g
       id="g158"
       transform="translate(-78.436098,-17.93888)">
      <path
         style="fill:#d2c98f;stroke-width:0.0846667"
         d="m 443.64531,457.32248 c -0.68051,-0.10086 -1.39268,-0.33243 -2.03001,-0.66008 -0.85423,-0.43916 -2.00312,-1.6091 -2.47118,-2.51646 -0.57166,-1.10819 -0.74297,-1.78528 -0.73903,-2.921 0.004,-1.10545 0.1472,-1.758 0.57664,-2.62466 0.32214,-0.65012 26.35472,-45.72707 26.78187,-46.37439 0.47028,-0.71269 1.4682,-1.58439 2.25545,-1.97016 1.00568,-0.49282 1.60882,-0.62773 2.80625,-0.62773 1.20518,0 1.80024,0.13469 2.83395,0.64146 0.58383,0.28621 0.8597,0.49487 1.48268,1.1214 l 0.76538,0.76975 13.38478,23.19867 c 7.36163,12.75926 13.46205,23.38916 13.5565,23.622 0.29155,0.71878 0.39753,1.3188 0.39627,2.24366 -0.004,2.77397 -1.82892,5.16665 -4.56423,5.98346 -0.48331,0.14433 -1.8227,0.15232 -27.559,0.16441 -14.87805,0.007 -27.24239,-0.0157 -27.47632,-0.0503 z"
         id="path188" />
      <path
         style="fill:#e8d55f;stroke-width:0.0846667"
         d="m 443.11122,457.19112 c -0.68975,-0.14972 -1.78611,-0.68702 -2.4054,-1.17883 -1.18921,-0.94442 -2.04445,-2.49537 -2.26524,-4.10796 -0.14532,-1.06138 0.0751,-2.36678 0.56182,-3.32729 0.42549,-0.83966 26.63746,-46.16615 26.92461,-46.5588 0.92604,-1.26629 2.42658,-2.127 4.10998,-2.35749 2.07935,-0.2847 4.32542,0.6216 5.56592,2.24586 0.21338,0.2794 6.39546,10.9093 13.73795,23.622 10.22123,17.69692 13.40399,23.27274 13.58043,23.79133 0.30751,0.90382 0.37961,2.29671 0.1656,3.19899 -0.54262,2.28769 -2.27088,4.07355 -4.48331,4.63274 -0.663,0.16758 -0.94148,0.16921 -27.81299,0.16254 -22.68918,-0.006 -27.23126,-0.0258 -27.67937,-0.12309 z"
         id="path186" />
      <path
         style="fill:#eed42e;stroke-width:0.0846667"
         d="m 443.22396,457.19565 c -1.87196,-0.4121 -3.40405,-1.66071 -4.22923,-3.4467 -0.45284,-0.9801 -0.57762,-1.62946 -0.53382,-2.77801 0.0293,-0.76914 0.0856,-1.11594 0.26764,-1.651 0.17645,-0.51845 3.36212,-6.09924 13.58074,-23.79133 7.34263,-12.7127 13.52486,-23.3426 13.7383,-23.622 0.69079,-0.90428 1.70106,-1.59868 2.91504,-2.00363 0.51787,-0.17275 0.75293,-0.19735 1.86267,-0.1949 1.14178,0.003 1.33648,0.0252 1.92854,0.22459 1.30225,0.4386 2.44187,1.32059 3.17193,2.45487 0.62657,0.97349 26.54741,45.9055 26.78163,46.42413 0.37434,0.82892 0.5326,1.71647 0.48176,2.70182 -0.0813,1.57669 -0.68273,2.88427 -1.8766,4.08026 -0.5609,0.56189 -0.82993,0.75696 -1.48893,1.07958 -1.44439,0.70712 1.21765,0.64843 -29.06737,0.64088 -22.06052,-0.005 -27.11761,-0.0273 -27.5323,-0.11856 z m 27.22034,-9.64334 c 0,-0.0176 -0.0667,-0.0843 -0.14817,-0.14817 -0.13429,-0.10531 -0.13728,-0.10232 -0.032,0.032 0.11061,0.14103 0.18014,0.18588 0.18014,0.1162 z"
         id="path184" />
      <path
         style="fill:#f3d200;stroke-width:0.0846667"
         d="m 443.50026,457.23395 c -1.67453,-0.28385 -3.32581,-1.43263 -4.19538,-2.91867 -0.99893,-1.70713 -1.13583,-3.78973 -0.36175,-5.50334 0.22983,-0.50877 26.14764,-45.43869 26.76554,-46.3995 1.36382,-2.12068 3.8857,-3.14694 6.44459,-2.62257 1.35273,0.2772 2.90948,1.3161 3.64879,2.43504 0.59373,0.89859 26.76213,46.26441 26.94907,46.71919 0.32344,0.78686 0.48893,1.79553 0.43024,2.62236 -0.18512,2.60799 -1.97447,4.81956 -4.50073,5.56271 -0.48044,0.14133 -1.98022,0.15007 -27.64367,0.1611 -14.92461,0.006 -27.31613,-0.0189 -27.5367,-0.0563 z m 27.2827,-9.51431 c 0,-0.0187 -0.1404,-0.11681 -0.312,-0.21806 -0.23433,-0.13825 -0.28249,-0.14852 -0.19344,-0.0412 0.0652,0.0786 0.19609,0.17428 0.29084,0.21269 0.21654,0.0878 0.2146,0.0874 0.2146,0.0466 z m -0.64811,-0.60468 c -0.0276,-0.0719 -0.0683,-0.11249 -0.0905,-0.0903 -0.0222,0.0222 -0.0152,0.081 0.0155,0.13065 0.0835,0.13508 0.13229,0.10884 0.075,-0.0403 z"
         id="path182" />
      <path
         style="fill:#e8c800;stroke-width:0.0846667"
         d="m 443.79524,455.78823 c -1.7695,-0.29693 -3.06656,-1.42771 -3.68045,-3.20862 -0.26756,-0.7762 -0.26339,-2.019 0.009,-2.79191 0.11513,-0.32626 5.3716,-9.51357 12.98235,-22.69066 15.06767,-26.08786 13.88831,-24.06708 14.32303,-24.54193 0.4584,-0.5007 1.19798,-0.97334 1.89797,-1.21293 0.79966,-0.27369 2.09443,-0.27617 2.95494,-0.006 0.76873,0.24167 1.56452,0.78135 2.05652,1.39469 0.60326,0.75202 26.92707,46.3878 27.16651,47.09672 0.25378,0.75134 0.27916,1.80143 0.0614,2.54 -0.47765,1.62011 -1.5928,2.78168 -3.18259,3.31509 -0.44846,0.15047 -1.45721,0.15668 -27.30499,0.16804 -15.15592,0.007 -27.03293,-0.0207 -27.28406,-0.0628 z m 54.29272,-1.97468 c 0.26662,-0.10269 0.59846,-0.338 0.8964,-0.63562 0.59351,-0.59289 0.83927,-1.19026 0.83927,-2.04007 0,-0.54091 -0.0335,-0.6524 -0.41297,-1.37265 -1.11498,-2.11657 -26.27905,-45.53205 -26.60609,-45.90339 -1.0561,-1.19917 -3.15307,-1.15185 -4.10223,0.0926 -0.12314,0.16144 -6.19946,10.63832 -13.50294,23.28196 -14.08893,24.39048 -13.54964,23.41506 -13.42077,24.27444 0.12438,0.82942 0.80641,1.8152 1.50604,2.17677 0.17308,0.0894 0.51598,0.19639 0.762,0.23764 0.25421,0.0426 11.92329,0.0699 27.03263,0.0632 26.02642,-0.0115 26.59423,-0.0152 27.00866,-0.17486 z m -21.29367,-1.95004 c -0.0698,-0.0169 -0.41275,-0.0764 -0.762,-0.1323 -1.4776,-0.23655 -3.37186,-1.04374 -4.61433,-1.9663 -1.7573,-1.30482 -3.20434,-3.32055 -3.85909,-5.37573 l -0.19521,-0.61276 -4.13235,-4.21237 c -2.27279,-2.3168 -4.13235,-4.23496 -4.13235,-4.26257 0,-0.0276 0.15519,-0.17491 0.34487,-0.32734 l 0.34487,-0.27714 3.40163,3.4609 c 5.41135,5.50563 4.98589,5.03027 5.25406,5.87038 0.6835,2.14121 2.06513,3.98186 3.91431,5.21476 4.08916,2.72635 9.47715,2.13427 12.86504,-1.41373 1.47993,-1.54987 2.3934,-3.40091 2.7079,-5.48727 0.58258,-3.86464 -1.16871,-7.77601 -4.46384,-9.96967 -0.81492,-0.54252 -2.11208,-1.16897 -2.63851,-1.27426 -0.30983,-0.062 -0.46936,-0.21608 -4.88144,-4.71579 l -3.31381,-3.37963 0.33727,-0.33727 0.33728,-0.33727 2.99168,3.04018 c 1.64543,1.6721 3.36666,3.42673 3.82496,3.89918 0.78025,0.80433 0.87454,0.87362 1.48167,1.08879 3.64136,1.2905 6.34592,4.42996 7.18292,8.33798 0.18935,0.88406 0.2137,3.39299 0.0407,4.191 -0.49754,2.29473 -1.41816,4.05315 -2.95118,5.63689 -1.59546,1.64825 -3.46039,2.6799 -5.74069,3.17568 -0.53624,0.11659 -3.03479,0.24036 -3.34434,0.16566 z m 2.74782,-2.03172 c -0.2678,-0.2678 -0.26203,-0.41125 0.0541,-1.34602 0.31053,-0.9181 0.41572,-2.16284 0.25,-2.9584 -0.10164,-0.48794 -0.62059,-1.6117 -0.92248,-1.9976 -0.13254,-0.16943 -0.20591,-0.19321 -0.45305,-0.14685 -0.29156,0.0547 -0.29694,0.0637 -0.47567,0.79484 -0.37768,1.54503 -1.28657,2.91831 -2.50228,3.78081 -0.65268,0.46305 -1.84767,1.06504 -2.11419,1.06504 -0.35059,0 -0.6483,-0.30709 -0.6483,-0.66872 0,-0.37849 0.19234,-0.58367 0.791,-0.84384 0.66492,-0.28896 1.54362,-0.91759 2.00518,-1.43451 0.52262,-0.58531 0.87111,-1.27398 1.10075,-2.17526 l 0.17258,-0.67734 -0.23559,-0.19007 c -0.29329,-0.23665 -0.31349,-0.23629 -0.6434,0.0115 -0.9374,0.70407 -2.34967,1.15223 -3.63096,1.15223 -1.30296,0 -3.04118,-0.43964 -3.39072,-0.85759 -0.33073,-0.39546 -0.0367,-1.08974 0.46157,-1.08974 0.14232,0 0.51103,0.09 0.81935,0.20006 1.77042,0.63182 3.35494,0.48346 4.78458,-0.44798 0.51871,-0.33796 0.54151,-0.36685 0.47432,-0.60113 -0.0981,-0.34194 -0.15746,-0.42095 -0.31641,-0.42095 -0.34182,0 -1.30827,-0.29836 -1.92658,-0.59478 -1.2815,-0.61434 -2.22737,-1.57731 -3.00215,-3.05643 -0.46841,-0.89422 -0.51054,-1.13023 -0.25885,-1.45019 0.39461,-0.50168 0.96605,-0.33197 1.26974,0.37709 0.28884,0.67441 0.89534,1.56961 1.39177,2.05429 0.68004,0.66392 1.46683,1.03596 2.8466,1.34601 0.17997,0.0404 0.24026,0.002 0.3691,-0.23761 l 0.15399,-0.28594 -0.25201,-0.36739 c -1.22358,-1.78378 -1.45292,-3.82389 -0.69038,-6.14131 0.24175,-0.73467 0.43475,-0.95708 0.83058,-0.95708 0.36778,0 0.68594,0.27338 0.68594,0.58937 0,0.1086 -0.12129,0.56335 -0.26953,1.01054 -0.24408,0.73629 -0.26982,0.91306 -0.27247,1.87143 -0.003,1.20343 0.11077,1.61087 0.74097,2.64583 0.28238,0.46375 0.38822,0.57126 0.56135,0.5702 0.35005,-0.002 0.41236,-0.0964 0.62965,-0.95299 0.41465,-1.63463 1.37632,-2.9798 2.76887,-3.87309 1.50686,-0.9666 2.20156,-1.08436 2.43565,-0.41284 0.15213,0.43639 -0.0185,0.65731 -0.84666,1.09643 -1.21756,0.64558 -1.89003,1.21374 -2.40831,2.03475 -0.27967,0.44303 -0.59281,1.26827 -0.69537,1.83257 -0.0762,0.41906 -0.0708,0.43859 0.16792,0.61511 l 0.24659,0.18231 0.52384,-0.34083 c 1.17843,-0.76673 2.15026,-1.0568 3.5295,-1.05346 1.2785,0.003 2.79614,0.3807 3.28084,0.81632 0.27951,0.25121 0.26298,0.74972 -0.0326,0.98221 -0.2926,0.23016 -0.38688,0.22365 -1.31726,-0.0911 -0.92268,-0.3121 -2.15862,-0.41391 -2.97285,-0.24487 -0.48443,0.10057 -1.61046,0.61969 -1.99175,0.91824 -0.16589,0.12989 -0.18824,0.20265 -0.14047,0.45729 l 0.0568,0.30281 0.76757,0.17901 c 1.95577,0.45612 3.43404,1.65465 4.41993,3.58352 0.43949,0.85985 0.48433,1.21315 0.18915,1.49046 -0.24342,0.22868 -0.73873,0.24799 -0.92149,0.0359 -0.0702,-0.0815 -0.31426,-0.50975 -0.54229,-0.9517 -0.52153,-1.01078 -1.41251,-1.95939 -2.22278,-2.36656 -0.44008,-0.22115 -1.62436,-0.59757 -1.88004,-0.59757 -0.0346,0 -0.13871,0.11987 -0.23148,0.26639 l -0.16867,0.26639 0.27577,0.43211 c 0.7858,1.23126 1.09094,2.21692 1.09046,3.52244 -5.1e-4,1.30796 -0.42033,2.98004 -0.84506,3.3655 -0.27988,0.25401 -0.65977,0.24689 -0.92398,-0.0173 z m -0.68053,-7.64347 c 1.25579,-0.88464 0.75412,-2.75483 -0.79471,-2.96257 -0.44393,-0.0595 -1.15309,0.28086 -1.42481,0.68392 -0.25696,0.38118 -0.37995,0.84914 -0.31064,1.18198 0.24954,1.19839 1.57206,1.77162 2.53016,1.09667 z m -10.25615,-3.67784 c -0.6584,-0.14585 -0.70113,-0.27464 -0.70113,-2.11319 v -1.59681 l -0.669,-1.19228 c -0.5723,-1.01995 -0.75599,-1.27063 -1.27091,-1.7344 -0.89332,-0.80456 -1.23542,-0.9419 -1.65742,-0.6654 l -0.2047,0.13413 0.19319,0.53224 c 0.10625,0.29273 0.40493,0.87055 0.66371,1.28404 0.65785,1.05111 0.74379,1.24325 0.74379,1.66297 0,0.42315 -0.19511,0.68849 -0.64427,0.87616 -0.37503,0.1567 -0.50756,0.14899 -0.92661,-0.0539 -0.31292,-0.15149 -0.53233,-0.43599 -1.87718,-2.43417 l -1.52285,-2.26263 0.19506,-1.69333 c 0.10728,-0.93134 0.19703,-1.77265 0.19945,-1.86959 0.002,-0.0969 -0.47185,-0.84456 -1.05393,-1.6614 -0.58208,-0.81683 -1.05833,-1.52941 -1.05833,-1.5835 0,-0.15652 3.56795,-6.28358 3.64294,-6.25585 0.10119,0.0374 1.90453,2.18478 4.8112,5.72906 1.42717,1.74023 2.67106,3.25167 2.76419,3.35876 0.10107,0.11621 1.26074,0.67281 2.87664,1.3807 1.48902,0.6523 2.71927,1.22187 2.73388,1.26572 0.0146,0.0439 -0.10042,0.24661 -0.25564,0.45058 -0.48588,0.63849 -0.52983,0.6375 -2.98422,-0.0675 -0.0931,-0.0267 0.28105,0.41292 0.83152,0.97704 0.70662,0.72417 0.98859,1.06953 0.95917,1.17483 -0.0229,0.082 -0.0889,0.48251 -0.14665,0.88997 -0.0577,0.40746 -0.12277,0.74083 -0.14454,0.74083 -0.0218,0 -0.29933,-0.24504 -0.61681,-0.54454 -0.64448,-0.60797 -2.55899,-2.16479 -2.66217,-2.16479 -0.0365,0 0.30128,0.37894 0.7507,0.84208 0.53557,0.55193 0.81898,0.9093 0.82253,1.03717 0.003,0.10729 9e-4,0.54006 -0.005,0.96169 -0.009,0.71445 0.0104,0.80935 0.29092,1.39461 0.16553,0.3454 0.30096,0.69868 0.30096,0.78507 0,0.0864 -0.11137,0.26844 -0.24749,0.40456 -0.53308,0.53308 -1.15014,0.17832 -1.60985,-0.92555 -0.22059,-0.5297 -0.25932,-0.73088 -0.25932,-1.34711 v -0.72442 l -1.03283,-1.04472 c -0.56806,-0.57459 -1.06336,-1.04472 -1.10067,-1.04472 -0.1324,0 -0.0627,0.33248 0.36609,1.74522 l 0.43392,1.42978 -0.10423,1.94734 c -0.0573,1.07103 -0.10972,1.95212 -0.11642,1.95798 -0.0825,0.0721 -0.42296,0.0804 -0.70806,0.0172 z m 7.82136,-3.9367 c -0.10942,-1.15878 -0.14481,-1.08316 0.58158,-1.24278 0.86755,-0.19063 1.08203,-0.1784 1.38809,0.0791 0.21913,0.18438 0.2605,0.27911 0.2605,0.59651 0,0.63441 -0.2919,0.80455 -1.87093,1.09048 l -0.30461,0.0552 z"
         id="path180" />
      <path
         style="fill:#cfb300;stroke-width:0.0846667"
         d="m 443.9013,455.79397 c -1.9631,-0.26072 -3.5129,-1.76632 -3.91403,-3.80241 -0.17318,-0.87903 -0.0662,-1.7975 0.30081,-2.5817 0.26069,-0.55708 26.26142,-45.60344 26.74777,-46.3406 1.61958,-2.45482 5.545,-2.60103 7.34685,-0.27365 0.37469,0.48397 26.75563,46.10449 27.00257,46.69549 0.22322,0.53426 0.31358,1.04888 0.31187,1.77618 -0.005,1.93134 -1.33487,3.74089 -3.22207,4.38275 l -0.55644,0.18925 -26.75467,0.0111 c -14.71506,0.006 -26.98326,-0.0193 -27.26266,-0.0564 z m 53.68428,-1.86623 c 0.90631,-0.16452 1.62887,-0.7524 2.04681,-1.6653 0.24432,-0.53367 0.28944,-1.29281 0.10947,-1.84183 -0.10436,-0.31838 -26.42207,-45.96755 -26.78205,-46.45461 -0.93624,-1.26671 -3.1926,-1.30408 -4.20957,-0.0697 -0.44837,0.54421 -26.67456,45.997 -26.8666,46.56268 -0.49128,1.44716 0.59553,3.21339 2.13792,3.47444 0.63317,0.10717 52.97297,0.10164 53.56402,-0.006 z m -21.29929,-2.14983 c -4.10031,-0.68151 -7.4003,-3.46044 -8.6932,-7.32057 l -0.23913,-0.71394 -4.12451,-4.19673 -4.12452,-4.19673 0.3261,-0.32783 0.3261,-0.32784 2.90941,2.9529 c 5.954,6.04296 5.52509,5.5726 5.74145,6.29644 1.00605,3.36578 3.86359,5.99482 7.3703,6.78093 4.23816,0.95008 8.66821,-0.99642 10.90449,-4.79126 1.831,-3.1071 1.81342,-7.09374 -0.0452,-10.24467 -0.83109,-1.40897 -2.12048,-2.72085 -3.48487,-3.54566 -0.58847,-0.35575 -0.94797,-0.52381 -2.39194,-1.11822 -0.32423,-0.13347 -1.0759,-0.85764 -4.25402,-4.09835 l -3.86022,-3.93622 0.3193,-0.3193 0.3193,-0.3193 2.49755,2.51986 c 1.37365,1.38592 3.10401,3.13837 3.84525,3.89432 1.17372,1.19702 1.40299,1.39238 1.77585,1.51322 0.66497,0.2155 1.88348,0.82329 2.62947,1.31157 0.85093,0.55696 2.4168,2.1114 2.98946,2.96764 0.85036,1.27146 1.43917,2.65736 1.76561,4.15574 0.21192,0.97269 0.21511,3.29716 0.006,4.26952 -0.48813,2.26843 -1.47789,4.10134 -3.05622,5.65973 -1.63185,1.61122 -3.41777,2.57755 -5.64173,3.05261 -0.88456,0.18895 -2.90525,0.23252 -3.81,0.0821 z m 3.25582,-1.94612 c -0.26746,-0.26746 -0.26224,-0.38419 0.0596,-1.33253 0.21818,-0.64287 0.2747,-0.96304 0.30691,-1.73855 0.0355,-0.85374 0.017,-1.02193 -0.18145,-1.651 -0.12151,-0.38524 -0.3759,-0.94322 -0.56531,-1.23996 -0.33641,-0.52704 -0.35139,-0.5384 -0.64681,-0.49046 -0.16633,0.027 -0.31625,0.0629 -0.33316,0.0798 -0.0169,0.0169 -0.12273,0.3934 -0.23517,0.83665 -0.51373,2.02515 -1.72824,3.44393 -3.79665,4.43519 -0.33588,0.16096 -0.69922,0.29266 -0.80742,0.29266 -0.29712,0 -0.61238,-0.36176 -0.61238,-0.7027 0,-0.35103 0.153,-0.49981 0.85575,-0.83216 1.15415,-0.54583 2.0931,-1.39234 2.60068,-2.34466 0.23355,-0.43818 0.60757,-1.61671 0.60757,-1.91444 0,-0.0518 -0.12995,-0.16418 -0.28877,-0.24972 l -0.28878,-0.15552 -0.39494,0.27173 c -0.58358,0.40151 -1.58989,0.84307 -2.23102,0.97896 -0.67201,0.14243 -1.94546,0.15821 -2.57082,0.0319 -0.85854,-0.17347 -2.01047,-0.59392 -2.14212,-0.78188 -0.19009,-0.27139 -0.15667,-0.62938 0.0809,-0.86698 0.26737,-0.26738 0.41015,-0.26195 1.39209,0.0528 1.78422,0.57201 3.3736,0.37684 4.77327,-0.58616 0.32911,-0.22643 0.36799,-0.28654 0.3342,-0.51675 -0.048,-0.32685 -0.0709,-0.3402 -0.98047,-0.57076 -1.95618,-0.49587 -3.31439,-1.62811 -4.32883,-3.60862 -0.21014,-0.41027 -0.38208,-0.83677 -0.38208,-0.94778 0,-0.31401 0.34882,-0.66282 0.66284,-0.66282 0.3448,0 0.55691,0.19958 0.81783,0.76948 0.50598,1.10522 1.34232,2.0946 2.19106,2.59199 0.40333,0.23637 1.4464,0.60066 1.91863,0.67008 0.26279,0.0386 0.31934,0.0125 0.47049,-0.21748 l 0.1718,-0.2614 -0.2922,-0.42873 c -0.74738,-1.09658 -1.11524,-2.27545 -1.11298,-3.5668 0.002,-1.26216 0.40485,-2.90627 0.81128,-3.3127 0.27903,-0.27903 0.72811,-0.26614 0.95911,0.0275 0.20975,0.26666 0.2213,0.52013 0.043,0.9438 -0.40364,0.95908 -0.5618,2.39143 -0.36853,3.33745 0.10098,0.4943 0.65321,1.67551 0.94808,2.02793 0.17367,0.20756 0.2099,0.2172 0.47752,0.127 0.271,-0.0913 0.29664,-0.13294 0.39924,-0.64793 0.31429,-1.57765 1.24204,-3.02289 2.5285,-3.93888 0.68804,-0.48991 1.8337,-1.05646 2.13634,-1.05646 0.33917,0 0.61532,0.31005 0.61532,0.69084 0,0.37053 -0.0908,0.45146 -1.06795,0.9515 -0.90467,0.46297 -1.70543,1.15239 -2.16579,1.86466 -0.30557,0.47278 -0.65838,1.41811 -0.77731,2.08281 -0.0492,0.27479 -0.0307,0.31035 0.23625,0.4541 0.28825,0.15523 0.29092,0.15499 0.5717,-0.0514 1.12531,-0.82736 2.88917,-1.34456 4.12112,-1.20841 1.19438,0.13199 2.53159,0.51786 2.87082,0.82841 0.26334,0.24108 0.25536,0.68038 -0.0173,0.95306 -0.25083,0.25083 -0.41162,0.25784 -0.99551,0.0434 -0.83523,-0.30675 -1.4838,-0.42825 -2.28603,-0.42825 -0.91446,0 -1.46081,0.13498 -2.26798,0.56031 -0.87927,0.46333 -0.96442,0.54906 -0.89785,0.90394 0.0543,0.28939 0.0785,0.30738 0.54084,0.40295 1.33239,0.27536 2.53009,0.91131 3.37668,1.79294 0.83188,0.86632 1.72167,2.36911 1.72167,2.90779 0,0.2777 -0.35549,0.62874 -0.63672,0.62874 -0.36579,0 -0.55357,-0.15948 -0.7736,-0.657 -0.53814,-1.21682 -1.51472,-2.32487 -2.4773,-2.81078 -0.42936,-0.21674 -1.61788,-0.59622 -1.86734,-0.59622 -0.0304,0 -0.1399,0.11457 -0.24343,0.2546 l -0.18824,0.2546 0.42891,0.7019 c 0.79191,1.29591 1.09753,2.63196 0.92653,4.05048 -0.11812,0.97992 -0.53203,2.31067 -0.80296,2.5816 -0.2672,0.26719 -0.65973,0.26396 -0.93137,-0.008 z m -0.98942,-7.45855 c 1.44122,-0.60218 1.32534,-2.6891 -0.17169,-3.09221 -1.60112,-0.43114 -2.75059,1.55136 -1.57886,2.72309 0.48342,0.48342 1.14375,0.62266 1.75055,0.36912 z m -10.2441,-3.98027 c -0.12689,-0.0689 -0.26976,-0.19818 -0.3175,-0.28738 -0.0504,-0.0942 -0.0868,-0.82516 -0.0868,-1.74292 v -1.58075 l -0.68682,-1.22173 c -0.57385,-1.02078 -0.7764,-1.30133 -1.23145,-1.70566 -0.88219,-0.78386 -1.32764,-0.9476 -1.71801,-0.6315 l -0.18371,0.14876 0.1925,0.50741 c 0.10587,0.27908 0.41734,0.86577 0.69215,1.30376 0.86078,1.37191 0.94074,1.78268 0.43911,2.25578 -0.51937,0.48982 -1.12512,0.46401 -1.62454,-0.0692 -0.14092,-0.15047 -0.883,-1.20703 -1.64907,-2.34791 l -1.39285,-2.07433 0.20227,-1.87136 0.20228,-1.87137 -1.0718,-1.49588 c -0.5895,-0.82274 -1.05964,-1.5462 -1.04477,-1.6077 0.0149,-0.0615 0.82347,-1.49007 1.79688,-3.17461 1.73243,-2.99806 1.77333,-3.05963 1.93552,-2.91327 0.22856,0.20625 2.66893,3.1232 5.11887,6.11852 1.12359,1.37372 2.15049,2.62023 2.282,2.77004 0.18754,0.21364 0.82096,0.52773 2.9375,1.45662 1.48412,0.65134 2.71719,1.20304 2.74016,1.22601 0.082,0.082 -0.34562,0.6637 -0.60369,0.82107 -0.35275,0.2151 -0.44533,0.20744 -1.6362,-0.13541 -0.56612,-0.16298 -1.05465,-0.29633 -1.08561,-0.29633 -0.031,0 0.38048,0.46673 0.91434,1.03717 l 0.97065,1.03716 -0.12712,0.84667 c -0.0699,0.46567 -0.14189,0.86362 -0.15993,0.88435 -0.018,0.0207 -0.2889,-0.21496 -0.6019,-0.52373 -0.62022,-0.61183 -2.55052,-2.18029 -2.68378,-2.1807 -0.0455,-1.7e-4 0.20567,0.29502 0.5581,0.65591 1.04166,1.06668 1.01559,1.01339 1.00233,2.04821 -0.0108,0.84467 0.004,0.92619 0.26435,1.47856 0.34916,0.74012 0.35558,1.02835 0.0288,1.29599 -0.55281,0.45283 -1.15899,0.0357 -1.58191,-1.08846 -0.1855,-0.4931 -0.23398,-0.76412 -0.23283,-1.3014 l 0.001,-0.6786 -1.03839,-1.0359 c -0.57111,-0.56974 -1.06641,-1.0359 -1.10067,-1.0359 -0.13207,0 -0.047,0.41512 0.37106,1.8114 l 0.43333,1.44717 -0.0955,1.65155 c -0.0525,0.90835 -0.0951,1.77538 -0.0947,1.92672 8.5e-4,0.27241 -0.003,0.27513 -0.40135,0.27177 -0.22119,-0.002 -0.50598,-0.0597 -0.63287,-0.12858 z m 8.1178,-3.8945 c -0.0932,-1.10225 -0.14298,-1.00587 0.60267,-1.16611 0.91862,-0.1974 1.09012,-0.18422 1.38041,0.10607 0.1896,0.18959 0.24749,0.32534 0.24749,0.5803 0,0.61471 -0.26509,0.76501 -1.91307,1.08465 l -0.26207,0.0508 z"
         id="path178" />
      <path
         style="fill:#ab9400;stroke-width:0.0846667"
         d="m 443.27516,455.66296 c -0.71638,-0.19265 -1.27072,-0.53298 -1.93371,-1.18719 -1.37949,-1.36122 -1.7913,-3.2271 -1.09122,-4.94416 0.26248,-0.64377 26.56519,-46.16029 27.0044,-46.7308 0.44935,-0.58366 1.36642,-1.21176 2.13102,-1.45952 1.14891,-0.3723 2.57,-0.22893 3.70623,0.3739 1.13021,0.59963 0.32649,-0.7224 14.76296,24.28345 7.27076,12.59388 13.29588,23.05037 13.38916,23.23664 0.41992,0.83845 0.5641,2.07204 0.35132,3.00566 -0.26379,1.1574 -1.37352,2.59695 -2.37545,3.08147 -1.04906,0.5073 1.03911,0.47293 -28.43691,0.46796 -23.36202,-0.004 -27.11329,-0.0213 -27.5078,-0.12741 z m 54.94544,-1.90739 c 1.39187,-0.65278 2.0425,-2.37848 1.38901,-3.68416 -0.53611,-1.07114 -26.51385,-45.95494 -26.77566,-46.26242 -0.15254,-0.17915 -0.49544,-0.43282 -0.762,-0.56372 -0.42225,-0.20735 -0.58277,-0.23799 -1.24665,-0.23799 -0.66439,0 -0.82426,0.0306 -1.24798,0.23864 -0.26729,0.13126 -0.62355,0.39796 -0.79169,0.59267 -0.38926,0.45078 -26.66911,45.92259 -26.88357,46.51641 -0.51319,1.42099 0.3971,3.13019 1.88002,3.53002 0.39721,0.10709 4.00304,0.12134 27.21255,0.10752 l 26.75466,-0.0159 z m -21.87774,-1.9801 c -2.55934,-0.41837 -4.61739,-1.50423 -6.37708,-3.36468 -1.05117,-1.11135 -1.96956,-2.6633 -2.40372,-4.06194 l -0.19323,-0.62247 -4.12856,-4.18822 -4.12856,-4.18822 0.31112,-0.32575 0.31113,-0.32575 4.20981,4.26275 4.20981,4.26275 0.26831,0.80434 c 0.75278,2.25673 2.10847,4.03868 4.04105,5.31168 2.55162,1.68075 5.80572,2.08055 8.78744,1.07962 3.44598,-1.15678 6.08518,-4.28784 6.67384,-7.91763 0.71905,-4.43387 -1.52912,-8.78608 -5.58493,-10.81181 -0.37216,-0.18588 -0.93321,-0.42244 -1.24678,-0.52569 l -0.57011,-0.18772 -3.93395,-3.99406 -3.93395,-3.99406 0.31306,-0.32487 0.31307,-0.32488 3.89466,3.93205 c 3.69806,3.73354 3.91818,3.93968 4.36034,4.08335 0.77078,0.25044 2.19793,1.02025 2.97114,1.60265 5.41951,4.08209 5.9937,11.91797 1.22291,16.68876 -1.57848,1.57848 -3.45867,2.58749 -5.67572,3.04589 -0.9435,0.19508 -2.77735,0.23654 -3.7111,0.0839 z m 3.23892,-1.98335 c -0.13612,-0.13611 -0.24749,-0.29834 -0.24749,-0.36049 0,-0.0621 0.11301,-0.44526 0.25114,-0.85135 0.62136,-1.82687 0.47222,-3.34038 -0.47301,-4.80023 -0.28844,-0.44546 -0.35349,-0.50043 -0.53987,-0.45609 -0.36627,0.0871 -0.50826,0.19609 -0.50826,0.39007 0,0.29857 -0.31091,1.30545 -0.57756,1.87043 -0.64029,1.35664 -2.06007,2.63935 -3.62393,3.27408 -0.44464,0.18046 -0.48302,0.18315 -0.75591,0.053 -0.32335,-0.15419 -0.44572,-0.45977 -0.32437,-0.81001 0.0575,-0.16592 0.29368,-0.33477 0.94842,-0.67805 1.65336,-0.86683 2.584,-2.01088 2.94096,-3.61537 0.12183,-0.54759 0.12618,-0.66029 0.0276,-0.71699 -0.0643,-0.037 -0.1889,-0.12088 -0.27688,-0.1864 -0.143,-0.10648 -0.20589,-0.0879 -0.59267,0.17523 -0.6384,0.4343 -1.36427,0.75507 -2.16924,0.95863 -1.24102,0.31383 -2.97669,0.13491 -4.32719,-0.44606 -0.6543,-0.28147 -0.77438,-0.94518 -0.22662,-1.25263 0.19393,-0.10884 0.27956,-0.11113 0.59155,-0.0158 1.31493,0.4018 1.84804,0.51033 2.52718,0.51445 0.89812,0.005 1.54852,-0.15931 2.36729,-0.59968 0.86456,-0.465 0.915,-0.51776 0.85397,-0.89322 l -0.0504,-0.31009 -0.71929,-0.15283 c -0.88102,-0.18719 -2.06027,-0.75609 -2.72819,-1.31618 -0.26671,-0.22364 -0.69124,-0.66717 -0.94341,-0.98563 -0.50212,-0.6341 -1.23872,-2.01649 -1.23869,-2.32467 2e-5,-0.29501 0.36287,-0.60998 0.70271,-0.60998 0.34461,0 0.45891,0.11752 0.82338,0.84666 0.87535,1.75117 1.91404,2.62591 3.63006,3.05709 0.58774,0.14769 0.72263,0.15873 0.77737,0.0636 0.0364,-0.0633 0.11997,-0.18722 0.18564,-0.27542 0.10756,-0.14444 0.076,-0.22951 -0.3182,-0.85738 -0.82422,-1.31283 -1.15048,-2.91607 -0.89766,-4.41108 0.14988,-0.8863 0.58366,-2.12777 0.79524,-2.27596 0.27139,-0.19009 0.62938,-0.15667 0.86699,0.0809 0.26732,0.26733 0.26219,0.3838 -0.0587,1.33253 -0.30862,0.91238 -0.41372,2.15952 -0.2489,2.95344 0.16993,0.81855 0.9807,2.31305 1.21572,2.24095 0.0572,-0.0176 0.20883,-0.0549 0.33689,-0.0829 0.16994,-0.0372 0.23283,-0.10251 0.23283,-0.24161 0,-0.34878 0.34431,-1.44933 0.64462,-2.06044 0.38667,-0.78687 1.05592,-1.58957 1.77987,-2.13479 0.69597,-0.52414 1.96537,-1.19896 2.25538,-1.19896 0.3222,0 0.65413,0.30669 0.65413,0.60438 0,0.39508 -0.14177,0.57091 -0.63692,0.78989 -1.62409,0.71824 -2.79923,1.97962 -3.20125,3.43616 -0.26423,0.95732 -0.25999,1.03933 0.0627,1.21314 l 0.28898,0.15563 0.36739,-0.25201 c 0.60835,-0.41729 1.40617,-0.78431 2.0909,-0.96187 0.74785,-0.19392 2.00671,-0.22913 2.77376,-0.0776 0.8264,0.16328 1.83066,0.52349 2.03826,0.73109 0.33872,0.33872 0.23096,0.85978 -0.21611,1.04496 -0.21686,0.0898 -0.3447,0.0703 -0.99807,-0.15245 -1.86462,-0.63568 -3.32913,-0.49944 -4.80927,0.44739 -0.4743,0.3034 -0.48855,0.32327 -0.44123,0.61489 0.0269,0.16575 0.0627,0.31519 0.0796,0.33209 0.0169,0.0169 0.39854,0.12404 0.84807,0.23807 1.96355,0.4981 3.35971,1.66266 4.34514,3.62436 0.20421,0.40652 0.3713,0.83688 0.3713,0.95634 0,0.28122 -0.35378,0.63285 -0.63672,0.63285 -0.37776,0 -0.52169,-0.14367 -0.87483,-0.87327 -0.82498,-1.70439 -1.93394,-2.65218 -3.57386,-3.05442 -0.74933,-0.1838 -0.7798,-0.17893 -0.9586,0.15309 -0.15538,0.28852 -0.15521,0.29025 0.0562,0.5715 0.33906,0.45111 0.80504,1.44649 0.99054,2.11588 0.34343,1.23929 0.16892,3.16148 -0.40754,4.4891 -0.27297,0.62865 -0.69739,0.75358 -1.12101,0.32996 z m -1.02909,-7.41888 c 1.15166,-0.4812 1.39381,-1.97686 0.4488,-2.77204 -0.76463,-0.64339 -1.93503,-0.44408 -2.47144,0.42088 -0.30871,0.4978 -0.28554,1.2459 0.0537,1.73407 0.45585,0.65595 1.26727,0.91026 1.96893,0.61709 z m -10.18273,-3.94657 c -0.43905,-0.24145 -0.46176,-0.3423 -0.46398,-2.06073 l -0.002,-1.60866 -0.63968,-1.143 c -0.68442,-1.22295 -0.97949,-1.58648 -1.76106,-2.16974 -0.54931,-0.40993 -0.92063,-0.4768 -1.23334,-0.2221 l -0.18191,0.14817 0.1734,0.50261 c 0.0954,0.27643 0.4182,0.88661 0.7174,1.35596 0.61355,0.96244 0.72426,1.20807 0.72426,1.60686 0,0.36274 -0.24912,0.67136 -0.68165,0.84442 -0.43379,0.17357 -0.8785,0.0747 -1.19548,-0.26566 -0.11994,-0.12881 -0.85785,-1.18284 -1.6398,-2.34229 l -1.42172,-2.10811 0.19543,-1.87957 0.19543,-1.87957 -1.0462,-1.47332 c -0.57541,-0.81033 -1.0461,-1.53048 -1.04598,-1.60033 1.7e-4,-0.10176 3.08519,-5.54368 3.47099,-6.12277 0.0918,-0.13776 0.21015,-0.0276 1.13684,1.05833 0.56891,0.66666 2.28857,2.74536 3.82146,4.61934 2.06186,2.52066 2.86911,3.44833 3.10237,3.56519 0.17342,0.0869 1.42758,0.64566 2.78702,1.24174 l 2.47172,1.08377 -0.13041,0.25217 c -0.18799,0.36353 -0.51788,0.6416 -0.82283,0.69356 -0.17197,0.0293 -0.6579,-0.0703 -1.38564,-0.28413 l -1.12079,-0.32925 0.24683,0.30719 c 0.13576,0.16896 0.58445,0.64131 0.9971,1.04966 l 0.75028,0.74247 -0.1239,0.84503 c -0.0682,0.46477 -0.15151,0.84503 -0.18524,0.84503 -0.0337,0 -0.34143,-0.25958 -0.68375,-0.57686 -0.79173,-0.7338 -2.43107,-2.0478 -2.55482,-2.0478 -0.0519,0 0.11602,0.21907 0.37306,0.48683 0.25704,0.26776 0.63063,0.67054 0.83019,0.89507 l 0.36284,0.40824 -0.0235,0.94643 c -0.0229,0.92057 -0.0161,0.9606 0.24666,1.4649 0.3109,0.59667 0.34297,0.97505 0.10298,1.21504 -0.49172,0.49172 -1.00454,0.2433 -1.48113,-0.71751 -0.30811,-0.62116 -0.33858,-0.74477 -0.36738,-1.49042 l -0.0314,-0.81308 -1.08116,-1.07876 c -0.85382,-0.85192 -1.08961,-1.04591 -1.12137,-0.92258 -0.0221,0.0859 0.16303,0.82292 0.41145,1.63784 l 0.45168,1.48166 -0.0997,1.9685 -0.0997,1.9685 -0.38724,-0.003 c -0.21298,-10e-4 -0.46343,-0.0445 -0.55657,-0.0957 z m 8.05192,-4.05729 c -0.0324,-0.42951 -0.0286,-0.80914 0.009,-0.84362 0.0892,-0.0828 1.22499,-0.33482 1.50891,-0.33482 0.33401,0 0.71761,0.42301 0.71761,0.79133 0,0.51463 -0.30053,0.76697 -1.11844,0.93908 -0.38604,0.0812 -0.78195,0.16598 -0.87979,0.18833 -0.16777,0.0383 -0.18125,-0.004 -0.23685,-0.7403 z"
         id="path176" />
      <path
         style="fill:#998400;stroke-width:0.0846667"
         d="m 443.38042,455.67673 c -1.47001,-0.35657 -2.75361,-1.60983 -3.25881,-3.18179 -0.25736,-0.80081 -0.24616,-1.88305 0.0276,-2.667 0.13677,-0.39161 4.71056,-8.39043 13.48306,-23.57966 7.30185,-12.64285 13.37026,-23.1128 13.48536,-23.26655 0.89947,-1.20149 2.1945,-1.82924 3.74998,-1.81777 1.36792,0.0101 2.45277,0.48981 3.34433,1.47886 0.31065,0.34462 3.95986,6.59444 13.70966,23.47989 7.30748,12.65565 13.38098,23.24283 13.49665,23.52708 0.1594,0.39168 0.21966,0.72183 0.24888,1.36349 0.0342,0.75009 0.0133,0.92178 -0.18303,1.50524 -0.42388,1.25986 -1.24019,2.25908 -2.27036,2.77911 -1.06685,0.53854 1.15872,0.50001 -28.42742,0.49211 -21.26336,-0.006 -27.06201,-0.0296 -27.40592,-0.11301 z m 54.94856,-1.98374 c 1.29153,-0.63583 1.90019,-2.24504 1.33379,-3.52638 -0.29457,-0.66639 -26.45645,-45.89719 -26.76315,-46.27033 -0.1827,-0.22228 -0.5188,-0.48682 -0.80676,-0.635 -0.4475,-0.23028 -0.56926,-0.25396 -1.30391,-0.25359 -0.71421,3.5e-4 -0.86053,0.0271 -1.23365,0.22551 -0.23284,0.12382 -0.56212,0.37128 -0.73175,0.54993 -0.37935,0.39954 -26.80654,46.13258 -26.96791,46.66879 -0.42102,1.39893 0.4959,3.06995 1.89091,3.44606 0.33218,0.0896 5.42902,0.10725 27.20753,0.0944 l 26.79879,-0.0158 z m -21.65064,-1.88049 c -4.1244,-0.47882 -7.63539,-3.29788 -9.02474,-7.24619 l -0.30479,-0.86615 -4.08259,-4.14559 c -2.24543,-2.28007 -4.08259,-4.17997 -4.08259,-4.222 0,-0.042 0.12694,-0.19945 0.2821,-0.34983 l 0.28209,-0.27342 4.20432,4.26803 4.20431,4.26802 0.24955,0.76365 c 0.53228,1.62882 1.37015,2.98255 2.54999,4.11991 1.53699,1.48167 3.32192,2.38513 5.36776,2.71695 3.67091,0.5954 7.45208,-0.90958 9.66247,-3.84585 2.40386,-3.19326 2.74451,-7.37264 0.88859,-10.90192 -1.21496,-2.31042 -3.32791,-4.12095 -5.7739,-4.94749 l -0.60175,-0.20334 -3.86326,-3.92441 c -2.1248,-2.15842 -3.87394,-3.96911 -3.88697,-4.02376 -0.013,-0.0546 0.10367,-0.22282 0.25935,-0.37371 l 0.28305,-0.27435 3.86043,3.92257 c 3.39321,3.44783 3.90491,3.9356 4.22798,4.03028 0.60916,0.17853 1.91629,0.82766 2.6451,1.31358 1.39444,0.92971 2.87842,2.56487 3.62841,3.99804 0.90595,1.73121 1.27489,3.23782 1.28264,5.23776 0.006,1.47311 -0.15733,2.47976 -0.60221,3.71845 -1.72134,4.79278 -6.60551,7.82702 -11.65534,7.24077 z m 2.90344,-2.02038 c -0.30084,-0.30084 -0.30243,-0.34839 -0.0352,-1.05836 0.69949,-1.85838 0.53855,-3.51567 -0.49134,-5.05965 -0.23964,-0.35925 -0.28865,-0.39193 -0.52188,-0.34792 -0.3723,0.0703 -0.44376,0.15351 -0.50979,0.59379 -0.2014,1.34305 -1.07834,2.83703 -2.1842,3.72108 -0.96529,0.77167 -2.27624,1.44332 -2.61022,1.33732 -0.4108,-0.13038 -0.61115,-0.60275 -0.41283,-0.97332 0.0473,-0.0884 0.47307,-0.35956 0.94612,-0.60255 0.95206,-0.48904 1.81381,-1.22423 2.2721,-1.93841 0.29693,-0.46273 0.63227,-1.37943 0.71407,-1.95201 0.0503,-0.35209 0.038,-0.38251 -0.22085,-0.54733 l -0.27412,-0.17452 -0.6971,0.43766 c -0.39398,0.24734 -1.02197,0.54413 -1.44418,0.68251 -0.66997,0.21959 -0.86068,0.24474 -1.84774,0.24366 -0.87811,-9.6e-4 -1.24407,-0.0402 -1.80986,-0.19385 -0.92932,-0.25245 -1.46148,-0.514 -1.61562,-0.79407 -0.1117,-0.20296 -0.10978,-0.25902 0.018,-0.52694 0.20842,-0.43706 0.43007,-0.45787 1.39926,-0.13138 0.68552,0.23093 0.98545,0.28362 1.79657,0.31562 0.87883,0.0347 1.03632,0.0174 1.61683,-0.17775 0.63493,-0.21339 1.57129,-0.70653 1.74968,-0.92146 0.055,-0.0663 0.0678,-0.22775 0.0319,-0.40321 -0.0562,-0.27452 -0.0885,-0.29844 -0.52264,-0.3864 -2.19794,-0.44531 -3.78255,-1.71139 -4.82002,-3.85112 -0.37521,-0.77385 -0.38965,-1.02263 -0.0748,-1.28907 0.0963,-0.0815 0.29833,-0.14816 0.44894,-0.14816 0.34399,0 0.43336,0.10432 0.94279,1.10066 0.75548,1.47756 1.89319,2.41401 3.40151,2.79977 0.82403,0.21076 0.81964,0.21121 1.02064,-0.10625 l 0.17084,-0.26981 -0.24486,-0.35589 c -0.35374,-0.51415 -0.80217,-1.43865 -0.98245,-2.02548 -0.12182,-0.39654 -0.15467,-0.76808 -0.14973,-1.69334 0.006,-1.03429 0.0354,-1.28051 0.23424,-1.93229 0.31022,-1.01677 0.51451,-1.39645 0.78834,-1.46518 0.30935,-0.0776 0.63592,0.0563 0.785,0.32188 0.11634,0.20727 0.10452,0.29019 -0.15666,1.09955 -0.36044,1.11694 -0.45109,2.45463 -0.22044,3.25309 0.1608,0.55666 0.62017,1.47824 0.91281,1.83128 0.1663,0.20061 0.22778,0.2216 0.4862,0.16596 0.19999,-0.043 0.30442,-0.11745 0.32237,-0.22965 0.26587,-1.66175 1.0981,-3.1796 2.251,-4.10541 0.577,-0.46336 1.756,-1.15297 2.19917,-1.28633 0.40024,-0.12044 0.72739,0.0259 0.85236,0.38122 0.15559,0.44242 -0.01,0.65232 -0.84682,1.07613 -1.70919,0.86519 -2.58584,1.89673 -3.00511,3.53608 -0.0901,0.35224 -0.1638,0.68548 -0.1638,0.74055 0,0.0551 0.12778,0.16894 0.28396,0.25304 l 0.28395,0.15292 0.39976,-0.27504 c 0.55965,-0.38505 1.54539,-0.82648 2.17926,-0.97591 0.68526,-0.16155 2.05985,-0.16186 2.82099,-6e-4 0.90441,0.19158 1.66325,0.46789 1.87986,0.6845 0.32827,0.32827 0.23303,0.80488 -0.20777,1.03969 -0.16092,0.0857 -0.32238,0.0602 -1.00634,-0.15886 -1.96622,-0.62984 -3.35254,-0.49388 -4.84989,0.47563 -0.44547,0.28844 -0.50043,0.35349 -0.45609,0.53988 0.0965,0.40565 0.17474,0.46554 0.75114,0.57488 1.60802,0.30504 3.09133,1.31666 4.05141,2.76309 0.40613,0.61186 0.8971,1.64727 0.8971,1.8919 0,0.27414 -0.36254,0.61298 -0.65232,0.60968 -0.34608,-0.004 -0.47347,-0.13673 -0.85152,-0.88767 -0.85369,-1.69572 -1.8444,-2.56564 -3.41879,-3.00192 -0.84515,-0.23421 -0.93705,-0.22461 -1.12105,0.11707 l -0.15552,0.28878 0.25201,0.36738 c 1.20898,1.76249 1.45132,3.84764 0.702,6.04006 -0.24052,0.70374 -0.33021,0.85608 -0.56776,0.96431 -0.31502,0.14353 -0.44357,0.11586 -0.7129,-0.15347 z m -0.9856,-7.40475 c 0.33203,-0.14247 0.78038,-0.6025 0.90226,-0.92577 0.11537,-0.30602 0.11527,-0.91102 -1.7e-4,-1.21664 -0.30416,-0.80501 -1.36651,-1.25001 -2.17635,-0.91164 -1.33911,0.55952 -1.37705,2.40397 -0.0619,3.01093 0.40384,0.18639 0.96047,0.20435 1.33622,0.0431 z m -10.23613,-3.99436 c -0.41381,-0.20746 -0.45575,-0.40133 -0.45575,-2.10653 v -1.55317 l -0.60564,-1.08868 c -1.08055,-1.9424 -2.36086,-2.96627 -3.02885,-2.42219 l -0.18191,0.14817 0.17388,0.50402 c 0.0956,0.27721 0.43848,0.92789 0.76187,1.44595 0.61408,0.98373 0.76043,1.42966 0.60349,1.83883 -0.19749,0.51487 -1.05145,0.73537 -1.58589,0.40949 -0.17347,-0.10578 -0.7827,-0.92718 -1.76743,-2.38293 l -1.50271,-2.22151 0.19464,-1.88361 0.19465,-1.8836 -1.01573,-1.42699 c -0.55865,-0.78484 -1.04434,-1.47553 -1.07932,-1.53487 -0.0394,-0.0668 0.61932,-1.29056 1.73186,-3.21733 0.98749,-1.7102 1.80465,-3.12051 1.8159,-3.13403 0.0336,-0.0404 2.11766,2.44339 4.93035,5.87621 1.45421,1.77483 2.70493,3.27752 2.77938,3.33931 0.0745,0.0618 1.32125,0.63366 2.77068,1.27083 1.44942,0.63717 2.65018,1.20311 2.66836,1.25765 0.0561,0.16819 -0.34888,0.67598 -0.65592,0.8225 -0.2826,0.13487 -0.32494,0.12978 -1.41404,-0.17002 -0.61749,-0.16997 -1.19124,-0.33274 -1.275,-0.3617 -0.0838,-0.029 0.32092,0.42626 0.8993,1.01159 l 1.05159,1.06424 -0.11279,0.85215 c -0.062,0.46869 -0.13564,0.85215 -0.16357,0.85215 -0.0279,0 -0.35515,-0.278 -0.72714,-0.61779 -0.9285,-0.8481 -2.40095,-2.02521 -2.49171,-1.99192 -0.041,0.0151 0.28912,0.42351 0.73372,0.90766 l 0.80836,0.88028 -0.0457,0.89492 c -0.0454,0.88915 -0.0438,0.8986 0.24248,1.4671 0.36511,0.72502 0.37101,0.99965 0.0277,1.28856 -0.30199,0.25411 -0.32925,0.25806 -0.70298,0.10191 -0.31706,-0.13248 -0.53049,-0.44189 -0.84899,-1.23081 -0.17338,-0.42945 -0.21953,-0.6878 -0.21953,-1.22889 v -0.68513 l -1.08858,-1.08616 c -0.80692,-0.80513 -1.10175,-1.05187 -1.13945,-0.95362 -0.028,0.0729 0.157,0.82549 0.41105,1.67242 l 0.46192,1.53987 -0.10564,1.91264 -0.10563,1.91263 -0.33867,0.0213 c -0.18627,0.0118 -0.45743,-0.0382 -0.60258,-0.11095 z m 8.15449,-3.31479 c -0.022,-0.0368 -0.0538,-0.40819 -0.0706,-0.82526 l -0.0306,-0.75832 0.70444,-0.15954 c 0.38744,-0.0877 0.80029,-0.13547 0.91746,-0.10607 0.35172,0.0883 0.62177,0.42223 0.62177,0.76891 0,0.48369 -0.32431,0.7448 -1.14486,0.92174 -0.37151,0.0801 -0.73894,0.16362 -0.81651,0.18557 -0.0776,0.022 -0.15905,0.01 -0.18105,-0.027 z"
         id="path174" />
      <path
         style="fill:#897600;stroke-width:0.0846667"
         d="m 443.36839,455.66515 c -1.79517,-0.4832 -3.17307,-2.06939 -3.39435,-3.90747 -0.0759,-0.63036 0.0157,-1.52493 0.21054,-2.05674 0.0768,-0.20955 6.1451,-10.78177 13.48515,-23.49382 11.79844,-20.4334 13.40671,-23.17773 13.87298,-23.67276 0.88403,-0.93857 1.9095,-1.36527 3.26723,-1.35951 1.40713,0.006 2.2844,0.36566 3.22488,1.32223 0.55698,0.5665 1.21437,1.68494 13.78612,23.45487 7.2607,12.57299 13.29073,23.03416 13.40007,23.24704 0.45357,0.88302 0.58771,2.11302 0.33588,3.07986 -0.31658,1.21542 -1.25408,2.43771 -2.29051,2.98629 -1.08906,0.57643 1.29497,0.53238 -28.48004,0.52623 -23.06357,-0.005 -27.03463,-0.023 -27.41795,-0.12622 z m 54.8889,-1.89819 c 1.3545,-0.67078 1.99687,-2.35626 1.3883,-3.64268 -0.12115,-0.25612 -6.1505,-10.73362 -13.39855,-23.28333 -10.865,-18.81236 -13.24556,-22.87993 -13.56168,-23.17236 -0.56163,-0.51955 -1.18325,-0.72905 -2.0294,-0.68397 -0.79161,0.0422 -1.34004,0.28096 -1.83402,0.79851 -0.34204,0.35837 -26.66159,45.85005 -26.93348,46.55281 -0.22804,0.58945 -0.1709,1.44572 0.13679,2.05004 0.41793,0.82083 0.98204,1.31159 1.74486,1.51798 0.30175,0.0817 6.19893,0.10081 27.22452,0.0884 l 26.83933,-0.0158 z m -21.49612,-1.94888 c -4.3494,-0.54757 -7.81331,-3.36438 -9.18787,-7.47149 l -0.21934,-0.65535 -4.08516,-4.14218 c -2.24685,-2.27819 -4.08517,-4.17609 -4.08517,-4.21754 0,-0.0414 0.12676,-0.19822 0.2817,-0.34839 l 0.28169,-0.27303 4.22733,4.29926 4.22732,4.29925 0.19612,0.67526 c 0.84984,2.92608 3.33707,5.46931 6.32928,6.47179 2.99826,1.00451 6.23917,0.55209 8.96756,-1.25186 0.76769,-0.50758 2.09632,-1.83571 2.60562,-2.60465 1.2078,-1.82352 1.75471,-3.61494 1.75471,-5.74761 0,-2.77537 -1.10329,-5.38186 -3.10508,-7.33566 -1.06398,-1.03848 -2.65125,-2.00665 -3.94757,-2.40785 -0.48041,-0.14869 -0.57471,-0.23705 -4.3815,-4.10562 -2.13978,-2.17451 -3.89052,-3.98416 -3.89052,-4.02143 0,-0.1037 0.44276,-0.5427 0.54735,-0.5427 0.0508,0 1.80986,1.74393 3.90907,3.87539 3.6921,3.74884 3.83242,3.88034 4.29713,4.02683 0.81821,0.25791 2.1434,0.97436 3.01073,1.62772 2.238,1.68586 3.75061,4.10947 4.2939,6.87996 0.19756,1.00749 0.19857,3.02153 0.002,4.01019 -0.44463,2.23636 -1.48844,4.20667 -3.06235,5.78058 -0.77514,0.77514 -1.92518,1.61729 -2.83743,2.07779 -0.68717,0.34689 -2.08787,0.81875 -2.87191,0.96748 -0.85424,0.16205 -2.49738,0.22956 -3.25761,0.13386 z m 2.92529,-1.91401 c -0.35661,-0.24978 -0.37207,-0.47275 -0.0909,-1.31188 0.37628,-1.12314 0.47442,-2.06864 0.30274,-2.91671 -0.13102,-0.64722 -0.63984,-1.81357 -0.96472,-2.21137 -0.12526,-0.15338 -0.20352,-0.17398 -0.48124,-0.1267 l -0.33164,0.0565 -0.11921,0.59237 c -0.42593,2.11659 -1.70373,3.67172 -3.87173,4.71199 -0.65421,0.31391 -0.72818,0.33168 -0.94567,0.22713 -0.33871,-0.16282 -0.51202,-0.50593 -0.4072,-0.80615 0.0637,-0.18238 0.24261,-0.31902 0.75943,-0.57996 1.20663,-0.6092 1.89948,-1.17788 2.4557,-2.0156 0.33164,-0.4995 0.67238,-1.39994 0.76112,-2.01139 0.054,-0.3723 0.0446,-0.39656 -0.22099,-0.56468 l -0.27745,-0.17568 -0.3559,0.24486 c -0.5524,0.38007 -1.46234,0.81174 -2.06781,0.98097 -0.41116,0.11492 -0.82867,0.15207 -1.651,0.1469 -0.93835,-0.006 -1.21304,-0.0406 -1.86266,-0.23551 -0.98549,-0.29561 -1.32419,-0.46494 -1.4744,-0.73706 -0.16258,-0.29453 -0.003,-0.69853 0.33009,-0.83657 0.20416,-0.0846 0.35722,-0.0591 1.07223,0.1785 0.76553,0.25438 0.92453,0.27755 1.93474,0.28189 1.29372,0.006 1.68791,-0.0964 2.68878,-0.69511 0.65585,-0.39237 0.65669,-0.39334 0.6026,-0.69321 -0.0298,-0.16515 -0.0681,-0.31606 -0.0851,-0.33533 -0.017,-0.0193 -0.3834,-0.12342 -0.81427,-0.23143 -2.03102,-0.50911 -3.47966,-1.7286 -4.46329,-3.75729 -0.37521,-0.77385 -0.38965,-1.02263 -0.0748,-1.28907 0.19597,-0.16582 0.50941,-0.19173 0.75156,-0.0621 0.0884,0.0473 0.36017,0.47427 0.60391,0.94878 0.80268,1.56264 1.88712,2.46904 3.42448,2.86223 0.83884,0.21454 0.83258,0.21516 1.03393,-0.10286 l 0.17084,-0.26981 -0.25572,-0.37168 c -0.4108,-0.59707 -0.88767,-1.70261 -1.04613,-2.42524 -0.34402,-1.56894 0.24548,-4.49909 0.94024,-4.67346 0.31548,-0.0792 0.64183,0.0523 0.79142,0.31877 0.11504,0.20497 0.10385,0.2898 -0.13945,1.05721 -0.35561,1.12162 -0.3691,1.19869 -0.3691,2.10804 0,0.61718 0.0461,0.92754 0.21055,1.41742 0.2086,0.62139 0.70278,1.55691 0.91586,1.73374 0.1737,0.14416 0.69521,0.004 0.72741,-0.19487 0.27785,-1.72013 1.12321,-3.21183 2.37551,-4.1918 0.69109,-0.5408 2.0461,-1.26584 2.3657,-1.26584 0.40432,0 0.71964,0.54538 0.55834,0.96572 -0.0281,0.0731 -0.4205,0.32613 -0.8721,0.5623 -1.08031,0.56495 -1.70564,1.07283 -2.2164,1.80012 -0.40784,0.58075 -0.7763,1.51264 -0.88611,2.24113 -0.043,0.28562 -0.0219,0.33134 0.22683,0.48923 l 0.27432,0.17416 0.42873,-0.29169 c 1.78818,-1.21659 3.89133,-1.44148 6.1541,-0.65807 0.67644,0.2342 0.92096,0.44865 0.92096,0.80773 0,0.23072 -0.24906,0.52635 -0.52541,0.62366 -0.0794,0.028 -0.47948,-0.0627 -0.889,-0.20141 -1.10259,-0.37355 -2.09929,-0.47844 -2.92771,-0.30811 -0.72837,0.14976 -1.35108,0.40907 -1.99562,0.83102 -0.38929,0.25486 -0.42076,0.29979 -0.37597,0.53701 0.0695,0.36811 0.15115,0.44225 0.55581,0.50463 0.59741,0.0921 1.62099,0.46355 2.14214,0.77737 1.1236,0.67659 1.9493,1.60762 2.63077,2.96637 0.42461,0.8466 0.44546,1.1797 0.0894,1.42906 -0.449,0.3145 -0.79657,0.10141 -1.21874,-0.74718 -0.84631,-1.70116 -1.84335,-2.57989 -3.42434,-3.018 -0.84792,-0.23497 -0.94869,-0.22497 -1.13029,0.11224 l -0.15292,0.28395 0.2552,0.37222 c 0.35882,0.52336 0.65774,1.13685 0.88621,1.81885 0.16803,0.5016 0.19598,0.75498 0.19528,1.77069 -8.5e-4,1.2403 -0.13374,1.93574 -0.55864,2.92345 -0.236,0.54859 -0.61297,0.72113 -0.99338,0.45468 z m -0.8414,-7.64953 c 0.84595,-0.57966 1.00324,-1.73846 0.33628,-2.47759 -0.36463,-0.40409 -0.72133,-0.57467 -1.20171,-0.57467 -0.67142,0 -1.25496,0.37055 -1.53331,0.97366 -0.37753,0.81801 -0.0405,1.72612 0.81364,2.19241 0.37674,0.20567 1.20571,0.14615 1.5851,-0.11381 z m -10.3999,-3.81257 c -0.0983,-0.0397 -0.26027,-0.17581 -0.35984,-0.30239 -0.17039,-0.21661 -0.18102,-0.32396 -0.18102,-1.82668 v -1.59653 l -0.60456,-1.08021 c -0.63201,-1.12927 -1.23154,-1.84808 -1.92879,-2.31252 -0.44974,-0.29958 -0.91986,-0.33395 -1.14623,-0.0838 -0.14375,0.15885 -0.14146,0.18713 0.0564,0.6985 0.11342,0.29313 0.43681,0.89877 0.71864,1.34587 0.59287,0.94051 0.74147,1.32726 0.66553,1.7321 -0.11281,0.6013 -1.02871,0.91563 -1.61904,0.55564 -0.16708,-0.10189 -0.79822,-0.95391 -1.76956,-2.38888 l -1.50984,-2.23051 0.18418,-1.69596 c 0.1013,-0.93278 0.18323,-1.79131 0.18206,-1.90783 -10e-4,-0.13233 -0.35509,-0.70449 -0.94231,-1.524 -0.5171,-0.72168 -0.99616,-1.39546 -1.06457,-1.49731 -0.11737,-0.17472 -0.023,-0.36103 1.67191,-3.302 0.98796,-1.71425 1.80518,-3.12796 1.81604,-3.14157 0.0316,-0.0396 2.50357,2.91356 5.20477,6.21814 l 2.49696,3.0547 2.71004,1.19076 c 1.67952,0.73796 2.72025,1.24027 2.73688,1.32098 0.0148,0.0716 -0.12135,0.28909 -0.30245,0.48324 -0.41437,0.44422 -0.63656,0.4536 -1.92572,0.0812 -0.51224,-0.14796 -1.00754,-0.28969 -1.10067,-0.31496 -0.0931,-0.0253 0.30221,0.42997 0.87855,1.01165 l 1.04788,1.0576 -0.10938,0.85826 c -0.0602,0.47205 -0.13914,0.84766 -0.17553,0.83471 -0.0364,-0.013 -0.36346,-0.29188 -0.72684,-0.61982 -0.97172,-0.87698 -2.38926,-2.00261 -2.4823,-1.97112 -0.0445,0.0151 0.28589,0.42407 0.73418,0.90891 l 0.81507,0.88152 -0.0502,0.88568 c -0.0501,0.88432 -0.0497,0.88658 0.24201,1.46586 0.34232,0.67975 0.36824,0.99443 0.10168,1.23437 -0.28919,0.26031 -0.47467,0.29509 -0.78593,0.14739 -0.33826,-0.16052 -0.44592,-0.31376 -0.79232,-1.12778 -0.22251,-0.52288 -0.26325,-0.72556 -0.26325,-1.30949 v -0.69086 l -1.08858,-1.08616 c -0.84534,-0.84346 -1.10064,-1.05474 -1.14254,-0.94555 -0.0297,0.0773 0.15458,0.83336 0.40946,1.68005 l 0.46342,1.53944 -0.0886,1.73567 c -0.11355,2.22397 -0.0894,2.11795 -0.48092,2.1113 -0.17374,-0.003 -0.39635,-0.0379 -0.49469,-0.0776 z m 8.07104,-3.36142 c -0.0227,-0.0381 -0.0551,-0.4097 -0.0721,-0.82577 l -0.0308,-0.7565 0.74582,-0.16187 c 0.85926,-0.1865 1.16339,-0.12332 1.37484,0.28559 0.33943,0.65637 -3.3e-4,1.07205 -1.06232,1.29978 -0.39582,0.0849 -0.76344,0.17091 -0.81694,0.19118 -0.0535,0.0203 -0.11582,0.006 -0.13849,-0.0324 z"
         id="path172" />
      <path
         style="fill:#776700;stroke-width:0.0846667"
         d="m 443.3742,455.66664 c -1.5501,-0.4175 -2.87675,-1.75303 -3.28026,-3.30221 -0.26087,-1.00154 -0.13755,-2.24445 0.31137,-3.13823 0.29775,-0.5928 26.3721,-45.72294 26.65928,-46.14255 0.1306,-0.19083 0.44214,-0.53373 0.6923,-0.762 0.88166,-0.8045 1.77625,-1.13539 3.06503,-1.1337 1.38475,0.002 2.31098,0.37797 3.21116,1.30408 0.55113,0.56701 1.3154,1.86836 13.93194,23.7226 7.34185,12.71747 13.41688,23.32832 13.50007,23.57966 0.20177,0.6096 0.26757,1.68967 0.14026,2.30223 -0.25908,1.24665 -1.25426,2.59448 -2.33995,3.16914 -1.07806,0.57062 1.17343,0.52923 -28.52477,0.52446 -22.8695,-0.004 -26.99063,-0.0223 -27.36643,-0.12348 z m 54.94441,-1.92802 c 0.56335,-0.27664 1.01221,-0.75597 1.32319,-1.41301 0.27247,-0.57567 0.30478,-1.44214 0.0759,-2.03506 -0.23132,-0.59922 -26.51048,-46.05272 -26.86141,-46.46057 -0.65052,-0.75603 -1.85951,-1.06228 -2.94632,-0.74633 -1.05434,0.3065 -0.0154,-1.39109 -14.59098,23.84196 -7.24918,12.54972 -13.26861,23.02722 -13.37651,23.28333 -0.59082,1.40243 0.21425,3.14227 1.69062,3.65362 0.41727,0.14453 1.68166,0.15067 27.31919,0.1328 l 26.88166,-0.0188 z m -21.50187,-1.92372 c -4.23571,-0.44523 -7.76526,-3.26394 -9.19001,-7.33916 l -0.27277,-0.78021 -4.08516,-4.15141 c -2.24685,-2.28328 -4.08517,-4.18213 -4.08517,-4.21968 0,-0.0376 0.12602,-0.19042 0.28004,-0.33971 l 0.28005,-0.27143 4.22845,4.29766 4.22846,4.29765 0.15462,0.55033 c 0.54584,1.94269 1.93184,3.91781 3.64829,5.19896 0.69461,0.51846 1.81214,1.09251 2.71679,1.39555 4.80074,1.60815 10.08748,-0.58002 12.30651,-5.09363 0.71808,-1.46062 1.02812,-2.81962 1.02812,-4.50654 0,-1.6985 -0.31927,-3.07131 -1.06002,-4.5579 -1.19448,-2.39717 -3.52984,-4.41908 -5.98903,-5.1852 -0.47514,-0.14803 -0.58519,-0.2512 -4.3815,-4.10776 -2.14176,-2.17576 -3.89412,-3.99414 -3.89412,-4.04084 0,-0.0892 0.47967,-0.5233 0.57824,-0.5233 0.0315,0 1.75242,1.72402 3.82432,3.83117 l 3.76707,3.83116 0.93447,0.3816 c 3.20332,1.30809 5.60142,3.85446 6.58777,6.99507 0.53087,1.69035 0.67465,3.80945 0.36544,5.38607 -0.16172,0.82458 -0.63273,2.24215 -0.96229,2.89613 -1.43536,2.84836 -4.09104,4.98068 -7.17862,5.7639 -1.30849,0.33193 -2.54796,0.42627 -3.82995,0.29152 z m 2.94089,-1.88485 c -0.41797,-0.21141 -0.44957,-0.45859 -0.16574,-1.29638 0.5684,-1.67777 0.52714,-2.94224 -0.13884,-4.25563 -0.52652,-1.03833 -0.59517,-1.10967 -1.00128,-1.04054 l -0.33219,0.0565 -0.15282,0.71929 c -0.41138,1.9362 -1.71621,3.53167 -3.70098,4.52533 -0.77185,0.38643 -1.07047,0.40812 -1.33793,0.0972 -0.4094,-0.47596 -0.24169,-0.77973 0.67564,-1.22375 0.76222,-0.36893 1.74363,-1.0947 2.10011,-1.55306 0.39609,-0.50929 0.7381,-1.19776 0.91623,-1.84438 0.23532,-0.85421 0.22603,-0.96843 -0.0953,-1.17191 l -0.26981,-0.17084 -0.37168,0.25573 c -1.0095,0.69455 -2.47537,1.16998 -3.60734,1.16998 -1.13546,0 -3.04768,-0.51708 -3.35444,-0.90707 -0.19544,-0.24846 -0.2079,-0.35698 -0.0746,-0.64956 0.18526,-0.40658 0.47028,-0.4344 1.39861,-0.13647 1.87427,0.60152 3.3161,0.4549 4.78765,-0.48684 0.39308,-0.25156 0.48736,-0.35299 0.45277,-0.48706 -0.024,-0.0931 -0.0442,-0.24847 -0.0449,-0.3452 -9.8e-4,-0.14943 -0.0841,-0.19115 -0.55313,-0.27757 -2.15659,-0.39737 -3.78337,-1.72863 -4.84559,-3.96536 -0.29417,-0.61944 -0.29743,-0.63781 -0.16306,-0.91958 0.27758,-0.5821 0.91469,-0.49239 1.23371,0.17371 0.93176,1.94552 2.14879,3.0084 3.88764,3.39526 0.61393,0.13659 0.64048,0.13595 0.75565,-0.0182 0.26807,-0.35875 0.26864,-0.41395 0.008,-0.79853 -0.38957,-0.57542 -0.71133,-1.24851 -0.93051,-1.94653 -0.27386,-0.87213 -0.2773,-2.42925 -0.008,-3.43286 0.2279,-0.84802 0.48939,-1.46838 0.67997,-1.61316 0.19475,-0.14796 0.53306,-0.14374 0.75164,0.009 0.30097,0.2108 0.30904,0.49678 0.0366,1.29685 -0.60429,1.77464 -0.48799,3.25691 0.36579,4.66239 0.38671,0.63659 0.45426,0.68879 0.79993,0.61809 0.27792,-0.0568 0.28695,-0.0729 0.48462,-0.8613 0.38051,-1.5177 1.10881,-2.67091 2.26492,-3.58638 0.63411,-0.50211 2.0165,-1.23871 2.32467,-1.23869 0.25652,2e-5 0.60999,0.36175 0.60999,0.62424 0,0.38039 -0.10026,0.48257 -0.83632,0.85232 -1.76275,0.8855 -2.68844,1.96614 -3.09137,3.60886 -0.18155,0.74019 -0.17716,0.77088 0.13996,0.97741 l 0.27406,0.17849 0.49319,-0.33412 c 1.35332,-0.91684 3.19109,-1.30163 4.73081,-0.99053 0.85854,0.17346 2.01047,0.59392 2.14212,0.78187 0.18036,0.2575 0.15731,0.52199 -0.0684,0.78434 -0.24278,0.28224 -0.432,0.28315 -1.24942,0.006 -1.87693,-0.63636 -3.37854,-0.4639 -4.92326,0.56544 -0.41366,0.27565 -0.41521,0.28045 -0.26841,0.82963 0.0239,0.0893 0.16925,0.15513 0.41786,0.18921 0.6132,0.084 1.64335,0.4611 2.26825,0.83023 1.08954,0.64359 2.16551,1.92814 2.73249,3.26221 0.19655,0.46246 0.21172,0.55984 0.12126,0.77824 -0.0594,0.14338 -0.21336,0.29518 -0.36175,0.35664 -0.40261,0.16677 -0.6375,-0.0203 -1.08667,-0.8656 -0.74253,-1.39731 -1.3695,-2.06883 -2.40215,-2.57283 -0.59199,-0.28893 -1.43872,-0.54872 -1.78843,-0.54872 -0.11717,0 -0.232,0.0966 -0.32715,0.27516 l -0.1466,0.27517 0.43084,0.71407 c 1.02971,1.70663 1.20514,3.52066 0.54315,5.61624 -0.13799,0.43682 -0.30275,0.77102 -0.45533,0.9236 -0.26617,0.26616 -0.36707,0.28551 -0.67545,0.12953 z m -0.8668,-7.69874 c 0.94919,-0.62814 0.92584,-2.11353 -0.0437,-2.77784 -0.41169,-0.28209 -1.1478,-0.32792 -1.59387,-0.0992 -1.28431,0.65844 -1.28063,2.32804 0.007,3.02163 0.39092,0.21063 1.20289,0.13866 1.63087,-0.14457 z m -10.44567,-3.78934 c -0.0983,-0.0397 -0.26027,-0.17581 -0.35984,-0.30239 -0.17042,-0.21665 -0.18102,-0.32389 -0.18102,-1.83025 v -1.60011 l -0.60379,-1.07664 c -0.63637,-1.13473 -1.25515,-1.87614 -1.93162,-2.31443 -0.45167,-0.29263 -0.92065,-0.32531 -1.14297,-0.0797 -0.14,0.1547 -0.14049,0.18873 -0.008,0.58655 0.0772,0.23227 0.33623,0.73939 0.57574,1.12694 0.63056,1.02031 0.91007,1.58706 0.90666,1.83839 -0.01,0.73882 -0.9728,1.19727 -1.648,0.78475 -0.15948,-0.0974 -0.81668,-0.98584 -1.76612,-2.38743 l -1.51211,-2.23224 0.20792,-1.86676 0.20792,-1.86675 -0.90261,-1.27 c -0.49644,-0.6985 -0.98746,-1.39241 -1.09116,-1.54201 l -0.18854,-0.27201 1.79118,-3.09733 c 0.98515,-1.70352 1.82439,-3.08607 1.86497,-3.07232 0.11612,0.0393 5.85331,6.9223 7.57473,9.08745 0.0496,0.0624 1.21164,0.60685 2.58233,1.20992 1.37068,0.60307 2.59693,1.14494 2.72499,1.20415 0.31422,0.14529 0.29337,0.29386 -0.0959,0.68311 -0.41709,0.41709 -0.69978,0.42725 -1.94466,0.0698 -0.49589,-0.14237 -0.97783,-0.27953 -1.07096,-0.3048 -0.0931,-0.0253 0.30389,0.43166 0.88228,1.01539 l 1.05161,1.06134 -0.10498,0.7463 c -0.0577,0.41046 -0.12183,0.7982 -0.14243,0.86164 -0.0246,0.0757 -0.27737,-0.10066 -0.73497,-0.51265 -1.0282,-0.9257 -2.42556,-2.03234 -2.52458,-1.99934 -0.0475,0.0158 0.26798,0.40652 0.70103,0.8682 l 0.78737,0.83942 0.003,0.97952 c 0.003,0.92842 0.0176,1.00821 0.2751,1.52984 0.14944,0.30268 0.27174,0.64847 0.27178,0.76841 8e-5,0.3121 -0.32602,0.58626 -0.69738,0.58626 -0.43059,0 -0.73227,-0.3348 -1.06298,-1.17968 -0.22207,-0.56737 -0.27157,-0.81264 -0.27157,-1.34579 v -0.65198 l -1.08858,-1.08616 c -0.84534,-0.84346 -1.10064,-1.05474 -1.14254,-0.94555 -0.0297,0.0773 0.15441,0.83336 0.40909,1.68005 l 0.46305,1.53944 -0.085,1.56633 c -0.0468,0.86149 -0.10527,1.72826 -0.13003,1.92617 -0.044,0.35141 -0.0523,0.35971 -0.35735,0.35447 -0.17177,-0.003 -0.39277,-0.0379 -0.49111,-0.0776 z m 8.0572,-3.50434 c -0.0198,-0.0992 -0.0552,-0.45572 -0.0786,-0.79229 l -0.0426,-0.61194 0.31242,-0.0785 c 1.0514,-0.26433 1.2052,-0.28289 1.4622,-0.17644 0.47381,0.19626 0.64053,0.81324 0.32734,1.2114 -0.17835,0.22673 -0.37798,0.30071 -1.37223,0.50852 -0.56221,0.11752 -0.57307,0.11643 -0.6085,-0.0607 z"
         id="path170" />
      <path
         style="fill:#675900;stroke-width:0.0846667"
         d="m 443.41714,455.66546 c -1.56594,-0.37963 -2.89402,-1.71307 -3.32709,-3.34049 -0.2541,-0.95487 -0.12593,-2.20605 0.31649,-3.08969 0.0933,-0.18627 6.11838,-10.64472 13.38916,-23.241 12.75879,-22.10401 13.24025,-22.92304 13.81226,-23.49645 0.65469,-0.65628 1.19753,-0.98503 1.9503,-1.1811 0.61172,-0.15933 1.88174,-0.16705 2.45237,-0.0149 0.9711,0.25893 1.96974,0.93795 2.48818,1.69184 0.61019,0.88729 26.73316,46.22055 26.91474,46.70727 0.92973,2.49212 -0.72689,5.45993 -3.35092,6.00313 -0.32048,0.0663 -8.12174,0.0909 -27.305,0.0858 -22.58651,-0.006 -26.93331,-0.0257 -27.34049,-0.12443 z m 54.89608,-1.9242 c 1.21941,-0.59883 1.88479,-2.14791 1.44451,-3.36298 -0.22453,-0.61964 -26.49725,-46.08271 -26.89987,-46.5483 -0.46983,-0.54331 -1.0405,-0.80125 -1.87448,-0.84725 -0.93094,-0.0513 -1.41891,0.11462 -2.02652,0.68926 -0.41346,0.39101 -1.80215,2.75799 -13.46889,22.95729 -7.15434,12.38673 -13.16437,22.80708 -13.35562,23.15633 -0.33439,0.61065 -0.34772,0.66422 -0.34772,1.397 0,0.63834 0.0338,0.8307 0.20829,1.18533 0.2455,0.49898 0.77818,1.10104 1.14198,1.29073 0.69636,0.36309 -0.3736,0.35026 27.8174,0.33371 l 26.88166,-0.0158 z m -21.47659,-1.93414 c -2.01476,-0.19111 -4.12857,-1.06082 -5.75152,-2.36641 -1.57587,-1.26772 -2.76084,-2.97811 -3.47177,-5.01117 l -0.25938,-0.74174 -3.66079,-3.71646 c -2.01343,-2.04406 -3.858,-3.93225 -4.09904,-4.19598 l -0.43825,-0.47951 0.2927,-0.2927 0.2927,-0.2927 4.19409,4.26595 4.19408,4.26596 0.31677,0.92212 c 1.049,3.05366 3.2772,5.2808 6.31607,6.3131 1.93606,0.65767 4.39595,0.66585 6.34451,0.0211 3.25348,-1.07653 5.75829,-3.75024 6.6729,-7.12285 0.20825,-0.76792 0.22488,-0.95439 0.22488,-2.52255 0,-1.56816 -0.0166,-1.75463 -0.22488,-2.52256 -0.48023,-1.77085 -1.33141,-3.26553 -2.61553,-4.59291 -1.14774,-1.18641 -2.33534,-1.95722 -3.92488,-2.54745 l -0.762,-0.28295 -3.85233,-3.90815 c -2.11878,-2.14948 -3.8597,-3.95026 -3.8687,-4.00173 -0.009,-0.0515 0.1185,-0.20532 0.28333,-0.34189 l 0.29971,-0.24831 1.11366,1.13717 c 0.61252,0.62545 2.32614,2.36593 3.80804,3.86774 l 2.69438,2.73057 0.87469,0.34199 c 3.37853,1.32094 5.89168,4.16775 6.78375,7.6844 0.94859,3.73945 -0.14613,7.72294 -2.87128,10.44809 -1.85638,1.85638 -4.24162,2.96805 -6.8671,3.20048 -1.03109,0.0913 -0.96015,0.0917 -2.03881,-0.0106 z m 2.96039,-1.84886 c -0.44715,-0.1792 -0.48756,-0.48498 -0.18506,-1.40032 0.61293,-1.85465 0.49149,-3.21241 -0.41862,-4.68025 l -0.3821,-0.61626 -0.30997,0.0559 c -0.39308,0.0709 -0.43698,0.0976 -0.43698,0.26606 0,0.36206 -0.30605,1.32641 -0.64614,2.03596 -0.60455,1.26128 -1.68619,2.28479 -3.23425,3.06043 -0.6614,0.33138 -1.05797,0.3278 -1.31046,-0.0118 -0.13884,-0.18675 -0.15549,-0.27934 -0.0908,-0.50487 0.0685,-0.23877 0.18511,-0.32978 0.86118,-0.67201 1.70204,-0.86157 2.54346,-1.81916 2.97877,-3.39006 0.23248,-0.83891 0.22263,-0.95517 -0.0981,-1.15824 l -0.26981,-0.17084 -0.34402,0.23594 c -1.36328,0.93494 -2.99462,1.33343 -4.54559,1.11036 -0.78568,-0.113 -2.15269,-0.53722 -2.37268,-0.7363 -0.21906,-0.19826 -0.26819,-0.52782 -0.1138,-0.76344 0.25493,-0.38908 0.44772,-0.40817 1.28597,-0.12733 1.88504,0.63155 3.3389,0.50293 4.77942,-0.42282 0.2959,-0.19016 0.54878,-0.35527 0.56197,-0.36691 0.0132,-0.0116 -2.6e-4,-0.17281 -0.0299,-0.35813 l -0.0539,-0.33694 -0.55726,-0.10268 c -2.03688,-0.37531 -3.67538,-1.67184 -4.71711,-3.73259 -0.33545,-0.66359 -0.37785,-0.86253 -0.2491,-1.16874 0.12715,-0.30239 0.44473,-0.42421 0.78967,-0.3029 0.16068,0.0565 0.31207,0.2606 0.55961,0.75439 0.59549,1.18791 1.20648,1.9232 2.04725,2.46371 0.45625,0.29333 1.44415,0.66187 2.02098,0.75395 0.30598,0.0489 0.35231,0.0302 0.53312,-0.21458 l 0.19801,-0.26808 -0.29503,-0.44436 c -0.42968,-0.64714 -0.69377,-1.19912 -0.91622,-1.91497 -0.27916,-0.89836 -0.28103,-2.35347 -0.004,-3.42687 0.36312,-1.40904 0.72501,-1.88307 1.26641,-1.65882 0.449,0.18598 0.48775,0.45493 0.19252,1.33614 -0.63481,1.8948 -0.4899,3.35674 0.48231,4.86554 0.30719,0.47674 0.32754,0.49137 0.61405,0.44134 0.16299,-0.0285 0.31867,-0.0757 0.34596,-0.10497 0.0273,-0.0293 0.13133,-0.39613 0.23118,-0.81523 0.27168,-1.14026 0.75644,-2.05016 1.51557,-2.84473 0.96701,-1.01216 2.64015,-2.01004 3.17372,-1.89285 0.38816,0.0853 0.59352,0.51931 0.43775,0.92524 -0.0292,0.0762 -0.38165,0.30371 -0.78316,0.50562 -1.79164,0.90097 -2.71203,1.977 -3.10056,3.62486 -0.17232,0.73084 -0.16373,0.7879 0.14589,0.96873 l 0.27302,0.15945 0.6902,-0.43332 c 0.94414,-0.59275 1.87876,-0.89229 2.96053,-0.94885 0.98548,-0.0515 1.67584,0.0495 2.80037,0.4097 1.03586,0.33182 1.28647,0.67952 0.87072,1.20807 -0.22409,0.28488 -0.47924,0.28632 -1.31014,0.007 -1.59596,-0.53575 -2.83606,-0.48495 -4.14471,0.16979 -1.06719,0.53393 -1.14141,0.60404 -1.07187,1.01254 l 0.0565,0.33164 0.59237,0.11959 c 1.29139,0.26071 2.3993,0.84499 3.27007,1.72454 0.57007,0.57582 1.24531,1.58095 1.56087,2.32344 0.20102,0.47297 0.21659,0.57054 0.12597,0.78932 -0.0594,0.14338 -0.21336,0.29518 -0.36176,0.35664 -0.40504,0.16778 -0.63918,-0.0199 -1.06896,-0.85704 -0.85962,-1.67428 -1.83154,-2.52427 -3.39922,-2.97275 -0.77577,-0.22193 -0.94109,-0.20582 -1.14696,0.1118 l -0.17303,0.26694 0.36469,0.55524 c 0.94624,1.44069 1.24721,3.11232 0.87819,4.87766 -0.33881,1.62077 -0.74083,2.22633 -1.3231,1.99298 z m -1.07252,-7.63552 c 1.1758,-0.56919 1.16335,-2.37576 -0.0203,-2.94876 -0.56602,-0.27401 -1.27396,-0.21845 -1.71809,0.13485 -0.64215,0.51082 -0.87421,1.39311 -0.53822,2.04632 0.18992,0.36921 0.55662,0.73584 0.85442,0.85424 0.371,0.1475 1.02023,0.10795 1.42221,-0.0866 z m -10.3703,-3.96291 c -0.14837,-0.0905 -0.3103,-0.24022 -0.35983,-0.33279 -0.0544,-0.10168 -0.0901,-0.79355 -0.0901,-1.74785 v -1.57955 l -0.63065,-1.11725 c -0.49616,-0.879 -0.75666,-1.23891 -1.22157,-1.68775 -0.8896,-0.85884 -1.49749,-1.0613 -1.86325,-0.62058 -0.16944,0.20415 0.0894,0.87404 0.73678,1.90683 0.75984,1.2122 0.89134,1.61416 0.66281,2.02599 -0.27355,0.49296 -1.03388,0.67523 -1.53646,0.36833 -0.16071,-0.0981 -0.80825,-0.97802 -1.76305,-2.39566 l -1.50905,-2.24056 0.20566,-1.85852 0.20566,-1.85852 -1.09102,-1.53822 -1.09101,-1.53822 1.79147,-3.1007 c 0.98531,-1.70539 1.82403,-3.08964 1.86381,-3.07612 0.10433,0.0355 2.27637,2.62688 5.14847,6.14252 l 2.49094,3.04907 2.73723,1.20714 c 1.59279,0.70243 2.73722,1.25367 2.73722,1.31843 0,0.0612 -0.1465,0.2653 -0.32555,0.45353 -0.41657,0.4379 -0.64203,0.44302 -2.02144,0.0459 -0.56612,-0.16299 -1.05965,-0.29634 -1.09672,-0.29634 -0.0371,0 0.4033,0.47185 0.97862,1.04855 l 1.04603,1.04855 -0.10058,0.75062 c -0.0553,0.41284 -0.11731,0.8021 -0.13777,0.86503 -0.024,0.074 -0.29871,-0.12256 -0.77739,-0.5563 -1.04294,-0.94505 -2.37034,-1.99218 -2.47933,-1.95584 -0.0506,0.0169 0.24939,0.39696 0.66662,0.84466 0.41724,0.4477 0.78607,0.9005 0.81962,1.00622 0.0336,0.10572 0.0353,0.52138 0.004,0.9237 -0.0561,0.71696 -0.0512,0.74397 0.24411,1.36026 0.16574,0.34583 0.30134,0.72799 0.30134,0.84924 0,0.31005 -0.32532,0.58865 -0.68735,0.58865 -0.40449,0 -0.74099,-0.37451 -1.07877,-1.20062 -0.21868,-0.53483 -0.26588,-0.76592 -0.26588,-1.30167 v -0.6514 l -1.0305,-1.06899 c -0.56677,-0.58794 -1.05737,-1.08012 -1.09023,-1.09373 -0.19887,-0.0824 -0.1142,0.43766 0.29183,1.79223 l 0.45995,1.53451 -0.11536,1.905 c -0.0635,1.04775 -0.11739,1.91453 -0.11986,1.92617 -0.0199,0.0936 -0.69482,-0.0132 -0.90926,-0.14395 z m 8.15019,-3.50706 c -0.0218,-0.14565 -0.0601,-0.50168 -0.085,-0.79116 l -0.0453,-0.52633 0.31591,-0.0808 c 1.03984,-0.26608 1.25222,-0.28717 1.51639,-0.15056 0.51088,0.26419 0.57268,1.0046 0.11115,1.33165 -0.11604,0.0822 -0.56254,0.22432 -0.99224,0.31577 l -0.78127,0.16629 z"
         id="path168" />
      <path
         style="fill:#544800;stroke-width:0.0846667"
         d="m 443.40465,455.66262 c -1.5125,-0.36609 -2.74384,-1.5625 -3.24221,-3.15024 -0.19274,-0.61403 -0.21534,-0.80543 -0.17993,-1.524 0.0302,-0.61283 0.0946,-0.95502 0.25323,-1.34582 0.11701,-0.28823 6.19028,-10.88003 13.49615,-23.53734 12.74742,-22.08469 13.30732,-23.0375 13.87607,-23.61375 0.9114,-0.92342 1.85971,-1.30452 3.24605,-1.30452 1.45324,0 2.74505,0.62479 3.56343,1.72347 0.49592,0.66577 26.79389,46.25302 27.01653,46.83286 0.28565,0.74393 0.28942,2.05584 0.008,2.87048 -0.5596,1.62143 -1.88872,2.7965 -3.51115,3.10418 -0.25279,0.0479 -10.95578,0.0762 -27.22318,0.072 -22.84843,-0.006 -26.87994,-0.0248 -27.30326,-0.12727 z m 54.90857,-1.92136 c 1.14037,-0.56002 1.81405,-1.96957 1.51563,-3.17119 -0.0654,-0.26345 -4.70398,-8.38002 -13.36654,-23.38888 -14.43869,-25.01662 -13.67199,-23.75369 -14.61493,-24.07435 -0.23803,-0.0809 -0.67895,-0.14189 -1.02652,-0.14189 -0.9814,0 -1.72043,0.34694 -2.21594,1.04029 -0.25415,0.35561 -26.24146,45.3105 -26.61133,46.03437 -0.28798,0.56359 -0.32551,1.49824 -0.0857,2.13374 0.30127,0.79836 1.06457,1.52088 1.8664,1.76669 0.11641,0.0357 12.32746,0.0585 27.13566,0.0507 l 26.924,-0.0142 z m -21.26925,-1.9294 c -1.01614,-0.0724 -2.43728,-0.42459 -3.41679,-0.84683 -2.84667,-1.22713 -5.0452,-3.627 -6.00936,-6.55974 l -0.22399,-0.68132 -3.69447,-3.76368 c -2.03195,-2.07002 -3.88692,-3.96314 -4.12214,-4.20693 l -0.42767,-0.44325 0.2471,-0.25791 c 0.13591,-0.14186 0.2978,-0.2472 0.35977,-0.23409 0.062,0.0131 1.97417,1.9201 4.24935,4.23777 l 4.13668,4.21393 0.22317,0.69191 c 0.89592,2.77759 2.68828,4.82371 5.33157,6.08639 0.48455,0.23146 1.2558,0.52179 1.71389,0.64517 0.7684,0.20696 0.96398,0.22448 2.52621,0.22628 1.57366,0.002 1.75206,-0.014 2.52419,-0.22381 1.7052,-0.46336 3.13565,-1.25132 4.36891,-2.40663 1.90689,-1.78636 2.97279,-3.94853 3.21417,-6.51991 0.27077,-2.88444 -0.7273,-5.75545 -2.74127,-7.88541 -1.23427,-1.30536 -2.51091,-2.14964 -4.12029,-2.72485 -0.67095,-0.2398 -0.74063,-0.29039 -1.6014,-1.16253 -0.49496,-0.50149 -2.24467,-2.2771 -3.88823,-3.94579 l -2.98829,-3.03398 0.31116,-0.31035 0.31117,-0.31035 0.90794,0.93007 c 0.49937,0.51154 2.22476,2.26822 3.83419,3.90374 2.74562,2.79011 2.95466,2.98293 3.38667,3.12368 1.16279,0.37885 2.45093,1.11804 3.56453,2.04548 1.74237,1.45108 3.10074,3.66324 3.62896,5.90986 0.64765,2.75464 0.20314,5.71344 -1.21998,8.12055 -0.51146,0.86509 -0.86849,1.32542 -1.64358,2.11909 -2.29705,2.35212 -5.37981,3.50291 -8.74217,3.26344 z m 2.51511,-2.01175 c -0.18533,-0.2048 -0.17712,-0.5917 0.0234,-1.10036 0.22822,-0.57901 0.4294,-1.60926 0.42792,-2.1914 -0.002,-0.9325 -0.48029,-2.32205 -1.03619,-3.01278 -0.17208,-0.21382 -0.22137,-0.22986 -0.51663,-0.16809 l -0.32641,0.0683 -0.20135,0.80309 c -0.51202,2.04223 -1.76813,3.53723 -3.76619,4.48246 -0.68657,0.3248 -1.02227,0.33402 -1.25784,0.0346 -0.3563,-0.45297 -0.17982,-0.75353 0.69881,-1.19013 1.70081,-0.84517 2.64708,-1.93895 3.05945,-3.53641 0.18237,-0.70648 0.16694,-0.83341 -0.1278,-1.05132 l -0.25806,-0.1908 -0.46121,0.30614 c -1.37066,0.90979 -2.85424,1.26997 -4.38949,1.06567 -0.7443,-0.099 -2.18359,-0.52025 -2.40464,-0.7037 -0.33672,-0.27945 -0.28257,-0.78916 0.11124,-1.0472 0.21344,-0.13985 0.24902,-0.13571 0.99861,0.11632 1.84138,0.6191 3.15523,0.53948 4.58322,-0.27777 0.80342,-0.4598 0.8214,-0.48026 0.75983,-0.86525 l -0.0537,-0.33608 -0.68968,-0.14781 c -1.71532,-0.36761 -3.01785,-1.25393 -4.02209,-2.73688 -0.48338,-0.71378 -0.85844,-1.52516 -0.85852,-1.85723 -9e-5,-0.47587 0.50008,-0.76323 0.92899,-0.53368 0.0858,0.0459 0.30835,0.39832 0.49465,0.78316 0.81468,1.68291 1.94964,2.65348 3.57703,3.05893 0.73972,0.18429 0.77899,0.17961 1.00001,-0.11934 l 0.1906,-0.25779 -0.3854,-0.60238 c -0.83457,-1.30443 -1.17819,-2.74141 -0.99756,-4.17158 0.1372,-1.08624 0.54786,-2.35373 0.83604,-2.58042 0.25246,-0.19858 0.36015,-0.21139 0.65353,-0.0777 0.39261,0.17889 0.42312,0.45403 0.14244,1.2844 -0.63836,1.88852 -0.50736,3.35401 0.43023,4.81297 0.19016,0.29589 0.35527,0.54877 0.36692,0.56196 0.0116,0.0132 0.17866,-10e-4 0.37115,-0.032 0.25212,-0.0403 0.34996,-0.0965 0.34996,-0.20093 0,-0.36266 0.36876,-1.54763 0.67653,-2.17397 0.39284,-0.79948 1.2744,-1.80106 2.04706,-2.32576 0.7742,-0.52576 1.85459,-1.02086 2.10241,-0.96346 0.42982,0.0995 0.65241,0.64938 0.39812,0.9834 -0.0575,0.0755 -0.40869,0.2904 -0.78048,0.47757 -1.69573,0.85369 -2.56564,1.8444 -3.00193,3.41879 -0.23247,0.83892 -0.22262,0.95517 0.0981,1.15825 l 0.26981,0.17083 0.36439,-0.2507 c 0.61514,-0.42323 1.73038,-0.91459 2.39798,-1.05653 1.19466,-0.25399 2.89988,-0.0549 4.15499,0.48498 0.57751,0.24844 0.72712,0.63408 0.40492,1.04369 -0.15807,0.20095 -0.2262,0.2253 -0.52917,0.18912 -0.19125,-0.0228 -0.67159,-0.14654 -1.0674,-0.27488 -0.60859,-0.19734 -0.86995,-0.23413 -1.69334,-0.2384 -1.09586,-0.006 -1.61823,0.13138 -2.51177,0.65905 -0.81014,0.47841 -0.80529,0.47274 -0.72706,0.84925 l 0.0689,0.33169 0.71712,0.15404 c 1.93781,0.41627 3.53512,1.69274 4.47241,3.57409 0.49088,0.9853 0.50623,1.09474 0.19687,1.4041 -0.44034,0.44034 -0.8251,0.28142 -1.16178,-0.47986 -0.72511,-1.63961 -2.01665,-2.79703 -3.56459,-3.19445 -0.7498,-0.1925 -0.89101,-0.1747 -1.09363,0.13787 l -0.17452,0.26921 0.43501,0.6929 c 1.06449,1.69553 1.24885,3.60558 0.5494,5.69205 -0.12954,0.38642 -0.30283,0.77695 -0.38508,0.86783 -0.19626,0.21687 -0.72224,0.22286 -0.91451,0.0104 z m -0.71098,-7.54546 c 1.06808,-0.67736 1.00899,-2.2656 -0.10647,-2.8619 -0.48128,-0.25727 -1.30092,-0.24221 -1.66636,0.0306 -0.89398,0.66745 -1.0598,1.75524 -0.38202,2.50611 0.39136,0.43357 0.69337,0.56726 1.29097,0.57147 0.37874,0.003 0.54686,-0.0453 0.86388,-0.24631 z m -10.43463,-3.878 c -0.46851,-0.23498 -0.50654,-0.39423 -0.50793,-2.12692 l -10e-4,-1.55554 -0.63122,-1.11826 c -0.52203,-0.92484 -0.74318,-1.22462 -1.27857,-1.73319 -0.90389,-0.85861 -1.39063,-1.02188 -1.77621,-0.59582 -0.13372,0.14776 -0.13215,0.18753 0.0256,0.64855 0.0924,0.27013 0.43518,0.91942 0.76166,1.44287 0.32648,0.52345 0.61831,1.08342 0.6485,1.24437 0.15905,0.84781 -0.82797,1.45734 -1.59363,0.98414 -0.17314,-0.10701 -0.7898,-0.94072 -1.77247,-2.39633 l -1.50696,-2.23222 0.20934,-1.85818 0.20933,-1.85817 -1.09281,-1.53478 -1.09281,-1.53477 1.7775,-3.07956 c 0.97762,-1.69376 1.81198,-3.07956 1.85413,-3.07956 0.0421,0 0.56068,0.5715 1.15227,1.27 1.07578,1.27018 6.16852,7.45644 6.37451,7.74325 0.06,0.0836 1.34591,0.69555 2.8575,1.35988 1.60404,0.70496 2.74833,1.25427 2.74833,1.31931 0,0.0613 -0.1465,0.26543 -0.32555,0.45366 -0.41657,0.4379 -0.64203,0.44302 -2.02144,0.0459 -0.56612,-0.16299 -1.05965,-0.29634 -1.09672,-0.29634 -0.0371,0 0.40371,0.47226 0.97952,1.04946 l 1.04694,1.04945 -0.1002,0.70738 c -0.15832,1.11765 -0.0927,1.09328 -0.92292,0.3427 -1.1303,-1.02188 -2.45442,-2.05782 -2.51173,-1.9651 -0.0283,0.0459 0.26882,0.41737 0.66037,0.82558 0.39154,0.40821 0.7595,0.83316 0.81768,0.94432 0.0761,0.14542 0.0892,0.42349 0.0466,0.99128 -0.059,0.78712 -0.0584,0.79073 0.2448,1.39676 0.16718,0.33417 0.30397,0.71013 0.30397,0.83546 0,0.30325 -0.32182,0.59605 -0.65513,0.59605 -0.41077,0 -0.72586,-0.33429 -1.06987,-1.13507 -0.26441,-0.61549 -0.307,-0.80505 -0.307,-1.36634 v -0.65171 l -1.02562,-1.09044 c -0.56409,-0.59974 -1.05683,-1.09044 -1.09496,-1.09044 -0.19781,0 -0.12618,0.453 0.28914,1.82847 l 0.45771,1.51586 -0.11276,1.86267 c -0.062,1.02446 -0.11487,1.89124 -0.11746,1.92616 -0.009,0.11837 -0.55346,0.064 -0.85021,-0.0848 z m 8.09168,-3.61136 c -0.14024,-1.16943 -0.13729,-1.2319 0.0604,-1.27749 1.21635,-0.28053 1.31475,-0.29317 1.57524,-0.20236 0.50671,0.17664 0.66382,0.93904 0.26744,1.29777 -0.0884,0.08 -0.54344,0.23174 -1.01113,0.33713 l -0.85034,0.19163 z"
         id="path166" />
      <path
         style="fill:#443a00;stroke-width:0.0846667"
         d="m 443.6473,455.71041 c -1.7388,-0.34901 -3.10458,-1.68197 -3.56532,-3.47965 -0.18169,-0.70891 -0.12388,-1.87888 0.12499,-2.52982 0.0979,-0.25611 6.17315,-10.84791 13.5005,-23.53733 12.6949,-21.98487 13.35003,-23.0997 13.90781,-23.66691 0.96119,-0.97744 1.99128,-1.36071 3.46348,-1.28864 1.2964,0.0634 2.41131,0.58994 3.18256,1.50289 0.28653,0.33917 26.31299,45.2855 26.9257,46.49927 0.72149,1.42928 0.62097,3.09253 -0.27025,4.47142 -0.65868,1.01911 -1.52892,1.65682 -2.65341,1.94442 -0.66365,0.16973 -0.84873,0.17082 -27.47277,0.16161 -14.74255,-0.005 -26.95703,-0.0399 -27.14329,-0.0773 z m 54.42877,-1.86362 c 1.35852,-0.50829 2.1517,-2.13805 1.68806,-3.46851 -0.0893,-0.25612 -6.11485,-10.77172 -13.39022,-23.368 -11.74385,-20.33282 -13.27918,-22.95125 -13.68455,-23.33829 -0.60826,-0.58076 -1.08322,-0.73949 -2.06391,-0.68979 -0.83577,0.0424 -1.26349,0.21801 -1.77217,0.72774 -0.20349,0.20392 -4.97679,8.38586 -13.56432,23.25068 -7.28768,12.61481 -13.31488,23.09202 -13.39377,23.28267 -0.20416,0.49341 -0.1947,1.37157 0.021,1.94805 0.29133,0.77864 1.06446,1.50614 1.85812,1.74843 0.11641,0.0355 12.27841,0.0679 27.02665,0.0719 26.76318,0.007 26.81588,0.007 27.27512,-0.16488 z m -22.0504,-2.16056 c -0.83506,-0.15122 -1.90927,-0.49091 -2.69736,-0.85296 -1.53313,-0.70432 -3.26056,-2.13515 -4.23647,-3.50907 -0.53437,-0.7523 -1.27952,-2.25192 -1.49666,-3.01204 l -0.15655,-0.54803 -3.50492,-3.57209 c -1.9277,-1.96465 -3.7946,-3.86944 -4.14867,-4.23287 l -0.64374,-0.66078 0.28189,-0.2542 c 0.15504,-0.13982 0.31706,-0.24248 0.36004,-0.22815 0.043,0.0143 1.94449,1.92749 4.22555,4.25147 l 4.1474,4.22542 0.20973,0.68518 c 1.19219,3.89486 4.68092,6.66839 8.78811,6.98653 3.03274,0.23492 5.78138,-0.78539 7.94532,-2.94932 1.9911,-1.9911 2.98178,-4.37065 2.98178,-7.16204 0,-4.36893 -2.61927,-8.06702 -6.86375,-9.69077 l -0.78392,-0.2999 -3.8577,-3.92946 -3.8577,-3.92947 0.29667,-0.29667 0.29668,-0.29668 3.07495,3.12593 c 1.69122,1.71926 3.41521,3.47815 3.8311,3.90864 0.41589,0.43049 0.79216,0.78271 0.83617,0.78271 0.18208,0 1.66742,0.6386 2.21767,0.95345 3.5351,2.02279 5.64236,5.63509 5.64234,9.67222 -1e-5,3.05779 -1.0487,5.58244 -3.2213,7.75504 -1.69299,1.69299 -3.5837,2.68282 -5.88229,3.07952 -0.92726,0.16003 -2.89637,0.15919 -3.78437,-0.002 z m 3.51291,-1.94234 c -0.16581,-0.25305 -0.13608,-0.49248 0.18402,-1.48228 0.20102,-0.62158 0.23272,-0.85815 0.23261,-1.73567 -9e-5,-0.83534 -0.0332,-1.10618 -0.18597,-1.52318 -0.21163,-0.5776 -0.82281,-1.64543 -0.97105,-1.69658 -0.0544,-0.0188 -0.22915,-0.006 -0.38834,0.0285 -0.28573,0.0619 -0.29195,0.073 -0.4843,0.86494 -0.48433,1.99414 -1.79173,3.54958 -3.77035,4.48561 -0.67838,0.32093 -1.01457,0.32916 -1.24943,0.0306 -0.35623,-0.45288 -0.17982,-0.75342 0.69881,-1.19053 1.69098,-0.84125 2.64898,-1.93901 3.06896,-3.51667 0.18009,-0.6765 0.15728,-0.85286 -0.13857,-1.0716 l -0.25933,-0.19173 -0.52384,0.34083 c -1.14218,0.74315 -2.14693,1.05129 -3.44484,1.05649 -0.96223,0.004 -1.55198,-0.0956 -2.54,-0.42844 -0.79071,-0.26635 -0.93133,-0.38512 -0.93133,-0.7866 0,-0.31078 0.14282,-0.51277 0.43557,-0.61605 0.0766,-0.027 0.49568,0.0659 0.93134,0.20637 1.17485,0.37894 2.0656,0.47025 2.90875,0.2982 0.64771,-0.13218 1.79888,-0.63366 2.22637,-0.96988 0.16558,-0.13023 0.18635,-0.20297 0.14024,-0.49128 l -0.0541,-0.33842 -0.77525,-0.18435 c -1.06269,-0.25272 -2.16603,-0.81417 -2.87298,-1.46196 -0.88797,-0.81367 -1.92393,-2.49773 -1.92393,-3.12756 0,-0.39994 0.48325,-0.69805 0.88294,-0.54468 0.0741,0.0285 0.31194,0.39473 0.52847,0.81396 0.91145,1.76475 1.93593,2.64815 3.55381,3.06446 0.71765,0.18466 0.83885,0.17093 1.04481,-0.11832 l 0.17957,-0.25217 -0.4302,-0.70399 c -1.08569,-1.77667 -1.2716,-3.56554 -0.59127,-5.6894 0.33677,-1.05132 0.68261,-1.3503 1.16837,-1.01005 0.34064,0.23859 0.36662,0.47091 0.12876,1.15143 -0.2521,0.72127 -0.45455,1.71144 -0.45246,2.21297 0.003,0.63176 0.24118,1.524 0.5922,2.21505 0.49853,0.98147 0.59043,1.07407 1.0008,1.00845 0.32289,-0.0516 0.3388,-0.0692 0.39361,-0.4347 0.0314,-0.20949 0.15181,-0.67193 0.26755,-1.02765 0.5636,-1.73217 1.75564,-3.02213 3.61896,-3.91621 0.73218,-0.35133 0.74323,-0.35366 1.02888,-0.21744 0.34818,0.16603 0.46164,0.49315 0.28236,0.81402 -0.0747,0.13367 -0.40676,0.36441 -0.8614,0.59853 -1.65609,0.85283 -2.50099,1.83106 -2.93539,3.39863 -0.23247,0.83892 -0.22262,0.95517 0.0981,1.15825 l 0.26981,0.17083 0.37168,-0.25572 c 1.03572,-0.71259 2.47837,-1.17103 3.67829,-1.16887 1.03127,0.002 2.89804,0.47128 3.242,0.81524 0.22278,0.22278 0.24912,0.53243 0.0662,0.77851 -0.23563,0.31703 -0.49027,0.31756 -1.43804,0.003 -0.75778,-0.25154 -0.92091,-0.27537 -1.88779,-0.27585 -0.95421,-5.1e-4 -1.11663,0.0223 -1.651,0.23178 -0.32596,0.12776 -0.83158,0.38788 -1.12358,0.57803 -0.52196,0.33988 -0.53,0.3509 -0.47572,0.65214 0.0701,0.38929 0.0972,0.43341 0.26539,0.43341 0.30776,0 1.28601,0.29075 1.8567,0.55184 1.47121,0.67308 2.44124,1.68019 3.25817,3.38272 0.31391,0.65421 0.33168,0.72818 0.22713,0.94567 -0.0624,0.12977 -0.21085,0.29056 -0.32993,0.3573 -0.30984,0.17367 -0.66633,-0.0116 -0.87334,-0.45387 -0.55765,-1.19142 -1.39219,-2.25382 -2.15098,-2.73829 -0.50855,-0.32468 -1.16886,-0.58349 -1.8564,-0.72761 l -0.54006,-0.11321 -0.2008,0.2955 -0.2008,0.29551 0.36381,0.56272 c 0.8945,1.38357 1.22683,2.91798 0.97205,4.48812 -0.12357,0.76156 -0.55904,2.07524 -0.74315,2.24185 -0.24526,0.22196 -0.74486,0.18323 -0.9112,-0.0706 z m -0.75712,-7.43279 c 1.09808,-0.62194 1.13444,-2.18201 0.0666,-2.85919 -0.65811,-0.41736 -1.47487,-0.33737 -2.04273,0.20006 -0.36001,0.34071 -0.51908,0.70884 -0.51908,1.20131 0,0.66713 0.38493,1.27295 0.97367,1.53242 0.4103,0.18084 1.13307,0.14539 1.5215,-0.0746 z m -10.32686,-3.9035 c -0.45472,-0.19817 -0.46782,-0.25002 -0.5243,-2.07424 l -0.0527,-1.70136 -0.64283,-1.12903 c -0.54499,-0.95718 -0.74224,-1.22035 -1.29582,-1.72892 -0.78893,-0.72476 -1.15177,-0.87693 -1.56296,-0.65549 -0.15495,0.0834 -0.28172,0.1969 -0.28172,0.25213 0,0.29513 0.38655,1.13745 0.89011,1.93961 0.62886,1.00178 0.76121,1.3852 0.62434,1.80877 -0.0993,0.30723 -0.58179,0.61187 -0.96912,0.61187 -0.56482,0 -0.735,-0.18368 -2.26294,-2.44251 -0.808,-1.1945 -1.49464,-2.21516 -1.52586,-2.26814 -0.0312,-0.053 0.0351,-0.92818 0.14743,-1.9449 0.11232,-1.01671 0.18033,-1.88776 0.15113,-1.93567 -0.0292,-0.0479 -0.52047,-0.73995 -1.09172,-1.53786 l -1.03865,-1.45075 1.79183,-3.10008 c 0.9855,-1.70505 1.81311,-3.09831 1.83913,-3.09613 0.0754,0.006 1.77712,2.03992 4.77134,5.70183 1.52718,1.86774 2.84163,3.44151 2.921,3.49728 0.0794,0.0558 1.32541,0.62092 2.76897,1.2559 1.44357,0.63498 2.63701,1.16684 2.65208,1.1819 0.0624,0.0623 -0.25188,0.54892 -0.46047,0.71299 -0.31201,0.24543 -0.64109,0.22399 -1.83428,-0.11952 -0.56612,-0.16299 -1.06804,-0.29634 -1.11538,-0.29634 -0.0473,0 0.38353,0.47073 0.95748,1.04607 l 1.04355,1.04606 -0.095,0.66844 c -0.16808,1.18245 -0.0848,1.14209 -0.87527,0.42404 -2.08497,-1.89386 -3.43799,-2.72496 -1.90888,-1.17253 0.40067,0.40677 0.7725,0.82599 0.82628,0.93158 0.0664,0.13034 0.0799,0.45655 0.0421,1.016 l -0.0557,0.82401 0.30549,0.59267 c 0.36853,0.71499 0.38678,0.98274 0.0832,1.22152 -0.54571,0.42926 -1.05399,0.0993 -1.50437,-0.9766 -0.26278,-0.62775 -0.30454,-0.81952 -0.30454,-1.39838 v -0.67087 l -1.02797,-1.05634 c -0.56538,-0.58098 -1.05811,-1.05633 -1.09496,-1.05633 -0.19278,0 -0.12183,0.44862 0.28867,1.82536 l 0.45291,1.51897 -0.10865,1.82033 c -0.0598,1.00119 -0.11091,1.86796 -0.11366,1.92617 -0.007,0.13854 -0.48055,0.1318 -0.80937,-0.0115 z m 8.05208,-3.71382 c -0.0242,-0.19791 -0.0597,-0.53879 -0.079,-0.75751 l -0.035,-0.39767 0.74361,-0.17458 c 0.83321,-0.19561 1.0452,-0.16192 1.34013,0.21302 0.22305,0.28356 0.22761,0.50919 0.0173,0.85417 -0.1444,0.23681 -0.24722,0.28647 -0.92033,0.4445 -1.0271,0.24113 -1.01478,0.24323 -1.06676,-0.18193 z"
         id="path164" />
      <path
         style="fill:#312a00;stroke-width:0.0846667"
         d="m 443.3671,455.6255 c -0.84249,-0.22071 -1.40081,-0.5384 -2.00502,-1.14089 -1.3976,-1.39359 -1.7795,-3.42066 -0.97303,-5.16467 0.1292,-0.2794 6.17726,-10.795 13.44012,-23.36799 12.0275,-20.82122 13.25345,-22.90996 13.746,-23.42019 1.11474,-1.15472 2.735,-1.60344 4.38525,-1.21445 1.03552,0.2441 2.10273,0.9935 2.64776,1.8593 0.57331,0.91072 26.46082,45.78919 26.66959,46.23428 1.18179,2.51957 -0.43929,5.67453 -3.21834,6.26355 -0.47925,0.10157 -4.58994,0.11908 -27.3188,0.11637 -26.08073,-0.003 -26.77026,-0.007 -27.37353,-0.16531 z m 54.98023,-1.87515 c 1.25802,-0.66394 1.88539,-2.26524 1.37268,-3.50364 -0.11464,-0.27689 -6.13977,-10.77138 -13.38919,-23.3211 -11.75809,-20.35483 -13.23027,-22.86472 -13.63941,-23.25362 -0.56493,-0.53697 -1.1032,-0.73599 -1.97537,-0.73037 -0.51821,0.003 -0.70644,0.0474 -1.16249,0.27187 -0.34113,0.16794 -0.65167,0.40057 -0.83231,0.62351 -0.24045,0.29674 -26.09174,44.95197 -26.69922,46.11993 -0.59249,1.13915 -0.3012,2.47816 0.74344,3.41737 0.77242,0.69448 -1.9315,0.63521 28.18684,0.61785 l 26.96633,-0.0155 z m -22.27802,-2.06473 c -2.69383,-0.45285 -5.24517,-2.0321 -6.8886,-4.26397 -0.60341,-0.81947 -1.34817,-2.27801 -1.58177,-3.09778 l -0.16031,-0.56258 -4.12618,-4.20558 -4.12618,-4.20558 0.29081,-0.29082 0.29082,-0.29082 3.28246,3.33873 c 5.62745,5.72391 5.05176,5.08044 5.35125,5.9813 1.20622,3.62834 4.17181,6.1658 7.9568,6.80811 0.83767,0.14216 2.55803,0.1197 3.42249,-0.0447 2.13103,-0.4052 4.00837,-1.43205 5.52391,-3.02143 3.84781,-4.03525 3.70914,-10.34919 -0.31444,-14.31728 -1.0362,-1.02191 -2.17834,-1.73354 -3.76975,-2.34881 l -0.78068,-0.30183 -3.85746,-3.93295 -3.85747,-3.93294 0.28865,-0.28865 0.28864,-0.28864 2.86783,2.90943 c 1.57731,1.60019 3.29726,3.35032 3.82211,3.88919 0.84059,0.86302 1.01011,0.99736 1.42286,1.12747 0.25772,0.0812 0.88014,0.35373 1.38316,0.60554 1.39237,0.69702 2.47842,1.54189 3.42353,2.66322 1.22729,1.45615 1.91627,2.78457 2.39319,4.61433 0.30316,1.16314 0.37613,3.1749 0.16167,4.45769 -0.56206,3.36203 -2.67205,6.27399 -5.72051,7.89478 -0.8767,0.46611 -2.24053,0.93065 -3.2461,1.10566 -0.91801,0.15978 -2.78695,0.15921 -3.74073,-0.001 z m 3.51898,-1.90001 c -0.21505,-0.21505 -0.21419,-0.51673 0.003,-1.0884 0.41452,-1.09062 0.52689,-2.35117 0.29198,-3.27531 -0.14476,-0.56948 -0.61532,-1.5704 -0.90606,-1.92726 -0.17311,-0.21247 -0.22963,-0.23149 -0.54014,-0.18176 l -0.34681,0.0555 -0.10268,0.55726 c -0.33491,1.81763 -1.42145,3.33834 -3.11125,4.35449 -1.25037,0.75191 -1.79122,0.82586 -2.05254,0.28065 -0.18385,-0.38359 6.8e-4,-0.61539 0.84886,-1.06609 1.37198,-0.72906 2.01713,-1.32252 2.55925,-2.35416 0.23956,-0.45589 0.71324,-1.97303 0.62346,-1.99687 -0.0104,-0.003 -0.14292,-0.0919 -0.29459,-0.19819 l -0.27577,-0.19319 -0.70156,0.42871 c -1.75041,1.06964 -3.52073,1.2574 -5.59081,0.59296 -1.01254,-0.325 -1.15709,-0.42969 -1.15709,-0.83806 0,-0.3212 0.13978,-0.51985 0.44074,-0.62635 0.0794,-0.0281 0.47493,0.0606 0.87888,0.19716 1.68136,0.56834 2.9039,0.53148 4.22604,-0.1274 1.09475,-0.54556 1.17505,-0.62018 1.10616,-1.0279 l -0.0563,-0.33312 -0.77894,-0.18524 c -1.173,-0.27896 -2.20376,-0.82495 -2.963,-1.56951 -0.71323,-0.69944 -1.03501,-1.14609 -1.51143,-2.09796 -0.39181,-0.7828 -0.40662,-1.11501 -0.0611,-1.37175 0.16492,-0.12256 0.29113,-0.15046 0.48654,-0.10754 0.23057,0.0506 0.31706,0.16155 0.68586,0.87952 0.92706,1.80479 2.04797,2.70906 3.80898,3.07279 l 0.5305,0.10957 0.20146,-0.25179 c 0.11081,-0.13849 0.20165,-0.27655 0.20188,-0.30679 2.6e-4,-0.0302 -0.13787,-0.25885 -0.3069,-0.508 -0.75812,-1.11749 -1.07823,-2.17576 -1.07179,-3.54334 0.007,-1.49482 0.47089,-3.10146 0.97695,-3.38377 0.20906,-0.11664 0.25648,-0.11667 0.46444,-3.4e-4 0.30995,0.17338 0.44817,0.4644 0.35514,0.74776 -0.47935,1.46008 -0.52404,1.67715 -0.53409,2.59401 -0.0114,1.03699 0.0909,1.45107 0.59566,2.413 0.44628,0.8504 0.54749,0.9452 0.94182,0.88214 l 0.33215,-0.0531 0.14784,-0.68968 c 0.44901,-2.09462 1.62331,-3.54443 3.7312,-4.60661 0.80821,-0.40726 1.2088,-0.38576 1.3997,0.0751 0.16982,0.40996 -0.0103,0.64004 -0.82571,1.05456 -1.68583,0.85705 -2.6259,1.95727 -3.02971,3.54585 -0.18551,0.72978 -0.16869,0.85016 0.14666,1.04982 0.24507,0.15517 0.29335,0.16073 0.4445,0.0512 0.47299,-0.34283 1.42915,-0.82708 2.03223,-1.02924 0.59562,-0.19965 0.81012,-0.22714 1.778,-0.2278 1.14766,-7.7e-4 1.97748,0.15412 2.86625,0.5351 0.62828,0.26931 0.78646,0.70142 0.41261,1.12715 -0.1713,0.19508 -0.46512,0.187 -1.08046,-0.0297 -1.1911,-0.41945 -2.37342,-0.52222 -3.30244,-0.28707 -0.55497,0.14048 -1.55636,0.61374 -1.92633,0.9104 -0.21387,0.17149 -0.22987,0.22061 -0.16809,0.51594 l 0.0683,0.32641 0.80309,0.20135 c 2.03474,0.51014 3.43131,1.6631 4.4382,3.66401 0.36427,0.72388 0.40191,1.04977 0.15031,1.30137 -0.19832,0.19832 -0.6161,0.23575 -0.81246,0.0728 -0.0695,-0.0577 -0.2397,-0.34704 -0.37819,-0.64298 -0.86046,-1.83876 -2.1837,-2.90895 -4.01682,-3.24868 -0.40171,-0.0745 -0.40821,-0.0721 -0.60913,0.22362 l -0.20309,0.29886 0.25784,0.37476 c 0.69619,1.01188 1.1721,2.47705 1.1721,3.60851 0,0.99493 -0.47617,2.90998 -0.81728,3.28689 -0.18976,0.20968 -0.65975,0.20201 -0.87606,-0.0143 z m -0.8304,-7.46133 c 0.64739,-0.32537 1.01714,-1.15466 0.82937,-1.86014 -0.22525,-0.84628 -0.86128,-1.30216 -1.73878,-1.24628 -0.91006,0.058 -1.48127,0.61644 -1.54602,1.51162 -0.099,1.36873 1.21156,2.21994 2.45543,1.5948 z M 468.4546,438.4076 c -0.13972,-0.0609 -0.29667,-0.16417 -0.34878,-0.22952 -0.0579,-0.0726 -0.11715,-0.77701 -0.1524,-1.81214 l -0.0577,-1.69333 -0.64658,-1.1646 c -0.58403,-1.05196 -0.71203,-1.222 -1.32326,-1.75799 -0.79362,-0.69592 -1.16366,-0.84748 -1.56388,-0.64052 -0.14726,0.0761 -0.26773,0.20416 -0.2677,0.28445 8e-5,0.29837 0.35562,1.065 0.88502,1.90831 0.52874,0.84228 0.71773,1.33902 0.65718,1.7273 -0.0344,0.22053 -0.45147,0.59472 -0.74499,0.66839 -0.28472,0.0715 -0.71856,-0.0269 -0.94227,-0.21365 -0.13972,-0.11664 -2.71667,-3.83044 -3.09579,-4.46154 -0.031,-0.0516 0.0359,-0.92792 0.14861,-1.94733 l 0.20499,-1.85348 -0.29574,-0.42334 c -0.16265,-0.23283 -0.653,-0.92446 -1.08965,-1.53696 l -0.79392,-1.11363 1.78971,-3.09854 c 0.98435,-1.70419 1.80999,-3.09683 1.83476,-3.09475 0.063,0.005 1.85412,2.14901 4.98986,5.97222 l 2.67519,3.26169 2.70933,1.18939 c 1.49013,0.65416 2.72167,1.20104 2.73674,1.21528 0.0632,0.0598 -0.25289,0.54821 -0.46047,0.71149 -0.31201,0.24543 -0.64109,0.22399 -1.83428,-0.11952 -0.56612,-0.16299 -1.06793,-0.29634 -1.11514,-0.29634 -0.0472,0 0.29569,0.39053 0.76198,0.86784 1.34155,1.37324 1.24533,1.21358 1.14087,1.89305 -0.18184,1.18272 -0.0824,1.14201 -0.91884,0.37593 -1.09584,-1.00359 -2.40742,-2.02231 -2.53878,-1.9719 -0.0766,0.0294 0.14113,0.30474 0.64469,0.81555 0.41815,0.42416 0.80287,0.85501 0.85495,0.95745 0.0626,0.12323 0.0762,0.46786 0.0401,1.01853 -0.0534,0.81533 -0.0492,0.84259 0.20905,1.33874 0.38877,0.747 0.41907,0.99553 0.15373,1.26087 -0.522,0.522 -1.12047,0.1288 -1.56591,-1.02882 -0.21815,-0.56692 -0.26773,-0.81803 -0.26773,-1.35594 v -0.66017 l -1.04911,-1.04659 c -0.97855,-0.9762 -1.23689,-1.14403 -1.23689,-0.80355 0,0.0698 0.19395,0.76292 0.43101,1.54017 l 0.43101,1.41318 -0.0527,1.43933 c -0.029,0.79163 -0.076,1.69651 -0.1045,2.01083 l -0.0518,0.5715 -0.26301,-0.003 c -0.14466,-0.002 -0.37733,-0.0531 -0.51704,-0.11402 z m 8.07967,-3.45982 c -0.003,-0.0582 -0.0328,-0.40001 -0.0656,-0.75956 l -0.0595,-0.65373 0.59472,-0.13662 c 0.81864,-0.18806 1.11799,-0.17721 1.35903,0.0492 0.26866,0.25239 0.33631,0.60182 0.17639,0.91106 -0.14482,0.28006 -0.35198,0.37946 -1.17878,0.5656 -0.69915,0.1574 -0.81848,0.16086 -0.82627,0.024 z"
         id="path162" />
      <path
         style="fill:#000000;stroke-width:0.0846667"
         d="m 443.73436,455.70665 c -1.59374,-0.26645 -2.91758,-1.42391 -3.53469,-3.09045 -0.27291,-0.73703 -0.26606,-2.15699 0.0139,-2.87292 0.10925,-0.2794 6.20338,-10.90804 13.54252,-23.61919 12.06049,-20.88838 13.39275,-23.16033 13.8519,-23.622 0.94068,-0.94585 2.08617,-1.37066 3.47133,-1.28736 1.42028,0.0854 2.5543,0.68497 3.39037,1.79249 0.34235,0.45351 26.64888,46.04403 26.84539,46.52439 0.49581,1.21201 0.45063,2.39482 -0.1386,3.62884 -0.43423,0.90939 -1.24829,1.75523 -2.05065,2.13069 -1.15163,0.53892 0.8683,0.50369 -28.34285,0.49438 -14.64521,-0.005 -26.81709,-0.0402 -27.0486,-0.0789 z m 54.35968,-1.82922 c 0.6027,-0.2044 1.38629,-1.00681 1.63945,-1.67882 0.28424,-0.75451 0.22294,-1.59191 -0.1707,-2.33188 -0.15998,-0.30073 -6.17702,-10.73771 -13.37119,-23.19327 -8.76396,-15.17342 -13.18793,-22.75472 -13.40644,-22.97448 -0.48685,-0.48959 -1.13964,-0.75782 -1.86836,-0.76768 -0.99295,-0.0134 -1.72735,0.30017 -2.25976,0.96498 -0.27171,0.33928 -26.51153,45.73244 -26.77135,46.31266 -0.27688,0.61835 -0.24392,1.43101 0.0866,2.1357 0.32898,0.70135 0.89086,1.26642 1.4872,1.49566 0.43876,0.16866 0.62471,0.16985 27.32952,0.17423 24.90977,0.004 26.91844,-0.006 27.30499,-0.1371 z m -21.51141,-2.11604 c -0.54154,-0.0658 -1.87798,-0.39639 -2.40766,-0.59563 -3.10728,-1.1688 -5.53965,-3.70211 -6.56216,-6.8345 l -0.21335,-0.65357 -4.10506,-4.16387 -4.10506,-4.16388 0.27835,-0.27979 0.27836,-0.2798 2.66078,2.69279 c 1.46342,1.48104 3.35168,3.39765 4.19612,4.25914 l 1.53535,1.56633 0.23324,0.71967 c 0.70467,2.17428 2.06279,4.01428 3.85619,5.22442 3.5372,2.38681 8.04106,2.35744 11.56762,-0.0754 2.13523,-1.47304 3.71782,-3.96526 4.18366,-6.58833 0.1452,-0.81762 0.14486,-2.65669 -6.8e-4,-3.47133 -0.36647,-2.05164 -1.3922,-4.0083 -2.88613,-5.5055 -1.14311,-1.14562 -2.53007,-2.02526 -3.87758,-2.45925 l -0.61278,-0.19736 -2.64646,-2.67111 c -1.45555,-1.46911 -3.22691,-3.26346 -3.93636,-3.98744 l -1.2899,-1.31633 0.28475,-0.276 0.28476,-0.27599 3.83111,3.89267 c 3.56593,3.62323 3.86127,3.90229 4.26666,4.03151 0.74974,0.23899 2.09843,0.93745 2.86583,1.48416 0.83574,0.5954 2.03663,1.79881 2.63707,2.64259 1.99726,2.80673 2.54851,6.58162 1.44386,9.88738 -0.54698,1.6369 -1.36526,2.9397 -2.65889,4.23334 -1.68335,1.68335 -3.61792,2.69033 -5.92042,3.08168 -0.72477,0.12319 -2.46351,0.1666 -3.18125,0.0794 z m 3.00566,-1.97578 c -0.2036,-0.2036 -0.21513,-0.48927 -0.0368,-0.91289 0.4303,-1.02244 0.5768,-2.58314 0.33105,-3.52668 -0.14407,-0.55312 -0.72912,-1.73339 -0.96507,-1.94692 -0.11373,-0.10292 -0.23971,-0.12462 -0.49055,-0.0845 l -0.33753,0.054 -0.14634,0.68968 c -0.1908,0.89921 -0.75283,2.07901 -1.30702,2.74368 -0.24305,0.29149 -0.71643,0.73514 -1.05196,0.98587 -0.70653,0.52797 -1.90661,1.15113 -2.21685,1.15113 -0.30205,0 -0.55221,-0.28171 -0.55221,-0.62187 0,-0.32953 0.1399,-0.47455 0.68756,-0.71276 0.99896,-0.4345 2.00649,-1.26129 2.5441,-2.08773 0.31411,-0.48284 0.67572,-1.46097 0.77025,-2.08347 0.0407,-0.2681 0.0159,-0.31817 -0.24141,-0.48683 -0.15773,-0.1034 -0.30446,-0.188 -0.32607,-0.188 -0.0216,0 -0.20853,0.11423 -0.41539,0.25384 -0.53207,0.35908 -1.53325,0.81793 -2.13004,0.9762 -1.1067,0.2935 -2.82162,0.13754 -4.21336,-0.38318 -0.65144,-0.24373 -0.83691,-0.6341 -0.51777,-1.08974 0.16993,-0.2426 0.49635,-0.21896 1.55613,0.11269 0.95249,0.29807 1.96361,0.36352 2.75167,0.1781 0.63055,-0.14835 1.61919,-0.59861 2.0211,-0.92046 0.21986,-0.17608 0.23751,-0.22773 0.18468,-0.54043 l -0.0584,-0.34574 -0.77465,-0.18066 c -2.00164,-0.46682 -3.38889,-1.58934 -4.42109,-3.5774 -0.44416,-0.85548 -0.47874,-1.16709 -0.15755,-1.41974 0.45244,-0.35589 0.74116,-0.17305 1.21189,0.76744 0.59098,1.18075 1.17932,1.85977 2.07869,2.39911 0.52033,0.31203 1.55829,0.68243 2.05793,0.73438 0.24599,0.0256 0.3012,-0.008 0.45543,-0.278 l 0.17552,-0.30711 -0.25368,-0.36982 c -0.91222,-1.32983 -1.29359,-2.79971 -1.12122,-4.32134 0.0945,-0.83387 0.50916,-2.23628 0.74877,-2.53219 0.31264,-0.38609 1.02759,-0.14697 1.02759,0.34367 0,0.12433 -0.092,0.49663 -0.20451,0.82734 -0.61031,1.79438 -0.47577,3.28255 0.42862,4.7412 0.39182,0.63196 0.41983,0.65015 0.86405,0.56131 0.22247,-0.0445 0.27035,-0.0996 0.31291,-0.35984 0.29522,-1.8055 1.29816,-3.38114 2.77961,-4.36686 1.37547,-0.91521 2.02178,-1.08402 2.36785,-0.61844 0.29186,0.39264 0.13489,0.63232 -0.70798,1.08097 -0.96529,0.51381 -1.39884,0.82369 -1.90906,1.36449 -0.67715,0.71775 -1.03071,1.43106 -1.25346,2.52887 l -0.11166,0.55034 0.28338,0.19371 0.28338,0.19371 0.69826,-0.42434 c 1.37445,-0.83524 2.70204,-1.14021 4.13377,-0.94959 0.93508,0.1245 2.28137,0.54302 2.49065,0.77427 0.31882,0.35229 0.0672,1.01657 -0.38504,1.01657 -0.0853,0 -0.50973,-0.11908 -0.94312,-0.26462 -1.01702,-0.34154 -2.27285,-0.42345 -3.11632,-0.20328 -0.5776,0.15078 -1.48591,0.58972 -1.8883,0.91253 -0.21272,0.17065 -0.23155,0.2263 -0.18176,0.53718 l 0.0555,0.34681 0.54323,0.10009 c 2.10252,0.38741 3.78238,1.73975 4.77964,3.84775 0.2847,0.6018 0.31478,0.98655 0.0928,1.18742 -0.15747,0.1425 -0.48398,0.18208 -0.72841,0.0883 -0.0743,-0.0285 -0.32419,-0.41903 -0.55532,-0.86783 -0.88699,-1.72231 -1.92874,-2.58305 -3.60932,-2.98218 -0.39992,-0.095 -0.7328,-0.1608 -0.73974,-0.14626 -0.007,0.0145 -0.10113,0.15267 -0.20931,0.30694 l -0.19668,0.28049 0.34066,0.52384 c 0.78457,1.20642 1.06302,2.13403 1.05947,3.52951 -0.002,0.98257 -0.21193,2.03481 -0.57656,2.89678 -0.21154,0.50009 -0.72922,0.65596 -1.06463,0.32055 z m -1.12544,-7.32415 c 1.30359,-0.38713 1.60891,-2.12038 0.51882,-2.94524 -0.80015,-0.60546 -1.91463,-0.41123 -2.44574,0.42625 -0.20626,0.32524 -0.24939,0.48269 -0.24824,0.90622 0.002,0.81092 0.37821,1.34023 1.1465,1.61392 0.42825,0.15256 0.51138,0.15246 1.02866,-10e-4 z m -9.94093,-4.03026 c -0.49847,-0.14413 -0.53296,-0.27662 -0.53296,-2.04756 v -1.59562 l -0.68792,-1.22469 c -0.57174,-1.01786 -0.78265,-1.31098 -1.24883,-1.73566 -0.91456,-0.83314 -1.45005,-1.00939 -1.88121,-0.61918 -0.13809,0.12496 -0.13647,0.16066 0.0297,0.65279 0.0967,0.28633 0.44242,0.94077 0.76829,1.4543 0.4961,0.78182 0.59885,1.00668 0.63171,1.38238 0.0336,0.3839 0.0109,0.47884 -0.15703,0.65759 -0.2323,0.24727 -0.74282,0.4185 -1.03164,0.346 -0.4007,-0.10056 -0.67226,-0.42985 -2.12812,-2.58054 l -1.47205,-2.17459 0.20427,-1.87819 0.20427,-1.87819 -1.06073,-1.48043 c -0.58341,-0.81424 -1.06074,-1.52132 -1.06074,-1.5713 0,-0.0673 3.39029,-6.01697 3.51661,-6.17139 0.0367,-0.0449 1.97509,2.25771 4.6548,5.52969 1.41109,1.72297 2.69297,3.2727 2.84861,3.44385 0.23621,0.25976 0.7238,0.50341 2.94998,1.47418 1.46685,0.63964 2.68087,1.17388 2.69783,1.18719 0.0798,0.0627 -0.3709,0.64405 -0.58513,0.75483 -0.38965,0.2015 -0.40853,0.19833 -2.57668,-0.4322 l -0.42165,-0.12263 0.4634,0.48806 c 0.25487,0.26843 0.73951,0.77428 1.07699,1.1241 l 0.6136,0.63605 -0.12124,0.74896 c -0.0667,0.41193 -0.1436,0.77131 -0.17092,0.79863 -0.0273,0.0273 -0.30576,-0.19975 -0.61877,-0.5046 -0.45027,-0.43854 -1.5786,-1.37852 -2.44922,-2.04036 -0.0562,-0.0427 -0.1429,-0.0524 -0.19274,-0.0216 -0.053,0.0328 0.23051,0.39532 0.68321,0.87366 0.42561,0.44972 0.80292,0.89452 0.83848,0.98845 0.0356,0.0939 0.0463,0.53274 0.0239,0.97513 -0.0399,0.78762 -0.0344,0.81747 0.26444,1.43694 0.36109,0.74858 0.37178,0.87479 0.0973,1.14924 -0.72062,0.72062 -1.65572,-0.48277 -1.78816,-2.3012 l -0.0563,-0.77335 -1.08522,-1.08281 c -1.04381,-1.0415 -1.08736,-1.07427 -1.14143,-0.85885 -0.0386,0.15386 0.0837,0.69099 0.39075,1.71595 l 0.44696,1.49197 -0.1005,1.86408 c -0.0553,1.02524 -0.12144,1.89797 -0.14704,1.93939 -0.0573,0.0927 -0.32961,0.0855 -0.68892,-0.0184 z m 7.98755,-3.77041 c -0.0296,-0.21605 -0.0538,-0.55822 -0.0538,-0.76038 0,-0.3319 0.0226,-0.37263 0.23283,-0.41974 0.12806,-0.0287 0.36618,-0.0863 0.52917,-0.12814 0.73668,-0.18888 1.28544,0.007 1.37981,0.49268 0.0619,0.31843 -0.15659,0.75035 -0.43325,0.85652 -0.22513,0.0864 -1.37438,0.35188 -1.52327,0.35188 -0.0427,0 -0.10184,-0.17677 -0.13145,-0.39282 z"
         id="path160" />
    </g>
  </g>
</svg>
