<?xml version="1.0" encoding="UTF-8" standalone="no"?>
<svg
   xmlns:dc="http://purl.org/dc/elements/1.1/"
   xmlns:cc="http://creativecommons.org/ns#"
   xmlns:rdf="http://www.w3.org/1999/02/22-rdf-syntax-ns#"
   xmlns:svg="http://www.w3.org/2000/svg"
   xmlns="http://www.w3.org/2000/svg"
   xmlns:sodipodi="http://sodipodi.sourceforge.net/DTD/sodipodi-0.dtd"
   xmlns:inkscape="http://www.inkscape.org/namespaces/inkscape"
   width="65.088051mm"
   height="57.937763mm"
   viewBox="0 0 65.088051 57.937763"
   version="1.1"
   id="svg8"
   sodipodi:docname="logo.svg"
   inkscape:version="1.0.2 (e86c870879, 2021-01-15)">
  <defs
     id="defs2" />
  <sodipodi:namedview
     id="base"
     pagecolor="#ffffff"
     bordercolor="#666666"
     borderopacity="1.0"
     inkscape:pageopacity="0.0"
     inkscape:pageshadow="2"
     inkscape:zoom="0.99100942"
     inkscape:cx="80.414959"
     inkscape:cy="118.42676"
     inkscape:document-units="mm"
     inkscape:current-layer="layer1"
     inkscape:document-rotation="0"
     showgrid="false"
     fit-margin-top="0"
     fit-margin-left="0"
     fit-margin-right="0"
     fit-margin-bottom="0"
     inkscape:window-width="1920"
     inkscape:window-height="1155"
     inkscape:window-x="0"
     inkscape:window-y="1245"
     inkscape:window-maximized="0" />
  <metadata
     id="metadata5">
    <rdf:RDF>
      <cc:Work
         rdf:about="">
        <dc:format>image/svg+xml</dc:format>
        <dc:type
           rdf:resource="http://purl.org/dc/dcmitype/StillImage" />
        <dc:title></dc:title>
      </cc:Work>
    </rdf:RDF>
  </metadata>
  <g
     inkscape:label="Layer 1"
     inkscape:groupmode="layer"
     id="layer1"
     transform="translate(-536.73854,-405.23745)">
    <g
       id="g208"
       transform="translate(98.460933,5.6964199)">
      <path
         style="fill:#f5efcb;stroke-width:0.0846667"
         d="m 443.49966,457.3984 c -0.65076,-0.0953 -1.57963,-0.42565 -2.16512,-0.76996 -0.61656,-0.36259 -1.75585,-1.50289 -2.11993,-2.1218 -1.12449,-1.91155 -1.24394,-4.14293 -0.32003,-5.97808 0.47467,-0.94283 26.46697,-45.9075 26.85587,-46.45858 0.75659,-1.0721 1.84726,-1.8699 3.15574,-2.30833 0.57982,-0.19429 0.78466,-0.2178 1.91911,-0.2203 1.21051,-0.003 1.30474,0.01 2.01178,0.26131 1.33735,0.47615 2.42671,1.30341 3.13808,2.38307 0.61982,0.9407 26.56469,45.90211 26.85669,46.54155 1.67132,3.65995 -0.76486,8.09859 -4.76221,8.67659 -0.71456,0.10333 -53.86362,0.098 -54.56998,-0.005 z"
         id="path238" />
      <path
         style="fill:#f1e596;stroke-width:0.0846667"
         d="m 443.30863,457.28093 c -1.19726,-0.22284 -2.22091,-0.77428 -3.11238,-1.67667 -1.12195,-1.13569 -1.74728,-2.55555 -1.81686,-4.12532 -0.0492,-1.11034 0.10689,-1.90494 0.5572,-2.83633 0.32875,-0.67997 26.1766,-45.48194 26.74384,-46.355 0.41695,-0.64172 1.31816,-1.50306 1.9733,-1.886 0.30079,-0.17581 0.8517,-0.42153 1.22423,-0.54604 0.61249,-0.2047 0.79892,-0.22655 1.94734,-0.22828 1.17515,-0.002 1.32058,0.0158 1.94733,0.23477 1.19909,0.41899 2.14414,1.07498 2.85439,1.9813 0.3891,0.49651 26.75043,46.05812 27.13641,46.90121 0.8492,1.85488 0.63621,4.17818 -0.54188,5.91098 -0.85885,1.26324 -2.00071,2.10202 -3.47962,2.55604 -0.45758,0.14048 -2.0018,0.14965 -27.66263,0.16422 -22.02188,0.0125 -27.29044,-0.005 -27.77067,-0.0949 z"
         id="path236" />
      <path
         style="fill:#f2de5e;stroke-width:0.0846667"
         d="m 443.43563,457.26281 c -1.35388,-0.22432 -2.84799,-1.13499 -3.68163,-2.24398 -1.40255,-1.86581 -1.73229,-4.21868 -0.86538,-6.17485 0.32841,-0.74103 26.72178,-46.38422 27.13116,-46.91907 0.76317,-0.99707 1.94714,-1.76905 3.2277,-2.10455 0.89168,-0.23362 2.26975,-0.23207 3.16959,0.004 1.21324,0.3177 2.44807,1.11855 3.17246,2.05749 0.19703,0.2554 6.36588,10.8621 13.70853,23.57044 10.31393,17.85088 13.40778,23.26976 13.60305,23.82575 0.33027,0.94034 0.40837,2.30289 0.18578,3.24132 -0.42995,1.81267 -1.7064,3.4371 -3.3056,4.20675 -1.34747,0.6485 1.23272,0.59659 -29.01504,0.58373 -14.91543,-0.006 -27.2142,-0.0273 -27.33062,-0.0466 z"
         id="path234" />
      <path
         style="fill:#efd533;stroke-width:0.0846667"
         d="m 443.62281,457.22372 c -2.57522,-0.36909 -4.65558,-2.4697 -5.09924,-5.14889 -0.19687,-1.18882 0.0681,-2.60323 0.70926,-3.78644 1.19805,-2.2108 26.59709,-46.03754 26.89552,-46.40895 0.75997,-0.94583 1.90327,-1.68168 3.13061,-2.01493 0.75341,-0.20456 2.37754,-0.20483 3.13267,-5.2e-4 1.2214,0.33048 2.46866,1.14899 3.18642,2.09111 0.29447,0.3865 25.93014,44.67077 26.87985,46.43351 0.82185,1.52541 0.93311,3.225 0.32102,4.90357 -0.77951,2.13769 -2.61318,3.62619 -4.85041,3.93736 -0.82588,0.11487 -53.50302,0.10923 -54.3057,-0.006 z"
         id="path232" />
      <path
         style="fill:#f3d200;stroke-width:0.0846667"
         d="m 443.59392,457.14611 c -3.7249,-0.55126 -6.08273,-4.70119 -4.63,-8.14908 0.16548,-0.39276 25.76953,-44.81944 26.72446,-46.37075 0.76672,-1.24558 1.90207,-2.14638 3.27425,-2.59785 0.58382,-0.19209 0.82928,-0.22385 1.778,-0.23002 0.81111,-0.005 1.24474,0.0324 1.64832,0.14334 1.21813,0.33475 2.38381,1.09982 3.12267,2.04953 0.3561,0.45772 26.63618,45.89657 27.0303,46.736 0.66306,1.41224 0.7336,2.95122 0.20496,4.47134 -0.3096,0.89026 -0.6935,1.46928 -1.52623,2.30199 -0.8087,0.80867 -1.47324,1.21025 -2.54152,1.5358 -0.48521,0.14787 -1.64393,0.1549 -27.5575,0.1673 -14.87805,0.007 -27.26552,-0.0188 -27.52771,-0.0576 z"
         id="path230" />
      <path
         style="fill:#e9c900;stroke-width:0.0846667"
         d="m 443.28372,455.83448 c -1.09165,-0.29383 -2.10707,-1.04092 -2.73851,-2.01486 -0.83815,-1.29278 -1.01728,-2.71903 -0.52638,-4.19109 0.0721,-0.21629 6.15679,-10.82909 13.52147,-23.58399 12.16151,-21.06255 13.4375,-23.23821 13.90431,-23.70795 1.10087,-1.10777 2.6437,-1.57727 4.24013,-1.29034 1.03994,0.18692 1.7309,0.55407 2.48074,1.31818 0.61715,0.62889 0.91742,1.13913 13.83117,23.50285 7.26017,12.573 13.2957,23.0634 13.41229,23.31201 0.45752,0.9756 0.57789,2.18367 0.31728,3.18423 -0.43039,1.65237 -1.80401,3.0606 -3.38778,3.47312 -0.44212,0.11515 -3.52002,0.12901 -27.5521,0.12406 -23.13685,-0.005 -27.11928,-0.023 -27.50262,-0.12622 z m 54.86654,-2.22646 c 0.53591,-0.26632 1.02478,-0.77024 1.30715,-1.34737 0.29837,-0.60985 0.31713,-1.38707 0.048,-1.98794 -0.29832,-0.66604 -26.43832,-45.88267 -26.74597,-46.26483 -0.16916,-0.21014 -0.48254,-0.45106 -0.77091,-0.59267 -0.41816,-0.20534 -0.58622,-0.23843 -1.20556,-0.23741 -0.61382,0.001 -0.78192,0.0341 -1.143,0.22527 -0.23283,0.12325 -0.54372,0.35132 -0.69086,0.50682 -0.3548,0.37496 -26.68544,45.95317 -26.89381,46.55305 -0.45948,1.32283 0.40475,2.89414 1.79949,3.27176 0.30188,0.0817 6.17167,0.10086 27.13985,0.0884 l 26.75466,-0.0159 z m -21.82163,-1.66437 c -3.66638,-0.59537 -6.7266,-2.81319 -8.29333,-6.01037 -0.25101,-0.51224 -0.53573,-1.19302 -0.6327,-1.51286 l -0.17632,-0.58152 -4.08483,-4.14715 c -2.24665,-2.28093 -4.09753,-4.22363 -4.11307,-4.31711 -0.0285,-0.17149 0.31168,-0.59841 0.60246,-0.75608 0.19294,-0.10461 0.26138,-0.039 5.00385,4.79538 l 3.73755,3.81 0.19261,0.66542 c 0.733,2.53233 2.71927,4.81683 5.19793,5.97837 5.92208,2.77518 12.95019,-0.94208 13.99826,-7.40387 0.59478,-3.66703 -0.92352,-7.40071 -3.92575,-9.65392 -0.78002,-0.58542 -2.11467,-1.28616 -2.92477,-1.53563 -0.49002,-0.15091 -0.56145,-0.21771 -4.40267,-4.11801 -2.1475,-2.18054 -3.9173,-4.04327 -3.93289,-4.1394 -0.0365,-0.22504 0.46158,-0.74795 0.7124,-0.74795 0.13225,0 1.27519,1.10821 3.99866,3.87718 3.70507,3.76697 3.82729,3.88155 4.29931,4.03034 0.7701,0.24275 2.21385,1.01717 3.0061,1.61245 5.50634,4.13734 6.1055,12.16382 1.26778,16.9832 -1.58013,1.57413 -3.59623,2.65433 -5.76502,3.08882 -0.9471,0.18974 -2.84918,0.23152 -3.76556,0.0827 z m 3.38666,-1.81475 c -0.21534,-0.0881 -0.42936,-0.33221 -0.50283,-0.57341 -0.0356,-0.11688 0.043,-0.50051 0.20813,-1.016 0.57684,-1.80067 0.47126,-3.12 -0.36116,-4.51301 -0.23196,-0.38817 -0.31645,-0.46387 -0.51776,-0.46387 -0.23263,0 -0.24706,0.0257 -0.43776,0.78011 -0.10846,0.42906 -0.35165,1.07676 -0.54042,1.43934 -0.70437,1.35289 -1.61751,2.21002 -3.20107,3.0047 -0.83583,0.41945 -0.87722,0.43086 -1.20601,0.33236 -0.37466,-0.11226 -0.59545,-0.42166 -0.59545,-0.83447 0,-0.35609 0.22378,-0.61166 0.73263,-0.8367 1.11776,-0.49432 2.18232,-1.3836 2.67477,-2.23434 0.23443,-0.405 0.51714,-1.19888 0.60551,-1.70037 0.0464,-0.2634 0.027,-0.31542 -0.14731,-0.39485 -0.16202,-0.0738 -0.24805,-0.0593 -0.44569,0.0751 -0.56892,0.38689 -1.60752,0.84942 -2.25702,1.00513 -1.24806,0.29922 -2.54025,0.20266 -4.05967,-0.30336 -0.96296,-0.32069 -1.27657,-0.77019 -0.9619,-1.37868 0.12076,-0.23352 0.44554,-0.43562 0.70008,-0.43562 0.0745,0 0.50131,0.12193 0.94851,0.27096 0.73691,0.24556 0.91225,0.2713 1.87142,0.27473 1.1907,0.004 1.60706,-0.10595 2.53892,-0.67203 0.41957,-0.25487 0.5089,-0.34911 0.50804,-0.53595 -9.9e-4,-0.21547 -0.0394,-0.23601 -0.77583,-0.41437 -2.00317,-0.48521 -3.46986,-1.69132 -4.46653,-3.67298 l -0.40872,-0.81265 -0.0519,0.43165 c -0.0285,0.2374 -0.0522,0.65322 -0.0526,0.92404 -10e-4,0.69286 -0.0882,0.81994 -0.56242,0.81994 -0.21252,0 -0.51765,-0.0623 -0.67809,-0.13842 -0.4913,-0.23314 -0.53823,-0.42348 -0.53823,-2.18292 v -1.56775 l -0.64349,-1.14453 c -0.50183,-0.89258 -0.75741,-1.25 -1.16098,-1.62364 -0.63665,-0.58942 -0.96146,-0.79268 -1.26735,-0.79309 -0.50954,-6.8e-4 -0.37868,0.52617 0.47041,1.89384 0.65692,1.05812 0.8102,1.49502 0.69143,1.97077 -0.16279,0.65208 -1.12987,1.02045 -1.78475,0.67984 -0.35563,-0.18498 -0.46322,-0.32527 -2.00688,-2.61684 -0.97719,-1.45065 -1.41039,-2.16548 -1.41039,-2.32729 0,-0.12845 0.0807,-0.98438 0.17933,-1.90207 l 0.17933,-1.66851 -1.03879,-1.4652 c -0.57134,-0.80585 -1.05552,-1.52802 -1.07597,-1.6048 -0.0208,-0.0783 0.75602,-1.51778 1.76963,-3.27893 1.51439,-2.63126 1.83716,-3.13963 1.99438,-3.14122 0.21139,-0.002 1.27745,1.23612 5.3182,6.17733 1.32061,1.61491 2.45086,2.97536 2.51167,3.02324 0.0608,0.0479 1.2726,0.59455 2.69289,1.21481 1.42028,0.62026 2.62996,1.16368 2.68816,1.20759 0.31862,0.2404 -0.11294,0.983 -0.70201,1.20796 -0.38426,0.14675 -0.39908,0.1458 -1.18705,-0.0768 -0.43886,-0.12397 -0.84507,-0.22539 -0.90268,-0.22539 -0.0576,0 0.24693,0.35314 0.67675,0.78476 0.86787,0.87149 0.8696,0.8762 0.69458,1.88785 -0.14552,0.84111 -0.16129,0.88339 -0.32945,0.88339 -0.0875,0 -0.43955,-0.25718 -0.78228,-0.5715 -0.34272,-0.31433 -0.71442,-0.6477 -0.82601,-0.74084 l -0.20289,-0.16933 0.14694,0.2284 c 0.12006,0.18662 0.14334,0.39569 0.12726,1.143 -0.0188,0.87264 -0.007,0.93985 0.2471,1.46493 0.33276,0.68645 0.34684,1.08232 0.0491,1.38009 -0.26591,0.26591 -0.60489,0.35035 -0.92219,0.22971 -0.13097,-0.0498 -0.25269,-0.076 -0.2705,-0.0582 -0.0178,0.0178 0.12237,0.26411 0.3115,0.54734 0.6965,1.04302 1.79228,1.79805 3.01997,2.08087 0.49028,0.11294 0.53312,0.11056 0.66678,-0.0371 0.13501,-0.14918 0.1285,-0.18016 -0.11876,-0.56548 -0.40991,-0.63879 -0.82844,-1.61547 -0.97773,-2.28162 -0.26205,-1.16934 -0.10977,-2.84722 0.37453,-4.12665 0.25101,-0.66314 0.487,-0.8943 0.91298,-0.8943 0.68996,0 1.01667,0.58639 0.73607,1.32113 -0.0803,0.21037 -0.12749,0.40108 -0.10477,0.4238 0.0227,0.0227 0.36327,-0.025 0.75677,-0.10596 0.61833,-0.12728 0.75323,-0.13163 0.99367,-0.032 0.55239,0.22881 0.77813,1.01845 0.42096,1.47252 -0.24295,0.30885 -0.36442,0.36156 -1.30091,0.56446 -0.99315,0.21517 -1.0632,0.18327 -1.0632,-0.48427 0,-0.28531 -0.0322,-0.44041 -0.0847,-0.40797 -0.0469,0.029 -0.0847,0.41218 -0.0847,0.8579 0,0.93528 0.21483,1.69827 0.72166,2.56304 0.26592,0.45372 0.33832,0.52237 0.52709,0.49984 0.19947,-0.0238 0.23498,-0.0906 0.40141,-0.75525 0.53597,-2.14026 1.86953,-3.69634 3.99285,-4.6591 0.69211,-0.31382 0.98819,-0.31259 1.30617,0.005 0.26281,0.26281 0.33311,0.70432 0.16281,1.02253 -0.0466,0.087 -0.47519,0.36074 -0.9525,0.60826 -0.68726,0.35642 -1.01038,0.59098 -1.55298,1.12739 -0.75789,0.74924 -1.03383,1.22621 -1.29797,2.24367 -0.16408,0.63198 -0.16406,0.63568 0.003,0.77923 0.16053,0.13753 0.18876,0.1312 0.60833,-0.1364 1.17727,-0.75086 2.23703,-1.07323 3.53032,-1.07389 1.00558,-5.1e-4 1.50817,0.0797 2.54,0.40525 0.83539,0.2636 1.18533,0.54549 1.18533,0.95483 0,0.40923 -0.21212,0.73736 -0.54844,0.84835 -0.26111,0.0862 -0.3893,0.0671 -1.05111,-0.15657 -1.82353,-0.61622 -3.26096,-0.49027 -4.66151,0.40846 -0.60679,0.38937 -0.57601,0.69841 0.0804,0.80707 1.5898,0.26319 3.15983,1.2869 4.13329,2.69506 0.52001,0.75223 1.0315,1.78715 1.03106,2.08622 -5.1e-4,0.37057 -0.29483,0.74855 -0.63206,0.81181 -0.54345,0.10196 -0.77452,-0.0709 -1.1837,-0.88545 -0.8534,-1.69885 -1.80267,-2.53788 -3.3594,-2.96928 -0.76902,-0.2131 -0.73547,-0.2145 -0.84929,0.0353 -0.081,0.17779 -0.0571,0.26558 0.16799,0.61632 0.7171,1.1175 1.03077,2.19854 1.03077,3.55241 0,1.00598 -0.21987,2.1046 -0.59637,2.97979 -0.25335,0.58893 -0.65774,0.80454 -1.13929,0.60745 z m -1.20245,-7.90834 c 0.37252,-0.15565 0.8009,-0.66361 0.86992,-1.03154 0.22201,-1.18342 -0.85128,-2.11584 -1.95174,-1.69557 -1.20384,0.45975 -1.28352,2.0689 -0.13127,2.65099 0.42994,0.2172 0.81726,0.2415 1.21309,0.0761 z m -8.36291,-6.70934 c 0.12039,-0.0302 0.35017,-0.0336 0.51063,-0.008 0.16045,0.026 0.29174,0.0353 0.29174,0.0207 0,-0.0147 -0.0571,-0.16344 -0.127,-0.33062 -0.0761,-0.18202 -0.127,-0.56886 -0.127,-0.96428 v -0.66033 l -0.9428,-0.92989 c -0.51853,-0.51144 -0.92414,-0.87274 -0.90135,-0.80289 0.0228,0.0699 0.22311,0.7366 0.44516,1.48166 0.38616,1.29575 0.40138,1.38597 0.35011,2.07434 l -0.0536,0.71966 0.16761,-0.27289 c 0.0922,-0.15009 0.26611,-0.29762 0.3865,-0.32783 z"
         id="path228" />
      <path
         style="fill:#d0b400;stroke-width:0.0846667"
         d="m 443.75426,455.87929 c -1.86968,-0.31695 -3.39044,-1.78231 -3.84238,-3.70241 -0.16934,-0.71946 -0.11379,-1.72735 0.13468,-2.44352 0.19928,-0.5744 26.56963,-46.29372 27.09754,-46.98008 1.30768,-1.70018 3.85586,-2.22904 5.86223,-1.21666 0.33376,0.16841 0.74654,0.48826 1.12096,0.86862 0.5679,0.57687 1.1453,1.55945 13.81212,23.50437 7.27069,12.59628 13.30385,23.07026 13.40702,23.2755 0.32933,0.65517 0.45369,1.20116 0.45498,1.9975 0.003,2.04369 -1.24312,3.80657 -3.19681,4.52134 l -0.60131,0.21999 -26.92399,0.0117 c -14.8082,0.006 -27.10447,-0.0189 -27.32504,-0.0563 z m 54.52195,-2.26309 c 1.11949,-0.59819 1.73843,-2.05223 1.35392,-3.18069 -0.0717,-0.21048 -6.08684,-10.7001 -13.36695,-23.31027 -10.09389,-17.48406 -13.32818,-23.02077 -13.62249,-23.32008 -0.49067,-0.49899 -1.07248,-0.71247 -1.9158,-0.70294 -0.75242,0.009 -1.40074,0.2955 -1.85469,0.82104 -0.25495,0.29516 -6.36072,10.82303 -24.55573,42.34024 -2.44793,4.2403 -2.5656,4.50078 -2.41091,5.33753 0.19267,1.0423 0.81303,1.78695 1.7761,2.13197 0.24881,0.0891 5.36787,0.1064 27.27264,0.092 l 26.96633,-0.0177 z m -21.94588,-1.72363 c -4.0585,-0.59102 -7.43957,-3.41719 -8.84186,-7.39076 l -0.26613,-0.75413 -4.06169,-4.12529 c -2.52062,-2.56009 -4.06169,-4.18706 -4.06169,-4.2881 0,-0.16473 0.48996,-0.70401 0.63963,-0.70401 0.075,0 0.87262,0.79563 6.49593,6.48 l 2.01314,2.03499 0.29522,0.8697 c 0.58374,1.71965 1.34974,2.93664 2.58175,4.10173 1.68994,1.59816 3.55276,2.44414 5.92994,2.69305 1.99886,0.20929 4.21295,-0.29227 6.0143,-1.36243 3.62061,-2.15097 5.5275,-6.45358 4.68188,-10.56401 -0.72597,-3.52889 -3.24455,-6.40208 -6.66394,-7.60224 l -0.66049,-0.23182 -3.86918,-3.93052 c -2.44902,-2.48786 -3.87856,-4.00137 -3.89475,-4.12352 -0.0355,-0.26818 0.51989,-0.7622 0.73032,-0.64958 0.0806,0.0431 1.82995,1.79048 3.88744,3.88299 3.65307,3.71523 3.75342,3.80908 4.27336,3.99639 2.72524,0.98176 5.07617,3.07124 6.37016,5.66171 0.84003,1.68169 1.19372,3.39228 1.12272,5.4299 -0.0635,1.82243 -0.36751,3.00166 -1.1902,4.61666 -1.5878,3.11695 -4.66295,5.36587 -8.09856,5.92263 -0.86369,0.13997 -2.59098,0.15844 -3.4273,0.0367 z m 3.16679,-2.01578 c -0.13612,-0.13612 -0.24749,-0.3322 -0.24749,-0.43574 0,-0.10354 0.1173,-0.55415 0.26067,-1.00135 0.47552,-1.48324 0.43092,-2.77073 -0.13668,-3.94576 -0.40835,-0.84534 -0.6212,-1.08551 -0.90001,-1.01554 -0.1989,0.0499 -0.24223,0.13435 -0.40533,0.78972 -0.38006,1.52719 -1.17231,2.7386 -2.39218,3.65779 -0.71493,0.53872 -1.9447,1.18237 -2.25905,1.18237 -0.43543,0 -0.76464,-0.31964 -0.76873,-0.7464 -0.004,-0.44966 0.12042,-0.57709 1.0143,-1.03624 1.17754,-0.60487 1.99284,-1.37183 2.4566,-2.31097 0.18742,-0.37953 0.38552,-0.93308 0.44022,-1.23011 0.0953,-0.51775 0.0916,-0.54642 -0.0914,-0.69456 -0.18734,-0.1517 -0.19883,-0.1494 -0.6308,0.12611 -1.83681,1.17151 -3.74142,1.40141 -5.89498,0.71156 -0.95181,-0.30489 -1.276,-0.56905 -1.276,-1.03973 0,-0.399 0.30701,-0.72233 0.68589,-0.72233 0.14864,0 0.62034,0.11214 1.04822,0.24921 1.55652,0.49859 2.74723,0.4316 4.0359,-0.22707 0.40991,-0.20951 0.78855,-0.43306 0.84142,-0.49677 0.11321,-0.1364 0.0334,-0.53524 -0.11579,-0.57874 -0.0568,-0.0166 -0.37001,-0.0907 -0.69598,-0.16483 -0.98774,-0.22451 -2.07754,-0.81887 -2.84385,-1.55099 -0.95857,-0.91582 -1.93981,-2.51617 -1.93981,-3.16374 0,-0.51333 0.62381,-0.87931 1.09669,-0.64341 0.29115,0.14525 0.30729,0.11123 0.13884,-0.29249 -0.0655,-0.15702 -0.14629,-0.63359 -0.1795,-1.05902 l -0.0604,-0.77352 -0.9635,-0.96077 c -0.52992,-0.52842 -0.9635,-0.92706 -0.9635,-0.88586 0,0.0412 0.19623,0.72637 0.43607,1.52262 l 0.43607,1.44771 -0.0991,1.94734 c -0.11683,2.29675 -0.12022,2.30412 -0.95313,2.07276 -0.16887,-0.0469 -0.40481,-0.18304 -0.52429,-0.30253 -0.21646,-0.21646 -0.21734,-0.22323 -0.24328,-1.88274 l -0.026,-1.66549 -0.59092,-1.05834 c -0.61721,-1.10543 -1.07347,-1.67161 -1.74333,-2.16333 -0.47856,-0.3513 -0.818,-0.43557 -1.05242,-0.26128 -0.1673,0.12438 -0.16744,0.13132 -0.0118,0.57676 0.0867,0.24797 0.42676,0.88349 0.75577,1.41227 0.5042,0.81035 0.60413,1.03302 0.63599,1.41716 0.0476,0.57344 -0.10751,0.83333 -0.63692,1.06751 -0.46397,0.20524 -0.85382,0.16478 -1.2378,-0.12846 -0.14701,-0.11228 -0.94252,-1.20947 -1.76781,-2.43821 l -1.50051,-2.23408 0.2087,-1.85317 0.20871,-1.85317 -1.05769,-1.48425 c -0.58173,-0.81633 -1.05749,-1.54451 -1.05724,-1.61816 2.5e-4,-0.0737 0.79281,-1.50552 1.76126,-3.18192 1.32079,-2.28629 1.80423,-3.05435 1.93452,-3.07343 0.20277,-0.0297 0.91964,0.79997 5.02141,5.81152 1.46125,1.78535 2.73599,3.29698 2.83275,3.35918 0.0968,0.0622 1.31894,0.61443 2.71594,1.2272 1.397,0.61276 2.59293,1.1652 2.65761,1.22762 0.1724,0.16639 -0.228,0.82089 -0.61435,1.00423 -0.39433,0.18712 -0.55418,0.17616 -1.53526,-0.10529 -0.46567,-0.13359 -0.86299,-0.2283 -0.88293,-0.21047 -0.0199,0.0178 0.35592,0.43097 0.83526,0.91809 0.71312,0.72466 0.86321,0.92071 0.82572,1.0785 -0.0252,0.10607 -0.0728,0.42145 -0.10578,0.70085 -0.0743,0.62954 -0.16764,0.889 -0.31985,0.889 -0.0646,0 -0.41837,-0.27622 -0.78617,-0.61383 -0.82479,-0.75708 -1.38658,-1.20332 -1.38658,-1.10137 0,0.0424 0.10011,0.16938 0.22246,0.28228 0.36928,0.34072 0.44168,0.61971 0.39277,1.5135 -0.0427,0.78115 -0.0353,0.82556 0.22026,1.31642 0.4168,0.80052 0.42733,0.99778 0.0722,1.3529 -0.36238,0.36238 -0.66881,0.38672 -1.10887,0.0881 l -0.30947,-0.21001 0.14056,0.27351 c 0.73594,1.43209 1.90202,2.38572 3.34965,2.73934 0.60855,0.14866 0.77286,0.12827 0.90137,-0.11186 0.0642,-0.11991 -0.008,-0.29871 -0.33035,-0.82167 -0.98244,-1.5924 -1.21433,-3.4195 -0.67803,-5.3423 0.35094,-1.25826 0.56938,-1.56633 1.11062,-1.56633 0.67322,0 0.9227,0.53713 0.61893,1.33255 -0.0766,0.20051 -0.11915,0.38463 -0.0946,0.40916 0.0245,0.0245 0.29909,-0.0144 0.61014,-0.0865 0.31105,-0.0721 0.71851,-0.13116 0.90547,-0.13116 0.7604,0 1.13308,0.9418 0.60206,1.52151 -0.19404,0.21184 -0.37061,0.28399 -1.05994,0.43311 -0.45492,0.0984 -0.88005,0.15861 -0.94475,0.13378 -0.0782,-0.03 -0.13813,-0.26389 -0.17879,-0.69779 -0.0754,-0.80416 -0.19035,-0.67673 -0.2652,0.29389 -0.068,0.88225 0.0702,1.57386 0.48388,2.42183 0.45487,0.9323 0.59443,1.09657 0.87235,1.02682 0.15218,-0.0382 0.23756,-0.12858 0.27136,-0.28727 0.5075,-2.38257 1.62748,-3.85738 3.77671,-4.97325 0.81613,-0.42373 1.19647,-0.47652 1.53195,-0.21264 0.28293,0.22255 0.34868,0.52426 0.19461,0.893 -0.10015,0.23969 -0.22324,0.34363 -0.60892,0.5142 -1.658,0.73324 -2.6844,1.82821 -3.15482,3.36556 -0.23447,0.76625 -0.22899,0.96613 0.0297,1.08401 0.17767,0.0809 0.26547,0.0572 0.61384,-0.16602 0.58453,-0.37455 1.42234,-0.75005 2.0575,-0.92214 0.82517,-0.22358 2.28136,-0.20012 3.25967,0.0525 0.95512,0.24665 1.60946,0.53239 1.7285,0.75482 0.14798,0.27651 0.10942,0.72458 -0.0798,0.92773 -0.27022,0.29005 -0.56535,0.32052 -1.13791,0.11749 -1.71166,-0.60695 -3.09539,-0.58381 -4.40823,0.0737 -0.77832,0.38981 -0.99511,0.58868 -0.92897,0.85219 0.0489,0.19482 0.1364,0.23903 0.78972,0.39903 1.97027,0.48252 3.43909,1.67274 4.41935,3.5811 0.48998,0.95389 0.53761,1.31994 0.2139,1.64366 -0.23171,0.23171 -0.74585,0.28208 -0.98917,0.0969 -0.0763,-0.058 -0.31376,-0.44302 -0.52778,-0.85552 -0.83038,-1.60047 -1.72016,-2.40637 -3.13132,-2.83614 -0.77694,-0.23662 -1.04943,-0.23115 -1.1654,0.0234 -0.0752,0.16511 -0.0545,0.25829 0.11849,0.5323 1.22004,1.93266 1.44481,3.77965 0.73111,6.00766 -0.29022,0.90601 -0.54274,1.21857 -0.98451,1.21857 -0.20907,0 -0.36116,-0.0699 -0.53878,-0.24749 z m -0.832,-7.67306 c 0.31809,-0.1645 0.64763,-0.58157 0.76254,-0.9651 0.31793,-1.06117 -0.74627,-2.14101 -1.82903,-1.85592 -0.77914,0.20515 -1.18555,0.78268 -1.12639,1.60063 0.0809,1.11879 1.19278,1.73756 2.19288,1.22039 z"
         id="path226" />
      <path
         style="fill:#ac9400;stroke-width:0.0846667"
         d="m 443.36839,455.74982 c -1.62959,-0.43863 -3.07118,-1.94757 -3.40726,-3.56644 -0.12934,-0.62303 -0.064,-1.8955 0.12531,-2.4401 0.0809,-0.23284 6.17304,-10.85947 13.538,-23.61475 12.1722,-21.08084 13.43763,-23.23842 13.90483,-23.70794 0.90454,-0.90902 1.92953,-1.31909 3.29265,-1.31731 1.40177,0.002 2.30119,0.37356 3.25955,1.34714 0.61901,0.62883 0.89265,1.09378 13.83205,23.50153 7.26031,12.57299 13.30564,23.08859 13.43408,23.36799 0.81416,1.77111 0.42474,3.77397 -1.01283,5.20926 -0.30441,0.30393 -0.78562,0.67445 -1.06936,0.82339 -1.0822,0.56805 1.16238,0.52696 -28.52478,0.5222 -23.02682,-0.004 -26.98888,-0.0218 -27.37224,-0.12497 z m 54.86033,-2.05422 c 0.52415,-0.2607 1.04241,-0.7969 1.32359,-1.36942 0.30026,-0.61137 0.31998,-1.52983 0.0457,-2.12886 -0.30793,-0.67255 -26.45468,-45.90057 -26.74401,-46.26115 -0.15054,-0.18762 -0.47808,-0.45432 -0.72788,-0.59267 -0.41874,-0.23193 -0.52022,-0.25155 -1.30083,-0.25149 -0.757,6e-5 -0.89275,0.0244 -1.28168,0.22945 -0.23925,0.12616 -0.5631,0.37931 -0.71966,0.56255 -0.34775,0.40702 -26.69506,45.99844 -26.87147,46.49843 -0.14384,0.40769 -0.16256,1.08681 -0.0419,1.521 0.12597,0.45342 0.59937,1.1832 0.94976,1.46412 0.17252,0.13832 0.51542,0.32133 0.762,0.40668 0.43148,0.14937 1.45739,0.15449 27.32998,0.13645 l 26.88166,-0.0188 z m -21.41198,-1.79069 c -2.49931,-0.28451 -4.7076,-1.32607 -6.51175,-3.07134 -1.28156,-1.23973 -2.22626,-2.73893 -2.78502,-4.41968 l -0.22365,-0.67273 -4.03518,-4.09762 c -2.21935,-2.25369 -4.06769,-4.15489 -4.10742,-4.22489 -0.0513,-0.0904 0.009,-0.21085 0.2071,-0.41548 0.15365,-0.15853 0.31976,-0.28823 0.36913,-0.28823 0.0888,0 3.2136,3.12211 6.73687,6.731 l 1.81848,1.86267 0.19843,0.67733 c 0.85427,2.91602 3.27987,5.3922 6.2601,6.39067 5.27687,1.76792 11.04009,-1.11855 12.75819,-6.38985 0.63459,-1.94697 0.63286,-4.35325 -0.005,-6.26996 -0.65579,-1.97213 -1.93948,-3.76213 -3.58208,-4.99492 -0.77621,-0.58256 -2.11175,-1.28326 -2.92072,-1.53239 -0.49063,-0.15109 -0.56089,-0.2168 -4.40267,-4.11722 -2.14724,-2.18002 -3.91788,-4.0035 -3.93475,-4.05217 -0.0376,-0.10857 0.49047,-0.66649 0.63087,-0.66649 0.0557,0 1.81903,1.74631 3.91847,3.88069 3.32896,3.38436 3.86344,3.89425 4.17892,3.98668 0.19896,0.0583 0.71989,0.27442 1.15762,0.48029 4.27375,2.01 6.91849,6.58522 6.45416,11.16523 -0.50649,4.99587 -4.13171,8.96721 -9.0343,9.89685 -0.86116,0.16329 -2.36209,0.23082 -3.14629,0.14156 z m 2.98322,-1.86067 c -0.0931,-0.0381 -0.24019,-0.1481 -0.3268,-0.24441 -0.19772,-0.21987 -0.16568,-0.54693 0.15484,-1.58055 0.30174,-0.9731 0.34232,-2.27001 0.094,-3.00567 -0.19656,-0.5824 -0.51543,-1.23155 -0.77489,-1.57749 -0.17197,-0.22929 -0.23486,-0.25779 -0.46503,-0.21071 -0.2557,0.0523 -0.27385,0.0849 -0.4622,0.82998 -0.49788,1.9696 -1.64809,3.37643 -3.57361,4.37092 -0.85813,0.44321 -1.27007,0.50458 -1.54453,0.23012 -0.42552,-0.42552 -0.26706,-0.95389 0.37885,-1.26323 1.87486,-0.89792 2.8947,-2.02977 3.30577,-3.66881 0.16015,-0.63857 0.13408,-0.78755 -0.16132,-0.92215 -0.1778,-0.081 -0.2864,-0.0441 -0.82788,0.28161 -1.86327,1.12066 -3.59336,1.27771 -5.83855,0.52999 -0.90734,-0.30217 -1.23328,-0.70678 -0.97371,-1.20874 0.07,-0.13547 0.23961,-0.2928 0.37679,-0.34962 0.2183,-0.0904 0.35348,-0.0691 1.08349,0.17086 0.97177,0.31944 2.26442,0.42471 3.07141,0.25013 0.52376,-0.1133 1.53037,-0.57709 1.89037,-0.87096 0.20019,-0.16342 0.22323,-0.22591 0.16348,-0.44334 -0.0647,-0.23533 -0.12266,-0.26668 -0.8257,-0.44648 -2.05937,-0.52665 -3.43825,-1.67179 -4.46143,-3.70513 -0.41606,-0.82683 -0.43756,-1.11214 -0.10857,-1.44113 0.23913,-0.23913 0.59593,-0.27079 0.87205,-0.0774 0.10242,0.0717 0.38581,0.519 0.62976,0.99391 0.78714,1.5324 1.83221,2.39146 3.38784,2.78485 0.64,0.16184 0.67992,0.16291 0.83533,0.0223 0.20813,-0.18836 0.20537,-0.35432 -0.0112,-0.67178 -0.32306,-0.47362 -0.74064,-1.35941 -0.9397,-1.99332 -0.38746,-1.23384 -0.22942,-3.19787 0.36931,-4.58965 0.26559,-0.61738 0.76472,-0.82217 1.1895,-0.48804 0.33694,0.26504 0.34962,0.51479 0.0687,1.35333 -0.61328,1.83051 -0.49278,3.21884 0.4044,4.65934 0.34544,0.55465 0.39194,0.59004 0.67559,0.51418 0.19312,-0.0517 0.2404,-0.14462 0.40345,-0.79332 0.34561,-1.37496 1.06427,-2.58985 2.00338,-3.3867 0.97027,-0.82329 2.3558,-1.54814 2.78081,-1.4548 0.45521,0.1 0.71669,0.65228 0.50028,1.05666 -0.0466,0.087 -0.47051,0.35998 -0.94209,0.6066 -0.95157,0.49763 -1.83311,1.24439 -2.26681,1.92024 -0.31273,0.48736 -0.67763,1.51492 -0.70713,1.9913 -0.0176,0.28453 0.0129,0.35767 0.1907,0.45747 0.19824,0.11125 0.25697,0.0914 0.92574,-0.31299 0.39273,-0.23747 1.02138,-0.53417 1.397,-0.65932 0.60735,-0.20236 0.81411,-0.22799 1.86826,-0.23159 1.2707,-0.004 2.13939,0.16124 2.99443,0.57079 0.62984,0.30169 0.77454,0.82085 0.34775,1.24764 -0.22322,0.22322 -0.58301,0.21165 -1.33299,-0.0429 -1.741,-0.59088 -3.26701,-0.4402 -4.67192,0.46133 -0.338,0.21689 -0.42733,0.32133 -0.42631,0.4984 0.002,0.33008 0.0847,0.40814 0.50671,0.47801 1.5898,0.26318 3.15983,1.2869 4.13329,2.69505 0.4393,0.63547 1.03137,1.77476 1.03137,1.98459 0,0.23811 -0.2572,0.59281 -0.504,0.69503 -0.46408,0.19223 -0.72019,0.005 -1.14273,-0.83637 -0.8751,-1.74204 -1.90436,-2.62119 -3.54184,-3.02528 -0.63393,-0.15644 -0.73716,-0.13784 -0.89746,0.16168 -0.10443,0.19513 -0.0911,0.24729 0.1548,0.60465 0.40258,0.58514 0.74402,1.36691 0.94623,2.16652 0.24449,0.96686 0.19268,2.32344 -0.13036,3.41308 -0.30686,1.03508 -0.49349,1.37323 -0.82089,1.48737 -0.14832,0.0517 -0.27352,0.0916 -0.27821,0.0886 -0.005,-0.003 -0.0847,-0.0366 -0.17787,-0.0747 z m -1.20378,-7.7412 c 0.32948,-0.14098 0.69485,-0.51709 0.81739,-0.84144 0.11565,-0.30609 0.11553,-0.91108 -2.5e-4,-1.21664 -0.2917,-0.76989 -1.28564,-1.16365 -2.08948,-0.82779 -0.41985,0.17543 -0.60866,0.35595 -0.79364,0.75877 -0.48771,1.06208 0.23663,2.23064 1.38865,2.24028 0.22268,0.002 0.52748,-0.0491 0.67733,-0.11318 z m -10.25834,-3.83824 c -0.45698,-0.22512 -0.51821,-0.48749 -0.51821,-2.22035 v -1.52393 l -0.64349,-1.14453 c -0.64661,-1.15007 -1.2267,-1.82724 -1.93566,-2.25958 -0.30212,-0.18424 -0.71178,-0.2038 -0.92977,-0.0444 -0.14751,0.10787 -0.14807,0.13279 -0.012,0.54243 0.0784,0.23615 0.40953,0.85929 0.73575,1.38475 0.69065,1.11246 0.8366,1.5333 0.67068,1.93387 -0.25935,0.62612 -1.12821,0.87579 -1.70415,0.4897 -0.1876,-0.12576 -0.8142,-0.96919 -1.80105,-2.42428 l -1.51337,-2.23143 0.1803,-1.61855 c 0.0992,-0.8902 0.18011,-1.74768 0.17987,-1.9055 -3.4e-4,-0.2311 -0.20144,-0.56842 -1.03307,-1.73289 -0.56794,-0.79526 -1.02794,-1.50822 -1.0222,-1.58435 0.009,-0.12575 3.3085,-5.90522 3.51261,-6.15364 0.0478,-0.0582 0.1185,-0.10583 0.15704,-0.10583 0.0962,0 1.83184,2.05796 4.97161,5.89478 1.45276,1.77527 2.6892,3.26438 2.74765,3.30913 0.0584,0.0447 1.26831,0.58959 2.68859,1.21075 1.42028,0.62117 2.63845,1.18026 2.70703,1.24242 0.10934,0.0991 0.10417,0.15115 -0.042,0.42255 -0.21219,0.39402 -0.58273,0.62005 -1.01404,0.61857 -0.18627,-6.7e-4 -0.71014,-0.11062 -1.16417,-0.2444 -0.46896,-0.13819 -0.8255,-0.20538 -0.8255,-0.15558 0,0.0482 0.38712,0.48104 0.86025,0.96185 l 0.86025,0.87419 -0.11941,0.82725 c -0.0932,0.64536 -0.15051,0.83316 -0.2608,0.85411 -0.0813,0.0154 -0.38707,-0.20198 -0.71967,-0.51176 -0.57289,-0.53358 -1.73061,-1.48936 -1.97528,-1.63072 -0.0698,-0.0404 0.1397,0.22652 0.46566,0.59306 l 0.59267,0.66645 0.003,0.97917 c 0.003,0.92805 0.0176,1.00792 0.2751,1.52951 0.14944,0.30268 0.27174,0.64991 0.27178,0.77162 8e-5,0.34009 -0.37803,0.66771 -0.77066,0.66771 -0.464,0 -0.81254,-0.37916 -1.15666,-1.25828 -0.22452,-0.57361 -0.27395,-0.81752 -0.27395,-1.35195 v -0.65208 l -1.00532,-1.0027 c -0.55293,-0.55149 -1.02653,-0.96838 -1.05246,-0.92643 -0.0259,0.0419 0.15821,0.7572 0.40919,1.58944 l 0.45633,1.51317 -0.10602,1.87083 c -0.0583,1.02895 -0.1352,1.91804 -0.17087,1.97575 -0.092,0.14886 -0.63813,0.12654 -0.97597,-0.0399 z m 8.08243,-3.51702 c -0.0212,-0.10478 -0.0602,-0.46531 -0.0866,-0.8012 -0.0564,-0.71764 -0.0792,-0.69473 0.90789,-0.9129 0.77534,-0.17136 1.07965,-0.0961 1.34041,0.33152 0.22403,0.36739 0.20049,0.67802 -0.0747,0.98604 -0.18585,0.208 -0.37427,0.29578 -0.91017,0.42401 -0.91141,0.21808 -1.12811,0.21303 -1.17682,-0.0275 z"
         id="path224" />
      <path
         style="fill:#9b8600;stroke-width:0.0846667"
         d="m 443.71852,455.78931 c -1.4464,-0.24313 -2.65396,-1.17677 -3.33008,-2.5747 -0.57485,-1.18856 -0.65231,-2.37882 -0.22947,-3.52593 0.17486,-0.47437 26.29641,-45.8048 26.90591,-46.69158 1.63488,-2.37865 5.4621,-2.5193 7.27408,-0.26732 0.35153,0.43688 26.2812,45.21258 26.90474,46.45945 0.66755,1.33487 0.66212,2.65155 -0.0166,4.02878 -0.60912,1.236 -1.51128,2.01827 -2.84281,2.46502 -0.44847,0.15048 -1.4583,0.15668 -27.34733,0.16797 -14.84682,0.006 -27.07721,-0.0211 -27.31844,-0.0617 z m 54.54369,-2.09782 c 0.56305,-0.26637 1.01999,-0.73408 1.32818,-1.35948 0.15526,-0.31506 0.1909,-0.52969 0.1909,-1.1494 0,-0.73277 -0.0133,-0.78636 -0.34769,-1.397 -0.19124,-0.34925 -6.20314,-10.7696 -13.35978,-23.15633 -9.0741,-15.70547 -13.11735,-22.62874 -13.35993,-22.87625 -0.50721,-0.51749 -1.05843,-0.73181 -1.88859,-0.73431 -0.81984,-0.002 -1.45397,0.24882 -1.96049,0.77687 -0.20619,0.21494 -5.18956,8.7623 -13.59432,23.31665 -14.06755,24.36049 -13.61689,23.54536 -13.48681,24.39386 0.14329,0.93468 0.96884,2.00804 1.75986,2.28813 0.31458,0.11139 3.60704,0.12748 27.28176,0.1333 l 26.92399,0.007 0.51292,-0.24265 z m -22.06058,-1.90818 c -1.54813,-0.27508 -3.20625,-0.93123 -4.39745,-1.74016 -1.29264,-0.87781 -2.48674,-2.15176 -3.27576,-3.4948 -0.42516,-0.72369 -0.91566,-1.8346 -1.05585,-2.39132 -0.0803,-0.31873 -0.56387,-0.84262 -4.18983,-4.53879 -2.25451,-2.29815 -4.09911,-4.2294 -4.09911,-4.29165 0,-0.18423 0.52087,-0.61286 0.65412,-0.53828 0.0644,0.036 1.97371,1.95739 4.24301,4.26972 l 4.126,4.20425 0.24076,0.74283 c 1.12531,3.47189 3.85495,5.94313 7.41544,6.71348 3.21455,0.69549 6.61038,-0.26207 9.00948,-2.54052 4.19269,-3.98184 4.21542,-10.53569 0.0507,-14.63336 -1.03547,-1.01881 -2.57096,-1.95674 -3.85322,-2.35367 -0.60151,-0.18621 -0.4537,-0.0475 -5.11586,-4.80004 -1.77309,-1.80745 -3.22381,-3.33385 -3.22381,-3.39199 0,-0.16066 0.47398,-0.58032 0.61824,-0.54739 0.0698,0.016 1.80657,1.74046 3.85942,3.83225 l 3.73245,3.80326 0.70433,0.2723 c 4.50995,1.74358 7.34279,5.79054 7.34122,10.4876 -10e-4,3.08463 -1.15233,5.79218 -3.37976,7.94827 -1.54623,1.49672 -3.24067,2.40367 -5.42523,2.90389 -0.77413,0.17726 -3.17006,0.22791 -3.97933,0.0841 z m 3.34048,-1.95152 c -0.26806,-0.26806 -0.26216,-0.41217 0.057,-1.39209 0.58008,-1.78089 0.39431,-3.29106 -0.58731,-4.7744 -0.19362,-0.29258 -0.24622,-0.32339 -0.47418,-0.27779 -0.34871,0.0697 -0.37975,0.11339 -0.52215,0.73431 -0.47229,2.05933 -1.67072,3.51909 -3.73816,4.55331 -0.80499,0.40269 -1.05132,0.42857 -1.33923,0.14066 -0.43376,-0.43376 -0.21674,-0.97508 0.51301,-1.27961 0.45151,-0.18842 1.38485,-0.79726 1.80743,-1.17903 0.49326,-0.44563 0.93889,-1.16046 1.21135,-1.9431 0.3053,-0.87696 0.31247,-1.24997 0.0276,-1.43659 -0.20613,-0.13507 -0.23166,-0.1272 -0.91016,0.28057 -1.07522,0.6462 -1.84812,0.8794 -3.05686,0.92231 -0.59422,0.0211 -1.21633,-0.006 -1.524,-0.0665 -0.87703,-0.17225 -1.84383,-0.51284 -2.0549,-0.72392 -0.25191,-0.2519 -0.25954,-0.61866 -0.0192,-0.92416 0.15807,-0.20095 0.2262,-0.2253 0.52917,-0.18912 0.19125,0.0228 0.67159,0.14608 1.0674,0.27386 1.00031,0.32293 2.29759,0.34338 3.19194,0.0503 0.80995,-0.26541 1.66885,-0.82807 1.69833,-1.11257 0.035,-0.3381 -0.0772,-0.41877 -0.83302,-0.59891 -1.38353,-0.32975 -2.61264,-1.08732 -3.49016,-2.15117 -0.50821,-0.61613 -1.32909,-2.11539 -1.32909,-2.42746 0,-0.48012 0.51697,-0.8361 0.95234,-0.65576 0.18434,0.0763 0.3332,0.27883 0.60973,0.82932 0.84399,1.68013 1.75366,2.49334 3.3219,2.96968 0.73613,0.22359 1.01076,0.20243 1.18812,-0.0915 0.12689,-0.21032 0.12109,-0.23853 -0.12184,-0.59267 -0.9132,-1.33125 -1.2847,-2.78689 -1.11042,-4.3509 0.0964,-0.86537 0.49413,-2.19807 0.75485,-2.52953 0.35367,-0.44962 1.17865,-0.1811 1.17865,0.38363 0,0.11777 -0.0787,0.43916 -0.17486,0.71421 -0.41077,1.17478 -0.51047,2.29768 -0.28785,3.2421 0.13718,0.58193 0.71097,1.76426 0.96996,1.99863 0.23734,0.2148 0.66275,0.1 0.72802,-0.19655 0.21276,-0.9665 0.33602,-1.33803 0.6686,-2.01537 0.62797,-1.27893 1.80052,-2.38174 3.273,-3.07834 0.8046,-0.38064 1.22516,-0.32027 1.42468,0.2045 0.15152,0.39853 -0.0396,0.63801 -0.85372,1.06966 -1.74131,0.92329 -2.59059,1.90132 -2.99023,3.44356 -0.1707,0.65875 -0.16754,0.86696 0.0152,1.0057 0.23532,0.17864 0.4042,0.14021 0.95858,-0.21809 1.21056,-0.78243 2.74837,-1.13338 4.14908,-0.94689 0.98311,0.1309 2.27443,0.54141 2.51773,0.80039 0.26952,0.28688 0.25139,0.75669 -0.038,0.98431 -0.29219,0.22984 -0.38591,0.22353 -1.31726,-0.0886 -0.93283,-0.31265 -2.20256,-0.41893 -2.95538,-0.24737 -0.47766,0.10885 -1.66359,0.65354 -2.01741,0.92657 -0.18155,0.1401 -0.19603,0.19151 -0.12432,0.44153 0.0776,0.27058 0.11328,0.29118 0.81531,0.47076 1.50877,0.38594 2.62857,1.09454 3.56143,2.25361 0.57976,0.72036 1.24472,1.9928 1.24472,2.38186 0,0.49326 -0.56051,0.80025 -1.01602,0.55647 -0.087,-0.0466 -0.36073,-0.47515 -0.60826,-0.95241 -0.82062,-1.58221 -2.00024,-2.53646 -3.56527,-2.88408 -0.55891,-0.12415 -0.57992,-0.12273 -0.74084,0.05 -0.0911,0.0978 -0.16561,0.22727 -0.16561,0.28778 0,0.0605 0.18938,0.4403 0.42085,0.84399 0.95415,1.66405 1.13705,3.10673 0.64152,5.06019 -0.22598,0.89082 -0.47826,1.44252 -0.71842,1.57104 -0.27329,0.14626 -0.59438,0.0988 -0.81347,-0.12032 z m -0.81717,-7.55702 c 0.1597,-0.0758 0.39838,-0.28689 0.53039,-0.46913 0.78114,-1.07833 0.014,-2.55783 -1.32023,-2.54633 -0.61822,0.005 -1.17416,0.3581 -1.46913,0.93224 -0.1333,0.25946 -0.11841,1.09101 0.0244,1.36443 0.42885,0.82089 1.3768,1.12581 2.23454,0.71879 z m -10.13235,-3.74989 c -0.15696,-0.0371 -0.36651,-0.1484 -0.46567,-0.2474 -0.16875,-0.1685 -0.18313,-0.28959 -0.22463,-1.89244 l -0.0443,-1.71243 -0.64662,-1.11931 c -0.48814,-0.84499 -0.77531,-1.23925 -1.17171,-1.60867 -0.91766,-0.8552 -1.31624,-1.02177 -1.70046,-0.71066 -0.19686,0.15941 -0.19695,0.16051 -0.0538,0.61384 0.0788,0.24977 0.418,0.89228 0.75366,1.4278 0.52814,0.84259 0.61512,1.03697 0.64611,1.44385 0.0344,0.45183 0.024,0.48059 -0.26769,0.73666 -0.41636,0.36557 -0.79688,0.42546 -1.25683,0.19783 -0.19944,-0.0987 -0.42384,-0.26464 -0.49867,-0.36874 -0.0748,-0.10409 -0.75759,-1.10367 -1.51725,-2.22127 -1.2019,-1.76822 -1.37993,-2.0727 -1.37142,-2.34559 0.005,-0.17248 0.09,-1.0207 0.18807,-1.88493 0.0981,-0.86423 0.15056,-1.61846 0.11665,-1.67607 -0.0339,-0.0576 -0.5121,-0.73761 -1.06265,-1.51111 -0.55056,-0.77351 -1.00101,-1.45186 -1.00101,-1.50744 0,-0.17572 3.50901,-6.18685 3.61188,-6.18737 0.16905,-8.4e-4 1.24781,1.26568 5.22792,6.13785 1.29338,1.58327 2.42939,2.93429 2.52445,3.00228 0.0951,0.068 1.32033,0.62803 2.7228,1.24454 1.40247,0.61651 2.58759,1.1796 2.63361,1.25131 0.18111,0.28227 -0.50504,0.97887 -0.9642,0.97887 -0.12127,0 -0.62038,-0.1143 -1.10913,-0.254 -0.48876,-0.1397 -0.94251,-0.254 -1.00834,-0.254 -0.0658,0 0.30747,0.43716 0.82957,0.97146 0.89021,0.91102 0.94646,0.98871 0.90407,1.24883 -0.16348,1.00308 -0.22724,1.29485 -0.29855,1.36616 -0.051,0.051 -0.27673,-0.1028 -0.61529,-0.41942 -0.54455,-0.50927 -1.5288,-1.32563 -2.13979,-1.77479 -0.41932,-0.30825 -0.30476,-0.14202 0.48485,0.70351 0.32733,0.35051 0.57792,0.69575 0.58382,0.80434 0.006,0.10463 0.002,0.53314 -0.007,0.95224 -0.0166,0.71788 -10e-6,0.79863 0.28599,1.39461 0.16698,0.34794 0.30359,0.70329 0.30359,0.78968 0,0.25493 -0.45832,0.65204 -0.75254,0.65204 -0.66684,0 -1.30339,-1.16619 -1.40953,-2.58233 l -0.0571,-0.762 -0.93889,-0.9525 c -0.89329,-0.90622 -1.15993,-1.09827 -1.15993,-0.83539 0,0.0644 0.19619,0.75974 0.43599,1.54517 l 0.436,1.42805 -0.0995,1.905 c -0.11662,2.23243 -0.10593,2.20676 -0.84618,2.03194 z m 7.89602,-3.50745 c -0.0255,-0.0665 -0.0529,-0.43706 -0.0608,-0.82354 l -0.0145,-0.7027 0.508,-0.14335 c 0.76596,-0.21613 1.16427,-0.19931 1.47517,0.0623 0.21048,0.1771 0.2605,0.28385 0.2605,0.5559 0,0.63384 -0.17142,0.77563 -1.22634,1.01433 -0.82708,0.18714 -0.88357,0.18937 -0.94201,0.0371 z"
         id="path222" />
      <path
         style="fill:#8b7800;stroke-width:0.0846667"
         d="m 444.06926,455.79336 c -1.11555,-0.10968 -1.96519,-0.5055 -2.7328,-1.27311 -1.36593,-1.36593 -1.786,-3.26313 -1.09908,-4.96379 0.29377,-0.72728 26.6265,-46.27325 27.07425,-46.82851 0.95381,-1.18282 2.6211,-1.7916 4.24175,-1.54879 1.17362,0.17583 2.39196,0.94747 3.07142,1.9453 0.24064,0.3534 26.19723,45.28193 26.56679,45.98474 0.35206,0.66951 0.49286,1.28775 0.49151,2.15808 -0.003,2.04976 -1.42728,3.87923 -3.47049,4.45834 -0.3016,0.0855 -5.77954,0.11009 -26.92165,0.1209 -14.59865,0.007 -26.84842,-0.0165 -27.2217,-0.0532 z m 53.57003,-1.86951 c 0.62956,-0.13344 0.99217,-0.33703 1.41256,-0.79311 0.76892,-0.83418 1.00841,-1.93569 0.62606,-2.87946 -0.31729,-0.78317 -26.57264,-46.12427 -26.91742,-46.48444 -0.5303,-0.55399 -1.03549,-0.75128 -1.93519,-0.75576 -0.66153,-0.003 -0.82355,0.0264 -1.22873,0.22542 -0.2567,0.12607 -0.58813,0.35467 -0.73651,0.508 -0.25691,0.26547 -26.39517,45.40719 -26.85513,46.37978 -0.43364,0.91693 -0.24137,2.08666 0.48754,2.96618 0.29519,0.35618 0.96706,0.73944 1.47,0.83856 0.58101,0.1145 53.1361,0.10944 53.67682,-0.005 z m -21.14133,-2.11854 c -1.50026,-0.19122 -3.17719,-0.81539 -4.5149,-1.68048 -0.92733,-0.5997 -2.14173,-1.7415 -2.82092,-2.65228 -0.58077,-0.7788 -1.34948,-2.27317 -1.60923,-3.12834 l -0.18377,-0.60504 -4.07159,-4.13568 c -2.23937,-2.27462 -4.08531,-4.17478 -4.10208,-4.22258 -0.0376,-0.10732 0.40563,-0.5813 0.54366,-0.5813 0.0915,0 3.01112,2.91744 6.94787,6.94267 l 1.53191,1.56633 0.18944,0.635 c 0.91702,3.07378 3.40275,5.57235 6.52328,6.55696 2.6639,0.84054 5.70448,0.50142 8.08566,-0.90181 2.55559,-1.50599 4.29659,-3.96281 4.87744,-6.88282 0.0727,-0.36545 0.11622,-1.112 0.11352,-1.94733 -0.004,-1.17271 -0.0345,-1.47535 -0.22839,-2.25315 -0.82752,-3.3192 -3.13175,-5.96588 -6.23736,-7.16435 -0.3996,-0.15421 -0.8431,-0.34626 -0.98556,-0.42677 -0.25815,-0.1459 -7.75684,-7.72664 -7.8148,-7.90031 -0.0376,-0.11266 0.40422,-0.58575 0.54703,-0.58575 0.0571,0 1.80134,1.7249 3.87603,3.83312 l 3.77216,3.83311 0.8283,0.32194 c 3.60396,1.40076 6.19617,4.46052 7.02109,8.28746 0.21507,0.99775 0.21442,3.30674 -10e-4,4.29494 -0.22043,1.01016 -0.52096,1.87216 -0.95929,2.75144 -2.10214,4.21695 -6.64628,6.6418 -11.32828,6.04502 z m 3.14909,-1.93724 c -0.3379,-0.26579 -0.34393,-0.43572 -0.0472,-1.32858 0.25227,-0.75901 0.27567,-0.92018 0.28001,-1.92888 0.005,-1.28113 -0.11054,-1.74294 -0.66525,-2.64758 -0.29285,-0.47756 -0.3902,-0.57332 -0.6017,-0.59181 -0.13878,-0.0121 -0.30122,0.01 -0.36099,0.0491 -0.0598,0.0391 -0.18363,0.38501 -0.27526,0.76864 -0.49199,2.05992 -1.76052,3.5599 -3.8496,4.552 -0.68428,0.32496 -0.92597,0.33018 -1.22963,0.0265 -0.18299,-0.183 -0.21671,-0.50909 -0.0792,-0.76601 0.0484,-0.0904 0.36271,-0.30262 0.6985,-0.47159 1.78452,-0.89799 2.70691,-1.95943 3.11905,-3.58921 0.16449,-0.65047 0.16596,-0.69511 0.0279,-0.84767 -0.25277,-0.27932 -0.43358,-0.27777 -0.84782,0.007 -0.59325,0.40816 -1.53031,0.80925 -2.2725,0.97269 -1.21326,0.26717 -2.92505,0.0723 -4.20607,-0.47875 -0.59628,-0.25651 -0.76168,-0.75292 -0.37853,-1.13606 0.2678,-0.2678 0.41142,-0.26208 1.39209,0.0555 1.74254,0.56422 3.24524,0.39406 4.68632,-0.53068 0.34814,-0.2234 0.40244,-0.29636 0.40244,-0.54075 0,-0.15538 -0.0476,-0.31225 -0.10584,-0.34861 -0.0582,-0.0363 -0.43764,-0.15021 -0.84319,-0.25301 -1.95907,-0.49663 -3.4375,-1.7451 -4.38526,-3.70316 -0.38655,-0.7986 -0.40698,-0.95767 -0.1629,-1.26797 0.13417,-0.17057 0.25067,-0.22309 0.49488,-0.22309 0.37782,0 0.53367,0.14603 0.82349,0.77158 0.50481,1.08959 1.33778,2.06934 2.17788,2.56168 0.53467,0.31333 1.62653,0.65967 1.98474,0.62956 0.22503,-0.0189 0.33816,-0.0824 0.42291,-0.23749 0.10766,-0.19696 0.0857,-0.26127 -0.31607,-0.92573 -0.60911,-1.00734 -0.86491,-1.8504 -0.91633,-3.02004 -0.0301,-0.68445 -0.003,-1.13056 0.10058,-1.64047 0.18316,-0.90397 0.51128,-1.78229 0.73603,-1.97026 0.25837,-0.21607 0.63511,-0.18716 0.89062,0.0684 0.25558,0.25558 0.2455,0.39639 -0.1057,1.47682 -0.20261,0.62333 -0.23464,0.86134 -0.23929,1.778 -0.006,1.20402 0.10339,1.60767 0.71552,2.63803 0.28027,0.47176 0.38378,0.5793 0.55761,0.5793 0.36283,0 0.51464,-0.13906 0.57433,-0.52609 0.093,-0.60265 0.46354,-1.62441 0.77946,-2.14904 0.42521,-0.70613 0.82576,-1.17064 1.46208,-1.6955 0.61652,-0.50854 2.08248,-1.30204 2.40546,-1.30204 0.32177,0 0.65365,0.30687 0.65365,0.60438 0,0.4226 -0.13655,0.55669 -1.03853,1.01979 -1.57475,0.80851 -2.53409,1.99651 -2.88401,3.57142 l -0.12914,0.58124 0.21787,0.20192 c 0.2632,0.24393 0.25736,0.24365 0.57415,0.0275 0.399,-0.27225 1.4819,-0.80402 1.94733,-0.95625 0.70684,-0.2312 1.67645,-0.31701 2.5122,-0.22234 0.93371,0.10577 2.30843,0.53562 2.57931,0.8065 0.34269,0.34269 0.23841,0.86332 -0.21011,1.04911 -0.21525,0.0892 -0.34838,0.0686 -1.02418,-0.15776 -1.24481,-0.41705 -2.49887,-0.48062 -3.4425,-0.17451 -0.43725,0.14185 -1.37929,0.61555 -1.63341,0.82136 -0.17253,0.13973 -0.19403,0.21033 -0.14446,0.47456 0.0467,0.24871 0.10377,0.31972 0.28736,0.35729 2.03733,0.41697 3.4214,1.3072 4.46061,2.86905 0.52477,0.78868 0.89085,1.55931 0.89085,1.87535 0,0.2777 -0.35549,0.62874 -0.63672,0.62874 -0.36579,0 -0.55357,-0.15948 -0.7736,-0.657 -0.48482,-1.09625 -1.27624,-2.07314 -2.11793,-2.61425 -0.49345,-0.31724 -1.56839,-0.70425 -2.03318,-0.73201 -0.2618,-0.0156 -0.33076,0.0198 -0.45876,0.23559 l -0.15065,0.254 0.37488,0.59267 c 1.14639,1.81243 1.30012,3.92103 0.45129,6.18975 -0.25907,0.69243 -0.66911,0.89049 -1.11591,0.53904 z m -1.09436,-7.49483 c 1.44122,-0.60218 1.32534,-2.6891 -0.17169,-3.09221 -1.60112,-0.43114 -2.75059,1.55136 -1.57886,2.72309 0.48342,0.48342 1.14375,0.62266 1.75055,0.36912 z m -10.2441,-3.98027 c -0.12689,-0.0689 -0.26976,-0.19818 -0.3175,-0.28738 -0.0504,-0.0942 -0.0868,-0.82703 -0.0868,-1.74881 v -1.58663 l -0.64389,-1.14944 c -0.66958,-1.1953 -0.96368,-1.56474 -1.69745,-2.13228 -0.47222,-0.36523 -0.91632,-0.48916 -1.20305,-0.3357 -0.3579,0.19154 -0.18278,0.77857 0.60803,2.03821 0.60234,0.95945 0.73502,1.25493 0.73502,1.63687 0,0.3706 -0.24603,0.67835 -0.68165,0.85265 -0.43316,0.17332 -0.87597,0.0753 -1.19992,-0.26566 -0.44999,-0.4736 -3.02831,-4.38215 -3.03083,-4.59452 -10e-4,-0.11642 0.0803,-0.97425 0.18153,-1.9063 l 0.18403,-1.69463 -1.07091,-1.51201 c -0.589,-0.83161 -1.07091,-1.5375 -1.07091,-1.56865 0,-0.12561 3.52068,-6.13672 3.61102,-6.16535 0.1214,-0.0385 1.15237,1.16876 4.81897,5.64284 l 2.88433,3.51954 2.70351,1.19128 c 1.56995,0.69179 2.71282,1.24237 2.72572,1.31311 0.0408,0.2236 -0.31646,0.68007 -0.63707,0.81403 -0.34568,0.14444 -0.40717,0.13561 -1.81899,-0.26106 -0.40745,-0.11448 -0.74083,-0.18179 -0.74083,-0.14957 0,0.0322 0.4051,0.48893 0.90022,1.01491 l 0.90023,0.95633 -0.0562,0.54824 c -0.12307,1.20126 -0.21551,1.2851 -0.7746,0.70258 -0.44902,-0.46784 -2.50532,-2.1232 -2.56425,-2.06428 -0.0257,0.0257 0.16314,0.26483 0.41966,0.53137 1.04419,1.08496 1.00558,1.00639 1.00558,2.0463 0,0.84728 0.0203,0.96363 0.25393,1.45755 0.29654,0.62683 0.32361,1.01756 0.0869,1.25428 -0.49176,0.49176 -1.00462,0.24328 -1.48096,-0.71751 -0.3029,-0.61098 -0.34023,-0.75818 -0.381,-1.50258 l -0.0452,-0.82524 -1.03334,-1.03316 c -0.85103,-0.85089 -1.04368,-1.00622 -1.09195,-0.88042 -0.0349,0.091 0.12071,0.75448 0.38467,1.6402 l 0.44328,1.48745 -0.0978,1.82688 c -0.0538,1.00478 -0.11315,1.87449 -0.13184,1.9327 -0.0471,0.14655 -0.70341,0.12921 -0.98968,-0.0261 z m 8.2496,-3.36013 c -0.0499,-0.0601 -0.10288,-0.43116 -0.11779,-0.82459 l -0.0271,-0.71532 0.59267,-0.14408 c 0.88553,-0.21529 1.11318,-0.20076 1.40351,0.0896 0.33247,0.33247 0.33803,0.75145 0.0147,1.10526 -0.18534,0.20278 -0.36237,0.28123 -0.86784,0.38452 -0.34925,0.0714 -0.69629,0.14869 -0.77121,0.17183 -0.0749,0.0231 -0.17702,-0.007 -0.22689,-0.0672 z"
         id="path220" />
      <path
         style="fill:#776700;stroke-width:0.0846667"
         d="m 443.36839,455.66515 c -1.52503,-0.41048 -2.75824,-1.61613 -3.23995,-3.16751 -0.26659,-0.85856 -0.22069,-2.16509 0.10323,-2.93857 0.0551,-0.13152 6.10392,-10.64008 13.44188,-23.35236 11.80568,-20.45217 13.40247,-23.17766 13.86916,-23.67277 0.88496,-0.93886 1.93075,-1.37354 3.27832,-1.36264 1.39921,0.0113 2.27733,0.37353 3.21417,1.32578 0.55769,0.56686 1.20686,1.67128 13.7865,23.45487 7.26069,12.57299 13.29055,23.03416 13.39969,23.24704 0.45332,0.8842 0.58722,2.11343 0.3355,3.07986 -0.316,1.21322 -1.26468,2.45116 -2.29049,2.9889 -1.09397,0.57347 1.28272,0.52977 -28.48006,0.52362 -23.06357,-0.005 -27.03463,-0.023 -27.41795,-0.12622 z m 54.51133,-1.78207 c 0.85409,-0.25363 1.46382,-0.83096 1.8337,-1.73622 0.21609,-0.52888 0.20108,-1.44053 -0.0321,-1.95149 -0.34829,-0.7631 -26.46941,-45.9227 -26.78022,-46.29909 -0.1825,-0.22101 -0.52189,-0.48766 -0.80821,-0.635 -0.4475,-0.23028 -0.56926,-0.25396 -1.30391,-0.25359 -0.71421,3.5e-4 -0.86053,0.0271 -1.23365,0.22551 -0.23284,0.12382 -0.56271,0.37128 -0.73306,0.54993 -0.38439,0.40312 -26.7062,45.93615 -26.93581,46.59515 -0.49521,1.42133 0.41777,3.12999 1.88368,3.52535 0.30024,0.081 6.25879,0.10515 27.01865,0.1096 24.21015,0.005 26.67509,-0.007 27.09096,-0.13015 z m -21.11855,-2.065 c -4.27086,-0.53768 -7.70726,-3.27232 -9.10557,-7.24608 l -0.30858,-0.87694 -4.02328,-4.08789 c -2.2128,-2.24834 -4.05373,-4.13861 -4.09094,-4.20061 -0.0736,-0.1226 0.32986,-0.60695 0.50559,-0.60695 0.0549,0 1.9813,1.91453 4.28099,4.2545 l 4.18125,4.2545 0.23555,0.762 c 0.91376,2.95593 3.30754,5.38554 6.29089,6.38505 4.15589,1.39235 8.78426,-0.0766 11.40066,-3.61826 0.46017,-0.6229 1.11584,-1.87654 1.38773,-2.65328 0.52269,-1.49328 0.68228,-3.4513 0.41031,-5.03425 -0.62584,-3.64272 -3.24546,-6.7462 -6.71578,-7.9562 l -0.70664,-0.24639 -3.89117,-3.95505 c -3.50793,-3.56551 -3.88209,-3.97203 -3.79889,-4.1275 0.0508,-0.0949 0.19052,-0.23681 0.31057,-0.31547 l 0.21828,-0.14303 3.83468,3.89488 c 3.37078,3.42369 3.87919,3.90791 4.20258,4.00269 0.20234,0.0593 0.72594,0.27622 1.16356,0.48204 2.75484,1.29563 4.9415,3.77412 5.88808,6.6739 0.37015,1.1339 0.50141,2.01848 0.50358,3.39354 0.002,1.37459 -0.12561,2.23566 -0.50358,3.39354 -0.89741,2.74913 -2.97444,5.17466 -5.54035,6.46992 -0.68717,0.34689 -2.08787,0.81875 -2.87191,0.96748 -0.85425,0.16205 -2.49738,0.22956 -3.25761,0.13386 z m 2.99646,-1.88803 c -0.41635,-0.21059 -0.44445,-0.44649 -0.15888,-1.33399 0.37607,-1.16878 0.47019,-2.07875 0.30088,-2.90897 -0.14396,-0.70595 -0.52378,-1.60435 -0.87042,-2.05881 -0.16427,-0.21537 -0.27447,-0.27734 -0.49319,-0.27734 -0.35142,0 -0.41727,0.086 -0.55082,0.71967 -0.42381,2.01074 -1.6623,3.53127 -3.71942,4.56645 -0.77103,0.388 -1.07016,0.41008 -1.33793,0.0988 -0.3776,-0.43898 -0.22099,-0.82163 0.45944,-1.12255 1.81987,-0.80483 2.96608,-2.13989 3.3207,-3.86781 0.0962,-0.46868 0.0915,-0.50511 -0.0902,-0.6985 -0.10542,-0.11222 -0.2476,-0.20404 -0.31594,-0.20404 -0.0683,0 -0.3614,0.14978 -0.65125,0.33283 -1.16731,0.73723 -2.43078,1.07621 -3.72166,0.9985 -0.8077,-0.0486 -1.892,-0.29028 -2.53056,-0.564 -0.6999,-0.30002 -0.82342,-0.82078 -0.28904,-1.21862 l 0.23139,-0.17227 0.86928,0.28057 c 1.19618,0.38606 2.4632,0.45271 3.38108,0.17783 0.6011,-0.18001 1.63496,-0.72049 1.83175,-0.9576 0.0673,-0.0811 0.0718,-0.20385 0.0149,-0.40686 -0.0796,-0.2838 -0.10013,-0.29519 -0.8653,-0.47912 -2.01956,-0.48546 -3.49193,-1.72912 -4.47658,-3.78118 -0.35133,-0.73218 -0.35366,-0.74322 -0.21744,-1.02888 0.15481,-0.32464 0.45982,-0.44717 0.81061,-0.32564 0.16651,0.0577 0.33535,0.29533 0.68538,0.96467 0.82557,1.57865 1.91883,2.49122 3.45524,2.88417 0.72722,0.18599 0.87315,0.16588 1.03851,-0.14309 0.10502,-0.19623 0.0974,-0.25016 -0.075,-0.52777 -0.47302,-0.76207 -0.94212,-1.87085 -1.0787,-2.54972 -0.24238,-1.20466 -0.0524,-2.83133 0.47336,-4.05354 0.29584,-0.6877 0.96073,-0.81615 1.23605,-0.23879 0.12692,0.26615 0.12072,0.31347 -0.14113,1.07728 -0.22815,0.66552 -0.28065,0.96273 -0.31446,1.78017 -0.0464,1.12102 0.0517,1.58334 0.54275,2.5584 0.37634,0.74733 0.60765,0.98542 0.90256,0.92905 0.30244,-0.0578 0.34059,-0.12548 0.55104,-0.97733 0.34466,-1.39513 1.11347,-2.59937 2.2046,-3.45322 0.69109,-0.5408 2.0461,-1.26584 2.3657,-1.26584 0.44282,0 0.77932,0.68842 0.5035,1.03007 -0.0582,0.0721 -0.44015,0.3062 -0.84877,0.52021 -1.70822,0.89471 -2.53385,1.88343 -2.95133,3.53433 -0.16409,0.6489 -0.16554,0.69347 -0.0275,0.84603 0.25985,0.28712 0.41003,0.26507 1.12614,-0.16532 1.04307,-0.62691 1.80286,-0.86017 2.98156,-0.91539 1.09089,-0.0511 1.9608,0.0811 2.94786,0.44802 0.83312,0.30968 1.0588,0.68824 0.6899,1.15723 -0.24739,0.3145 -0.41417,0.32186 -1.24112,0.0548 -1.91533,-0.61849 -3.33568,-0.4892 -4.76344,0.43361 -0.41343,0.26721 -0.51682,0.37786 -0.51682,0.55311 0,0.38005 0.13671,0.5225 0.56277,0.58639 0.57364,0.086 1.63077,0.47724 2.19794,0.81339 0.61902,0.36689 1.50709,1.23335 1.97265,1.92466 0.53437,0.79348 0.96841,1.75135 0.9061,1.99962 -0.11276,0.44927 -0.58656,0.66923 -0.94113,0.4369 -0.11611,-0.0761 -0.35931,-0.4327 -0.54045,-0.7925 -0.87065,-1.72933 -1.96224,-2.64522 -3.61787,-3.03554 -0.59447,-0.14014 -0.62765,-0.13985 -0.78978,0.007 -0.28313,0.25623 -0.28771,0.43837 -0.0208,0.8277 0.69016,1.00672 1.03074,2.00495 1.09319,3.20407 0.0723,1.38791 -0.32602,3.15082 -0.82449,3.6493 -0.26617,0.26616 -0.36707,0.28551 -0.67545,0.12953 z m -1.16145,-7.54268 c 0.33203,-0.14247 0.78038,-0.6025 0.90226,-0.92577 0.11537,-0.30602 0.11527,-0.91102 -1.7e-4,-1.21664 -0.30416,-0.80501 -1.36651,-1.25001 -2.17635,-0.91164 -1.33911,0.55952 -1.37705,2.40397 -0.0619,3.01093 0.40384,0.18639 0.96047,0.20435 1.33622,0.0431 z m -10.15102,-3.9454 c -0.0983,-0.0397 -0.26027,-0.17581 -0.35984,-0.30239 -0.17039,-0.21661 -0.18102,-0.32396 -0.18102,-1.82668 v -1.59653 l -0.60456,-1.08021 c -1.08443,-1.93765 -2.36291,-2.9547 -3.03256,-2.41245 l -0.18454,0.14943 0.2008,0.54907 c 0.11043,0.30199 0.43808,0.92441 0.72811,1.38316 0.62153,0.9831 0.77249,1.43277 0.61148,1.82147 -0.22607,0.54579 -1.03637,0.77464 -1.57651,0.44526 -0.16649,-0.10152 -0.80065,-0.9567 -1.76981,-2.38663 l -1.51036,-2.22842 0.18442,-1.69822 c 0.10144,-0.93402 0.18348,-1.79389 0.18231,-1.91081 -0.001,-0.13457 -0.39057,-0.75575 -1.06045,-1.69241 -0.58208,-0.81389 -1.05702,-1.49928 -1.05542,-1.52307 0.007,-0.11074 3.54027,-6.13499 3.61173,-6.15881 0.094,-0.0313 2.07885,2.31234 5.28683,6.24255 1.23531,1.51342 2.31534,2.80882 2.40006,2.87867 0.0847,0.0699 1.33892,0.64838 2.78709,1.28563 1.70106,0.74852 2.64295,1.20665 2.66102,1.29431 0.0154,0.0746 -0.123,0.28667 -0.30754,0.4712 -0.45118,0.45118 -0.60978,0.45692 -1.95025,0.0705 -0.48134,-0.13874 -0.91949,-0.23657 -0.97367,-0.21741 -0.0542,0.0192 0.33608,0.47698 0.86727,1.01737 l 0.96578,0.98254 -0.10345,0.74407 c -0.0569,0.40924 -0.13819,0.77939 -0.18065,0.82255 -0.0471,0.0478 -0.26809,-0.0935 -0.56601,-0.36196 -0.89996,-0.81092 -2.47398,-2.06046 -2.55881,-2.03133 -0.0461,0.0159 0.26324,0.40668 0.68751,0.86851 l 0.77141,0.83969 -0.0497,0.87749 c -0.0493,0.87096 -0.0475,0.88205 0.24205,1.48626 0.16046,0.33482 0.29174,0.70797 0.29174,0.82922 0,0.31429 -0.32507,0.58865 -0.69745,0.58865 -0.42876,0 -0.73509,-0.33711 -1.06503,-1.17204 -0.22175,-0.56117 -0.26952,-0.79935 -0.26952,-1.34378 v -0.66172 l -1.06068,-1.05707 c -0.80974,-0.80697 -1.07831,-1.02883 -1.13517,-0.93774 -0.041,0.0656 -0.0606,0.16088 -0.0436,0.21167 0.017,0.0508 0.22203,0.73246 0.45562,1.51481 l 0.42472,1.42247 -0.0956,1.8372 c -0.0526,1.01046 -0.13243,1.88482 -0.17749,1.94303 -0.0924,0.1194 -0.52073,0.13178 -0.79032,0.0229 z m 8.06152,-3.48291 c -0.10083,-0.31952 -0.11845,-1.33825 -0.0245,-1.41435 0.0552,-0.0447 0.39695,-0.14672 0.75937,-0.22666 0.76772,-0.16933 1.08639,-0.0944 1.29237,0.30395 0.303,0.58592 -0.0198,1.08495 -0.81227,1.25566 -0.87069,0.18756 -1.17506,0.20796 -1.215,0.0814 z"
         id="path218" />
      <path
         style="fill:#524700;stroke-width:0.0846667"
         d="m 443.5203,455.66463 c -1.63561,-0.35323 -2.98057,-1.69532 -3.431,-3.42369 -0.19302,-0.74061 -0.13243,-1.79211 0.14635,-2.54 0.19847,-0.53245 26.02194,-45.34771 26.79713,-46.505 0.8679,-1.2957 2.19743,-2.00428 3.76718,-2.00774 1.5554,-0.003 2.90583,0.69219 3.73703,1.92498 0.54564,0.80926 26.44584,45.66921 26.74329,46.3202 0.1349,0.29523 0.28845,0.83306 0.34123,1.19517 0.32619,2.23803 -1.317,4.57015 -3.5541,5.04422 -0.84981,0.18008 -53.71209,0.17219 -54.54711,-0.008 z m 54.82166,-1.91354 c 1.28036,-0.68207 1.89651,-2.24753 1.3793,-3.50438 -0.11394,-0.27689 -6.14031,-10.77138 -13.39193,-23.3211 -9.22367,-15.96257 -13.2915,-22.92787 -13.54006,-23.18448 -0.44975,-0.46433 -0.83425,-0.66269 -1.4889,-0.76812 -1.00123,-0.16124 -2.02961,0.18723 -2.59254,0.87849 -0.35217,0.43246 -26.69044,46.02307 -26.85351,46.48249 -0.14878,0.41915 -0.1651,1.15364 -0.0361,1.62564 0.22224,0.8133 1.04998,1.69831 1.81158,1.93693 0.29208,0.0915 5.2096,0.10876 27.32252,0.0958 l 26.96633,-0.0158 z m -22.26733,-2.07085 c -2.96567,-0.53492 -5.50235,-2.18459 -7.18408,-4.672 -0.4471,-0.6613 -1.10917,-2.04309 -1.29676,-2.70645 l -0.15516,-0.5487 -4.08428,-4.15924 c -2.24635,-2.28758 -4.08468,-4.19974 -4.08516,-4.24923 -5.1e-4,-0.0495 0.11082,-0.19703 0.24736,-0.32784 l 0.24826,-0.23785 3.07284,3.12184 c 1.69006,1.71701 3.57511,3.63619 4.189,4.26484 l 1.11617,1.143 0.25903,0.77991 c 1.17683,3.54325 4.04915,6.06905 7.69184,6.76389 0.98654,0.18818 2.71302,0.18939 3.6817,0.003 2.1641,-0.41737 4.00207,-1.42269 5.52942,-3.02445 4.752,-4.98349 3.25088,-13.12052 -2.98931,-16.20406 -0.40565,-0.20044 -0.96614,-0.43501 -1.24554,-0.52125 -0.49872,-0.15393 -0.56368,-0.21326 -3.55604,-3.2477 -4.10194,-4.15964 -4.69896,-4.7797 -4.69896,-4.88035 0,-0.13764 0.39713,-0.47234 0.52292,-0.44072 0.0631,0.0159 1.80395,1.74713 3.86858,3.84727 3.51428,3.57473 3.78193,3.82729 4.19345,3.95701 0.66121,0.20843 1.91391,0.84076 2.6533,1.33932 0.84898,0.57246 2.14994,1.8366 2.75516,2.67717 0.98731,1.37125 1.68494,3.02547 1.97187,4.67572 0.21317,1.22601 0.13263,3.30254 -0.17373,4.47897 -0.55081,2.11512 -1.56877,3.84632 -3.1315,5.32557 -1.5696,1.48576 -3.54801,2.48082 -5.66497,2.84926 -0.93669,0.16303 -2.81366,0.15976 -3.73541,-0.006 z m 3.51366,-1.89463 c -0.22618,-0.22618 -0.21505,-0.39021 0.0913,-1.34591 0.31063,-0.96891 0.40573,-2.02591 0.25354,-2.81812 -0.11008,-0.57305 -0.63209,-1.733 -0.96058,-2.1345 -0.1847,-0.22575 -0.22578,-0.23885 -0.52613,-0.16782 l -0.32579,0.0771 -0.18886,0.76048 c -0.22208,0.8942 -0.42527,1.38603 -0.84136,2.03648 -0.63866,0.99838 -1.53813,1.76749 -2.8138,2.40598 -0.91342,0.45719 -1.26654,0.43976 -1.44469,-0.0713 -0.14202,-0.40738 0.031,-0.60241 0.98998,-1.116 1.44822,-0.77558 2.26139,-1.65196 2.69958,-2.90939 0.11524,-0.33071 0.21424,-0.78872 0.21999,-1.0178 0.01,-0.37851 -0.0127,-0.42991 -0.24355,-0.56365 l -0.254,-0.14715 -0.71967,0.43665 c -1.26537,0.76775 -2.61223,1.07306 -3.99311,0.90516 -0.89236,-0.1085 -2.29759,-0.53621 -2.53207,-0.77069 -0.1973,-0.19731 -0.21149,-0.56527 -0.0317,-0.82198 0.17523,-0.25018 0.5208,-0.24409 1.30609,0.023 1.57312,0.53505 2.80072,0.48529 4.10777,-0.16652 1.08775,-0.54245 1.17979,-0.62638 1.10778,-1.01022 -0.0656,-0.34952 -0.11174,-0.37612 -1.02311,-0.58943 -0.32597,-0.0763 -0.89747,-0.28943 -1.27,-0.47364 -1.31322,-0.64938 -2.15518,-1.509 -2.9194,-2.98063 -0.48808,-0.93986 -0.52922,-1.24641 -0.20185,-1.50392 0.44802,-0.35241 0.75275,-0.16566 1.20926,0.74107 0.83977,1.668 1.83985,2.54184 3.40562,2.97574 0.82997,0.22999 0.9577,0.2206 1.17642,-0.0866 l 0.18391,-0.25828 -0.42289,-0.69422 c -1.02417,-1.68125 -1.23894,-3.19528 -0.73628,-5.19042 0.37648,-1.4943 0.8108,-1.92487 1.41671,-1.40448 0.20339,0.17469 0.186,0.49276 -0.0684,1.25062 -0.52692,1.56966 -0.47579,2.82054 0.1693,4.14206 0.4798,0.98292 0.65337,1.17164 1.00772,1.09569 0.37779,-0.081 0.37236,-0.0741 0.48274,-0.61034 0.43308,-2.10399 1.61154,-3.62079 3.61347,-4.65091 0.84384,-0.43421 1.19887,-0.46859 1.45654,-0.14102 0.33316,0.42355 0.16416,0.75406 -0.55364,1.08268 -1.69498,0.77599 -2.78738,2.01789 -3.20521,3.64385 -0.177,0.68879 -0.16437,0.85017 0.079,1.00964 0.29039,0.19028 0.42781,0.17284 0.83439,-0.10587 0.53232,-0.3649 1.1338,-0.64997 1.83773,-0.871 0.53746,-0.16877 0.79877,-0.1974 1.73353,-0.18993 0.9348,0.007 1.21549,0.0432 1.86266,0.23736 1.00732,0.30217 1.33201,0.46809 1.46512,0.74868 0.0909,0.19152 0.0908,0.2738 -1.6e-4,0.4637 -0.17757,0.37048 -0.49668,0.43104 -1.11082,0.21081 -1.22057,-0.43769 -2.46381,-0.5523 -3.40549,-0.31394 -0.55604,0.14075 -1.55498,0.61317 -1.93099,0.9132 -0.22759,0.18161 -0.23599,0.21112 -0.15044,0.5288 l 0.0906,0.33645 0.78545,0.18714 c 1.95946,0.46685 3.4373,1.68518 4.41622,3.64073 0.4549,0.90872 0.37057,1.46261 -0.22269,1.46261 -0.3909,0 -0.47849,-0.0895 -0.92681,-0.94675 -0.77751,-1.48677 -1.8056,-2.40631 -3.16386,-2.82979 -0.84939,-0.26483 -1.1825,-0.24668 -1.37665,0.075 -0.13443,0.22275 -0.13333,0.25018 0.0205,0.508 1.06413,1.78325 1.38233,3.06256 1.15496,4.64345 -0.13019,0.90519 -0.55016,2.18872 -0.77914,2.38126 -0.235,0.1976 -0.62594,0.18768 -0.83479,-0.0212 z m -0.8304,-7.46133 c 0.64739,-0.32537 1.01714,-1.15466 0.82937,-1.86014 -0.20919,-0.78593 -0.82014,-1.26186 -1.61986,-1.26186 -0.93841,0 -1.59823,0.60483 -1.66487,1.52613 -0.0991,1.36982 1.21096,2.22128 2.45536,1.59587 z m -10.23932,-3.89214 c -0.46329,-0.13683 -0.50448,-0.29135 -0.56055,-2.10284 l -0.0509,-1.64531 -0.65665,-1.18294 c -0.5962,-1.07404 -0.71787,-1.23592 -1.32172,-1.75859 -0.76575,-0.6628 -1.12468,-0.82189 -1.50182,-0.66567 -0.13756,0.057 -0.27109,0.18723 -0.29675,0.28945 -0.0718,0.28602 0.23282,0.98175 0.8618,1.96841 0.48337,0.75823 0.57803,0.96824 0.60995,1.35324 0.0301,0.3626 0.005,0.49156 -0.12088,0.63106 -0.39679,0.43845 -0.94024,0.52506 -1.38983,0.22149 -0.31768,-0.21449 -0.59507,-0.59019 -2.17692,-2.94839 l -1.11165,-1.65722 0.20229,-1.85018 c 0.11125,-1.0176 0.17838,-1.8911 0.14917,-1.94111 -0.0292,-0.05 -0.50356,-0.7238 -1.05412,-1.4973 -0.55055,-0.77351 -0.99928,-1.45931 -0.99717,-1.524 0.005,-0.16877 3.40984,-6.02508 3.5247,-6.06336 0.11808,-0.0394 1.39272,1.45052 4.73485,5.53437 1.41542,1.72955 2.67837,3.25507 2.80655,3.39004 0.14955,0.15747 0.77915,0.48519 1.75706,0.9146 3.43408,1.50792 3.72605,1.64594 3.75262,1.77396 0.0412,0.19835 -0.28493,0.60386 -0.58584,0.7285 -0.29303,0.12138 -0.47821,0.094 -1.78598,-0.26363 -0.40473,-0.1107 -0.76462,-0.17251 -0.79975,-0.13738 -0.0351,0.0351 0.20114,0.339 0.52507,0.67525 0.32392,0.33624 0.75159,0.78537 0.95036,0.99805 l 0.36141,0.3867 -0.11817,0.73797 c -0.065,0.40589 -0.14043,0.76023 -0.16763,0.78743 -0.0272,0.0272 -0.27039,-0.15944 -0.54043,-0.41475 -0.58002,-0.54836 -2.48741,-2.09571 -2.58336,-2.09571 -0.18428,0 -0.004,0.26419 0.60769,0.89096 0.37088,0.37996 0.71277,0.79197 0.75976,0.91555 0.0494,0.12991 0.0646,0.55527 0.036,1.00827 -0.0487,0.77158 -0.0448,0.79322 0.25625,1.41616 0.16812,0.34794 0.30567,0.7021 0.30567,0.78702 0,0.24324 -0.38238,0.57004 -0.66699,0.57004 -0.6421,0 -1.26524,-1.15691 -1.35633,-2.51812 l -0.0524,-0.78246 -0.97161,-0.97438 c -1.39999,-1.40397 -1.46565,-1.3506 -0.84498,0.68677 l 0.43539,1.42919 -0.0557,1.524 c -0.0306,0.8382 -0.0815,1.73355 -0.11306,1.98966 -0.0516,0.41908 -0.0786,0.46721 -0.26905,0.48101 -0.11641,0.008 -0.33529,-0.0212 -0.48639,-0.0658 z m 7.9914,-3.69603 c -0.0289,-0.17462 -0.0529,-0.51573 -0.0534,-0.75802 -9.2e-4,-0.43686 0.002,-0.44127 0.31657,-0.5305 0.65019,-0.18427 1.26927,-0.2058 1.50355,-0.0523 0.4586,0.30048 0.44202,1.02754 -0.0289,1.26903 -0.18848,0.0966 -1.40687,0.38928 -1.62076,0.38928 -0.0355,0 -0.0881,-0.14287 -0.11701,-0.3175 z"
         id="path216" />
      <path
         style="fill:#443b00;stroke-width:0.0846667"
         d="m 444.05706,455.71082 c -1.16417,-0.12397 -2.08877,-0.59105 -2.85199,-1.44075 -1.13247,-1.26078 -1.50164,-3.01682 -0.95236,-4.53008 0.1049,-0.28899 6.16939,-10.87995 13.47665,-23.53548 10.62565,-18.40267 13.37918,-23.11211 13.7516,-23.51978 0.93079,-1.01886 1.88555,-1.43663 3.302,-1.44486 1.3732,-0.008 2.30542,0.36657 3.21682,1.29247 0.5126,0.52075 1.46877,2.14983 13.7707,23.46194 7.27092,12.59628 13.29604,23.05473 13.38916,23.241 0.29721,0.59451 0.44206,1.23379 0.43992,1.94153 -0.003,0.87256 -0.1013,1.2935 -0.4875,2.08013 -0.54896,1.11814 -1.55842,1.95927 -2.82356,2.35273 -0.42014,0.13066 -2.46675,0.14228 -27.03987,0.15354 -14.62193,0.007 -26.85814,-0.0169 -27.19157,-0.0524 z m 54.17043,-1.87374 c 1.00772,-0.47245 1.70932,-1.5447 1.70159,-2.60052 -0.002,-0.30907 -0.0628,-0.72241 -0.13455,-0.91853 -0.20723,-0.56653 -26.56318,-46.14601 -26.91912,-46.55343 -0.17868,-0.20451 -0.53469,-0.4708 -0.80434,-0.60161 -0.41679,-0.2022 -0.58928,-0.23509 -1.24577,-0.23754 -0.66711,-0.002 -0.82232,0.0268 -1.24638,0.23502 -0.27693,0.13599 -0.63457,0.40795 -0.83507,0.635 -0.19288,0.21843 -1.97797,3.21654 -3.96687,6.66248 -1.98889,3.44593 -7.94615,13.76141 -13.23834,22.92329 -6.45766,11.17956 -9.66802,16.81573 -9.76162,17.13767 -0.42928,1.4767 0.64134,3.18896 2.18545,3.49524 0.19919,0.0395 12.38271,0.0663 27.07449,0.0595 l 26.71233,-0.0123 z m -21.71812,-2.11553 c -4.06552,-0.5221 -7.49609,-3.35865 -8.85198,-7.31922 l -0.25635,-0.74879 -1.67516,-1.69646 c -0.92134,-0.93306 -2.75121,-2.78386 -4.06638,-4.1129 -1.31516,-1.32903 -2.3912,-2.45586 -2.3912,-2.50407 0,-0.11172 0.36322,-0.45583 0.48114,-0.45583 0.0491,0 1.95185,1.89547 4.22839,4.21216 l 4.13918,4.21217 0.19889,0.635 c 0.51007,1.62844 1.38717,3.057 2.59332,4.22385 2.07454,2.00693 4.64882,2.98811 7.49374,2.85621 5.64743,-0.26183 9.98474,-5.01199 9.71164,-10.63606 -0.12781,-2.63199 -1.14376,-4.91895 -3.01241,-6.78104 -1.17636,-1.17224 -2.40463,-1.95151 -3.92603,-2.49084 l -0.6558,-0.23248 -3.8527,-3.91632 c -2.11898,-2.15397 -3.8527,-3.9522 -3.8527,-3.99606 0,-0.10283 0.36626,-0.44792 0.47541,-0.44792 0.0459,0 1.78371,1.72741 3.86176,3.83869 3.69524,3.75435 3.79003,3.84294 4.31371,4.03182 1.57728,0.56887 2.96453,1.45476 4.17849,2.66837 1.5565,1.55603 2.57871,3.44043 3.05538,5.63245 0.21777,1.00143 0.2199,3.30729 0.004,4.29837 -1.24842,5.73031 -6.46527,9.46462 -12.19432,8.7289 z m 3.11741,-1.97442 c -0.1143,-0.1143 -0.20782,-0.25324 -0.20782,-0.30875 0,-0.0555 0.11918,-0.46681 0.26485,-0.91401 0.31477,-0.96637 0.41878,-2.25995 0.24479,-3.04445 -0.13116,-0.59137 -0.48669,-1.37806 -0.8378,-1.85381 -0.20264,-0.27457 -0.3218,-0.35983 -0.50285,-0.35983 -0.39114,0 -0.51535,0.1658 -0.69771,0.93133 -0.34244,1.4375 -1.0803,2.59554 -2.23895,3.51394 -0.58355,0.46256 -1.98814,1.22739 -2.25406,1.22739 -0.22659,0 -0.58227,-0.33569 -0.58227,-0.54955 0,-0.37013 0.10507,-0.47499 0.85161,-0.84993 1.22233,-0.61389 2.06791,-1.38246 2.57747,-2.34274 0.32005,-0.60313 0.66598,-1.78388 0.59144,-2.01873 -0.0246,-0.0775 -0.16777,-0.2065 -0.31813,-0.28661 l -0.27339,-0.14564 -0.71407,0.43083 c -1.70539,1.02897 -3.52092,1.20507 -5.61235,0.54439 -1.01256,-0.31987 -1.34491,-0.77076 -0.88595,-1.20192 0.23227,-0.21821 0.45904,-0.23142 0.88626,-0.0516 1.02523,0.43148 2.47309,0.5676 3.48943,0.32807 0.52748,-0.12432 1.65879,-0.66816 1.96885,-0.94647 0.1519,-0.13634 0.19764,-0.57511 0.0794,-0.76131 -0.0364,-0.0573 -0.43489,-0.19776 -0.88549,-0.31206 -1.64831,-0.41813 -2.9736,-1.36667 -3.87684,-2.77474 -0.47952,-0.74752 -0.84153,-1.50653 -0.84153,-1.76438 0,-0.28906 0.30988,-0.51843 0.66099,-0.48924 0.29869,0.0248 0.32977,0.0582 0.69497,0.74565 0.67812,1.27655 1.28385,1.9882 2.1577,2.53502 0.50352,0.31508 1.61514,0.68232 2.06538,0.68232 0.27698,0 0.34181,-0.0387 0.4731,-0.2825 l 0.15213,-0.2825 -0.43161,-0.71233 c -0.61622,-1.01701 -0.87772,-1.85363 -0.92741,-2.96703 -0.0449,-1.00649 0.0496,-1.69111 0.36874,-2.67025 0.248,-0.76094 0.46822,-1.04406 0.8121,-1.04406 0.27576,0 0.57791,0.26308 0.57791,0.50318 0,0.0905 -0.11885,0.51911 -0.26411,0.9525 -0.3151,0.94015 -0.41981,2.2078 -0.24411,2.95539 0.13626,0.57974 0.49884,1.39073 0.84992,1.90101 0.26261,0.3817 0.28474,0.39435 0.61258,0.35038 0.39224,-0.0526 0.4498,-0.12095 0.52517,-0.62356 0.23179,-1.54566 1.27098,-3.14204 2.65893,-4.08458 0.62481,-0.4243 1.67398,-0.93832 1.91522,-0.93832 0.30735,0 0.5504,0.238 0.5504,0.53895 0,0.36603 -0.13116,0.51997 -0.61884,0.72635 -0.65061,0.27533 -1.57499,0.913 -2.06936,1.42752 -0.53698,0.55886 -1.04359,1.55313 -1.23723,2.42817 -0.12758,0.5765 -0.12637,0.59608 0.048,0.78171 0.28534,0.30373 0.4534,0.31173 0.84896,0.0404 1.31191,-0.89986 2.80574,-1.28621 4.31299,-1.11546 0.88106,0.0998 2.29478,0.52966 2.53631,0.77119 0.2359,0.2359 0.18209,0.64308 -0.11407,0.86321 l -0.23023,0.17112 -0.8281,-0.26248 c -0.45546,-0.14437 -0.93615,-0.28583 -1.0682,-0.31435 -0.4035,-0.0872 -1.69813,-0.0601 -2.13826,0.0448 -0.52924,0.12607 -1.53096,0.60842 -1.89542,0.91268 -0.25551,0.21331 -0.27555,0.2632 -0.22151,0.55126 0.0664,0.35417 0.10858,0.37869 1.02395,0.59577 1.26717,0.30051 2.47184,1.05379 3.30969,2.06956 0.51874,0.62889 1.30464,2.0867 1.30464,2.42004 0,0.46462 -0.65222,0.74461 -0.95366,0.4094 -0.0733,-0.0815 -0.29489,-0.46397 -0.49247,-0.84996 -0.71755,-1.40179 -1.77768,-2.36532 -3.04184,-2.76467 -1.14114,-0.36049 -1.21495,-0.36124 -1.47896,-0.0151 l -0.2297,0.30116 0.37547,0.61845 c 0.74097,1.22049 1.01057,2.12873 1.01179,3.40863 8.5e-4,0.85929 -0.12513,1.57829 -0.4485,2.5602 -0.26883,0.81627 -0.72066,1.07863 -1.13831,0.66099 z m -1.07293,-7.28968 c 1.22176,-0.51035 1.48329,-2.02785 0.49851,-2.8925 -0.96212,-0.84476 -2.42733,-0.36965 -2.76426,0.89634 -0.34298,1.2887 1.04082,2.50785 2.26575,1.99616 z m -10.3174,-4.26466 -0.24749,-0.24749 v -1.59009 -1.5901 l -0.6554,-1.1767 c -0.53806,-0.96603 -0.76188,-1.27784 -1.25021,-1.74171 -0.85464,-0.81182 -1.37699,-1.02219 -1.80088,-0.72529 -0.36757,0.25746 -0.19728,0.81983 0.66796,2.20591 0.85988,1.37749 0.88791,1.90224 0.11975,2.24203 -0.44225,0.19563 -0.77719,0.14674 -1.13115,-0.1651 -0.37376,-0.32928 -3.06168,-4.36184 -3.06419,-4.59706 -0.001,-0.10922 0.0813,-0.96664 0.18325,-1.90538 l 0.18537,-1.7068 -1.03159,-1.44448 c -0.56738,-0.79447 -1.05001,-1.49326 -1.0725,-1.55287 -0.0481,-0.12754 3.39342,-6.11971 3.51481,-6.11971 0.10396,0 1.67248,1.8517 4.51797,5.33364 1.2176,1.48993 2.42894,2.95965 2.69187,3.26603 l 0.47805,0.55705 2.67578,1.17612 c 1.47168,0.64686 2.67578,1.2237 2.67578,1.28185 0,0.19221 -0.51066,0.69143 -0.76423,0.74713 -0.16822,0.0369 -0.592,-0.0436 -1.30493,-0.24805 -0.58068,-0.16653 -1.09563,-0.30278 -1.14432,-0.30278 -0.21808,0 -0.0251,0.25964 0.85933,1.15604 l 0.94785,0.9607 -0.0894,0.72201 c -0.0492,0.39711 -0.11303,0.74559 -0.14184,0.77439 -0.0288,0.0288 -0.25316,-0.12559 -0.49856,-0.34311 -1.59238,-1.41143 -2.88618,-2.35225 -2.76041,-2.00728 0.0155,0.0426 0.3616,0.4437 0.76906,0.89138 l 0.74083,0.81398 v 0.97288 c 0,0.92208 0.0135,0.99812 0.25796,1.45628 0.31861,0.59707 0.31302,0.98462 -0.0177,1.23052 -0.4653,0.34589 -0.90391,0.0175 -1.3289,-0.99497 -0.22493,-0.53584 -0.26597,-0.74058 -0.26597,-1.32677 v -0.69316 l -1.07636,-1.08782 c -0.59199,-0.59831 -1.11587,-1.07485 -1.16417,-1.05898 -0.18604,0.0611 -0.12582,0.43659 0.29593,1.84506 l 0.43659,1.45805 -0.0976,1.78524 c -0.0537,0.98188 -0.11322,1.83286 -0.13234,1.89106 -0.0203,0.0619 -0.17933,0.10584 -0.38261,0.10584 -0.27156,0 -0.4021,-0.0543 -0.59532,-0.24749 z m 8.34748,-3.23623 c -0.0233,-0.063 -0.0522,-0.40037 -0.0642,-0.74962 l -0.0218,-0.635 0.55033,-0.14239 c 0.30269,-0.0783 0.67589,-0.14499 0.82935,-0.14816 0.36619,-0.008 0.69465,0.31078 0.69465,0.67327 0,0.54165 -0.26379,0.74933 -1.17274,0.92327 -0.29575,0.0566 -0.59071,0.12324 -0.65545,0.14808 -0.0647,0.0248 -0.13682,-0.006 -0.16017,-0.0694 z"
         id="path214" />
      <path
         style="fill:#312a00;stroke-width:0.0846667"
         d="m 443.3742,455.58197 c -1.152,-0.31028 -2.17452,-1.11116 -2.75226,-2.15569 -0.42274,-0.76431 -0.57315,-1.34168 -0.57197,-2.19554 0.001,-0.8266 0.12466,-1.3694 0.46373,-2.0378 0.26646,-0.52527 25.84634,-44.83403 26.42724,-45.77653 0.65844,-1.06831 1.70076,-1.83531 2.80586,-2.06473 0.71981,-0.14943 2.15139,-0.0616 2.72949,0.16749 0.66824,0.26479 1.34059,0.75328 1.76567,1.28283 0.49953,0.6223 26.9521,46.42957 27.14046,46.99847 0.19997,0.60397 0.26511,1.68571 0.13827,2.29605 -0.25156,1.21045 -1.21958,2.53144 -2.26024,3.0844 -1.08405,0.57601 1.30382,0.53194 -28.48971,0.52578 -22.89254,-0.005 -27.02078,-0.0235 -27.39654,-0.12473 z m 54.93752,-1.75538 c 1.29612,-0.6367 1.98043,-2.26705 1.48757,-3.54412 -0.26492,-0.68642 -26.51687,-46.06095 -26.90071,-46.49584 -0.19708,-0.2233 -0.55369,-0.50902 -0.79247,-0.63494 -0.38851,-0.20488 -0.52316,-0.22885 -1.28081,-0.22804 -0.99141,10e-4 -1.42383,0.1643 -2.01582,0.76092 -0.2559,0.25791 -4.04826,6.75291 -13.59979,23.29177 -7.28472,12.61378 -13.318,23.12512 -13.4073,23.35854 -0.54249,1.41796 0.50672,3.31574 2.03265,3.67664 0.18544,0.0439 11.61883,0.0703 27.15959,0.0627 l 26.83933,-0.013 z m -21.56298,-2.1031 c -2.05352,-0.2161 -4.09989,-1.08912 -5.7438,-2.45042 -1.56896,-1.29922 -2.8483,-3.21789 -3.39144,-5.08622 -0.12762,-0.43898 -0.31603,-0.64543 -4.23519,-4.6404 -4.36013,-4.4445 -4.25638,-4.31792 -3.75801,-4.58465 0.16008,-0.0857 0.24323,-0.0304 0.794,0.52723 0.33837,0.3426 2.19811,2.236 4.13277,4.20754 l 3.51757,3.58463 0.25987,0.78004 c 0.87665,2.63142 2.63283,4.69553 5.02361,5.90445 3.95235,1.99857 8.73518,1.21664 11.84329,-1.93621 1.95729,-1.98545 2.94822,-4.40018 2.94822,-7.18429 0,-3.57227 -1.80434,-6.816 -4.8625,-8.74152 -0.64452,-0.40581 -1.13278,-0.63847 -2.442,-1.16361 -0.3409,-0.13674 -1.00104,-0.77042 -4.21819,-4.04913 l -3.81403,-3.88701 0.25371,-0.25371 0.2537,-0.2537 3.03316,3.08266 c 1.66823,1.69546 3.3723,3.43381 3.78682,3.86301 0.61509,0.63687 0.83303,0.80642 1.18533,0.92213 2.71268,0.89096 5.17145,3.04867 6.42326,5.63679 0.79996,1.65391 1.10196,2.96583 1.10722,4.80984 0.009,3.02155 -0.97508,5.47973 -3.05192,7.62656 -1.85404,1.91652 -4.07364,2.99892 -6.75623,3.2947 -0.86418,0.0953 -1.31738,0.0936 -2.28922,-0.009 z m 3.02882,-1.8571 c -0.35176,-0.13987 -0.37105,-0.40994 -0.0912,-1.27751 0.3792,-1.17567 0.47056,-2.06628 0.29847,-2.9096 -0.14712,-0.72096 -0.67331,-1.89149 -1.01698,-2.26232 -0.18183,-0.1962 -0.24238,-0.21387 -0.51906,-0.15147 -0.17228,0.0389 -0.32876,0.0862 -0.34774,0.10517 -0.019,0.019 -0.12782,0.40232 -0.24186,0.85185 -0.49469,1.95014 -1.67161,3.36938 -3.59089,4.33023 -0.76052,0.38074 -1.16431,0.38853 -1.36599,0.0264 -0.20449,-0.3672 -0.007,-0.61064 0.87004,-1.06984 1.75341,-0.91858 2.67586,-2.07806 3.03445,-3.81415 l 0.1101,-0.53308 -0.25179,-0.20146 c -0.32375,-0.25904 -0.40997,-0.25428 -0.88209,0.0487 -1.22924,0.7888 -2.56943,1.15916 -3.89764,1.07709 -0.75716,-0.0468 -1.88284,-0.30996 -2.59058,-0.60567 -0.51939,-0.21702 -0.57373,-0.85067 -0.0918,-1.07026 0.16266,-0.0741 0.35873,-0.0386 1.03841,0.18803 0.77863,0.25963 0.91874,0.27965 1.98089,0.28307 1.26838,0.004 1.69812,-0.10341 2.60402,-0.65142 0.6925,-0.41891 0.78651,-0.52864 0.7272,-0.84877 -0.0279,-0.15073 -0.0935,-0.31562 -0.14583,-0.36643 -0.0523,-0.0508 -0.42934,-0.17242 -0.83792,-0.27024 -1.40575,-0.33657 -2.53746,-1.04353 -3.41999,-2.13643 -0.53734,-0.66543 -1.22209,-1.93522 -1.23202,-2.28467 -0.009,-0.32465 0.23206,-0.59262 0.53362,-0.59262 0.29061,0 0.47396,0.17705 0.6792,0.65586 0.26563,0.6197 0.91223,1.55034 1.40836,2.02704 0.57735,0.55475 1.5657,1.06342 2.4473,1.25956 l 0.65352,0.14539 0.19585,-0.24475 c 0.25877,-0.32338 0.24784,-0.47858 -0.0658,-0.93439 -1.0332,-1.5017 -1.33883,-3.44372 -0.83751,-5.32171 0.35411,-1.32649 0.65434,-1.7194 1.14355,-1.4965 0.3986,0.18162 0.42408,0.41595 0.13637,1.25391 -0.59412,1.73035 -0.47339,3.2986 0.3595,4.66969 0.43405,0.71453 0.54257,0.79478 0.93,0.6878 0.17485,-0.0483 0.33117,-0.13303 0.34738,-0.18833 0.0162,-0.0553 0.0933,-0.38632 0.17132,-0.73557 0.22586,-1.01112 0.7808,-2.06669 1.48028,-2.81569 0.88101,-0.94338 2.62874,-2.00745 3.10209,-1.88865 0.28055,0.0704 0.45681,0.28209 0.45681,0.5486 0,0.28941 -0.14416,0.42044 -0.84667,0.76955 -1.23819,0.61533 -2.13189,1.43621 -2.61706,2.40383 -0.29891,0.59613 -0.64797,1.8366 -0.57231,2.03379 0.0283,0.0738 0.18091,0.19588 0.33909,0.27131 l 0.28761,0.13715 0.70984,-0.43009 c 1.72798,-1.04697 3.58149,-1.22592 5.66283,-0.54672 0.90284,0.29463 1.19601,0.66158 0.8842,1.10675 -0.17483,0.24961 -0.50769,0.24294 -1.30029,-0.026 -0.99001,-0.33598 -2.02323,-0.4346 -2.82536,-0.26968 -0.71016,0.14602 -1.3891,0.42585 -2.02905,0.83629 -0.35978,0.23075 -0.40203,0.29046 -0.40087,0.56661 0.002,0.44812 0.0833,0.52325 0.70896,0.6544 0.77665,0.1628 1.70492,0.53603 2.27608,0.91514 0.98992,0.65708 1.9751,1.87424 2.48157,3.0659 0.26104,0.61422 0.21635,0.8861 -0.17499,1.0644 -0.37955,0.17294 -0.58252,-0.009 -1.07202,-0.96275 -0.79185,-1.5423 -1.97757,-2.52085 -3.52496,-2.90911 -0.69194,-0.17361 -0.84931,-0.14124 -1.05196,0.21636 l -0.16792,0.29633 0.43254,0.71407 c 1.02664,1.69484 1.20684,3.52067 0.55206,5.59342 -0.29169,0.92336 -0.57041,1.19639 -1.03339,1.01229 z m -1.02808,-7.47445 c 0.5561,-0.29358 0.866,-0.78482 0.90501,-1.43457 0.0393,-0.65451 -0.20244,-1.1675 -0.72291,-1.53412 -1.38302,-0.97418 -3.27697,0.57916 -2.56944,2.10736 0.43388,0.93714 1.50901,1.32504 2.38734,0.86133 z m -10.35622,-4.08364 c -0.12689,-0.0689 -0.26977,-0.19818 -0.3175,-0.28738 -0.0504,-0.0941 -0.0868,-0.82478 -0.0868,-1.74173 v -1.57955 l -0.64767,-1.14742 c -0.50359,-0.89216 -0.76886,-1.26245 -1.19241,-1.66451 -0.9703,-0.92107 -1.55557,-1.12748 -1.96404,-0.69269 -0.19022,0.20248 -0.19097,0.21146 -0.0523,0.62888 0.0774,0.2329 0.33661,0.74054 0.57611,1.12809 1.01224,1.63789 1.08987,1.93835 0.6218,2.40642 -0.2397,0.2397 -0.34989,0.28787 -0.6585,0.28787 -0.36215,0 -0.67897,-0.14887 -0.89268,-0.41945 -0.0568,-0.072 -0.73691,-1.06769 -1.51123,-2.21266 l -1.40786,-2.08178 0.17791,-1.64356 c 0.0978,-0.90395 0.17783,-1.76107 0.17774,-1.90471 -1.7e-4,-0.19793 -0.24614,-0.60613 -1.01618,-1.68617 -0.5588,-0.78377 -1.016,-1.48948 -1.016,-1.56825 0,-0.17646 3.32784,-5.94748 3.4538,-5.98947 0.10376,-0.0346 1.02025,1.0226 3.39161,3.91223 0.91497,1.11495 2.24376,2.7342 2.95286,3.59833 l 1.28927,1.57116 2.68355,1.18533 c 1.47595,0.65193 2.69768,1.22847 2.71496,1.28118 0.0173,0.0527 -0.0986,0.2337 -0.25749,0.40217 -0.24728,0.2622 -0.34233,0.3061 -0.65989,0.30484 -0.20405,-8.2e-4 -0.75201,-0.11445 -1.21767,-0.25253 -0.93153,-0.2762 -1.143,-0.30444 -1.143,-0.15262 0,0.0557 0.4191,0.52615 0.93133,1.04533 0.51223,0.51918 0.93133,1.00919 0.93133,1.08891 0,0.19969 -0.18004,1.35526 -0.21731,1.39477 -0.0166,0.0176 -0.34601,-0.25205 -0.73196,-0.59929 -0.92583,-0.83297 -2.30497,-1.93043 -2.4259,-1.93043 -0.24793,0 -0.0401,0.35587 0.54505,0.93345 0.87676,0.86538 0.91762,0.95716 0.85443,1.91916 -0.0505,0.7687 -0.0457,0.79641 0.24242,1.3976 0.16167,0.33734 0.29394,0.71329 0.29394,0.83545 0,0.29837 -0.24552,0.50234 -0.60466,0.50234 -0.40325,0 -0.67355,-0.30455 -0.99764,-1.12404 -0.21476,-0.54304 -0.26036,-0.77796 -0.26036,-1.34113 v -0.68276 l -1.03019,-1.0507 c -1.00982,-1.02993 -1.27976,-1.20738 -1.36145,-0.89498 -0.0224,0.0857 0.16182,0.83708 0.40937,1.66985 l 0.45009,1.51412 -0.0863,1.69565 c -0.10934,2.14802 -0.0945,2.0775 -0.43628,2.07327 -0.15046,-0.002 -0.37738,-0.0597 -0.50426,-0.12859 z m 8.20381,-3.40286 c -0.0208,-0.0349 -0.0517,-0.34836 -0.0685,-0.69653 l -0.0306,-0.63304 0.59267,-0.14322 c 0.82996,-0.20056 0.95212,-0.19161 1.23418,0.0904 0.28794,0.28794 0.32579,0.65305 0.097,0.93562 -0.20846,0.25745 -1.71726,0.62683 -1.82471,0.44672 z"
         id="path212" />
      <path
         style="fill:#020100;stroke-width:0.0846667"
         d="m 443.89175,455.62823 c -1.45461,-0.21493 -2.57813,-1.0231 -3.28051,-2.35973 -0.59416,-1.13068 -0.6982,-2.29521 -0.30793,-3.44643 0.25556,-0.75385 26.69909,-46.49949 27.2224,-47.09305 1.64299,-1.86351 4.68616,-1.93292 6.43225,-0.1467 0.45342,0.46384 1.91797,2.96064 13.63133,23.23903 7.21784,12.49564 13.26093,22.98992 13.4291,23.32063 0.78686,1.5474 0.69524,3.13105 -0.26414,4.56544 -0.59361,0.88752 -1.24633,1.39158 -2.28529,1.76482 l -0.55033,0.1977 -26.797,0.0111 c -14.73835,0.006 -26.9918,-0.0177 -27.22988,-0.0528 z m 53.45904,-1.52197 c 1.13171,-0.13013 1.84072,-0.62021 2.35732,-1.62944 0.31406,-0.61355 0.3759,-1.61236 0.13778,-2.22554 -0.0904,-0.23284 -6.11587,-10.72939 -13.38989,-23.32567 -11.74144,-20.33239 -13.27674,-22.95125 -13.68205,-23.33829 -0.58262,-0.55636 -1.10931,-0.74921 -2.03332,-0.74451 -0.98361,0.005 -1.69089,0.35903 -2.25595,1.12922 -0.12317,0.16789 -6.17294,10.60417 -13.44394,23.19174 -10.39394,17.994 -13.24824,22.99667 -13.35205,23.40192 -0.41303,1.61218 0.79384,3.34422 2.46661,3.53997 0.79892,0.0935 52.38253,0.0941 53.19549,5.9e-4 z m -21.0645,-2.49217 c -2.0309,-0.36123 -3.60655,-1.06468 -5.14281,-2.296 -1.55363,-1.24524 -2.70382,-2.90692 -3.40803,-4.92357 l -0.26707,-0.76481 -3.64702,-3.71655 c -2.00586,-2.0441 -3.83885,-3.91535 -4.0733,-4.15833 -0.42127,-0.4366 -0.42441,-0.44383 -0.26772,-0.61696 0.0872,-0.0964 0.20987,-0.16426 0.27261,-0.15089 0.0627,0.0134 1.95627,1.90139 4.20785,4.19561 l 4.09379,4.17131 0.21812,0.69702 c 0.48184,1.53976 1.42318,3.07992 2.53993,4.15568 3.46666,3.33941 8.51958,3.8638 12.64574,1.31238 0.91935,-0.56848 2.37554,-1.98217 2.98832,-2.90108 2.72519,-4.08666 2.25875,-9.38537 -1.13641,-12.90964 -1.18115,-1.22606 -2.56909,-2.12665 -4.12027,-2.67352 l -0.64194,-0.22632 -3.8337,-3.89851 -3.8337,-3.8985 0.21736,-0.21737 0.21737,-0.21736 3.20099,3.25397 c 1.76054,1.78968 3.44313,3.50952 3.73908,3.82187 0.45119,0.47619 0.63562,0.60453 1.14195,0.79469 3.35992,1.26184 5.76928,3.71487 6.86502,6.98944 0.43975,1.31418 0.58001,2.32684 0.52602,3.79763 -0.066,1.79737 -0.38878,3.05747 -1.17932,4.60377 -1.45544,2.84686 -4.13679,4.91066 -7.34352,5.6522 -0.94028,0.21744 -3.07893,0.28399 -3.97934,0.12384 z m 3.38667,-1.91315 c -0.21729,-0.21728 -0.2174,-0.21592 0.0955,-1.17657 0.31232,-0.95882 0.41788,-2.2544 0.24807,-3.04445 -0.11359,-0.52845 -0.65446,-1.69371 -0.96634,-2.08188 -0.19258,-0.23968 -0.21604,-0.24617 -0.61252,-0.16933 l -0.41227,0.0799 -0.21621,0.86001 c -0.11892,0.47301 -0.36635,1.15881 -0.54985,1.524 -0.60805,1.21013 -2.1423,2.53582 -3.52591,3.04662 -0.37107,0.13699 -0.40658,0.13706 -0.61384,10e-4 -0.21926,-0.14367 -0.29522,-0.48684 -0.15518,-0.70105 0.0342,-0.0523 0.36701,-0.24801 0.73954,-0.43484 1.75192,-0.87863 2.78139,-2.12349 3.12866,-3.78326 0.13986,-0.66846 0.10093,-0.79209 -0.321,-1.01931 l -0.29435,-0.15852 -0.53699,0.3494 c -1.11644,0.72642 -2.12965,1.03535 -3.39573,1.03535 -0.91445,0 -1.4083,-0.0825 -2.37985,-0.39743 -0.72758,-0.23586 -0.9844,-0.42695 -0.9844,-0.73245 0,-0.23014 0.24074,-0.47879 0.46357,-0.47879 0.0847,0 0.5198,0.11784 0.967,0.26187 1.81654,0.58505 3.32923,0.38916 4.85576,-0.6288 0.35394,-0.23602 0.40202,-0.30409 0.40217,-0.56939 8e-5,-0.16572 -0.0475,-0.36508 -0.10567,-0.44301 -0.0604,-0.0809 -0.45898,-0.23079 -0.92912,-0.34941 -1.61049,-0.40633 -2.84666,-1.27223 -3.74615,-2.62408 -0.48751,-0.73269 -0.89156,-1.55621 -0.89156,-1.81714 0,-0.22682 0.27291,-0.43404 0.57165,-0.43404 0.24464,0 0.28982,0.0529 0.68245,0.79869 0.91777,1.74332 1.95735,2.64242 3.52618,3.04965 0.76659,0.199 1.01859,0.17536 1.22528,-0.11491 0.0963,-0.13525 0.1751,-0.29011 0.1751,-0.34415 0,-0.054 -0.19,-0.4101 -0.42221,-0.79126 -0.64929,-1.06574 -0.86061,-1.76037 -0.91064,-2.99345 -0.032,-0.7896 -0.007,-1.18537 0.10501,-1.69334 0.17596,-0.79443 0.43958,-1.53904 0.6169,-1.7424 0.17199,-0.19725 0.54854,-0.18812 0.73492,0.0178 0.17379,0.19204 0.1586,0.31479 -0.16811,1.35801 -0.27395,0.87473 -0.36032,1.97777 -0.21358,2.72763 0.12086,0.6176 0.54008,1.55683 0.93166,2.0873 0.26142,0.35414 0.28796,0.36793 0.62209,0.32311 0.37572,-0.0504 0.56663,-0.23082 0.56663,-0.53552 0,-0.33447 0.42822,-1.5778 0.73338,-2.12933 0.3602,-0.65103 1.15822,-1.51854 1.84495,-2.00561 0.65235,-0.46269 1.67394,-0.97558 1.94317,-0.97558 0.27555,0 0.47383,0.21078 0.47383,0.50368 0,0.28949 -0.0772,0.35649 -0.88921,0.77176 -1.58341,0.80976 -2.44697,1.80216 -2.9182,3.35356 -0.2556,0.84151 -0.21368,1.1832 0.17254,1.40637 l 0.30213,0.17458 0.39687,-0.27305 c 0.55335,-0.38072 1.52149,-0.82531 2.17387,-0.9983 0.80944,-0.21463 2.12821,-0.19274 3.08304,0.0512 0.83844,0.21419 1.49447,0.47165 1.5918,0.62472 0.14168,0.22282 0.0671,0.56186 -0.1557,0.70785 -0.21229,0.13909 -0.24531,0.13738 -0.74083,-0.0384 -1.96845,-0.69813 -3.57552,-0.58474 -5.08989,0.35913 -0.54356,0.33878 -0.63453,0.42913 -0.62731,0.62306 0.0216,0.58117 0.0677,0.6229 0.91967,0.83187 1.46311,0.3589 2.62078,1.05833 3.45481,2.08728 0.52364,0.64603 1.28579,2.03847 1.28812,2.35338 0.002,0.27165 -0.23721,0.49995 -0.52384,0.49995 -0.25752,0 -0.36714,-0.12015 -0.63288,-0.69374 -0.55705,-1.20233 -1.52652,-2.27275 -2.50447,-2.76525 -0.59151,-0.29788 -1.79426,-0.6311 -2.0197,-0.55955 -0.081,0.0257 -0.22815,0.18393 -0.32709,0.35163 l -0.17991,0.30491 0.29046,0.4745 c 1.22287,1.99777 1.4276,3.63103 0.72865,5.81298 -0.32568,1.01673 -0.67806,1.30139 -1.09493,0.88452 z m -0.76677,-7.34319 c 0.28073,-0.17123 0.44917,-0.36035 0.6186,-0.69457 0.2983,-0.58839 0.30065,-1.02157 0.009,-1.60736 -0.56956,-1.14295 -2.05442,-1.33814 -2.89708,-0.38083 -0.65678,0.74614 -0.63213,1.75957 0.0592,2.43466 0.62968,0.61486 1.45697,0.70771 2.21052,0.2481 z m -10.60948,-4.17762 -0.22308,-0.17548 v -1.61977 -1.61977 l -0.65497,-1.17593 c -0.55655,-0.99921 -0.75472,-1.27122 -1.31872,-1.81007 -0.91602,-0.87516 -1.40857,-1.05947 -1.86723,-0.69869 -0.40079,0.31527 -0.26663,0.78296 0.64959,2.26447 0.46121,0.74578 0.60127,1.04816 0.63158,1.3636 0.0331,0.34404 0.009,0.43307 -0.15814,0.58892 -0.1084,0.10099 -0.33584,0.22519 -0.50542,0.27599 -0.61437,0.18408 -0.75912,0.0406 -2.40506,-2.38433 -1.18542,-1.74642 -1.48372,-2.24245 -1.48407,-2.46778 -2.5e-4,-0.15511 0.081,-1.01336 0.18062,-1.90724 l 0.18104,-1.62523 -1.04247,-1.4651 c -0.57335,-0.80581 -1.04329,-1.52226 -1.04429,-1.59211 -0.003,-0.20662 3.34605,-5.9367 3.45037,-5.90347 0.13157,0.0419 1.63381,1.81745 4.69775,5.55241 1.42693,1.73943 2.65217,3.23544 2.72276,3.32446 0.0706,0.089 1.32612,0.68936 2.79006,1.33408 1.46394,0.64471 2.67459,1.21083 2.69033,1.25804 0.0505,0.15161 -0.39806,0.60089 -0.6567,0.65769 -0.1698,0.0373 -0.5902,-0.0425 -1.30619,-0.24777 -0.58068,-0.16653 -1.11243,-0.30277 -1.18165,-0.30277 -0.32529,0 -0.16285,0.25437 0.75755,1.18625 l 0.99435,1.00674 -0.0548,0.58973 c -0.0873,0.93938 -0.0738,0.93469 -0.80507,0.27988 -0.99591,-0.89182 -2.39019,-1.97349 -2.49769,-1.9377 -0.2507,0.0835 -0.0983,0.35688 0.61799,1.10879 l 0.76715,0.80528 v 0.97694 c 0,0.91296 0.0163,1.00891 0.24819,1.46502 0.37458,0.73664 0.38737,0.83388 0.14192,1.07932 -0.11719,0.1172 -0.28808,0.21308 -0.37976,0.21308 -0.51377,0 -1.19568,-1.24605 -1.19568,-2.18486 0,-0.27682 -0.0226,-0.61604 -0.0501,-0.75383 -0.0607,-0.30368 -2.03281,-2.39949 -2.25545,-2.39697 -0.3095,0.004 -0.27074,0.40453 0.18736,1.93859 l 0.44557,1.49207 -0.0536,1.05833 c -0.0295,0.58209 -0.0774,1.41076 -0.10663,1.8415 l -0.0531,0.78317 h -0.31564 c -0.19114,0 -0.40365,-0.0692 -0.53874,-0.17548 z m 8.37248,-3.29279 c -0.0226,-0.0365 -0.0661,-0.33588 -0.0967,-0.6652 l -0.0556,-0.59875 0.24456,-0.0551 c 0.13452,-0.0303 0.37792,-0.0893 0.5409,-0.13109 0.50097,-0.12844 0.80242,-0.0926 1.00125,0.11903 0.35316,0.37593 0.16176,0.99779 -0.34292,1.11417 -1.01068,0.23306 -1.256,0.27427 -1.29143,0.21694 z"
         id="path210" />
    </g>
  </g>
</svg>
