<?xml version="1.0" encoding="UTF-8" standalone="no"?>
<svg
   xmlns:dc="http://purl.org/dc/elements/1.1/"
   xmlns:cc="http://creativecommons.org/ns#"
   xmlns:rdf="http://www.w3.org/1999/02/22-rdf-syntax-ns#"
   xmlns:svg="http://www.w3.org/2000/svg"
   xmlns="http://www.w3.org/2000/svg"
   xmlns:sodipodi="http://sodipodi.sourceforge.net/DTD/sodipodi-0.dtd"
   xmlns:inkscape="http://www.inkscape.org/namespaces/inkscape"
   version="1.1"
   id="svg10"
   width="245.09637"
   height="218.3252"
   viewBox="0 0 245.09637 218.3252"
   sodipodi:docname="logo_sharp.svg"
   inkscape:version="1.0.2 (e86c870879, 2021-01-15)">
  <metadata
     id="metadata16">
    <rdf:RDF>
      <cc:Work
         rdf:about="">
        <dc:format>image/svg+xml</dc:format>
        <dc:type
           rdf:resource="http://purl.org/dc/dcmitype/StillImage" />
        <dc:title></dc:title>
      </cc:Work>
    </rdf:RDF>
  </metadata>
  <defs
     id="defs14" />
  <sodipodi:namedview
     pagecolor="#ffffff"
     bordercolor="#666666"
     borderopacity="1"
     objecttolerance="10"
     gridtolerance="10"
     guidetolerance="10"
     inkscape:pageopacity="0"
     inkscape:pageshadow="2"
     inkscape:window-width="1920"
     inkscape:window-height="1155"
     id="namedview12"
     showgrid="false"
     fit-margin-top="0"
     fit-margin-left="0"
     fit-margin-right="0"
     fit-margin-bottom="0"
     inkscape:zoom="4.0240923"
     inkscape:cx="-58.688258"
     inkscape:cy="127.31338"
     inkscape:window-x="0"
     inkscape:window-y="1245"
     inkscape:window-maximized="0"
     inkscape:current-layer="g18" />
  <g
     inkscape:groupmode="layer"
     inkscape:label="Image"
     id="g18"
     transform="translate(-265.88766,-2.3859587)">
    <g
       id="g120"
       transform="translate(263.81335,0.35033744)">
      <path
         style="fill:#d2c98f;stroke-width:0.32"
         d="M 21.912497,220.16581 C 19.340478,219.78461 16.648817,218.90939 14.24,217.671 11.011425,216.01119 6.6691738,211.58937 4.9001235,208.16 2.73951,203.97156 2.0920459,201.41249 2.1069302,197.12 2.1214178,192.94191 2.6632752,190.47558 4.286369,187.2 5.5039149,184.74286 103.89476,14.373276 105.50917,11.926711 c 1.77745,-2.6936364 5.54911,-5.988231 8.52453,-7.4462771 3.801,-1.8626066 6.08058,-2.3725259 10.6063,-2.3725259 4.55503,0 6.80407,0.5090661 10.71101,2.4244162 2.20659,1.0817638 3.24927,1.8703776 5.60382,4.2383654 L 143.84764,11.68 194.43578,99.36 c 27.82348,48.224 50.88019,88.4 51.23714,89.28 1.10194,2.71666 1.50247,4.98444 1.49772,8.48 -0.0142,10.48429 -6.91247,19.52748 -17.25064,22.61465 -1.82669,0.54548 -6.88893,0.57568 -104.16,0.62138 -56.232,0.0264 -102.963376,-0.0592 -103.847503,-0.19022 z"
         id="path150" />
      <path
         style="fill:#e8d55f;stroke-width:0.32"
         d="m 19.893888,219.66933 c -2.606927,-0.56586 -6.750649,-2.5966 -9.091266,-4.45541 -4.4946588,-3.56946 -7.7270613,-9.43133 -8.5615595,-15.52616 -0.549251,-4.0115 0.2838421,-8.94531 2.1234357,-12.57557 C 5.9726493,183.93865 105.0415,12.625942 106.1268,11.141881 c 3.5,-4.7859623 9.17133,-8.0390346 15.53379,-8.9101773 7.85894,-1.0760381 16.34804,2.3493376 21.03652,8.4882963 0.8065,1.056 24.17184,41.232 51.92298,89.28 38.63143,66.88599 50.66075,87.95997 51.32762,89.92 1.16223,3.416 1.43475,8.68048 0.62588,12.09066 -2.05084,8.64637 -8.58284,15.39609 -16.94478,17.50958 -2.50584,0.63335 -3.55835,0.6395 -105.12,0.61432 -85.754359,-0.0212 -102.921288,-0.0976 -104.614922,-0.46523 z"
         id="path148" />
      <path
         style="fill:#eed42e;stroke-width:0.32"
         d="M 20.32,219.68645 C 13.244846,218.12891 7.4542752,213.40977 4.3354797,206.65954 2.623991,202.95525 2.1523824,200.50097 2.3179097,196.16 2.4287569,193.25302 2.6412449,191.94225 3.3294714,189.92 3.9963405,187.96051 16.036675,166.86772 54.658253,100 82.409901,51.952 105.77582,11.776 106.58252,10.72 109.19341,7.3022394 113.01173,4.6777363 117.6,3.1472074 c 1.95732,-0.6529146 2.84573,-0.7458737 7.04,-0.7366386 4.31541,0.0095 5.05127,0.095199 7.28898,0.8488635 4.92188,1.6577075 9.22911,4.9912179 11.98841,9.2782587 2.36815,3.679303 100.33667,173.501079 101.2219,175.461279 1.41483,3.13291 2.01299,6.48745 1.82084,10.21161 -0.30744,5.95914 -2.58039,10.90116 -7.09268,15.42146 -2.11993,2.12368 -3.13675,2.86094 -5.62745,4.0803 -5.45911,2.67256 4.60217,2.45073 -109.86092,2.42222 C 41.00073,220.11379 21.887338,220.03148 20.32,219.68645 Z M 123.2,183.23918 c 0,-0.0665 -0.252,-0.31845 -0.56,-0.56 -0.50754,-0.39804 -0.51886,-0.38672 -0.12082,0.12082 0.41804,0.53304 0.68082,0.70255 0.68082,0.43918 z"
         id="path146" />
      <path
         style="fill:#f3d200;stroke-width:0.32"
         d="M 21.364284,219.83122 C 15.035346,218.75837 8.794271,214.41654 5.5077203,208.8 1.7322144,202.34787 1.2148169,194.47662 4.1404826,188 5.0091126,186.07709 102.9662,16.263207 105.30158,12.631804 c 5.15459,-8.0151688 14.68612,-11.89395494 24.3575,-9.9121046 5.11267,1.0476836 10.99646,4.9742593 13.79071,9.2032946 2.244,3.396245 101.14819,174.857646 101.85474,176.576506 1.22246,2.97395 1.84793,6.78626 1.62611,9.91127 -0.69967,9.85698 -7.46258,18.21565 -17.01064,21.02442 -1.81583,0.53417 -7.4843,0.5672 -104.48,0.60888 -56.408,0.0243 -103.242072,-0.0715 -104.075716,-0.21285 z M 124.48,183.87161 c 0,-0.0706 -0.53065,-0.44149 -1.17923,-0.82415 -0.88564,-0.52255 -1.06766,-0.56134 -0.73111,-0.15582 0.24647,0.29697 0.74112,0.65872 1.09923,0.80387 0.81843,0.33174 0.81111,0.33015 0.81111,0.1761 z m -2.44957,-2.28541 c -0.10423,-0.27159 -0.25813,-0.42517 -0.342,-0.34129 -0.0839,0.0839 -0.0576,0.30609 0.0584,0.4938 0.31554,0.51055 0.49996,0.41136 0.28359,-0.15251 z"
         id="path144" />
      <path
         style="fill:#e8c800;stroke-width:0.32"
         d="M 22.479144,214.36707 C 15.791278,213.24482 10.889002,208.971 8.5688058,202.24 7.5575546,199.30631 7.5732906,194.60911 8.6041562,191.6879 9.039311,190.45478 28.906298,155.7311 57.671328,105.9279 114.61998,7.3281357 110.16257,14.965716 111.80562,13.171025 c 1.73253,-1.892432 4.52778,-3.6787847 7.17344,-4.5843008 3.02233,-1.0344394 7.91595,-1.0438026 11.16825,-0.02137 2.90545,0.9133961 5.91314,2.9531388 7.77269,5.2712578 2.28005,2.842308 101.77159,175.324008 102.67659,178.003388 0.95913,2.83969 1.05508,6.80852 0.23208,9.6 -1.80531,6.12324 -6.02002,10.51344 -12.02867,12.52948 -1.69498,0.5687 -5.50759,0.59216 -103.2,0.63508 -57.282195,0.0251 -102.171693,-0.0782 -103.120856,-0.23749 z M 227.68,206.90371 c 1.00769,-0.38814 2.26189,-1.27748 3.38796,-2.40236 2.2432,-2.24083 3.17204,-4.49862 3.17204,-7.71048 0,-2.04439 -0.12677,-2.46577 -1.5608,-5.18799 -4.21411,-7.99964 -99.32241,-172.089619 -100.55847,-173.493131 -3.99156,-4.532288 -11.91712,-4.353438 -15.50452,0.349879 -0.46539,0.610171 -23.431023,40.207844 -51.034722,87.994832 -53.249483,92.18446 -51.211236,88.49784 -50.724159,91.7459 0.470094,3.13481 3.047835,6.86059 5.6921,8.22716 0.654186,0.33809 1.950186,0.74227 2.88,0.89817 0.960808,0.16111 45.064414,0.26423 102.170571,0.23889 98.36761,-0.0436 100.51364,-0.0575 102.08,-0.66087 z m -80.48,-7.37022 c -0.264,-0.0637 -1.56,-0.28872 -2.88,-0.50003 -5.58465,-0.89405 -12.74405,-3.94487 -17.44,-7.43168 -6.64176,-4.93161 -12.11088,-12.55012 -14.58553,-20.31773 l -0.73783,-2.31594 -15.61832,-15.92078 C 87.348243,144.29091 80.32,137.04118 80.32,136.93684 c 0,-0.10435 0.586547,-0.66109 1.303437,-1.2372 l 1.303437,-1.04747 12.856563,13.08058 c 20.452333,20.80869 18.844323,19.01205 19.857873,22.18725 2.5833,8.09279 7.8052,15.04956 14.79422,19.70933 15.45511,10.30432 35.81917,8.06654 48.62379,-5.34323 5.59344,-5.85778 9.04591,-12.85383 10.2346,-20.73926 2.20186,-14.60655 -4.41717,-29.38967 -16.87121,-37.68066 -3.08004,-2.05046 -7.98267,-4.41817 -9.97234,-4.81611 -1.17102,-0.2342 -1.77396,-0.81668 -18.44954,-17.82347 l -12.52463,-12.77339 1.27473,-1.274733 1.27474,-1.27473 11.30716,11.490451 c 6.21895,6.319752 12.72439,12.951432 14.45655,14.737062 2.94897,3.04001 3.30532,3.30188 5.6,4.11511 13.76262,4.87748 23.98456,16.74317 27.14806,31.51363 0.71564,3.34134 0.80766,12.82391 0.15372,15.84 -1.88047,8.67299 -5.35996,15.31901 -11.15405,21.3048 -6.0301,6.22961 -13.07863,10.12876 -21.69711,12.00257 -2.02671,0.44064 -11.47008,0.90842 -12.64,0.62612 z m 10.38546,-7.67895 c -1.01217,-1.01216 -0.99036,-1.55434 0.20463,-5.08734 1.17368,-3.46998 1.57124,-8.17451 0.9449,-11.18134 -0.38416,-1.84418 -2.34553,-6.09148 -3.48653,-7.54998 -0.50097,-0.64038 -0.77826,-0.73026 -1.71233,-0.55503 -1.10194,0.20673 -1.12228,0.24071 -1.7978,3.00412 -1.42745,5.83947 -4.86263,11.02985 -9.45743,14.28968 -2.46682,1.75012 -6.98334,4.02535 -7.99064,4.02535 -1.32506,0 -2.45026,-1.16065 -2.45026,-2.52745 0,-1.43052 0.72692,-2.20601 2.98958,-3.18931 2.5131,-1.09215 5.83418,-3.46805 7.57866,-5.42179 1.97524,-2.21218 3.29236,-4.81503 4.16029,-8.22145 l 0.65227,-2.56 -0.8904,-0.71841 c -1.10852,-0.8944 -1.18484,-0.89303 -2.43175,0.0435 -3.54294,2.66106 -8.88065,4.35491 -13.72333,4.35491 -4.92456,0 -11.49423,-1.66162 -12.81532,-3.24129 -1.25,-1.49467 -0.13857,-4.11871 1.74451,-4.11871 0.53793,0 1.93148,0.34026 3.09677,0.75613 6.69133,2.38799 12.6801,1.82727 18.08343,-1.69314 1.96051,-1.27732 2.04666,-1.3865 1.79271,-2.27198 -0.37065,-1.29238 -0.59511,-1.59101 -1.19586,-1.59101 -1.29193,0 -4.94463,-1.12767 -7.28156,-2.24797 -4.84347,-2.32193 -8.41841,-5.9615 -11.34673,-11.55187 -1.77037,-3.37974 -1.92958,-4.27172 -0.97833,-5.48104 1.49147,-1.8961 3.65123,-1.25468 4.79902,1.42524 1.09169,2.54893 3.38398,5.93238 5.26026,7.76422 2.57022,2.50933 5.5439,3.91544 10.75878,5.08729 0.68023,0.15286 0.90806,0.006 1.39502,-0.89804 l 0.58201,-1.08073 -0.95247,-1.38855 c -4.62456,-6.74185 -5.49136,-14.45249 -2.6093,-23.21124 0.91368,-2.77674 1.64314,-3.61731 3.13919,-3.61731 1.39002,0 2.59255,1.03322 2.59255,2.22753 0,0.41045 -0.45843,2.12917 -1.01872,3.81937 -0.9225,2.78283 -1.01977,3.45092 -1.0298,7.0731 -0.0126,4.5484 0.41866,6.08834 2.80051,10 1.06726,1.75273 1.46729,2.15908 2.12163,2.1551 1.32303,-0.008 1.55856,-0.36451 2.37978,-3.60188 1.56721,-6.17811 5.20186,-11.26223 10.46504,-14.63843 5.69521,-3.65332 8.32086,-4.09837 9.20562,-1.56035 0.57496,1.64935 -0.0698,2.48432 -3.19998,4.144 -4.6018,2.43999 -7.14343,4.58736 -9.10228,7.69039 -1.05701,1.67442 -2.24054,4.79344 -2.62819,6.92625 -0.28787,1.58383 -0.26772,1.65764 0.63468,2.32481 l 0.93198,0.68904 1.97987,-1.28817 c 4.45391,-2.89788 8.12697,-3.99419 13.33986,-3.98158 4.83212,0.0117 10.56807,1.43886 12.4,3.08529 1.05644,0.94946 0.99393,2.8336 -0.12316,3.7123 -1.10591,0.86991 -1.46223,0.84528 -4.97863,-0.34418 -3.48729,-1.1796 -8.15855,-1.56438 -11.23595,-0.92551 -1.83093,0.38009 -6.0868,2.34214 -7.52789,3.4705 -0.62698,0.49094 -0.71145,0.76594 -0.53091,1.72834 l 0.21472,1.14451 2.90105,0.67657 c 7.39187,1.72392 12.97906,6.2538 16.70526,13.54402 1.66105,3.24981 1.83051,4.58512 0.71489,5.6332 -0.92003,0.86432 -2.79204,0.9373 -3.4828,0.13578 -0.26543,-0.308 -1.18775,-1.92663 -2.04959,-3.59697 -1.97116,-3.82027 -5.33863,-7.40558 -8.40106,-8.94449 -1.66332,-0.83584 -6.13933,-2.25854 -7.10569,-2.25854 -0.13057,0 -0.52426,0.45308 -0.87488,1.00684 l -0.63748,1.00684 1.04229,1.63316 c 2.96994,4.65357 4.12322,8.37893 4.12141,13.31316 -0.002,4.94346 -1.58864,11.26314 -3.19392,12.72 -1.05783,0.96003 -2.49363,0.93312 -3.4922,-0.0655 z m -2.57208,-28.88869 c 4.74629,-3.34356 2.85019,-10.41197 -3.00363,-11.19713 -1.67787,-0.22505 -4.35816,1.06151 -5.38511,2.58489 -0.97121,1.44068 -1.43604,3.20935 -1.17409,4.46734 0.94314,4.52933 5.94163,6.69587 9.56283,4.1449 z M 116.24996,149.06533 C 113.7615,148.5141 113.6,148.02734 113.6,141.07848 v -6.03521 l -2.52848,-4.50624 c -2.16303,-3.85491 -2.85731,-4.80239 -4.80346,-6.5552 -3.3763,-3.04089 -4.66927,-3.55997 -6.26426,-2.5149 l -0.773678,0.50694 0.730179,2.01162 c 0.401599,1.10639 1.530439,3.29027 2.508529,4.85306 2.48637,3.97271 2.81117,4.6989 2.81117,6.28522 0,1.59933 -0.73743,2.60219 -2.43504,3.31149 -1.41744,0.59225 -1.91834,0.56313 -3.502141,-0.20358 -1.182713,-0.57254 -2.011961,-1.64783 -7.094877,-9.2 L 86.49231,120.48 l 0.73721,-6.4 c 0.405466,-3.52 0.744694,-6.69976 0.753846,-7.06614 C 87.992518,106.64748 86.2,103.8218 84,100.73456 81.8,97.647315 80,94.954102 80,94.749645 80,94.15809 93.485174,71.00071 93.768624,71.105514 c 0.382442,0.141404 7.198196,8.257443 18.184046,21.653123 5.39403,6.577251 10.09533,12.289783 10.44733,12.694523 0.38199,0.43922 4.765,2.54293 10.87234,5.2184 5.62779,2.46537 10.27755,4.6181 10.33279,4.78383 0.0552,0.16573 -0.37954,0.93207 -0.96619,1.70297 -1.83643,2.41321 -2.00252,2.40946 -11.27894,-0.25508 -0.352,-0.10111 1.06223,1.56064 3.14273,3.69277 2.67071,2.73699 3.73642,4.04231 3.6252,4.44028 -0.0866,0.31002 -0.33606,1.82367 -0.55426,3.36367 -0.21819,1.54 -0.46402,2.8 -0.54628,2.8 -0.0823,0 -1.13133,-0.92615 -2.33127,-2.0581 -2.43583,-2.29784 -9.67177,-8.1819 -10.06172,-8.1819 -0.13809,0 1.13868,1.4322 2.83726,3.18268 2.0242,2.08603 3.09539,3.43673 3.10881,3.92 0.0113,0.40552 0.003,2.04116 -0.0175,3.63475 -0.0354,2.70026 0.0394,3.05894 1.09953,5.27097 0.62562,1.30545 1.13749,2.64068 1.13749,2.96719 0,0.3265 -0.42092,1.01456 -0.93539,1.52902 -2.0148,2.01481 -4.34701,0.67397 -6.08449,-3.49812 C 124.94637,135.96446 124.8,135.2041 124.8,132.87503 v -2.73796 l -3.90361,-3.94854 c -2.14698,-2.17169 -4.01898,-3.94853 -4.16,-3.94853 -0.50043,0 -0.23684,1.2566 1.38363,6.59609 l 1.64001,5.40391 -0.39394,7.36 c -0.21667,4.048 -0.41467,7.37811 -0.44001,7.40025 -0.31196,0.27249 -1.59857,0.30378 -2.67612,0.0651 z m 29.56106,-14.87886 c -0.41358,-4.37966 -0.54732,-4.09386 2.19807,-4.69711 3.27896,-0.7205 4.08957,-0.67428 5.24636,0.29908 0.82819,0.69688 0.98455,1.05494 0.98455,2.25455 0,2.39778 -1.10325,3.04081 -7.07125,4.12148 l -1.15126,0.20847 z"
         id="path142" />
      <path
         style="fill:#cfb300;stroke-width:0.32"
         d="m 22.88,214.38875 c -7.419588,-0.9854 -13.2770861,-6.67586 -14.7931702,-14.3713 -0.6545344,-3.32232 -0.250065,-6.79371 1.13691,-9.75761 C 10.209032,188.15432 108.47951,17.90038 110.31767,15.114267 116.43894,5.8361971 131.27516,5.2835901 138.08532,14.08 c 1.41613,1.829152 101.12363,174.25318 102.05694,176.48691 0.84369,2.01922 1.18522,3.96426 1.17875,6.71309 -0.0172,7.29956 -5.04521,14.13882 -12.17793,16.56472 L 227.04,214.56 125.92,214.6019 C 70.304,214.6249 23.936,214.529 22.88,214.38877 Z m 202.90123,-7.05344 c 3.42542,-0.62182 6.15638,-2.84375 7.73599,-6.29407 0.92341,-2.017 1.09394,-4.88622 0.41375,-6.96124 C 233.53651,192.87668 134.06801,20.344357 132.70744,18.503514 129.16893,13.715933 120.64093,13.574687 116.79726,18.24 115.10264,20.296867 15.980027,192.08696 15.254215,194.22496 c -1.856817,5.46956 2.250811,12.14507 8.080328,13.13173 2.393072,0.40503 200.212787,0.38415 202.446687,-0.0214 z M 145.28,199.20996 c -15.49727,-2.5758 -27.96965,-13.07883 -32.85622,-27.66832 L 111.52,168.84329 95.931286,152.98164 80.34257,137.12 l 1.232492,-1.23907 1.23249,-1.23907 10.996224,11.16055 C 116.30705,168.64197 114.686,166.86422 115.50374,169.6 c 3.80238,12.72107 14.60255,22.65759 27.85626,25.62871 16.01823,3.59085 32.76171,-3.76598 41.21381,-18.10871 6.92031,-11.74338 6.85388,-26.811 -0.1707,-38.72 -3.14113,-5.32526 -8.01439,-10.28353 -13.17117,-13.40094 -2.22412,-1.34454 -3.58286,-1.97975 -9.04037,-4.22634 -1.22544,-0.50445 -4.06641,-3.24145 -16.07822,-15.4898 l -14.58978,-14.877077 1.2068,-1.2068 1.2068,-1.206803 9.43954,9.523882 c 5.19175,5.238128 11.73172,11.861548 14.53326,14.718698 4.43611,4.52417 5.30261,5.26253 6.71187,5.71924 2.51328,0.81452 7.11867,3.11166 9.93816,4.95712 3.21611,2.10505 9.13436,7.98012 11.29873,11.2163 3.21395,4.80552 5.4394,10.04356 6.67318,15.7067 0.80093,3.67634 0.81302,12.46172 0.0222,16.1368 -1.8449,8.57358 -5.58574,15.50113 -11.55108,21.39108 -6.16761,6.08968 -12.91755,9.74192 -21.32305,11.53745 -3.34321,0.71415 -10.98048,0.8788 -14.4,0.31045 z m 12.30546,-7.35542 c -1.01089,-1.01088 -0.99116,-1.45205 0.22532,-5.03633 0.82463,-2.42976 1.03825,-3.63983 1.15998,-6.57092 0.13401,-3.2267 0.0641,-3.86239 -0.68579,-6.24 -0.45925,-1.45601 -1.42073,-3.56492 -2.13662,-4.68646 -1.27148,-1.99195 -1.32809,-2.03487 -2.44463,-1.85368 -0.62866,0.10201 -1.19529,0.23776 -1.25919,0.30165 -0.0639,0.0639 -0.46387,1.48686 -0.88884,3.16215 -1.94163,7.65413 -6.53191,13.01643 -14.34953,16.76292 -1.26946,0.60837 -2.64271,1.10613 -3.05168,1.10613 -1.12295,0 -2.31448,-1.36728 -2.31448,-2.65586 0,-1.32675 0.57824,-1.88905 3.23433,-3.14518 4.36214,-2.06297 7.91092,-5.2624 9.82934,-8.86171 0.88271,-1.65614 2.29633,-6.11041 2.29633,-7.23567 0,-0.19582 -0.49115,-0.62054 -1.09145,-0.94383 l -1.09145,-0.58778 -1.49266,1.02698 c -2.20566,1.51753 -6.00903,3.18643 -8.43222,3.70002 -2.53986,0.53831 -7.35291,0.59796 -9.71647,0.12041 -3.24488,-0.65562 -7.59863,-2.24474 -8.09619,-2.95512 -0.71845,-1.02573 -0.59215,-2.37877 0.3059,-3.2768 1.01053,-1.01054 1.55018,-0.99005 5.26144,0.19976 6.74352,2.16194 12.75063,1.42426 18.0407,-2.21541 1.24389,-0.85582 1.39082,-1.083 1.26312,-1.95305 -0.18131,-1.23535 -0.26802,-1.28583 -3.70572,-2.15724 -7.39342,-1.87414 -12.52683,-6.15348 -16.36091,-13.63886 -0.79425,-1.55064 -1.44409,-3.16262 -1.44409,-3.58216 0,-1.18681 1.31838,-2.50517 2.50523,-2.50517 1.30315,0 2.10486,0.75432 3.09098,2.9083 1.91238,4.1772 5.07337,7.91658 8.28121,9.7965 1.52437,0.89334 5.4667,2.27021 7.25149,2.53259 0.99321,0.14602 1.20696,0.0472 1.77824,-0.822 l 0.64933,-0.98796 -1.10438,-1.62038 c -2.82476,-4.14458 -4.21507,-8.60016 -4.20654,-13.48082 0.008,-4.77038 1.53013,-10.98434 3.06625,-12.52046 1.05458,-1.05458 2.75191,-1.00586 3.62496,0.10406 0.79278,1.00785 0.83643,1.96585 0.16253,3.56712 -1.52555,3.62486 -2.12333,9.03845 -1.39286,12.61397 0.38167,1.86822 2.46884,6.33263 3.58331,7.66463 0.65636,0.78447 0.7933,0.82089 1.80479,0.48 1.02426,-0.34519 1.12116,-0.50246 1.50893,-2.44888 1.18789,-5.96276 4.69433,-11.42508 9.55653,-14.88711 2.60047,-1.85161 6.93053,-3.99289 8.07437,-3.99289 1.2819,0 2.32563,1.17181 2.32563,2.61103 0,1.40042 -0.34333,1.70631 -4.03636,3.59623 -3.41921,1.74979 -6.44573,4.3555 -8.18568,7.04754 -1.15491,1.78687 -2.48833,5.35978 -2.93787,7.87202 -0.18584,1.03857 -0.11592,1.17297 0.89293,1.71627 1.08945,0.58671 1.09954,0.5858 2.16077,-0.19444 4.25314,-3.12701 10.91967,-5.0818 15.57588,-4.56722 4.51419,0.49888 9.56822,1.95728 10.85033,3.131 0.99532,0.91117 0.96514,2.57152 -0.0655,3.60211 -0.94802,0.94804 -1.55572,0.97453 -3.76254,0.16405 -3.15679,-1.15938 -5.60808,-1.61859 -8.64011,-1.61859 -3.45623,0 -5.52117,0.51015 -8.57189,2.11771 -3.32325,1.75116 -3.64509,2.07518 -3.39346,3.41647 0.20518,1.09373 0.29649,1.16176 2.04412,1.52293 5.03582,1.04073 9.56255,3.44433 12.76225,6.77649 3.14411,3.27427 6.50709,8.95413 6.50709,10.99007 0,1.04958 -1.34359,2.37633 -2.40649,2.37633 -1.38253,0 -2.09225,-0.60275 -2.92385,-2.48314 -2.03391,-4.59902 -5.72493,-8.78691 -9.36301,-10.62341 -1.62277,-0.81917 -6.11484,-2.25345 -7.05766,-2.25345 -0.11475,0 -0.52878,0.43303 -0.92008,0.96228 l -0.71144,0.96228 1.62109,2.65283 c 2.99304,4.89793 4.14813,9.94759 3.50184,15.3089 -0.44646,3.70364 -2.01083,8.73323 -3.03482,9.75722 -1.00988,1.00988 -2.49348,0.99768 -3.52012,-0.029 z m -3.73955,-28.18981 c 5.44711,-2.27595 5.00917,-10.16352 -0.6489,-11.68708 -6.0515,-1.6295 -10.39595,5.86341 -5.96737,10.29199 1.8271,1.8271 4.32285,2.35334 6.61627,1.39509 z m -38.71787,-15.04355 c -0.47957,-0.26025 -1.01957,-0.74902 -1.2,-1.08615 -0.19045,-0.35587 -0.32804,-3.11871 -0.32804,-6.58742 v -5.97447 l -2.59584,-4.61757 c -2.16889,-3.85808 -2.93442,-4.9184 -4.65428,-6.44657 -3.33429,-2.96264 -5.01789,-3.58149 -6.493294,-2.38678 l -0.69432,0.56223 0.727545,1.91777 c 0.400149,1.05478 1.577349,3.2722 2.616009,4.9276 3.25335,5.18516 3.55556,6.73767 1.65962,8.52577 -1.96296,1.85131 -4.252413,1.75376 -6.139978,-0.26162 -0.53262,-0.56868 -3.337344,-4.56197 -6.232716,-8.87397 l -5.26432,-7.84 0.764508,-7.07286 0.764509,-7.07287 -4.050912,-5.65374 C 81.778528,97.570976 80.001603,94.836621 80.057808,94.604192 80.114013,94.37176 83.170115,88.972429 86.849146,82.605674 93.396918,71.27441 93.551523,71.041702 94.164528,71.59488 95.028352,72.3744 104.2518,83.399088 113.51142,94.72 c 4.24665,5.192 8.12785,9.90324 8.62488,10.46943 0.70883,0.80745 3.10286,1.99457 11.10237,5.50533 5.60927,2.46175 10.26969,4.54694 10.3565,4.63374 0.31009,0.3101 -1.30625,2.50849 -2.28164,3.10327 -1.33323,0.81298 -1.68313,0.78402 -6.18406,-0.51177 -2.13967,-0.616 -3.98608,-1.12 -4.10312,-1.12 -0.11705,0 1.43805,1.764 3.45578,3.92 l 3.66861,3.92 -0.48048,3.2 c -0.26426,1.76 -0.53626,3.26408 -0.60444,3.34241 -0.0682,0.0783 -1.09189,-0.81242 -2.2749,-1.97944 -2.34413,-2.31244 -9.63974,-8.24048 -10.14341,-8.24202 -0.17187,-6.4e-4 0.77733,1.11505 2.10935,2.47905 3.937,4.03154 3.83843,3.83012 3.78834,7.74125 -0.0409,3.19246 0.0142,3.50058 0.99909,5.58827 1.31967,2.7973 1.34393,3.88666 0.10904,4.89821 -2.08936,1.7115 -4.38041,0.1351 -5.97884,-4.11386 -0.7011,-1.86367 -0.88436,-2.88799 -0.88,-4.91867 l 0.005,-2.5648 -3.92462,-3.9152 c -2.15853,-2.15336 -4.03053,-3.9152 -4.15999,-3.9152 -0.49918,0 -0.17779,1.56896 1.40242,6.84622 l 1.63779,5.4696 -0.36088,6.24209 c -0.19848,3.43315 -0.35948,6.71009 -0.35779,7.28209 0.003,1.02959 -0.0121,1.03987 -1.51692,1.02719 -0.836,-0.007 -1.91238,-0.22575 -2.39196,-0.48601 z m 30.68146,-14.71936 c -0.35216,-4.16599 -0.54042,-3.80171 2.27781,-4.40732 3.47195,-0.74609 4.12014,-0.69628 5.2173,0.40089 0.71658,0.71657 0.93539,1.22964 0.93539,2.19327 0,2.32331 -1.00192,2.89136 -7.2305,4.09943 l -0.9905,0.19211 z"
         id="path140" />
      <path
         style="fill:#ab9400;stroke-width:0.32"
         d="m 20.513482,213.89359 c -2.707558,-0.7281 -4.80272,-2.01441 -7.308503,-4.48701 C 7.9911866,204.26183 6.4347235,197.20969 9.0807043,190.72 10.072746,188.28686 109.48455,16.255897 111.14458,14.09966 c 1.69834,-2.205995 5.16443,-4.5799093 8.05426,-5.5163307 4.34232,-1.4070883 9.71338,-0.8652291 14.00779,1.4131753 4.27166,2.2663334 1.23396,-2.7303411 55.79702,91.7799654 27.48001,47.59894 50.25213,87.11953 50.60471,87.82353 1.58707,3.16897 2.13203,7.83135 1.3278,11.36 -0.99699,4.3744 -5.19125,9.81525 -8.97807,11.64647 -3.96494,1.91736 3.92736,1.78748 -107.47809,1.76867 -88.297414,-0.0149 -102.475447,-0.0806 -103.966518,-0.48155 z m 207.667828,-7.20901 c 5.26061,-2.46721 7.71968,-8.98956 5.2498,-13.92438 -2.02623,-4.04842 -100.20984,-173.68798 -101.19935,-174.8501 -0.57653,-0.677101 -1.87253,-1.635869 -2.88,-2.130596 C 127.75585,14.995814 127.14919,14.88 124.64,14.88 c -2.51104,0 -3.11531,0.11555 -4.71677,0.901957 -1.01023,0.496077 -2.35672,1.504077 -2.9922,2.24 -1.47121,1.703744 -100.796644,173.565703 -101.607188,175.810053 -1.939617,5.37069 1.500828,11.83067 7.105565,13.34181 1.501279,0.40478 15.129617,0.45863 102.850593,0.40639 L 226.4,207.52 Z m -82.68752,-7.48386 c -9.6731,-1.58122 -17.45157,-5.68529 -24.10237,-12.71688 -3.9729,-4.20038 -7.444,-10.06604 -9.08492,-15.35224 L 111.57621,168.77897 95.972189,152.94948 80.36817,137.12 l 1.175913,-1.23119 1.175917,-1.2312 15.911098,16.1112 15.911102,16.11119 1.01406,3.04 c 2.84517,8.5294 7.96901,15.26433 15.27328,20.07566 9.6439,6.35245 21.94287,7.8635 33.21237,4.08045 13.02416,-4.37207 22.99909,-16.20602 25.22393,-29.9249 2.7177,-16.75793 -5.77933,-33.20726 -21.10838,-40.86353 -1.4066,-0.70254 -3.5271,-1.59663 -4.71222,-1.98686 L 161.29047,120.59131 146.422,105.49565 131.55353,90.4 l 1.18323,-1.227875 1.18324,-1.227875 14.72,14.86127 c 13.97691,14.11105 14.80885,14.89014 16.48,15.43313 2.9132,0.94656 8.30716,3.8561 11.22951,6.05728 20.48317,15.42838 22.65336,45.04429 4.62204,63.07562 -5.96593,5.96592 -13.07214,9.77949 -21.45155,11.51203 -3.56601,0.73732 -10.49706,0.89403 -14.02621,0.31714 z m 12.2416,-7.49611 c -0.51447,-0.51446 -0.93539,-1.12758 -0.93539,-1.36249 0,-0.2349 0.42712,-1.68288 0.94916,-3.21771 2.34846,-6.90469 1.78479,-12.62504 -1.78775,-18.14258 -1.09014,-1.68365 -1.33603,-1.89139 -2.04046,-1.72382 -1.38431,0.32929 -1.92095,0.74114 -1.92095,1.47427 0,1.12845 -1.1751,4.93398 -2.18292,7.06935 -2.42001,5.12747 -7.78609,9.97551 -13.69676,12.37448 -1.68051,0.68206 -1.82556,0.69224 -2.85696,0.2004 -1.22212,-0.58279 -1.68461,-1.73771 -1.22597,-3.06145 0.21727,-0.6271 1.10995,-1.2653 3.58458,-2.56271 6.24893,-3.27623 9.7663,-7.60018 11.11545,-13.66439 0.46046,-2.06965 0.47687,-2.49561 0.10446,-2.7099 -0.24304,-0.13983 -0.71396,-0.45685 -1.0465,-0.70449 -0.54047,-0.40247 -0.77814,-0.33219 -2.24,0.66228 -2.41286,1.64143 -5.1563,2.85381 -8.1987,3.62317 -4.69047,1.18612 -11.25048,0.50989 -16.35475,-1.68591 -2.47295,-1.06383 -2.92676,-3.57232 -0.85648,-4.73433 0.73293,-0.41139 1.05659,-0.42003 2.23577,-0.0597 4.9698,1.51861 6.98471,1.92877 9.55155,1.94435 3.39445,0.0206 5.85268,-0.60212 8.94723,-2.2665 3.26764,-1.75748 3.45827,-1.95687 3.22761,-3.37593 l -0.19051,-1.17202 -2.71855,-0.5776 c -3.32987,-0.70749 -7.78686,-2.8577 -10.3113,-4.97454 -1.00801,-0.84526 -2.61255,-2.52161 -3.56563,-3.72522 -1.89776,-2.39663 -4.68176,-7.62139 -4.68167,-8.78615 8e-5,-1.11502 1.37148,-2.30546 2.65591,-2.30546 1.30248,0 1.73446,0.4442 3.112,3.2 3.30842,6.61857 7.23417,9.92468 13.71991,11.55436 2.22138,0.55816 2.73121,0.5999 2.93809,0.2405 0.13768,-0.23917 0.45341,-0.70759 0.70163,-1.04093 0.40653,-0.54595 0.2872,-0.86746 -1.20264,-3.24052 -3.11516,-4.96186 -4.34827,-11.02134 -3.39273,-16.6718 0.56648,-3.34979 2.20595,-8.04194 3.00562,-8.60205 1.02573,-0.71845 2.37877,-0.59215 3.2768,0.3059 1.01037,1.01036 0.99097,1.45058 -0.22195,5.03633 -1.16643,3.44834 -1.56367,8.16195 -0.94074,11.16261 0.64225,3.09372 3.70658,8.74222 4.59484,8.46972 0.21632,-0.0664 0.78931,-0.20744 1.27331,-0.31349 0.64228,-0.14073 0.88,-0.38742 0.88,-0.91316 0,-1.31822 1.30132,-5.47777 2.43632,-7.78747 1.46144,-2.974 3.99091,-6.00785 6.7271,-8.06852 2.63043,-1.98101 7.42816,-4.53148 8.52426,-4.53148 1.21776,0 2.47232,1.15913 2.47232,2.28426 0,1.49322 -0.53585,2.15775 -2.40729,2.98539 -6.13826,2.71463 -10.57975,7.48205 -12.09921,12.98708 -0.99867,3.6182 -0.98263,3.92819 0.23718,4.5851 l 1.09222,0.5882 1.38855,-0.95247 c 2.29927,-1.57718 5.31465,-2.96434 7.90262,-3.63542 2.82653,-0.73295 7.58439,-0.86601 10.4835,-0.29319 3.1234,0.61713 6.91903,1.97856 7.70364,2.76317 1.28022,1.28022 0.87294,3.24957 -0.81678,3.94948 -0.81962,0.33949 -1.30281,0.26569 -3.77223,-0.57619 -7.04737,-2.40258 -12.58255,-1.88767 -18.17679,1.69092 -1.7926,1.14672 -1.84647,1.22179 -1.66761,2.32398 0.10166,0.62645 0.23711,1.19126 0.301,1.25516 0.0639,0.0639 1.50628,0.4688 3.20531,0.89979 7.42127,1.88256 12.6981,6.28406 16.42256,13.69835 0.77183,1.53648 1.40333,3.16302 1.40333,3.61454 0,1.06288 -1.33711,2.39185 -2.40649,2.39185 -1.42777,0 -1.97173,-0.54298 -3.30646,-3.30052 -3.11802,-6.44182 -7.30937,-10.024 -13.50749,-11.54428 -2.8321,-0.69466 -2.94728,-0.67627 -3.62307,0.57859 -0.58725,1.09047 -0.58661,1.09703 0.21233,2.16 1.28148,1.70499 3.04266,5.46705 3.74376,7.99706 1.29799,4.68393 0.63844,11.94887 -1.54032,16.96664 -1.03169,2.37603 -2.6358,2.8482 -4.23687,1.24712 z m -3.88948,-28.03988 c 4.35271,-1.81868 5.26794,-7.4716 1.69625,-10.47698 -2.88995,-2.43173 -7.31352,-1.67842 -9.34088,1.59071 -1.16679,1.88146 -1.07921,4.70892 0.203,6.55398 1.72288,2.47916 4.7897,3.44033 7.44163,2.33229 z M 115.36,148.74858 c -1.6594,-0.91256 -1.74523,-1.29374 -1.75364,-7.78858 l -0.008,-6.08 -2.4177,-4.32 c -2.5868,-4.62216 -3.702,-5.99615 -6.65598,-8.2006 -2.07612,-1.54933 -3.47955,-1.80205 -4.661424,-0.8394 l -0.68753,0.56 0.655351,1.89961 c 0.360443,1.04478 1.580593,3.35099 2.711453,5.12491 2.3189,3.63755 2.73735,4.56593 2.73735,6.07316 0,1.371 -0.94158,2.53742 -2.5763,3.19151 -1.63953,0.65601 -3.320324,0.2825 -4.518382,-1.00409 -0.453312,-0.4868 -3.242256,-4.47054 -6.197654,-8.85274 l -5.37345,-7.96764 0.738637,-7.10388 0.738637,-7.1039 -3.954138,-5.56847 C 81.962573,97.705811 80.183584,94.984 80.184038,94.72 c 6.4e-4,-0.384595 11.660583,-20.952502 13.118711,-23.141194 0.346877,-0.520672 0.794281,-0.104163 4.296697,4 2.150224,2.519658 8.649714,10.37617 14.443314,17.458919 7.79287,9.526885 10.8439,13.033065 11.72552,13.474745 0.65545,0.32836 5.39558,2.44028 10.53362,4.69316 l 9.34191,4.09614 -0.49286,0.95308 c -0.71052,1.37399 -1.95736,2.42495 -3.10992,2.62135 -0.64999,0.11075 -2.48654,-0.26583 -5.23707,-1.07386 l -4.23604,-1.24444 0.93289,1.16105 c 0.51309,0.63858 2.20895,2.42383 3.76858,3.96723 l 2.83568,2.80618 -0.46828,3.19382 c -0.25756,1.7566 -0.57261,3.19382 -0.70012,3.19382 -0.12751,0 -1.29042,-0.98113 -2.58425,-2.18028 -2.99237,-2.77341 -9.1883,-7.73972 -9.656,-7.73972 -0.19601,0 0.43848,0.828 1.40998,1.84 0.97149,1.012 2.38347,2.53432 3.13772,3.38294 l 1.37136,1.54294 -0.0888,3.57706 c -0.0864,3.47931 -0.0609,3.63061 0.93226,5.53664 1.17506,2.25513 1.29626,3.68522 0.3892,4.59228 -1.85848,1.85848 -3.79669,0.91954 -5.59798,-2.71186 -1.16452,-2.34768 -1.27968,-2.81487 -1.38852,-5.63308 l -0.11868,-3.07307 -4.08625,-4.07717 c -3.22704,-3.21989 -4.11821,-3.95307 -4.23826,-3.48693 -0.0836,0.32464 0.61618,3.11025 1.5551,6.19025 l 1.70713,5.6 -0.37678,7.44 -0.37677,7.44 -1.46356,-0.01 c -0.80497,-0.005 -1.75157,-0.16811 -2.10357,-0.36169 z m 30.43245,-15.33466 c -0.12255,-1.62335 -0.10798,-3.05818 0.0324,-3.18849 0.33698,-0.31289 4.62985,-1.26543 5.70297,-1.26543 1.26237,0 2.71221,1.59877 2.71221,2.99083 0,1.94508 -1.13585,2.89878 -4.22716,3.54927 -1.45906,0.30703 -2.95541,0.62734 -3.32521,0.7118 -0.63408,0.14483 -0.68506,-0.0145 -0.89518,-2.79798 z"
         id="path138" />
      <path
         style="fill:#998400;stroke-width:0.32"
         d="M 20.911321,213.94566 C 15.355384,212.59799 10.503997,207.86126 8.5945795,201.92 7.6218557,198.89332 7.6642176,194.80295 8.6989731,191.84 9.2158835,190.35987 26.502665,160.12811 59.658566,102.72 87.25609,54.936 110.19181,15.364553 110.62685,14.783451 114.02644,10.242382 118.92102,7.8697744 124.8,7.9131306 c 5.1701,0.038128 9.27032,1.8512387 12.64,5.5893874 1.17412,1.302505 14.96638,24.92386 51.81605,88.742892 27.61883,47.83236 50.57376,87.84693 51.01096,88.92126 0.60244,1.48036 0.8302,2.72817 0.94063,5.15333 0.12909,2.83499 0.0502,3.48392 -0.69176,5.6891 -1.60208,4.76166 -4.68732,8.53825 -8.58091,10.50373 -4.03216,2.03543 4.37943,1.88981 -107.4422,1.85995 -80.365445,-0.0214 -102.281604,-0.11182 -103.581449,-0.42712 z m 207.679629,-7.49762 c 4.88138,-2.40313 7.18181,-8.4852 5.04109,-13.32804 -1.11333,-2.51864 -99.99288,-173.469688 -101.15208,-174.88 -0.69052,-0.8401 -1.96079,-1.839933 -3.04916,-2.4 -1.69134,-0.870354 -2.15154,-0.959856 -4.92817,-0.958462 -2.69937,0.0013 -3.25241,0.102452 -4.66263,0.852352 -0.88,0.467948 -2.12454,1.403257 -2.76564,2.078463 C 115.64058,19.322412 15.758304,192.1717 15.148371,194.19835 c -1.591241,5.28729 1.874273,11.60294 7.146774,13.02448 1.255454,0.33849 20.519137,0.40534 102.831615,0.35684 L 226.41351,207.52 Z m -81.82921,-7.10736 c -15.5883,-1.80971 -28.85816,-12.46441 -34.10926,-27.38718 L 111.50053,168.67986 96.070266,153.0115 C 87.583619,144.39391 80.64,137.21319 80.64,137.05435 c 0,-0.15884 0.479789,-0.75383 1.066195,-1.3222 l 1.066192,-1.03339 15.890323,16.13111 15.89033,16.1311 0.94317,2.88623 c 2.01175,6.1562 5.17854,11.27265 9.63775,15.57135 5.80911,5.59999 12.55529,9.01464 20.28761,10.26877 13.8743,2.25032 28.16533,-3.43778 36.51958,-14.53549 9.08545,-12.06904 10.37295,-27.8651 3.35845,-41.20411 -4.592,-8.73232 -12.57795,-15.57525 -21.82261,-18.69918 L 161.20265,120.48 146.60132,105.6476 c -8.03072,-8.157814 -14.64163,-15.001386 -14.6909,-15.207933 -0.0493,-0.206547 0.39182,-0.842144 0.98022,-1.412441 l 1.06981,-1.036903 14.59059,14.825447 c 12.82474,13.03116 14.75872,14.87471 15.97978,15.23257 2.30232,0.67475 7.24267,3.12818 9.99723,4.96472 5.27031,3.51386 10.87907,9.694 13.71366,15.11071 3.42406,6.54314 4.81849,12.2374 4.84777,19.79623 0.0216,5.56768 -0.5946,9.37233 -2.27604,14.05401 -6.50588,18.11444 -24.96573,29.58244 -44.0517,27.36667 z m 10.97365,-7.63607 c -1.13706,-1.13705 -1.14304,-1.31674 -0.13302,-4.00012 2.64375,-7.02378 2.03547,-13.28756 -1.85703,-19.12306 -0.90571,-1.35782 -1.09098,-1.48133 -1.97247,-1.31498 -1.40709,0.26555 -1.6772,0.58018 -1.92675,2.24425 -0.7612,5.07609 -4.07562,10.72263 -8.25524,14.0639 -3.64835,2.91654 -8.60313,5.45507 -9.86542,5.05444 -1.55261,-0.49278 -2.30986,-2.27812 -1.5603,-3.67868 0.17883,-0.33415 1.78799,-1.35896 3.57589,-2.27735 3.59833,-1.84833 6.85536,-4.62702 8.58747,-7.3263 1.12227,-1.7489 2.38969,-5.21355 2.69885,-7.37767 0.19011,-1.33071 0.14371,-1.44571 -0.83472,-2.06864 l -1.03603,-0.65959 -2.63472,1.65413 c -1.48903,0.93484 -3.86254,2.05656 -5.45831,2.57959 -2.53216,0.82995 -3.25296,0.925 -6.98359,0.92091 -3.31882,-0.004 -4.702,-0.15178 -6.8404,-0.73267 -3.51241,-0.95412 -5.5237,-1.94266 -6.10627,-3.0012 -0.42218,-0.76711 -0.41496,-0.97897 0.0679,-1.9916 0.78773,-1.65188 1.62548,-1.73054 5.28856,-0.49655 2.59095,0.87282 3.72454,1.07197 6.79018,1.19288 3.32155,0.13102 3.91678,0.0656 6.11084,-0.67181 2.39974,-0.80651 5.93876,-2.67031 6.61296,-3.48268 0.20796,-0.25057 0.25627,-0.86079 0.12064,-1.52394 -0.2122,-1.03754 -0.33451,-1.12797 -1.97532,-1.4604 -8.30716,-1.68305 -14.29626,-6.46823 -18.21741,-14.55539 -1.41812,-2.9248 -1.47267,-3.86509 -0.28261,-4.87208 0.36399,-0.308 1.12753,-0.56 1.69676,-0.56 1.30015,0 1.63789,0.3943 3.5633,4.16 2.85536,5.58448 7.15538,9.12381 12.8561,10.5818 3.11445,0.79655 3.09788,0.79827 3.85757,-0.40157 l 0.64567,-1.01977 -0.92545,-1.3451 c -1.33698,-1.94324 -3.03182,-5.43742 -3.7132,-7.65536 -0.46043,-1.49873 -0.5846,-2.90297 -0.5659,-6.4 0.0209,-3.90913 0.1337,-4.83974 0.88531,-7.30315 1.17249,-3.8429 1.94462,-5.27794 2.97957,-5.5377 1.16916,-0.29344 2.40346,0.21267 2.96693,1.21656 0.43969,0.78337 0.39503,1.09679 -0.59211,4.15578 -1.36229,4.2215 -1.7049,9.27735 -0.83317,12.29513 0.60774,2.10392 2.34394,5.58706 3.45001,6.92136 0.62853,0.75823 0.86089,0.83755 1.83758,0.62728 0.75587,-0.16273 1.15058,-0.44391 1.21843,-0.86798 1.00484,-6.28064 4.1503,-12.01739 8.50769,-15.51652 2.18081,-1.75126 6.63688,-4.35768 8.31183,-4.8617 1.51272,-0.45521 2.74922,0.0978 3.22153,1.44084 0.58806,1.67214 -0.0362,2.46545 -3.20059,4.06725 -6.45994,3.27002 -9.77323,7.16873 -11.3579,13.36472 -0.34048,1.33128 -0.61906,2.5908 -0.61906,2.79893 0,0.20813 0.48294,0.6385 1.07321,0.95638 l 1.0732,0.57796 1.51091,-1.03953 c 2.11522,-1.45532 5.84083,-3.12372 8.23656,-3.6885 2.58997,-0.61058 7.78529,-0.61174 10.66201,-0.002 3.41825,0.72405 6.2863,1.76837 7.10501,2.58709 1.2407,1.2407 0.88071,3.04206 -0.7853,3.92953 -0.60817,0.32397 -1.21844,0.22763 -3.80347,-0.60042 -7.4314,-2.3805 -12.67102,-1.86664 -18.3303,1.79766 -1.68365,1.09015 -1.89139,1.33603 -1.72382,2.04047 0.3647,1.53318 0.66044,1.75952 2.83896,2.17278 6.07758,1.15291 11.68378,4.97638 15.31244,10.44319 1.53497,2.31254 3.39059,6.22589 3.39059,7.15049 0,1.03611 -1.37022,2.31677 -2.46546,2.30431 -1.30802,-0.0149 -1.78949,-0.51679 -3.21833,-3.35497 -3.22654,-6.40905 -6.97097,-9.69692 -12.92141,-11.34587 -3.19426,-0.88517 -3.5416,-0.8489 -4.23705,0.44247 l -0.58778,1.09145 0.95247,1.38855 c 4.56936,6.66137 5.48531,14.54226 2.65324,22.82855 -0.90907,2.65982 -1.24806,3.23557 -2.14589,3.64465 -1.19063,0.54249 -1.67647,0.4379 -2.6944,-0.58004 z m -3.72511,-27.98645 c 1.25491,-0.53847 2.94946,-2.2772 3.41009,-3.49899 0.43607,-1.15662 0.4357,-3.44323 -6.4e-4,-4.59834 -1.14955,-3.04255 -5.16473,-4.72445 -8.22555,-3.44556 -5.06121,2.11471 -5.20461,9.08587 -0.23409,11.37992 1.52633,0.70444 3.63015,0.77233 5.05028,0.16297 z M 115.32254,148.62133 C 113.75853,147.83723 113.6,147.10451 113.6,140.65965 v -5.87023 l -2.289,-4.11471 c -4.08399,-7.34136 -8.92294,-11.21109 -11.447627,-9.15471 l -0.68753,0.56 0.657187,1.90495 c 0.36145,1.04772 1.65723,3.50697 2.8795,5.465 2.32093,3.71803 2.87407,5.40344 2.2809,6.9499 -0.74641,1.94599 -3.974,2.77938 -5.993929,1.54768 -0.655629,-0.39979 -2.958231,-3.50427 -6.680035,-9.00634 l -5.679533,-8.39627 0.735657,-7.11913 0.735661,-7.11913 -3.838969,-5.39333 c -2.111434,-2.966332 -3.947117,-5.576818 -4.079303,-5.801084 -0.148921,-0.252662 2.340701,-4.877724 6.545597,-12.16 3.732262,-6.463734 6.820726,-11.794054 6.863248,-11.845148 0.127162,-0.1528 8.003736,9.234857 18.634376,22.209305 5.49624,6.708027 10.22339,12.387477 10.50477,12.620997 0.28138,0.23353 4.99371,2.39495 10.47183,4.80315 5.47813,2.4082 10.01645,4.54719 10.08516,4.75332 0.21189,0.63569 -1.31858,2.55487 -2.47905,3.10867 -1.06813,0.50973 -1.22815,0.49049 -5.34441,-0.6426 -2.33383,-0.64243 -4.50234,-1.25761 -4.81891,-1.36705 -0.31658,-0.10945 1.21294,1.61105 3.39892,3.82332 l 3.97451,4.02232 -0.42627,3.22073 c -0.23446,1.77141 -0.51266,3.22074 -0.61823,3.22074 -0.10558,0 -1.34228,-1.05073 -2.74824,-2.33495 -3.50928,-3.20544 -9.07448,-7.65436 -9.4175,-7.52853 -0.15514,0.0569 1.09277,1.60065 2.77313,3.43052 l 3.0552,3.32705 -0.17263,3.38236 c -0.17151,3.36059 -0.16561,3.39628 0.91645,5.54497 1.37996,2.74023 1.40223,3.77818 0.10452,4.87014 -1.14138,0.9604 -1.24443,0.97534 -2.65694,0.38515 -1.19834,-0.50069 -2.00499,-1.67013 -3.20879,-4.65188 -0.65528,-1.62311 -0.82972,-2.59956 -0.82972,-4.64462 v -2.58945 l -4.11432,-4.10519 c -3.04978,-3.043 -4.16407,-3.97556 -4.30657,-3.60421 -0.10573,0.27553 0.59338,3.11996 1.55358,6.32095 l 1.74583,5.81997 -0.39926,7.22886 -0.39926,7.22886 -1.28,0.0807 c -0.704,0.0444 -1.72886,-0.14433 -2.27746,-0.41937 z m 30.82011,-12.52831 c -0.0832,-0.13916 -0.20328,-1.54276 -0.26693,-3.11911 l -0.11572,-2.86608 2.66242,-0.60298 c 1.46434,-0.33163 3.02474,-0.51204 3.46756,-0.4009 1.32937,0.33365 2.35002,1.59583 2.35002,2.90612 0,1.82812 -1.22576,2.81498 -4.32703,3.48373 -1.40413,0.30278 -2.79285,0.6184 -3.08604,0.70137 -0.29319,0.083 -0.60111,0.037 -0.68428,-0.10215 z"
         id="path136" />
      <path
         style="fill:#897600;stroke-width:0.32"
         d="M 20.86586,213.90188 C 14.080955,212.07563 8.873159,206.08058 8.0368077,199.13348 7.7499894,196.75105 8.0960979,193.36998 8.8325536,191.36 9.1227418,190.568 32.058131,150.61 59.800083,102.56445 104.3926,25.335856 110.47109,14.963559 112.23337,13.09257 c 3.34121,-3.5473223 7.21701,-5.1600545 12.34859,-5.1382919 5.31828,0.022554 8.63398,1.3820166 12.18854,4.9974009 2.10509,2.14111 4.58972,6.368301 52.10503,88.648321 27.44199,47.52 50.23266,87.05828 50.64593,87.86285 1.71427,3.33739 2.22125,7.98622 1.26946,11.64041 -1.19652,4.59373 -4.73984,9.21341 -8.65704,11.28676 -4.11615,2.17866 4.89435,2.01217 -107.64111,1.98892 -87.16941,-0.018 -102.17814,-0.0871 -103.62691,-0.47706 z M 228.32,206.72764 c 5.11934,-2.53525 7.5472,-8.90557 5.24712,-13.76764 -0.45792,-0.968 -23.24601,-40.568 -50.64019,-88 -41.0646,-71.10183 -50.06197,-86.475315 -51.25674,-87.580556 -2.12271,-1.963642 -4.47216,-2.75548 -7.67019,-2.585091 -2.99191,0.159408 -5.06472,1.061886 -6.93172,3.018 C 115.7755,19.166823 16.300035,191.10387 15.272446,193.76 c -0.861892,2.22783 -0.645952,5.46414 0.516991,7.74819 1.579576,3.10232 3.711632,4.95715 6.594743,5.73724 1.140471,0.30859 23.429014,0.38099 102.89582,0.33424 L 226.72,207.52 Z m -81.24519,-7.36588 C 130.63612,197.29222 117.54419,186.646 112.34898,171.12308 L 111.52,168.64616 96.08,152.99068 c -8.492,-8.61051 -15.44,-15.78365 -15.44,-15.9403 0,-0.15666 0.479104,-0.7492 1.064678,-1.31676 l 1.064679,-1.03193 15.977299,16.24915 15.977304,16.24916 0.74123,2.55215 c 3.21198,11.05921 12.61252,20.67142 23.92169,24.46034 11.33201,3.79657 23.5811,2.08661 33.89312,-4.73146 2.90152,-1.91841 7.9231,-6.93811 9.84802,-9.84434 4.56492,-6.89204 6.63198,-13.66277 6.63198,-21.72326 0,-10.4896 -4.1699,-20.34088 -11.73573,-27.72534 -4.02137,-3.92497 -10.02049,-7.58418 -14.91995,-9.10053 -1.81575,-0.56196 -2.17214,-0.89592 -16.56,-15.5173 C 138.45694,97.351629 131.84,90.512029 131.84,90.371155 c 0,-0.391942 1.67341,-2.051155 2.06871,-2.051155 0.19194,0 6.84043,6.591219 14.77443,14.64715 13.95438,14.16885 14.48474,14.66585 16.24113,15.2195 3.09243,0.9748 8.10102,3.68265 11.37915,6.15203 8.45856,6.37175 14.17553,15.53185 16.22889,26.00301 0.7467,3.80784 0.75051,11.41996 0.008,15.15662 -1.68052,8.45237 -5.6256,15.8992 -11.57423,21.84784 -2.92968,2.92967 -7.2763,6.11262 -10.72415,7.85309 -2.59719,1.31106 -7.89117,3.09447 -10.85447,3.6566 -3.22865,0.61246 -9.43893,0.86765 -12.31222,0.50592 z m 11.05619,-7.23405 c -1.34782,-0.94405 -1.40623,-1.78676 -0.34367,-4.95829 1.42218,-4.24491 1.7931,-7.81847 1.14424,-11.02378 -0.49519,-2.44618 -2.41832,-6.85442 -3.6462,-8.35791 -0.47344,-0.5797 -0.76919,-0.65757 -1.81884,-0.47889 l -1.25346,0.21339 -0.45055,2.23889 c -1.60981,7.99972 -6.43931,13.87735 -14.6333,17.80909 -2.47261,1.18645 -2.7522,1.2536 -3.57421,0.85846 -1.28017,-0.61538 -1.9352,-1.9122 -1.539,-3.04689 0.24069,-0.68932 0.91694,-1.20575 2.87027,-2.19194 4.56049,-2.30249 7.17913,-4.45184 9.28137,-7.61805 1.25346,-1.88784 2.54128,-5.2911 2.87671,-7.60208 0.20423,-1.40713 0.16835,-1.49881 -0.83525,-2.13425 l -1.04865,-0.66396 -1.3451,0.92545 c -2.08784,1.43647 -5.52697,3.06799 -7.81536,3.70759 -1.554,0.43435 -3.132,0.57475 -6.24,0.5552 -3.54651,-0.0223 -4.58473,-0.15357 -7.04,-0.89009 -3.72465,-1.11729 -5.00481,-1.75725 -5.57252,-2.78574 -0.61447,-1.11319 -0.012,-2.64014 1.24757,-3.16186 0.77166,-0.31963 1.35013,-0.22333 4.05255,0.67466 2.89333,0.96144 3.49428,1.049 7.3124,1.06541 4.88963,0.021 6.37948,-0.36415 10.16229,-2.6272 2.47883,-1.48296 2.48201,-1.48662 2.27755,-2.61998 -0.1126,-0.62421 -0.25725,-1.19456 -0.32144,-1.26742 -0.0642,-0.0729 -1.44908,-0.46646 -3.07755,-0.87467 -7.6763,-1.92419 -13.15148,-6.5333 -16.86914,-14.20077 -1.41812,-2.9248 -1.47267,-3.86509 -0.28261,-4.87208 0.74065,-0.62672 1.9253,-0.72466 2.84054,-0.23484 0.33415,0.17883 1.36128,1.7925 2.2825,3.58592 3.03374,5.90607 7.13242,9.33181 12.94289,10.81788 3.17044,0.81086 3.14677,0.81322 3.9078,-0.38873 l 0.64567,-1.01977 -0.96651,-1.40477 c -1.55262,-2.25666 -3.35496,-6.43505 -3.95385,-9.16627 -1.30026,-5.92983 0.92779,-17.00443 3.55364,-17.66348 1.19237,-0.29927 2.42583,0.19755 2.99119,1.2048 0.43482,0.7747 0.39253,1.09533 -0.52704,3.99577 -1.34402,4.2392 -1.39502,4.53047 -1.39502,7.9674 0,2.33263 0.17425,3.50566 0.79578,5.35718 0.78839,2.34857 2.65619,5.88436 3.4615,6.55271 0.65652,0.54487 2.62758,0.0168 2.74927,-0.73652 1.05017,-6.50128 4.24521,-12.13918 8.97833,-15.84301 2.612,-2.04397 7.73328,-4.78427 8.94121,-4.78427 1.52816,0 2.71989,2.06126 2.11025,3.64995 -0.10601,0.27626 -1.58926,1.2326 -3.29611,2.12521 -4.08308,2.13525 -6.44652,4.0548 -8.37694,6.80363 -1.54146,2.19496 -2.93404,5.71704 -3.34908,8.47042 -0.16272,1.0795 -0.0826,1.25231 0.85731,1.84903 l 1.03681,0.65824 1.62038,-1.10243 c 6.75847,-4.59813 14.70741,-5.44812 23.25959,-2.4872 2.55662,0.88516 3.48079,1.6957 3.48079,3.05282 0,0.87203 -0.94131,1.98936 -1.9858,2.35716 -0.30019,0.1057 -1.81219,-0.23685 -3.36,-0.76124 -4.16727,-1.41183 -7.93433,-1.80827 -11.06534,-1.16451 -2.7529,0.56602 -5.10648,1.5461 -7.54251,3.14087 -1.47135,0.96323 -1.59026,1.13307 -1.42101,2.02962 0.26266,1.39129 0.57131,1.67152 2.1007,1.90729 2.25794,0.34808 6.12658,1.75198 8.0963,2.93808 4.24667,2.55721 7.36741,6.07606 9.94306,11.21147 1.60484,3.19977 1.68363,4.45872 0.33806,5.40119 -1.69702,1.18864 -3.01069,0.38326 -4.60627,-2.82398 -3.19866,-6.42958 -6.96701,-9.75077 -12.94239,-11.40664 -3.20474,-0.88808 -3.58563,-0.85025 -4.27198,0.42423 l -0.57796,1.0732 0.96452,1.4068 c 1.35619,1.97805 2.48596,4.29678 3.34947,6.87442 0.63509,1.89578 0.74071,2.85345 0.73807,6.69237 -0.003,4.68775 -0.50548,7.31618 -2.11141,11.04924 -0.89196,2.07342 -2.31671,2.72554 -3.75451,1.71847 z m -3.18009,-28.9116 c 3.19731,-2.19083 3.79177,-6.57055 1.27101,-9.36412 -1.37814,-1.52728 -2.72631,-2.17199 -4.54192,-2.17199 -2.53764,0 -4.74314,1.40052 -5.79519,3.68 -1.42689,3.09166 -0.15312,6.52389 3.07519,8.28625 1.42391,0.77732 4.55703,0.55237 5.99091,-0.43014 z M 115.6442,148.80638 c -0.37169,-0.15018 -0.98369,-0.66447 -1.36,-1.14287 -0.64399,-0.8187 -0.6842,-1.22443 -0.6842,-6.90398 v -6.03416 l -2.28493,-4.08269 c -2.3887,-4.26808 -4.65466,-6.98485 -7.28993,-8.74023 -1.69979,-1.13224 -3.47661,-1.26216 -4.332186,-0.31676 -0.543309,0.60035 -0.534679,0.70724 0.213136,2.64 0.42865,1.10787 1.65091,3.3969 2.71612,5.08673 2.24076,3.55469 2.8024,5.01642 2.51535,6.54651 -0.42634,2.27263 -3.88801,3.46066 -6.119173,2.10008 -0.63151,-0.38509 -3.016893,-3.60533 -6.688102,-9.02886 l -5.70649,-8.43027 0.696119,-6.40994 c 0.382864,-3.52547 0.692508,-6.77028 0.688102,-7.21069 -0.005,-0.50013 -1.342102,-2.66262 -3.561482,-5.76 -1.954403,-2.727589 -3.765024,-5.274181 -4.0236,-5.6591 -0.443606,-0.660358 -0.08706,-1.364524 6.319028,-12.48 3.734035,-6.479081 6.822736,-11.82223 6.863772,-11.87366 0.119584,-0.149863 9.462316,11.011878 19.671596,23.501612 l 9.43733,11.545358 10.24267,4.50048 c 6.34779,2.78914 10.28124,4.68766 10.3441,4.9927 0.0558,0.27071 -0.45862,1.0926 -1.14312,1.82642 -1.56611,1.67895 -2.40589,1.71437 -7.27831,0.30696 -1.936,-0.55921 -3.808,-1.0949 -4.16,-1.19041 -0.352,-0.0955 1.14222,1.62511 3.32049,3.82358 l 3.9605,3.99723 -0.41339,3.24383 c -0.22737,1.7841 -0.52591,3.20375 -0.66344,3.15478 -0.13752,-0.049 -1.37372,-1.10315 -2.7471,-2.34262 -3.67266,-3.31458 -9.03029,-7.5689 -9.38193,-7.44989 -0.16815,0.0569 1.08053,1.60277 2.77485,3.43522 l 3.08059,3.33175 -0.18957,3.34746 c -0.18927,3.34231 -0.18786,3.35083 0.91472,5.54027 1.29379,2.56913 1.39176,3.75845 0.38428,4.66531 -1.09301,0.98386 -1.79401,1.11532 -2.97045,0.55706 -1.27847,-0.60667 -1.68536,-1.18584 -2.99459,-4.26248 C 124.954,135.65488 124.8,134.88884 124.8,132.68188 v -2.61112 l -4.11432,-4.10519 c -3.19497,-3.18787 -4.1599,-3.98643 -4.31827,-3.57373 -0.11217,0.29231 0.58424,3.14972 1.54757,6.34981 l 1.7515,5.81835 -0.33492,6.56 c -0.42916,8.40557 -0.33788,8.00486 -1.81766,7.97972 -0.65664,-0.0112 -1.49801,-0.14316 -1.8697,-0.29334 z m 30.50475,-12.70457 c -0.0857,-0.14399 -0.20825,-1.54845 -0.27237,-3.12101 l -0.11658,-2.85921 2.81884,-0.61181 c 3.24759,-0.70487 4.39704,-0.4661 5.19625,1.0794 1.28287,2.48079 -0.001,4.05183 -4.01509,4.91257 -1.496,0.32079 -2.88543,0.64595 -3.08763,0.72257 -0.2022,0.0766 -0.43774,0.0215 -0.52342,-0.12251 z"
         id="path134" />
      <path
         style="fill:#776700;stroke-width:0.32"
         d="M 20.887843,213.90751 C 15.029166,212.32954 10.015067,207.2819 8.4899814,201.4267 7.5040307,197.64138 7.9701245,192.94374 9.6668141,189.56571 10.792164,187.32519 109.34089,16.754574 110.4263,15.168653 c 0.49363,-0.721241 1.67109,-2.017241 2.6166,-2.88 3.33224,-3.0406232 6.71337,-4.2912501 11.58433,-4.2848549 5.23372,0.00687 8.73444,1.4285385 12.13669,4.9287959 2.08302,2.143022 4.97159,7.061538 52.65615,89.660216 27.74873,48.06605 50.70948,88.17005 51.02389,89.12 0.76258,2.30399 1.01128,6.38613 0.53013,8.70133 -0.97922,4.71176 -4.74052,9.80591 -8.84392,11.97786 -4.07457,2.15668 4.43502,2.00022 -107.81017,1.98221 -86.435891,-0.0139 -102.011811,-0.0841 -103.432157,-0.4667 z M 228.55176,206.6205 c 2.12916,-1.04555 3.82565,-2.8572 5.00101,-5.3405 1.0298,-2.17576 1.15195,-5.4506 0.2869,-7.69157 C 232.96542,191.32365 133.6426,19.530901 132.31624,17.989408 c -2.45866,-2.857426 -7.02806,-4.014898 -11.1357,-2.820775 -3.98491,1.158446 -0.0583,-5.2576551 -55.147014,90.111367 -27.398473,47.432 -50.149067,87.032 -50.556872,88 -2.233029,5.30051 0.809738,11.87628 6.389732,13.80895 1.577082,0.54624 6.35586,0.56947 103.253614,0.5019 l 101.6,-0.0708 z m -81.26693,-7.27075 C 131.27584,197.667 117.93581,187.01362 112.55094,171.61118 L 111.52,168.66237 96.08,152.972 c -8.492,-8.62971 -15.44,-15.80649 -15.44,-15.94841 0,-0.14193 0.476294,-0.71969 1.058432,-1.28392 L 82.756864,134.7138 98.738432,150.9569 114.72,167.2 l 0.58441,2.08 c 2.06299,7.34244 7.30143,14.80745 13.78879,19.64961 2.6253,1.95952 6.84905,4.12915 10.2682,5.27449 18.14453,6.07805 38.12591,-2.19219 46.51278,-19.2515 2.714,-5.52043 3.88582,-10.65682 3.88582,-17.0326 0,-6.41951 -1.2067,-11.6081 -4.00637,-17.22669 -4.51458,-9.06018 -13.34113,-16.70207 -22.63571,-19.59763 -1.79582,-0.55946 -2.21175,-0.9494 -16.56,-15.52539 C 138.46306,97.34695 131.84,90.474342 131.84,90.297827 c 0,-0.337161 1.81289,-1.977827 2.18545,-1.977827 0.11899,0 6.62334,6.516 14.45411,14.48 l 14.23777,14.48 3.53184,1.44224 c 12.10705,4.94398 21.17073,14.56804 24.89866,26.43808 2.00646,6.38872 2.54988,14.39792 1.38119,20.35681 -0.61122,3.11652 -2.39142,8.47425 -3.637,10.94601 -5.42499,10.76545 -15.46219,18.82459 -27.13177,21.78482 -4.94549,1.25453 -9.63009,1.61109 -14.47542,1.10179 z M 158.4,192.22592 c -1.57971,-0.79903 -1.69915,-1.73326 -0.62641,-4.89973 2.14827,-6.34115 1.99235,-11.12025 -0.52477,-16.08424 -1.98996,-3.92439 -2.24944,-4.19405 -3.78434,-3.93277 l -1.25551,0.21372 -0.5776,2.71855 c -1.55482,7.31795 -6.48645,13.34805 -13.98795,17.10363 -2.91724,1.4605 -4.04589,1.54248 -5.05675,0.36729 -1.54736,-1.79892 -0.91348,-2.94703 2.55359,-4.62519 2.88085,-1.39441 6.59012,-4.13746 7.93743,-5.86983 1.49703,-1.92488 2.78966,-4.52697 3.46292,-6.97092 0.8894,-3.2285 0.85428,-3.66019 -0.36038,-4.42926 l -1.01977,-0.64567 -1.40477,0.96651 c -3.81543,2.62508 -9.35572,4.42199 -13.63405,4.42199 -4.29147,0 -11.51876,-1.95432 -12.67818,-3.42828 -0.73867,-0.93907 -0.78578,-1.34925 -0.28195,-2.45504 0.70017,-1.53671 1.77743,-1.64182 5.28609,-0.51578 7.08385,2.27342 12.53327,1.71928 18.09504,-1.84006 1.48567,-0.95078 1.84201,-1.33411 1.71125,-1.84084 -0.0908,-0.352 -0.16712,-0.93911 -0.16952,-1.30469 -0.004,-0.5648 -0.31787,-0.72245 -2.09057,-1.04908 -8.15092,-1.50187 -14.29937,-6.53342 -18.31406,-14.98722 -1.11182,-2.34117 -1.12413,-2.41061 -0.6163,-3.47555 1.04914,-2.20007 3.45711,-1.86102 4.66284,0.65654 3.52163,7.35315 8.12141,11.37034 14.69347,12.83249 2.32034,0.51622 2.4207,0.51381 2.85599,-0.0687 1.01318,-1.35589 1.01534,-1.56454 0.0313,-3.01808 -1.47239,-2.17481 -2.68849,-4.71875 -3.51692,-7.35696 -1.03505,-3.29623 -1.04806,-9.1814 -0.0287,-12.97458 0.86135,-3.20513 1.84965,-5.54978 2.56996,-6.09699 0.73608,-0.55919 2.01474,-0.54327 2.84088,0.0354 1.1375,0.79674 1.168,1.8776 0.13833,4.90149 -2.28393,6.70728 -1.84441,12.30958 1.3825,17.62163 1.46158,2.40602 1.71688,2.60329 3.02336,2.33609 1.05039,-0.21483 1.08451,-0.27548 1.83162,-3.25532 1.43817,-5.73618 4.19077,-10.09476 8.56035,-13.5548 2.39662,-1.89776 7.62139,-4.68176 8.78615,-4.68167 0.96951,7e-5 2.30545,1.36723 2.30545,2.35933 0,1.43771 -0.37893,1.82389 -3.16088,3.22137 -6.66238,3.34676 -10.16103,7.43108 -11.68392,13.63979 -0.68618,2.79755 -0.66957,2.91356 0.529,3.69414 l 1.0358,0.67459 1.86401,-1.26281 c 5.11493,-3.46522 12.06082,-4.91954 17.88024,-3.74374 3.24488,0.65562 7.59863,2.24474 8.09619,2.95512 0.68169,0.97324 0.59458,1.97286 -0.25833,2.96442 -0.91758,1.06675 -1.63275,1.0702 -4.72219,0.0228 -7.09392,-2.40513 -12.76929,-1.75331 -18.6076,2.13713 -1.56345,1.04182 -1.56932,1.05995 -1.01446,3.13558 0.0902,0.33754 0.63966,0.58633 1.57929,0.71512 2.31761,0.31766 6.21108,1.74277 8.57293,3.13791 4.11795,2.43246 8.18458,7.28745 10.32753,12.32959 0.74285,1.74787 0.8002,2.11595 0.4583,2.94137 -0.22447,0.54192 -0.80642,1.11564 -1.36727,1.34795 -1.52166,0.6303 -2.40942,-0.0769 -4.10708,-3.27156 -2.80642,-5.28119 -5.17606,-7.8192 -9.07901,-9.7241 -2.23742,-1.09201 -5.43766,-2.0739 -6.7594,-2.0739 -0.44287,0 -0.87686,0.36503 -1.23647,1.04 l -0.55409,1.04 1.62836,2.69884 c 3.89182,6.45026 4.55489,13.30644 2.05286,21.22676 -0.52153,1.65094 -1.14425,2.91406 -1.72092,3.49073 -1.006,1.006 -1.38735,1.07913 -2.5529,0.48959 z m -3.27607,-29.0976 c 3.58746,-2.37406 3.49924,-7.98816 -0.16499,-10.49892 -1.556,-1.06619 -4.33813,-1.2394 -6.02408,-0.37504 -4.85408,2.48863 -4.84019,8.79892 0.0252,11.42038 1.47749,0.79608 4.54637,0.52403 6.16393,-0.54642 z M 115.6442,148.80638 c -0.37169,-0.15018 -0.98369,-0.66447 -1.36,-1.14287 -0.64411,-0.81886 -0.6842,-1.22414 -0.6842,-6.91749 v -6.04766 l -2.28204,-4.06918 c -2.40516,-4.28874 -4.74385,-7.09091 -7.30061,-8.74744 -1.70709,-1.10603 -3.47959,-1.22955 -4.319881,-0.30104 -0.529136,0.58469 -0.53097,0.7133 -0.03158,2.21685 0.291587,0.87788 1.270791,2.79457 2.176001,4.2593 2.38325,3.85631 3.43966,5.99834 3.42675,6.94824 -0.0379,2.79239 -3.67672,4.52513 -6.228652,2.966 -0.602768,-0.36827 -3.086669,-3.72599 -6.675082,-9.02334 l -5.715084,-8.43682 0.785843,-7.05546 0.78584,-7.05547 -3.411437,-4.8 c -1.876291,-2.64 -3.732115,-5.26263 -4.124051,-5.828067 l -0.712615,-1.028064 6.769831,-11.706423 c 3.723408,-6.438531 6.895321,-11.6639 7.048697,-11.611932 0.438864,0.148697 22.12276,26.16303 28.62888,34.346286 0.18746,0.23577 4.57946,2.29359 9.76,4.57292 5.18055,2.27932 9.81517,4.32733 10.29917,4.55112 1.18763,0.54913 1.10883,1.11063 -0.36235,2.58181 -1.57644,1.57643 -2.64484,1.61481 -7.3499,0.26398 -1.87426,-0.5381 -3.69575,-1.05651 -4.04775,-1.15202 -0.352,-0.0955 1.14857,1.63147 3.3346,3.83772 l 3.9746,4.01137 -0.39675,2.82065 c -0.21822,1.55136 -0.46047,3.01682 -0.53834,3.25658 -0.0929,0.28599 -1.04833,-0.38043 -2.77785,-1.93755 -3.8861,-3.49874 -9.16745,-7.68131 -9.5417,-7.55657 -0.17947,0.0598 1.01284,1.53645 2.64957,3.28139 l 2.97587,3.17261 0.0128,3.70209 c 0.0121,3.509 0.0664,3.81059 1.03975,5.7821 0.56482,1.144 1.02706,2.4509 1.0272,2.90422 3.2e-4,1.17961 -1.23221,2.21578 -2.63576,2.21578 -1.62742,0 -2.76761,-1.26538 -4.01755,-4.45864 C 124.98708,135.477 124.8,134.54996 124.8,132.53492 v -2.46416 l -4.11432,-4.10519 c -3.19497,-3.18787 -4.1599,-3.98643 -4.31827,-3.57373 -0.11217,0.29231 0.58361,3.14972 1.54617,6.34981 l 1.75011,5.81835 -0.32126,5.92 c -0.17669,3.256 -0.39785,6.532 -0.49145,7.28 -0.16621,1.32816 -0.19783,1.35953 -1.35059,1.33972 -0.64921,-0.0112 -1.4845,-0.14316 -1.85619,-0.29334 z m 30.45244,-13.24472 c -0.075,-0.37491 -0.20873,-1.72244 -0.29725,-2.9945 l -0.16095,-2.31284 1.18078,-0.29685 c 3.97379,-0.99903 4.55511,-1.06918 5.52643,-0.66685 1.7908,0.74178 2.42091,3.07365 1.23719,4.57851 -0.67407,0.85695 -1.42856,1.13655 -5.18637,1.92199 -2.12489,0.44413 -2.16595,0.44004 -2.29983,-0.22946 z"
         id="path132" />
      <path
         style="fill:#675900;stroke-width:0.32"
         d="M 21.050126,213.90306 C 15.131618,212.46822 10.11209,207.42847 8.4752992,201.27758 7.514929,197.66861 7.9993222,192.93974 9.6714726,189.6 10.023953,188.896 32.796067,149.368 60.276173,101.76 108.49837,18.217298 110.31808,15.121728 112.48,12.954529 c 2.4744,-2.48044 4.52608,-3.7229418 7.37119,-4.4639981 2.31202,-0.6022055 7.11209,-0.6313735 9.26881,-0.056323 3.67031,0.9786263 7.4447,3.5450121 9.40417,6.3943431 2.30621,3.353534 101.03872,174.691879 101.725,176.531449 3.51394,9.41902 -2.74733,20.63596 -12.66492,22.68897 -1.21126,0.25074 -30.69634,0.34341 -103.2,0.32437 -85.36634,-0.0224 -101.795177,-0.0972 -103.334124,-0.47028 z m 207.481244,-7.27259 c 4.60882,-2.2633 7.12363,-8.11807 5.45956,-12.71047 -0.8486,-2.34194 -100.14709,-174.170862 -101.6688,-175.930592 -1.77572,-2.053463 -3.9326,-3.028351 -7.08466,-3.202196 -3.51849,-0.194053 -5.36279,0.433227 -7.65928,2.605069 -1.56266,1.477833 -6.81126,10.423905 -50.90602,86.767719 -27.040048,46.816 -49.755124,86.2 -50.477947,87.52 -1.263836,2.30798 -1.314223,2.51042 -1.314223,5.28 0,2.41261 0.127757,3.13966 0.787224,4.48 0.927895,1.88591 2.94116,4.1614 4.316178,4.87835 2.631877,1.37231 -1.412033,1.32379 105.136598,1.26127 L 226.72,207.52 Z M 147.36,199.32033 c -7.61483,-0.72228 -15.60404,-4.00936 -21.73803,-8.9439 -5.95604,-4.79139 -10.43466,-11.25584 -13.12165,-18.93985 L 111.52,168.63317 97.683939,154.58668 C 90.074109,146.86112 83.102515,139.72465 82.19151,138.72787 l -1.656374,-1.81234 1.106262,-1.10626 1.10626,-1.10626 15.851664,16.12329 15.851668,16.12329 1.19724,3.48521 c 3.96472,11.54136 12.38625,19.95892 23.87177,23.86051 7.31738,2.48568 16.61461,2.51661 23.97923,0.0798 12.29662,-4.06879 21.76363,-14.17414 25.22042,-26.921 0.78709,-2.9024 0.84992,-3.60716 0.84992,-9.53407 0,-5.92691 -0.0628,-6.63167 -0.84992,-9.53407 -1.81506,-6.69299 -5.0321,-12.34217 -9.88546,-17.35903 -4.33791,-4.48406 -8.8265,-7.39738 -14.83419,-9.62817 l -2.88,-1.06941 -14.56,-14.77095 c -8.008,-8.124031 -14.58784,-14.930127 -14.62187,-15.124664 -0.034,-0.194538 0.44787,-0.776023 1.07087,-1.292189 l 1.13274,-0.938487 4.20913,4.297975 c 2.31502,2.363888 8.79169,8.942085 14.3926,14.618235 l 10.18347,10.32026 3.30591,1.29254 c 12.76925,4.99253 22.26778,15.75214 25.63939,29.04343 3.58522,14.13333 -0.55231,29.18905 -10.8521,39.48883 -7.01623,7.01623 -16.03132,11.21781 -25.95439,12.09631 -3.89705,0.34502 -3.6289,0.34642 -7.70575,-0.0403 z m 11.18889,-6.9878 c -1.69003,-0.67729 -1.84277,-1.83301 -0.69945,-5.29253 2.31659,-7.00971 1.85759,-12.14141 -1.58218,-17.68916 l -1.44415,-2.32917 -1.17155,0.21119 C 152.1659,167.50068 152,167.60169 152,168.23844 c 0,1.36843 -1.15674,5.01322 -2.44213,7.69498 -2.28491,4.76706 -6.373,8.63544 -12.22393,11.56697 -2.49976,1.25247 -3.99862,1.23894 -4.95294,-0.0447 -0.52472,-0.70582 -0.58767,-1.05577 -0.3432,-1.90817 0.25882,-0.90245 0.69964,-1.24644 3.25486,-2.53989 6.4329,-3.25633 9.61307,-6.87559 11.25836,-12.81281 0.87864,-3.17071 0.84143,-3.6101 -0.37079,-4.37763 l -1.01977,-0.64567 -1.30023,0.89171 c -5.15254,3.53364 -11.31826,5.03977 -17.18019,4.19666 -2.96946,-0.42709 -8.13614,-2.03045 -8.96758,-2.78289 -0.82797,-0.7493 -1.01365,-1.99488 -0.43014,-2.88544 0.96353,-1.47053 1.69218,-1.54267 4.86039,-0.48122 7.12455,2.38694 12.61944,1.90082 18.06395,-1.59807 1.11834,-0.7187 2.07411,-1.34274 2.12395,-1.38677 0.0498,-0.044 -9.6e-4,-0.65311 -0.11302,-1.35353 l -0.20364,-1.2735 -2.10618,-0.38808 c -7.69844,-1.41849 -13.89121,-6.31875 -17.82844,-14.10742 -1.26785,-2.50807 -1.4281,-3.25996 -0.94149,-4.41727 0.48055,-1.1429 1.68086,-1.60332 2.98456,-1.14484 0.60729,0.21358 1.1795,0.98495 2.11506,2.85124 2.2507,4.48977 4.55995,7.26879 7.73763,9.31168 1.72444,1.10862 5.45823,2.50156 7.63837,2.84958 1.15647,0.18461 1.33158,0.11413 2.01494,-0.81104 l 0.7484,-1.01322 -1.1151,-1.67946 c -1.62396,-2.44586 -2.62212,-4.5321 -3.46286,-7.23769 -1.05508,-3.39537 -1.06215,-8.89497 -0.0166,-12.95193 1.37243,-5.32553 2.74022,-7.11713 4.78644,-6.26956 1.69701,0.70293 1.84348,1.71942 0.72764,5.04996 -2.3993,7.16145 -1.85158,12.68691 1.82289,18.38946 1.16104,1.80186 1.23794,1.85714 2.32083,1.66806 0.616,-0.10755 1.20441,-0.28608 1.30756,-0.39673 0.10317,-0.11066 0.49635,-1.49719 0.87376,-3.08119 1.02681,-4.30966 2.85898,-7.74865 5.72813,-10.75175 3.65485,-3.82549 9.97851,-7.59699 11.99517,-7.15406 1.46706,0.32222 2.24323,1.96275 1.6545,3.49696 -0.11049,0.28792 -1.44249,1.14787 -2.96,1.91099 -6.77153,3.40526 -10.25019,7.47215 -11.71866,13.70026 -0.65128,2.76223 -0.6188,2.97789 0.55142,3.66134 l 1.03189,0.60265 2.60863,-1.63775 c 3.5684,-2.24031 7.1008,-3.37244 11.1894,-3.58618 3.72463,-0.19472 6.33386,0.18702 10.58407,1.54848 3.91507,1.25411 4.86225,2.56826 3.29091,4.5659 -0.84696,1.07673 -1.81129,1.08218 -4.95171,0.028 -6.03199,-2.02487 -10.71898,-1.83286 -15.66507,0.64173 -4.03347,2.018 -4.31399,2.283 -4.05115,3.82693 l 0.21338,1.25347 2.23889,0.45199 c 4.88086,0.98536 9.06822,3.19365 12.35933,6.51793 2.15459,2.17632 4.70667,5.97523 5.89936,8.78152 0.75975,1.78761 0.8186,2.15636 0.4761,2.98323 -0.22447,0.54192 -0.80642,1.11564 -1.36727,1.34795 -1.53089,0.63412 -2.41581,-0.0754 -4.0402,-3.2392 -3.24894,-6.32801 -6.92235,-9.54056 -12.84742,-11.2356 -2.93205,-0.8388 -3.55687,-0.7779 -4.33497,0.42255 l -0.65396,1.00891 1.37833,2.09854 c 3.57637,5.44513 4.71388,11.76312 3.31914,18.43524 -1.28053,6.12575 -2.79996,8.41449 -5.00067,7.53253 z m -4.05363,-28.85865 c 4.44397,-2.15128 4.39693,-8.97925 -0.0768,-11.14494 -2.1393,-1.03562 -4.81497,-0.82561 -6.49356,0.50967 -2.42703,1.93067 -3.30411,5.26533 -2.03422,7.73414 0.71778,1.39543 2.10376,2.78112 3.22931,3.22862 1.4022,0.55748 3.85597,0.40799 5.37526,-0.32749 z m -39.19484,-14.97795 c -0.56077,-0.34193 -1.17277,-0.90792 -1.36,-1.25777 -0.20566,-0.38429 -0.34042,-2.99925 -0.34042,-6.60604 v -5.96995 l -2.38354,-4.22269 c -1.87525,-3.32221 -2.85982,-4.68251 -4.61697,-6.3789 -3.36227,-3.24599 -5.65979,-4.01121 -7.042207,-2.3455 -0.640374,0.7716 0.337917,3.30345 2.784697,7.20692 2.87182,4.58152 3.36884,6.10076 2.5051,7.65728 -1.03388,1.86315 -3.90756,2.55204 -5.80708,1.39211 -0.607408,-0.37091 -3.054797,-3.69646 -6.663507,-9.05447 l -5.703504,-8.46825 0.777293,-7.02434 0.777296,-7.02433 -4.123524,-5.81373 -4.12352,-5.813736 6.770935,-11.7192 c 3.724013,-6.445561 6.893949,-11.677379 7.044297,-11.626268 0.394333,0.134057 8.603624,9.928355 19.458804,23.21582 l 9.41458,11.524064 10.34542,4.5624 c 6.02003,2.65487 10.34543,4.73828 10.34543,4.98305 0,0.23136 -0.5537,1.00271 -1.23045,1.71412 -1.57443,1.65507 -2.42657,1.67442 -7.64008,0.17348 -2.13967,-0.616 -4.00496,-1.12 -4.14509,-1.12 -0.14013,0 1.5243,1.78336 3.69872,3.96301 l 3.9535,3.96302 -0.38014,2.83698 c -0.20908,1.56035 -0.44339,3.03159 -0.5207,3.26942 -0.0909,0.27965 -1.12899,-0.46321 -2.93816,-2.10256 -3.94184,-3.57183 -8.95877,-7.52948 -9.37072,-7.39216 -0.19121,0.0637 0.94259,1.50033 2.51954,3.19242 1.57695,1.6921 2.97094,3.40346 3.09776,3.80303 0.12682,0.39957 0.13325,1.97059 0.0143,3.49115 -0.21198,2.70978 -0.19366,2.81185 0.92262,5.14115 0.62639,1.30707 1.1389,2.75145 1.1389,3.20973 0,1.17182 -1.22955,2.22481 -2.59785,2.22481 -1.52877,0 -2.8006,-1.41548 -4.07723,-4.53775 -0.82651,-2.02143 -1.00492,-2.89484 -1.00492,-4.91973 v -2.46197 l -3.89478,-4.04027 c -2.14214,-2.22216 -3.99639,-4.08237 -4.12058,-4.1338 -0.75164,-0.31134 -0.4316,1.65416 1.10297,6.77378 l 1.73843,5.79974 -0.43603,7.2 c -0.23981,3.96 -0.44367,7.236 -0.45301,7.28 -0.0752,0.35396 -2.6261,-0.0499 -3.43658,-0.54407 z m 30.80386,-13.25501 c -0.0825,-0.55051 -0.22704,-1.8961 -0.32114,-2.99021 l -0.17109,-1.98929 1.19398,-0.30551 c 3.93013,-1.00564 4.73281,-1.08534 5.73126,-0.56902 1.93089,0.9985 2.16446,3.79692 0.42007,5.03299 -0.43855,0.31076 -2.12613,0.84782 -3.75019,1.19348 l -2.95283,0.62847 z"
         id="path130" />
      <path
         style="fill:#544800;stroke-width:0.32"
         d="M 21.002904,213.89233 C 15.28638,212.50866 10.632498,207.9868 8.7488806,201.98592 c -0.7284608,-2.32075 -0.81387,-3.04416 -0.6800534,-5.76 0.1141261,-2.31621 0.3574784,-3.60953 0.9571043,-5.0866 0.4422368,-1.08937 23.3963185,-41.12137 51.0090665,-88.96 C 108.21423,18.709607 110.33038,15.108425 112.48,12.930474 115.92467,9.4403968 119.50882,8 124.74852,8 c 5.49256,0 10.37499,2.361413 13.46808,6.513906 1.87434,2.516317 101.26828,174.814604 102.10974,177.006094 1.0796,2.81173 1.09388,7.77012 0.0312,10.84907 -2.11505,6.12825 -7.13849,10.56943 -13.2705,11.73234 -0.95543,0.1812 -41.40767,0.28811 -102.89076,0.27193 -86.356265,-0.0227 -101.593489,-0.0937 -103.193418,-0.48101 z m 207.528466,-7.26186 c 4.31006,-2.11659 6.85625,-7.44404 5.72836,-11.98558 -0.24728,-0.99571 -17.77881,-31.67251 -50.51921,-88.39892 C 129.16912,11.694947 132.06686,16.468238 128.503,15.256287 127.60336,14.950351 125.93688,14.72 124.62323,14.72 c -3.70922,0 -6.50239,1.311275 -8.3752,3.9318 -0.96057,1.344074 -99.180313,171.25232 -100.578262,173.9882 -1.08841,2.13009 -1.230281,5.66262 -0.323882,8.06452 1.138677,3.01743 4.023598,5.74822 7.054114,6.67726 0.44,0.13488 46.592,0.22116 102.56,0.19173 L 226.72,207.52 Z m -80.38771,-7.2922 c -3.84055,-0.27353 -9.21178,-1.60475 -12.91385,-3.20062 -10.75909,-4.63796 -19.06846,-13.70836 -22.71255,-24.79273 l -0.84657,-2.57507 -13.963349,-14.22493 c -7.67984,-7.8237 -14.690727,-14.97879 -15.579744,-15.90019 l -1.616394,-1.67527 0.93392,-0.97481 c 0.513655,-0.53614 1.125543,-0.93427 1.359747,-0.88472 0.234205,0.0495 7.461444,7.25707 16.060532,16.01675 l 15.634708,15.92667 0.84349,2.61508 c 3.38613,10.498 10.16042,18.23137 20.15081,23.00368 1.83138,0.87483 4.74633,1.97213 6.47768,2.43846 2.90419,0.78221 3.64341,0.84843 9.54791,0.85524 5.94766,0.007 6.62195,-0.0529 9.54022,-0.84591 6.44488,-1.75127 11.85127,-4.7294 16.51242,-9.09592 7.20714,-6.75159 11.23576,-14.92359 12.14806,-24.64221 1.02337,-10.9018 -2.74887,-21.75285 -10.3607,-29.80311 -4.66496,-4.93365 -9.49007,-8.12461 -15.57278,-10.29864 -2.53586,-0.90634 -2.79922,-1.09753 -6.05253,-4.3938 -1.87073,-1.89542 -8.48377,-8.60637 -14.69566,-14.91323 l -11.29435,-11.467003 1.17607,-1.172995 1.17607,-1.172992 3.43159,3.515245 c 1.88737,1.933382 8.40851,8.572815 14.49141,14.754295 10.37714,10.5453 11.16724,11.27405 12.8,11.80602 4.39481,1.43189 9.26339,4.22568 13.47228,7.73095 6.58532,5.48442 11.71932,13.84531 13.71571,22.33649 2.44784,10.41126 0.7678,21.59411 -4.61094,30.69186 -1.93306,3.26962 -3.28248,5.00946 -6.21195,8.00916 -8.68175,8.88988 -20.33314,13.23933 -33.04126,12.33425 z m 9.50594,-7.60347 c -0.7005,-0.77404 -0.66943,-2.23634 0.0883,-4.15883 0.86258,-2.1884 1.62295,-6.08226 1.61733,-8.28248 -0.009,-3.52439 -1.81526,-8.77624 -3.91628,-11.38687 -0.65039,-0.80813 -0.83671,-0.86875 -1.95265,-0.6353 l -1.23366,0.25807 -0.76101,3.0353 c -1.93521,7.71865 -6.6827,13.36903 -14.23441,16.94157 -2.59493,1.22759 -3.86371,1.26244 -4.75403,0.13058 -1.34667,-1.712 -0.67966,-2.84797 2.64115,-4.49814 6.42827,-3.19431 10.00472,-7.32831 11.56328,-13.36593 0.68929,-2.67018 0.63097,-3.14992 -0.48301,-3.97352 l -0.97535,-0.72111 -1.74315,1.15704 c -5.18046,3.43859 -10.78769,4.7999 -16.5902,4.02773 -2.81311,-0.37435 -8.25296,-1.96628 -9.08842,-2.65965 -1.27262,-1.05619 -1.06799,-2.98265 0.42043,-3.9579 0.80671,-0.52858 0.94119,-0.51292 3.77428,0.43962 6.95954,2.33992 11.9253,2.03897 17.32242,-1.04982 3.03654,-1.73782 3.10448,-1.81518 2.8718,-3.27026 l -0.20312,-1.27023 -2.60667,-0.55864 c -6.48308,-1.38941 -11.40603,-4.73928 -15.20162,-10.3441 -1.82692,-2.69776 -3.24449,-5.76439 -3.2448,-7.01946 -3.2e-4,-1.79858 1.89008,-2.88464 3.51115,-2.01707 0.32413,0.17346 1.16543,1.50546 1.86955,2.96 3.07911,6.36059 7.36871,10.02887 13.51949,11.56129 2.7958,0.69655 2.94422,0.67884 3.77957,-0.45103 l 0.72036,-0.97435 -1.45661,-2.27669 c -3.15427,-4.93015 -4.45301,-10.36124 -3.7703,-15.76662 0.51853,-4.10546 2.07063,-8.89598 3.15983,-9.75275 0.95417,-0.75055 1.36121,-0.79895 2.47003,-0.29374 1.48387,0.6761 1.59919,1.716 0.53834,4.85441 -2.4127,7.13771 -1.91757,12.67656 1.62609,18.19074 0.7187,1.11834 1.34274,2.07411 1.38677,2.12395 0.044,0.0498 0.67526,-0.005 1.40276,-0.12089 0.95293,-0.15239 1.32272,-0.3647 1.32272,-0.75943 0,-1.37068 1.39371,-5.84931 2.55693,-8.21659 1.48477,-3.02165 4.81664,-6.80715 7.73693,-8.79028 2.92613,-1.9871 7.00949,-3.85834 7.94614,-3.64141 1.62449,0.37623 2.46578,2.45437 1.50468,3.71678 -0.21724,0.28534 -1.54466,1.09759 -2.94983,1.805 -6.40905,3.22654 -9.69692,6.97097 -11.34587,12.92141 -0.87864,3.17071 -0.84143,3.6101 0.37079,4.37763 l 1.01977,0.64567 1.37722,-0.94755 c 2.32493,-1.5996 6.54001,-3.45671 9.06324,-3.99316 4.51525,-0.95996 10.96017,-0.20769 15.70389,1.833 2.18269,0.93897 2.74817,2.3965 1.5304,3.94464 -0.59743,0.7595 -0.85493,0.85153 -2,0.71478 -0.72286,-0.0863 -2.53829,-0.55384 -4.03429,-1.03892 -2.30017,-0.74584 -3.28801,-0.88491 -6.4,-0.90103 -4.14184,-0.0214 -6.11615,0.49657 -9.49332,2.4909 -3.06195,1.80817 -3.0436,1.78673 -2.74794,3.20976 l 0.26046,1.25362 2.7104,0.58222 c 7.324,1.57328 13.36107,6.39775 16.90361,13.50838 1.85528,3.72396 1.91328,4.1376 0.74407,5.30681 -1.6643,1.6643 -3.11851,1.06366 -4.39098,-1.81363 -2.74059,-6.19696 -7.62198,-10.57147 -13.47249,-12.07352 -2.83387,-0.72757 -3.36758,-0.66028 -4.13341,0.52108 l -0.65959,1.0175 1.64414,2.61882 c 4.02328,6.40833 4.72006,13.62741 2.07646,21.51326 -0.48961,1.4605 -1.14454,2.9365 -1.4554,3.28 -0.74179,0.81967 -2.72975,0.8423 -3.45641,0.0393 z m -2.68718,-28.51828 c 4.03684,-2.56009 3.81351,-8.56291 -0.40242,-10.81661 -1.81899,-0.97237 -4.91687,-0.91544 -6.29803,0.11574 -3.37882,2.52265 -4.00555,6.63399 -1.44389,9.47192 1.47917,1.6387 2.62063,2.14399 4.87927,2.15991 1.43145,0.0101 2.06688,-0.1711 3.26507,-0.93096 z M 115.52445,148.5595 c -1.77075,-0.88811 -1.91448,-1.48998 -1.91973,-8.03873 l -0.005,-5.87923 -2.38568,-4.22649 c -1.97305,-3.49546 -2.80887,-4.62847 -4.83241,-6.55064 -3.41626,-3.24511 -5.25592,-3.86221 -6.713232,-2.2519 -0.505411,0.55847 -0.499478,0.70876 0.09677,2.45122 0.349352,1.02095 1.644772,3.47495 2.878712,5.45335 1.23393,1.97839 2.33689,4.0948 2.45102,4.70314 0.60113,3.2043 -3.12936,5.50804 -6.023165,3.71957 -0.654387,-0.40444 -2.985098,-3.55548 -6.699114,-9.05697 L 86.67704,120.44607 87.468224,113.42304 88.259686,106.4 84.129389,100.59929 79.999088,94.798582 86.717165,83.15929 C 90.412106,76.75768 93.565594,71.52 93.724915,71.52 c 0.159322,0 2.119095,2.16 4.355053,4.8 4.065942,4.800669 23.314082,28.18183 24.092612,29.26585 0.22692,0.31596 5.08692,2.62882 10.8,5.13968 6.06252,2.66443 10.38742,4.74055 10.38742,4.98636 0,0.23164 -0.5537,1.00322 -1.23045,1.71463 -1.57443,1.65507 -2.42657,1.67442 -7.64008,0.17348 -2.13967,-0.616 -4.00496,-1.12 -4.14509,-1.12 -0.14013,0 1.52584,1.7849 3.70214,3.96644 l 3.95692,3.96644 -0.37871,2.67356 c -0.59836,4.22418 -0.3503,4.13208 -3.48818,1.29522 -4.27201,-3.86219 -9.27658,-7.77759 -9.49318,-7.42712 -0.10711,0.17332 1.01604,1.57745 2.4959,3.12029 1.47985,1.54284 2.87056,3.14893 3.09045,3.56909 0.28765,0.54963 0.33708,1.60057 0.17618,3.74656 -0.22303,2.97493 -0.22064,2.9886 0.92524,5.27908 0.63187,1.26304 1.14886,2.68398 1.14886,3.15765 0,1.14614 -1.21633,2.25279 -2.47607,2.25279 -1.55253,0 -2.7434,-1.26344 -4.0436,-4.29001 -0.99935,-2.32626 -1.16033,-3.04272 -1.16033,-5.16415 v -2.46316 l -3.87636,-4.12134 c -2.132,-2.26674 -3.99429,-4.12134 -4.13844,-4.12134 -0.74761,0 -0.47687,1.71214 1.09283,6.91077 l 1.72991,5.72923 -0.42615,7.04 c -0.23438,3.872 -0.43417,7.148 -0.44397,7.28 -0.0332,0.44735 -2.09179,0.24203 -3.21337,-0.3205 z m 30.58272,-13.64921 c -0.53005,-4.41992 -0.51889,-4.65602 0.22817,-4.82831 4.59722,-1.06026 4.96914,-1.10804 5.95367,-0.76483 1.91511,0.66761 2.50893,3.54914 1.01079,4.90494 -0.33424,0.30247 -2.05395,0.87587 -3.8216,1.27422 l -3.21389,0.72427 z"
         id="path128" />
      <path
         style="fill:#443a00;stroke-width:0.32"
         d="M 21.92,214.07296 C 15.348158,212.75386 10.186157,207.71588 8.4448029,200.92152 7.7581005,198.24217 7.9765718,193.82022 8.9171997,191.36 9.2873005,190.392 32.248778,150.36 59.942707,102.4 107.92345,19.30755 110.39951,15.094025 112.50765,12.950242 c 3.63284,-3.6942686 7.52612,-5.1428247 13.09032,-4.8704615 4.8998,0.2398409 9.11362,2.2297175 12.0286,5.6802195 1.08294,1.281899 99.45065,171.15783 101.76639,175.7453 2.72693,5.40202 2.347,11.68831 -1.02138,16.89985 -2.4895,3.85175 -5.77862,6.26201 -10.02864,7.34898 -2.5083,0.64152 -3.20779,0.64563 -103.83413,0.61081 C 68.788966,214.34565 22.624,214.21426 21.92,214.07296 Z m 205.71507,-7.04363 c 5.13456,-1.92109 8.13238,-8.08082 6.38006,-13.10933 -0.33733,-0.968 -23.11125,-40.712 -50.60871,-88.32 -44.3862,-76.848452 -50.18902,-86.744865 -51.72115,-88.207719 -2.29892,-2.19498 -4.09404,-2.794929 -7.8006,-2.607052 -3.1588,0.160112 -4.7754,0.823969 -6.69795,2.750513 C 116.41761,18.306454 98.3768,49.230298 65.92,105.4123 c -27.544,47.67805 -50.323954,87.27694 -50.622121,87.99753 -0.771636,1.86485 -0.735879,5.18387 0.07932,7.36269 1.101082,2.9429 4.02315,5.69248 7.022799,6.60824 0.44,0.13432 46.406598,0.25661 102.148002,0.27174 101.15218,0.0274 101.35135,0.0262 103.08707,-0.62317 z m -83.34012,-8.1659 c -3.15611,-0.57153 -7.21612,-1.85538 -10.19475,-3.22376 -5.7945,-2.662 -12.32337,-8.06987 -16.01185,-13.26263 -2.01967,-2.84334 -4.83596,-8.51119 -5.65665,-11.3841 l -0.5917,-2.0713 -13.246934,-13.50082 c -7.285815,-7.42545 -14.341815,-14.62466 -15.68,-15.99824 L 80.48,136.92515 l 1.065414,-0.96077 c 0.585975,-0.52842 1.198336,-0.91646 1.360804,-0.86231 0.162464,0.0542 7.349228,7.28501 15.970585,16.06857 l 15.675197,15.97011 0.79267,2.58962 c 4.50593,14.72074 17.69167,25.20338 33.21493,26.40582 11.4623,0.88787 21.85089,-2.9684 30.02954,-11.14705 7.52543,-7.52544 11.26973,-16.51898 11.26973,-27.06914 0,-16.51247 -9.89962,-30.48951 -25.94173,-36.62654 L 160.95428,120.16 146.374,105.30847 131.79372,90.45695 l 1.12128,-1.121286 1.12129,-1.121283 11.62185,11.814519 c 6.39202,6.49799 12.90792,13.14576 14.47977,14.77281 1.57185,1.62706 2.994,2.95829 3.16032,2.95829 0.68818,0 6.30208,2.41361 8.38177,3.6036 13.361,7.64518 21.32543,21.29796 21.32537,36.5564 -4e-5,11.55701 -3.9636,21.09899 -12.17499,29.31038 -6.39873,6.39872 -13.54469,10.13981 -22.2323,11.63915 -3.5046,0.60484 -10.9469,0.60166 -14.30313,-0.006 z m 13.27715,-7.34111 c -0.62668,-0.95642 -0.51433,-1.86135 0.69551,-5.60232 0.75976,-2.34926 0.87959,-3.24339 0.87915,-6.56 -3.2e-4,-3.15719 -0.1254,-4.18085 -0.70286,-5.75692 -0.79986,-2.18304 -3.10986,-6.21895 -3.67014,-6.41227 -0.20557,-0.0709 -0.86604,-0.0224 -1.46772,0.10791 -1.07993,0.23383 -1.10342,0.27578 -1.83042,3.26908 -1.83053,7.5369 -6.77192,13.41571 -14.25014,16.95349 -2.56395,1.21294 -3.83459,1.24404 -4.72225,0.11555 -1.34639,-1.71165 -0.67964,-2.84758 2.64115,-4.49965 6.39111,-3.17952 10.01191,-7.32853 11.59924,-13.29132 0.68064,-2.55685 0.59444,-3.22344 -0.52376,-4.05016 l -0.98013,-0.72464 -1.97987,1.28817 c -4.31692,2.80875 -8.11439,3.97339 -13.01986,3.99303 -3.6368,0.0146 -5.86577,-0.36141 -9.6,-1.61929 -2.98853,-1.0067 -3.52,-1.45557 -3.52,-2.97298 0,-1.1746 0.53979,-1.93804 1.64627,-2.32837 0.28944,-0.10211 1.87344,0.24887 3.52,0.77995 4.44039,1.43222 7.807,1.77736 10.99373,1.12706 2.44802,-0.49955 6.79891,-2.39493 8.4146,-3.66566 0.62582,-0.49221 0.70431,-0.76713 0.53006,-1.85681 l -0.20453,-1.27907 -2.93007,-0.69678 c -4.01645,-0.95514 -8.18656,-3.07716 -10.8585,-5.52551 -3.35613,-3.07527 -7.27156,-9.44024 -7.27156,-11.82071 0,-1.51156 1.82647,-2.63829 3.33709,-2.05861 0.28019,0.10752 1.17901,1.4919 1.99737,3.0764 3.44486,6.66989 7.31689,10.00874 13.43173,11.58218 2.71237,0.69793 3.17045,0.64606 3.94889,-0.44717 l 0.67867,-0.9531 -1.62594,-2.66075 c -4.1034,-6.71498 -4.80604,-13.47605 -2.23471,-21.50323 1.27283,-3.97351 2.57993,-5.10349 4.4159,-3.81753 1.28745,0.90177 1.38565,1.77983 0.48665,4.35185 -0.95284,2.72607 -1.718,6.46844 -1.71009,8.36401 0.01,2.38775 0.91152,5.75999 2.23821,8.37185 1.88421,3.70946 2.23157,4.05948 3.78258,3.81146 1.22036,-0.19514 1.28049,-0.26154 1.48765,-1.64296 0.11873,-0.79178 0.57378,-2.5396 1.01122,-3.88405 2.13012,-6.54678 6.63549,-11.42221 13.67795,-14.80142 2.76731,-1.32784 2.80905,-1.33667 3.88868,-0.82182 1.31594,0.62753 1.74479,1.86386 1.06719,3.07662 -0.28228,0.50522 -1.53736,1.37729 -3.25569,2.26217 -6.25924,3.22328 -9.45256,6.92054 -11.09437,12.8452 -0.87864,3.17071 -0.84143,3.6101 0.37079,4.37763 l 1.01977,0.64567 1.40477,-0.96651 c 3.91454,-2.69327 9.36708,-4.42595 13.9022,-4.41779 3.89769,0.007 10.95321,1.78124 12.25322,3.08125 0.842,0.84199 0.94156,2.01233 0.25031,2.94241 -0.89055,1.19822 -1.85298,1.20019 -5.43509,0.0112 -2.86405,-0.95068 -3.4806,-1.04077 -7.13495,-1.04258 -3.60649,-0.002 -4.22036,0.0844 -6.24,0.87601 -1.232,0.48289 -3.14299,1.466 -4.24664,2.18468 -1.97273,1.28461 -2.00311,1.32626 -1.79797,2.46478 0.26511,1.47133 0.36722,1.63809 1.00305,1.63809 1.1632,0 4.86051,1.09891 7.01745,2.08571 5.56047,2.54392 9.22671,6.35031 12.31432,12.78507 1.18645,2.47261 1.2536,2.7522 0.85846,3.57421 -0.23577,0.49047 -0.79691,1.09816 -1.24697,1.35042 -1.17106,0.65637 -2.51843,-0.0438 -3.30081,-1.71541 -2.10765,-4.50302 -5.26182,-8.51839 -8.12972,-10.34944 -1.92205,-1.22716 -4.41773,-2.20535 -7.01628,-2.75005 l -2.04118,-0.42787 -0.75893,1.11687 -0.75893,1.11687 1.37502,2.12681 c 3.38078,5.22924 4.63683,11.02861 3.6739,16.96299 -0.46705,2.87831 -2.11292,7.84341 -2.80875,8.47313 -0.92698,0.8389 -2.81523,0.69252 -3.44392,-0.26699 z m -2.86156,-28.09246 c 4.15023,-2.35061 4.28767,-8.24695 0.25188,-10.80638 -2.48734,-1.57742 -5.57431,-1.27509 -7.72058,0.75615 -1.36065,1.28773 -1.96184,2.67908 -1.96184,4.54037 0,2.52143 1.45483,4.81115 3.68,5.79185 1.55074,0.68346 4.28246,0.5495 5.75054,-0.28199 z m -39.03066,-14.75335 c -1.7186,-0.749 -1.76814,-0.94499 -1.98158,-7.83968 l -0.19906,-6.43031 -2.42962,-4.26723 c -2.05978,-3.61767 -2.80529,-4.61235 -4.89758,-6.53446 -2.98177,-2.73927 -4.35314,-3.31442 -5.90725,-2.47748 -0.585635,0.31539 -1.06479,0.74421 -1.06479,0.95294 0,1.11545 1.46098,4.29903 3.3642,7.33083 2.37681,3.78624 2.87703,5.2354 2.35973,6.83628 -0.37521,1.16118 -2.1989,2.3126 -3.66282,2.3126 -2.134755,0 -2.777945,-0.69423 -8.552854,-9.23155 -3.05385,-4.51465 -5.649014,-8.37228 -5.76703,-8.57251 -0.118016,-0.20023 0.132742,-3.50809 0.557241,-7.35078 0.424499,-3.8427 0.681533,-7.13487 0.571191,-7.31594 -0.110346,-0.18107 -1.96714,-2.79664 -4.126208,-5.81238 l -3.925578,-5.48316 6.77225,-11.716838 c 3.724739,-6.444263 6.852716,-11.710122 6.951065,-11.701908 0.284829,0.02378 6.716673,7.709956 18.033403,21.55025 5.77203,7.059149 10.74003,13.007266 11.04,13.218046 0.29998,0.21078 5.00941,2.3468 10.46541,4.74673 5.456,2.39992 9.96662,4.41008 10.0236,4.46703 0.23572,0.23559 -0.95199,2.07462 -1.74036,2.69475 -1.17927,0.92762 -2.42302,0.84658 -6.93271,-0.45174 -2.13967,-0.616 -4.0367,-1.12 -4.21562,-1.12 -0.17892,0 1.44955,1.77913 3.61882,3.95362 l 3.94413,3.95362 -0.3591,2.52638 c -0.63525,4.46913 -0.32036,4.31658 -3.3081,1.6027 -7.88021,-7.1579 -12.99398,-10.29907 -7.21466,-4.43164 1.51435,1.53742 2.91967,3.12185 3.12294,3.52094 0.25093,0.49264 0.30203,1.72554 0.15917,3.84 l -0.21042,3.11438 1.15459,2.24 c 1.39291,2.70235 1.46186,3.71431 0.31456,4.61677 -2.06253,1.62239 -3.9836,0.37528 -5.68582,-3.6911 C 124.95785,135.3531 124.8,134.62831 124.8,132.44046 v -2.53556 l -3.88523,-3.99245 c -2.13688,-2.19585 -3.99918,-3.99245 -4.13844,-3.99245 -0.72862,0 -0.46047,1.69558 1.09104,6.89902 l 1.71179,5.74098 -0.41065,6.88 c -0.22586,3.784 -0.41917,7.06 -0.42958,7.28 -0.0248,0.52362 -1.81624,0.49815 -3.05905,-0.0435 z M 146.11293,134.64 c -0.0915,-0.748 -0.22572,-2.03636 -0.29838,-2.86302 l -0.13211,-1.50301 2.81048,-0.65983 c 3.14915,-0.73932 3.95038,-0.61197 5.06506,0.80512 0.84302,1.07174 0.86026,1.92451 0.0652,3.22835 -0.54577,0.89505 -0.93436,1.08273 -3.47842,1.68 -3.88196,0.91138 -3.83539,0.91932 -4.03186,-0.68761 z"
         id="path126" />
      <path
         style="fill:#312a00;stroke-width:0.32"
         d="M 20.860992,213.75201 C 17.67679,212.91784 15.566598,211.71711 13.282947,209.44 8.0006934,204.17288 6.5572886,196.51153 9.6053648,189.92 10.093684,188.864 32.952477,149.12 60.402685,101.6 105.86094,22.905638 110.49444,15.011172 112.35607,13.082759 c 4.21319,-4.3643113 10.33699,-6.0602313 16.57415,-4.5900284 3.91379,0.9225468 7.94734,3.7549604 10.00731,7.0272694 2.16684,3.442076 100.00939,173.06151 100.79843,174.74373 4.46663,9.5228 -1.66029,21.44706 -12.16377,23.67325 -1.81136,0.38391 -17.34781,0.45009 -103.25219,0.43984 -98.572852,-0.0117 -101.178918,-0.0275 -103.459008,-0.62481 z m 207.799318,-7.08715 c 4.75472,-2.50938 7.12586,-8.56154 5.18806,-13.24213 C 233.41511,192.37623 210.64295,152.712 183.24356,105.28 138.80352,28.348329 133.2394,18.862153 131.69301,17.392281 c -2.13514,-2.029497 -4.16956,-2.781699 -7.46596,-2.760456 -1.95859,0.01262 -2.67001,0.179003 -4.39365,1.027549 -1.2893,0.634721 -2.46301,1.513973 -3.14575,2.356558 -0.90879,1.12156 -98.614434,169.897248 -100.910418,174.311588 -2.239346,4.30544 -1.138387,9.36625 2.809828,12.91604 2.91939,2.62478 -7.300157,2.40077 106.53294,2.33517 L 227.04,207.52 Z m -84.20042,-7.80373 c -10.18138,-1.71154 -19.82427,-7.68038 -26.03564,-16.11577 -2.28062,-3.09721 -5.09544,-8.60983 -5.97834,-11.70816 L 111.84,168.91093 96.244982,153.01581 80.649968,137.1207 l 1.099152,-1.09915 1.099152,-1.09916 12.40615,12.61881 c 21.269098,21.63366 19.093278,19.20166 20.225188,22.60648 4.55893,13.71342 15.76747,23.30384 30.07294,25.73147 3.16602,0.53727 9.66814,0.45239 12.93541,-0.16886 8.05428,-1.53146 15.14975,-5.41248 20.87778,-11.41956 14.5429,-15.25136 14.01879,-39.11508 -1.18846,-54.11258 -3.91632,-3.86231 -8.23308,-6.55194 -14.24787,-8.87739 l -2.95058,-1.14076 -14.5794,-14.86468 -14.5794,-14.864683 1.09094,-1.090944 1.09095,-1.090944 10.83904,10.996281 c 5.96147,6.04796 12.46207,12.66265 14.44578,14.69931 3.177,3.26182 3.81774,3.76954 5.37772,4.26129 0.97405,0.30704 3.32651,1.33694 5.2277,2.28868 5.26248,2.6344 9.36727,5.82758 12.93931,10.06569 4.6386,5.50355 7.24261,10.52438 9.04513,17.44 1.14582,4.39611 1.42159,11.99961 0.61106,16.84794 -2.12432,12.7069 -10.0991,23.71275 -21.62085,29.83855 -3.31349,1.76169 -8.46814,3.51743 -12.26873,4.1789 -3.46962,0.60386 -10.53335,0.60173 -14.13819,-0.004 z M 157.76,191.68 c -0.8128,-0.8128 -0.80957,-1.953 0.0117,-4.11364 1.5667,-4.12204 1.99141,-8.8863 1.10355,-12.37913 -0.54712,-2.15236 -2.32563,-5.93538 -3.42447,-7.28413 -0.65426,-0.80305 -0.86788,-0.87493 -2.04149,-0.68697 l -1.31078,0.20992 -0.38808,2.10618 c -1.2658,6.86977 -5.37241,12.61736 -11.75906,16.45793 -4.7258,2.84184 -6.76996,3.12133 -7.7576,1.0607 -0.69486,-1.44978 0.003,-2.32586 3.2083,-4.0293 5.18541,-2.75553 7.62379,-4.99852 9.67272,-8.89763 0.90543,-1.72304 2.69574,-7.45713 2.35641,-7.54721 -0.0391,-0.0104 -0.54017,-0.34747 -1.11342,-0.74907 l -1.04228,-0.73018 -2.65157,1.62033 c -6.61571,4.04273 -13.30669,4.75239 -21.13062,2.24112 -3.82693,-1.22833 -4.37326,-1.62403 -4.37326,-3.16747 0,-1.214 0.5283,-1.96478 1.6658,-2.36732 0.30019,-0.10623 1.79499,0.22911 3.32176,0.74519 6.35475,2.14804 10.97536,2.00874 15.97244,-0.48153 4.13762,-2.06196 4.4411,-2.34398 4.18075,-3.88499 l -0.21271,-1.25903 -2.94402,-0.70012 c -4.4334,-1.05431 -8.32917,-3.11791 -11.19874,-5.93199 -2.69568,-2.64356 -3.91186,-4.33168 -5.71252,-7.92929 -1.48084,-2.95864 -1.53681,-4.21422 -0.23111,-5.18458 0.62331,-0.46322 1.10036,-0.56867 1.83888,-0.40646 0.87148,0.19141 1.19837,0.6106 2.59224,3.32418 3.50384,6.82125 7.74038,10.23895 14.39616,11.61368 l 2.00503,0.41413 0.76143,-0.95166 c 0.41879,-0.52341 0.76215,-1.04519 0.76302,-1.1595 9.6e-4,-0.11432 -0.5211,-0.97832 -1.15996,-1.92 -2.86533,-4.2236 -4.07518,-8.22334 -4.05086,-13.39216 0.0266,-5.64971 1.77976,-11.72203 3.69241,-12.78906 0.79017,-0.44082 0.96936,-0.44095 1.75537,-0.001 1.17147,0.6553 1.69386,1.75521 1.34226,2.82617 -1.81172,5.51843 -1.98064,6.33886 -2.0186,9.80415 -0.0429,3.91933 0.3434,5.48436 2.25132,9.12 1.6867,3.2141 2.06925,3.5724 3.55961,3.33409 l 1.25537,-0.20075 0.55878,-2.60666 c 1.69706,-7.91668 6.13534,-13.39626 14.10218,-17.4108 3.05464,-1.53926 4.56867,-1.45798 5.29021,0.28397 0.64182,1.54948 -0.0391,2.41906 -3.1208,3.98576 -6.37164,3.23922 -9.92468,7.39754 -11.45089,13.40163 -0.70113,2.75824 -0.63757,3.21319 0.55431,3.96784 0.92626,0.58647 1.10872,0.60747 1.68,0.19341 1.7877,-1.29572 5.40151,-3.12595 7.68088,-3.89002 2.25115,-0.7546 3.06188,-0.85848 6.72,-0.861 4.33761,-0.003 7.47392,0.58252 10.83308,2.02242 2.37458,1.01786 2.97243,2.65105 1.55947,4.26011 -0.64743,0.7373 -1.75793,0.70678 -4.08364,-0.11223 -4.50178,-1.58534 -8.97042,-1.97378 -12.48168,-1.085 -2.09751,0.53093 -5.88229,2.31966 -7.28061,3.44089 -0.80832,0.64814 -0.86881,0.8338 -0.6353,1.95 l 0.25807,1.23366 3.0353,0.76101 c 7.69035,1.92811 12.96873,6.28575 16.77432,13.84825 1.37677,2.73592 1.51903,3.96761 0.56808,4.91855 -0.74955,0.74956 -2.32855,0.89101 -3.0707,0.27507 -0.26275,-0.21806 -0.90598,-1.31164 -1.4294,-2.43017 -3.25212,-6.94962 -8.25334,-10.99445 -15.18167,-12.27846 -1.51829,-0.28139 -1.54286,-0.27237 -2.30224,0.84516 l -0.76757,1.12958 0.97451,1.41639 c 2.63127,3.82445 4.42998,9.36207 4.42998,13.63848 0,3.76034 -1.79971,10.99833 -3.08892,12.42289 -0.71719,0.79249 -2.49354,0.76349 -3.31108,-0.054 z m -3.13854,-28.20031 c 2.44683,-1.22973 3.84433,-4.36408 3.13464,-7.03045 -0.85134,-3.19853 -3.25525,-4.92153 -6.57178,-4.71035 -3.43961,0.21901 -5.59851,2.32987 -5.84324,5.7132 -0.37419,5.17317 4.57915,8.39035 9.28038,6.0276 z m -38.94158,-14.80318 c -0.52807,-0.23015 -1.12126,-0.62051 -1.3182,-0.86748 -0.21888,-0.27449 -0.44278,-2.93676 -0.576,-6.84903 l -0.21793,-6.4 -2.44376,-4.40165 c -2.20738,-3.97589 -2.69115,-4.61859 -5.00133,-6.64437 -2.9995,-2.63024 -4.39808,-3.20306 -5.9107,-2.42085 -0.556581,0.28782 -1.011886,0.77161 -1.0118,1.07509 3.2e-4,1.12768 1.3441,4.02517 3.34496,7.21251 1.99838,3.1834 2.71269,5.06086 2.48382,6.52835 -0.13,0.83353 -1.70632,2.24779 -2.81571,2.52623 -1.07608,0.27008 -2.715809,-0.10173 -3.56132,-0.80752 -0.528092,-0.44083 -10.267731,-14.47725 -11.700614,-16.8625 -0.117197,-0.19509 0.135555,-3.50709 0.56167,-7.36 L 88.287718,106.4 87.169974,104.8 c -0.614758,-0.88 -2.468032,-3.49404 -4.118384,-5.808986 l -3.00064,-4.208985 6.764288,-11.711015 c 3.720359,-6.441059 6.840896,-11.704576 6.934525,-11.696704 0.238173,0.02003 7.007667,8.122253 18.859287,22.57218 l 10.11095,12.32764 10.24,4.49531 c 5.632,2.47243 10.28662,4.53936 10.3436,4.5932 0.239,0.22583 -0.9558,2.07197 -1.74036,2.6891 -1.17927,0.92762 -2.42302,0.84658 -6.93271,-0.45174 -2.13967,-0.616 -4.03629,-1.12 -4.2147,-1.12 -0.17842,0 1.11754,1.476 2.8799,3.28 5.07044,5.19022 4.70678,4.58678 4.31195,7.15484 -0.68727,4.47011 -0.31122,4.31625 -3.47277,1.42083 -4.14174,-3.79309 -9.0989,-7.64336 -9.59541,-7.45283 -0.2893,0.11102 0.53341,1.15176 2.43666,3.08239 1.58039,1.60312 3.03447,3.23154 3.2313,3.6187 0.23677,0.46575 0.2881,1.76831 0.15171,3.84955 -0.20194,3.08157 -0.18585,3.18461 0.7901,5.05984 1.46936,2.82329 1.58389,3.76261 0.58103,4.76547 -1.97292,1.97292 -4.23484,0.48681 -5.91842,-3.88847 -0.82449,-2.14268 -1.01188,-3.09175 -1.01188,-5.1248 v -2.49512 l -3.96515,-3.95563 c -3.69844,-3.68956 -4.67485,-4.32389 -4.67485,-3.03702 0,0.26398 0.73306,2.88349 1.62902,5.82111 l 1.62902,5.34114 -0.19922,5.44 c -0.10957,2.992 -0.28731,6.412 -0.39497,7.6 l -0.19575,2.16 -0.99405,-0.0125 c -0.54673,-0.007 -1.4261,-0.20083 -1.95417,-0.43097 z M 146.21723,135.6 c -0.0125,-0.22 -0.12402,-1.51185 -0.24778,-2.87078 l -0.22501,-2.47077 2.24778,-0.51636 c 3.09407,-0.71077 4.22545,-0.66978 5.13649,0.1861 1.0154,0.95391 1.27109,2.27457 0.66668,3.44338 -0.54736,1.05847 -1.33035,1.43416 -4.45525,2.13767 -2.64246,0.59491 -3.09346,0.60801 -3.12291,0.0908 z"
         id="path124" />
      <path
         style="fill:#000000;stroke-width:0.32"
         d="M 22.24905,214.05874 C 16.22549,213.05169 11.221997,208.67703 8.8896086,202.37829 7.858111,199.59268 7.884033,194.22589 8.9420547,191.52 9.3549584,190.464 32.38791,150.29277 60.126394,102.25061 105.70933,23.302416 110.74467,14.715532 112.48005,12.970608 116.03536,9.3957472 120.36476,7.7901667 125.6,8.1050048 c 5.36801,0.3228224 9.65406,2.5888612 12.81401,6.7747812 1.29391,1.714023 100.72019,174.024684 101.46289,175.840214 1.87394,4.58084 1.70319,9.05129 -0.52384,13.71529 -1.64118,3.43707 -4.71793,6.63394 -7.75046,8.05303 -4.35263,2.03684 3.28174,1.90368 -107.1226,1.86849 -55.352,-0.0176 -101.355928,-0.15178 -102.23095,-0.29807 z M 227.703,207.14516 c 2.27789,-0.77255 5.23949,-3.80529 6.19632,-6.34516 1.0743,-2.8517 0.84262,-6.01668 -0.64515,-8.81339 -0.60466,-1.13664 -23.34621,-40.58347 -50.53678,-87.65964 -33.12363,-57.348333 -49.84415,-86.002091 -50.67004,-86.832652 -1.84004,-1.850443 -4.30731,-2.864211 -7.0615,-2.901485 -3.75288,-0.05079 -6.52858,1.134512 -8.54083,3.647167 -1.02693,1.282311 -100.201065,172.84702 -101.18305,175.04 -1.0465,2.33705 -0.921908,5.40852 0.327432,8.07193 1.243416,2.65077 3.367029,4.78647 5.620916,5.65288 1.658322,0.63747 2.361115,0.64195 103.292682,0.65851 94.14719,0.0155 101.739,-0.0226 103.2,-0.51816 z M 146.4,199.14751 c -2.04677,-0.24858 -7.09788,-1.49818 -9.09982,-2.2512 -11.74405,-4.41751 -20.93725,-13.99224 -24.80187,-25.83117 L 111.69196,168.59496 96.176771,152.85748 80.661578,137.12 l 1.052054,-1.05751 1.052058,-1.05751 10.05648,10.17751 c 5.531062,5.59763 12.66778,12.84151 15.85937,16.09751 l 5.8029,5.92 0.88153,2.72 c 2.66333,8.21777 7.79637,15.17209 14.57458,19.74586 13.36893,9.02102 30.39141,8.91002 43.72013,-0.2851 8.07015,-5.56738 14.05159,-14.98681 15.81225,-24.90076 0.54881,-3.09023 0.5475,-10.04106 -0.003,-13.12 -1.38508,-7.75425 -5.26185,-15.14947 -10.90822,-20.80821 -4.32041,-4.32988 -9.56245,-7.6545 -14.65541,-9.2948 l -2.31603,-0.74593 -10.00236,-10.09553 C 146.08661,104.86299 139.3917,98.0812 136.71033,95.34489 l -4.87523,-4.975114 1.07624,-1.04313 1.07624,-1.043132 14.47981,14.712486 c 13.47752,13.69409 14.59376,14.74881 16.12594,15.2372 2.83368,0.90326 7.93107,3.5431 10.83151,5.60943 3.15869,2.25032 7.6975,6.79863 9.96687,9.98774 7.54869,10.6081 9.63216,24.87542 5.4571,37.36963 -2.06733,6.18668 -5.16002,11.11068 -10.04934,16 -6.36229,6.36228 -13.67404,10.16818 -22.37639,11.64731 -2.73928,0.46559 -9.31089,0.62967 -12.02361,0.3002 z M 157.76,191.68 c -0.76953,-0.76953 -0.81312,-1.8492 -0.1393,-3.45028 1.62635,-3.86436 2.18006,-9.76308 1.2512,-13.32919 -0.54451,-2.09054 -2.75571,-6.55139 -3.6475,-7.35845 -0.42982,-0.38898 -0.90598,-0.47101 -1.85404,-0.31941 l -1.27569,0.20399 -0.55311,2.60667 c -0.72115,3.39859 -2.84534,7.85766 -4.93992,10.36979 -0.91859,1.10172 -2.70775,2.77848 -3.97591,3.72614 -2.67033,1.99547 -7.20609,4.35074 -8.37863,4.35074 -1.14163,0 -2.0871,-1.06475 -2.0871,-2.3504 0,-1.24544 0.52876,-1.79357 2.59865,-2.69388 3.77558,-1.64221 7.58356,-4.7671 9.61551,-7.89063 1.18716,-1.82492 2.55388,-5.5218 2.91118,-7.87455 0.15388,-1.01327 0.06,-1.20254 -0.91242,-1.84 -0.59617,-0.3908 -1.15074,-0.71054 -1.23239,-0.71054 -0.0816,0 -0.78814,0.43173 -1.57,0.95939 -2.01095,1.35718 -5.79494,3.09139 -8.05053,3.68958 -4.18282,1.1093 -10.6644,0.51985 -15.92453,-1.44821 -2.46211,-0.9212 -3.16311,-2.39661 -1.9569,-4.11871 0.64222,-0.91691 1.87597,-0.82757 5.88143,0.4259 3.59996,1.12657 7.42153,1.37392 10.4,0.67315 2.38321,-0.56071 6.11979,-2.26246 7.6388,-3.47893 0.83098,-0.66547 0.8977,-0.86071 0.69803,-2.04254 l -0.22077,-1.30674 -2.92783,-0.68282 c -7.56525,-1.76435 -12.80841,-6.00694 -16.70963,-13.5209 -1.67872,-3.23331 -1.80941,-4.41104 -0.59544,-5.36594 1.70998,-1.34508 2.80121,-0.65405 4.58035,2.90057 2.23364,4.46268 4.45727,7.02907 7.85649,9.06751 1.96657,1.1793 5.8896,2.57926 7.77798,2.77561 0.92973,0.0967 1.13839,-0.0307 1.72133,-1.05072 l 0.66336,-1.16073 -0.95879,-1.39774 c -3.44774,-5.02613 -4.88915,-10.58157 -4.23766,-16.33264 0.35702,-3.15161 1.92437,-8.45208 2.82998,-9.57047 1.18162,-1.45923 3.8838,-0.55549 3.8838,1.29893 0,0.46989 -0.34783,1.87702 -0.77296,3.12694 -2.30667,6.7819 -1.79819,12.40647 1.61999,17.91951 1.48089,2.38848 1.58675,2.45724 3.2657,2.12145 0.84083,-0.16816 1.02179,-0.37627 1.18265,-1.36 1.11582,-6.82394 4.90642,-12.77911 10.50561,-16.50468 5.19865,-3.45907 7.64139,-4.09707 8.94937,-2.33741 1.10309,1.48401 0.50981,2.38986 -2.67584,4.08555 -3.64832,1.94196 -5.28696,3.11316 -7.21532,5.15713 -2.55933,2.71275 -3.89562,5.40873 -4.7375,9.55796 l -0.42203,2.08 1.07104,0.73213 1.07103,0.73213 2.63913,-1.60379 c 5.19475,-3.15682 10.21243,-4.30946 15.62369,-3.589 3.53415,0.47054 8.62251,2.05235 9.41347,2.92635 1.20498,1.3315 0.25403,3.84218 -1.45527,3.84218 -0.32249,0 -1.92654,-0.45006 -3.56455,-1.00014 -3.84384,-1.29085 -8.59029,-1.60046 -11.77821,-0.7683 -2.18305,0.56986 -5.61604,2.22886 -7.1369,3.44893 -0.80397,0.64496 -0.87514,0.85532 -0.68697,2.03028 l 0.20992,1.31078 2.05318,0.37831 c 7.9465,1.4642 14.2956,6.5754 18.06475,14.54266 1.07605,2.27454 1.18972,3.72869 0.35082,4.48788 -0.59514,0.5386 -1.82922,0.68817 -2.75303,0.33367 -0.28082,-0.10776 -1.22531,-1.58376 -2.09887,-3.28 -3.35238,-6.5095 -7.2897,-9.76269 -13.64152,-11.27124 -1.5115,-0.35898 -2.76964,-0.60773 -2.79586,-0.55276 -0.0262,0.055 -0.38221,0.57699 -0.79107,1.16007 l -0.74338,1.06013 1.28755,1.97987 c 2.96531,4.5597 4.01769,8.06563 4.00428,13.33986 -0.009,3.71364 -0.801,7.69064 -2.17911,10.94846 -0.79954,1.8901 -2.75611,2.47922 -4.02379,1.21154 z m -4.25366,-27.68183 c 4.92697,-1.46315 6.08095,-8.01403 1.9609,-11.13161 -3.02418,-2.28836 -7.2364,-1.55425 -9.24376,1.61102 -0.77956,1.22924 -0.94256,1.82432 -0.93822,3.42507 0.008,3.06491 1.42948,5.06545 4.33324,6.09987 1.61858,0.57659 1.93278,0.57624 3.88784,-0.004 z m -37.572,-15.23246 c -1.884,-0.54477 -2.01434,-1.04552 -2.01434,-7.73882 v -6.03071 l -2.60002,-4.62874 c -2.16092,-3.84703 -2.95804,-4.95488 -4.72,-6.55998 -3.45659,-3.14885 -5.48047,-3.815 -7.110082,-2.34022 -0.521911,0.47232 -0.515767,0.60723 0.112377,2.46727 0.365463,1.08219 1.672155,3.55564 2.903755,5.49656 1.87503,2.95489 2.2634,3.80478 2.38756,5.22473 0.12687,1.45098 0.0412,1.80979 -0.59349,2.48538 -0.87798,0.93457 -2.8075,1.58172 -3.89912,1.30774 -1.514433,-0.3801 -2.540788,-1.62465 -8.043284,-9.75323 l -5.563645,-8.21892 0.772048,-7.09867 0.772048,-7.09867 -4.009072,-5.59535 C 82.124083,97.606643 80.32,94.934198 80.32,94.745315 c 0,-0.254211 12.81368,-22.741321 13.291098,-23.324947 0.138931,-0.169837 7.464912,8.533088 17.592972,20.899632 5.33326,6.512 10.17813,12.36926 10.76638,13.01613 0.89277,0.98174 2.73562,1.90266 11.14955,5.57169 5.544,2.41756 10.13243,4.43672 10.1965,4.48703 0.30156,0.2368 -1.40181,2.4342 -2.2115,2.85291 -1.47268,0.76155 -1.54406,0.74957 -9.73863,-1.63354 l -1.59363,-0.46346 1.75142,1.84462 c 0.96328,1.01454 2.79501,2.9264 4.07052,4.24857 l 2.31911,2.40396 -0.45824,2.83072 c -0.25203,1.5569 -0.54271,2.9152 -0.64597,3.01846 -0.10325,0.10325 -1.15565,-0.75497 -2.33866,-1.90716 -1.70182,-1.65749 -5.96637,-5.21014 -9.2569,-7.7116 -0.21229,-0.16139 -0.54011,-0.19818 -0.72848,-0.0817 -0.20036,0.12383 0.87122,1.49412 2.58223,3.30203 1.60859,1.69971 3.03466,3.38085 3.16903,3.73588 0.13438,0.35503 0.17508,2.01351 0.0904,3.68551 -0.15068,2.97684 -0.12992,3.08967 0.99944,5.43097 1.36474,2.82927 1.40514,3.3063 0.36786,4.34357 -2.72361,2.72362 -6.25785,-1.82462 -6.75841,-8.69745 l -0.21288,-2.9229 -4.10162,-4.09252 c -3.94511,-3.93635 -4.10972,-4.06021 -4.31407,-3.24602 -0.14596,0.58152 0.31633,2.6116 1.47684,6.48546 l 1.68931,5.63896 -0.37983,7.04534 c -0.20891,3.87493 -0.45899,7.17342 -0.55574,7.32996 -0.21665,0.35054 -1.24579,0.32301 -2.6038,-0.0697 z m 30.18915,-14.25037 c -0.11192,-0.81657 -0.20349,-2.10982 -0.20349,-2.87391 0,-1.2544 0.0854,-1.40837 0.88,-1.58639 0.484,-0.10844 1.384,-0.32637 2,-0.48431 2.78431,-0.71388 4.85838,0.0267 5.21505,1.86207 0.23388,1.20352 -0.59186,2.83597 -1.6375,3.23726 -0.85089,0.32655 -5.19449,1.32994 -5.75722,1.32994 -0.16134,0 -0.38491,-0.6681 -0.49684,-1.48466 z"
         id="path122" />
    </g>
  </g>
</svg>
